<svg width="528" height="860" viewBox="0 0 528 860" fill="none" xmlns="http://www.w3.org/2000/svg">
<path d="M373.347 469.703C355.801 452.396 341.129 438.084 326.637 423.592C299.69 396.584 299.63 396.465 271.963 423.113C222.22 471.02 172.536 519.147 122.913 567.493C105.307 584.56 105.307 584.679 88.3596 568.032C61.1124 541.204 34.4642 514.136 6.67807 487.608C-1.76555 479.524 -1.88531 474.074 6.5583 465.75C61.9508 411.196 116.864 356.223 172.017 301.429C187.707 285.919 187.827 286.039 172.017 269.99C156.208 253.941 141.177 239.629 126.026 224.359C122.673 220.945 119.619 217.173 114.05 211.005C121.475 210.226 126.026 209.388 130.458 209.388C207.409 209.388 284.299 209.388 361.19 209.388C371.43 209.388 376.76 211.484 376.64 223.52C375.922 300.71 375.802 377.961 375.383 455.211C374.957 460.074 374.278 464.911 373.347 469.703Z" fill="url(#paint0_linear_221_43)"/>
<path d="M236.756 503.48C236.756 523.301 236.756 540.727 236.756 558.154C236.756 590.072 236.397 621.93 236.397 653.968C236.397 668.879 237.894 669.358 253.044 668.04C315.048 662.911 373.197 635.864 417.066 591.748C459.883 549.83 487.969 498.988 495.394 438.865C509.647 323.828 467.369 233.284 371.555 168.43C335.744 144.875 294.528 130.82 251.787 127.589C242.445 126.691 238.373 130.523 238.553 139.566C238.553 146.752 238.553 153.938 238.553 161.124C238.553 168.31 235.558 172.622 227.294 172.382C219.031 172.143 215.797 169.208 215.857 161.064C215.857 138.608 215.857 116.151 215.857 93.6949C216.269 89.7221 215.508 85.7154 213.666 82.171C211.825 78.6266 208.985 75.7 205.497 73.7536C197.926 69.1516 192.158 62.0976 189.151 53.7637C186.145 45.4298 186.08 36.318 188.969 27.9425C191.713 19.8431 196.952 12.821 203.934 7.88301C210.916 2.94507 219.282 0.345044 227.833 0.455819C236.923 0.186962 245.828 3.05103 253.057 8.56785C260.285 14.0847 265.398 21.9189 267.536 30.757C269.657 39.0588 269.056 47.8222 265.822 55.7568C262.588 63.6913 256.891 70.3778 249.571 74.8315C246.996 76.5681 243.583 77.8856 242.146 80.3408C240.708 82.796 238.493 88.8443 239.99 91.1798C242.811 94.3576 246.637 96.4714 250.829 97.1681C279.573 104.175 309.635 107.408 336.822 118.127C432.636 155.974 494.975 225.918 519.168 326.343C550.966 458.088 495.215 586.359 379.22 655.704C349.221 674.049 315.809 686.11 281.01 691.156C269.908 692.189 258.899 694.05 248.074 696.725C245.418 697.691 243.034 699.284 241.126 701.37C239.218 703.455 237.842 705.97 237.115 708.702C236.037 738.643 236.397 768.585 236.217 798.946C236.217 808.408 242.206 810.384 250.05 812.001C263.618 814.636 276.985 818.218 290.053 822.72C295.143 824.637 302.029 831.164 302.029 835.655C302.029 840.146 295.322 845.596 290.352 848.71C284.522 852.082 278.132 854.374 271.489 855.477C237.056 861.465 202.562 862.423 169.028 851.225C165.522 849.815 162.378 847.636 159.828 844.848C157.278 842.059 155.388 838.734 154.296 835.116C153.578 831.224 162.74 823.139 168.908 820.864C179.72 816.601 191.028 813.724 202.562 812.301C213.461 810.863 218.551 806.312 218.312 795.234C217.753 767.887 217.573 740.5 217.773 713.073C217.773 701.995 213.881 696.845 202.203 696.246C164.89 693.91 128.459 683.901 95.1908 666.843C91.1978 664.449 86.7471 662.918 82.1261 662.351C77.5051 661.784 72.8164 662.192 68.3629 663.549C63.2493 665.213 57.8443 665.789 52.4949 665.24C47.1455 664.692 41.97 663.03 37.3007 660.363C32.6314 657.696 28.5715 654.081 25.3818 649.752C22.1921 645.423 19.9431 640.474 18.7791 635.224C17.6416 629.825 17.6232 624.25 18.725 618.844C19.8268 613.437 22.0255 608.314 25.1851 603.791C28.3447 599.267 32.3982 595.44 37.0952 592.545C41.7922 589.649 47.0329 587.748 52.4937 586.958C57.6483 586.405 62.8615 586.889 67.8262 588.382C72.7909 589.874 77.4069 592.345 81.4023 595.648C85.3977 598.952 88.6918 603.021 91.0907 607.617C93.4895 612.213 94.9447 617.242 95.3705 622.409C95.9693 635.823 102.137 641.153 112.916 645.704C140.354 658.163 169.644 666.052 199.628 669.058C213.761 670.196 216.755 668.46 216.755 654.207C216.755 614.265 216.755 574.262 215.497 534.44C215.018 519.229 221.845 510.965 236.756 503.48Z" fill="url(#paint1_linear_221_43)"/>
<defs>
<linearGradient id="paint0_linear_221_43" x1="76.3229" y1="483.596" x2="362.148" y2="238.91" gradientUnits="userSpaceOnUse">
<stop stop-color="#540017"/>
<stop offset="0.58" stop-color="#AC0038"/>
<stop offset="1" stop-color="#AC0038"/>
</linearGradient>
<linearGradient id="paint1_linear_221_43" x1="64.2309" y1="520.846" x2="518.449" y2="289.395" gradientUnits="userSpaceOnUse">
<stop stop-color="#540017"/>
<stop offset="0.76" stop-color="#AC0038"/>
<stop offset="1" stop-color="#AC0038"/>
</linearGradient>
</defs>
</svg>
