<svg width="338" height="342" viewBox="0 0 338 342" fill="none" xmlns="http://www.w3.org/2000/svg">
<rect width="338" height="342" rx="86" fill="white"/>
<path d="M206.494 184.722C200.334 178.65 195.183 173.628 190.095 168.543C180.634 159.067 180.613 159.026 170.899 168.375C153.435 185.184 135.992 202.07 118.569 219.033C112.388 225.021 112.388 225.063 106.438 219.222C96.8719 209.809 87.516 200.312 77.7606 191.004C74.7961 188.168 74.7541 186.256 77.7185 183.335C97.1663 164.194 116.446 144.906 135.809 125.681C141.318 120.239 141.36 120.281 135.809 114.65C130.259 109.019 124.982 103.997 119.662 98.6395C118.485 97.4417 117.413 96.1182 115.458 93.9541C118.065 93.6807 119.662 93.3867 121.218 93.3867C148.235 93.3867 175.23 93.3867 202.226 93.3867C205.821 93.3867 207.693 94.1221 207.65 98.3451C207.398 125.428 207.356 152.533 207.209 179.637C207.059 181.344 206.821 183.041 206.494 184.722Z" fill="url(#paint0_linear_6140_11)"/>
<path d="M159.214 196.601C159.214 203.599 159.214 209.751 159.214 215.904C159.214 227.173 159.088 238.42 159.088 249.731C159.088 254.996 159.614 255.165 164.934 254.7C186.706 252.889 207.125 243.34 222.53 227.764C237.565 212.965 247.427 195.015 250.034 173.788C255.039 133.174 240.193 101.207 206.548 78.3101C193.974 69.9939 179.501 65.0318 164.492 63.8911C161.212 63.574 159.782 64.9269 159.845 68.1196C159.845 70.6566 159.845 73.1937 159.845 75.7307C159.845 78.2678 158.793 79.7902 155.892 79.7054C152.99 79.621 151.854 78.5848 151.876 75.7095C151.876 67.7814 151.876 59.8528 151.876 51.9246C152.02 50.522 151.753 49.1074 151.106 47.856C150.46 46.6047 149.462 45.5714 148.238 44.8842C145.579 43.2595 143.554 40.769 142.498 37.8267C141.442 34.8844 141.419 31.6674 142.434 28.7104C143.397 25.8509 145.237 23.3717 147.689 21.6283C150.14 19.885 153.078 18.967 156.081 19.0061C159.273 18.9112 162.4 19.9224 164.938 21.8701C167.476 23.8179 169.272 26.5838 170.022 29.7041C170.767 32.6351 170.556 35.729 169.421 38.5304C168.285 41.3317 166.284 43.6924 163.714 45.2648C162.81 45.8779 161.611 46.343 161.107 47.2099C160.602 48.0767 159.824 50.2121 160.35 51.0366C161.34 52.1586 162.684 52.9048 164.156 53.1508C174.249 55.6246 184.805 56.7661 194.352 60.5505C227.997 73.9125 249.887 98.6065 258.382 134.062C269.548 180.575 249.971 225.862 209.24 250.344C198.706 256.821 186.973 261.079 174.754 262.861C170.855 263.226 166.99 263.883 163.188 264.827C162.256 265.168 161.419 265.73 160.749 266.467C160.079 267.203 159.595 268.091 159.34 269.056C158.962 279.626 159.088 290.198 159.025 300.917C159.025 304.257 161.128 304.955 163.882 305.526C168.647 306.456 173.34 307.721 177.929 309.31C179.717 309.987 182.135 312.291 182.135 313.877C182.135 315.462 179.779 317.387 178.034 318.486C175.987 319.677 173.743 320.486 171.411 320.875C159.319 322.989 147.207 323.327 135.432 319.374C134.201 318.876 133.097 318.107 132.201 317.123C131.306 316.138 130.642 314.964 130.259 313.687C130.006 312.312 133.224 309.458 135.389 308.655C139.186 307.15 143.157 306.134 147.207 305.632C151.034 305.124 152.822 303.517 152.738 299.606C152.541 289.951 152.478 280.282 152.548 270.599C152.548 266.688 151.182 264.869 147.081 264.658C133.979 263.833 121.186 260.299 109.504 254.277C108.102 253.432 106.539 252.891 104.916 252.691C103.294 252.491 101.647 252.635 100.083 253.114C98.2877 253.702 96.3898 253.905 94.5113 253.711C92.6329 253.518 90.8155 252.931 89.1759 251.989C87.5363 251.048 86.1107 249.771 84.9906 248.243C83.8706 246.715 83.0809 244.967 82.6721 243.114C82.2727 241.208 82.2662 239.239 82.6531 237.331C83.04 235.422 83.8121 233.613 84.9216 232.016C86.0311 230.419 87.4544 229.068 89.1038 228.046C90.7531 227.023 92.5934 226.352 94.5109 226.073C96.3209 225.878 98.1515 226.049 99.8949 226.576C101.638 227.103 103.259 227.975 104.662 229.141C106.065 230.308 107.222 231.744 108.064 233.367C108.906 234.99 109.417 236.765 109.567 238.589C109.777 243.325 111.943 245.207 115.728 246.814C125.363 251.213 135.648 253.998 146.177 255.059C151.14 255.461 152.191 254.848 152.191 249.816C152.191 235.714 152.191 221.591 151.749 207.532C151.581 202.161 153.978 199.244 159.214 196.601Z" fill="url(#paint1_linear_6140_11)"/>
<defs>
<linearGradient id="paint0_linear_6140_11" x1="102.212" y1="189.597" x2="202.508" y2="103.682" gradientUnits="userSpaceOnUse">
<stop stop-color="#540017"/>
<stop offset="0.58" stop-color="#AC0038"/>
<stop offset="1" stop-color="#AC0038"/>
</linearGradient>
<linearGradient id="paint1_linear_6140_11" x1="98.6324" y1="202.732" x2="258.485" y2="121.718" gradientUnits="userSpaceOnUse">
<stop stop-color="#540017"/>
<stop offset="0.76" stop-color="#AC0038"/>
<stop offset="1" stop-color="#AC0038"/>
</linearGradient>
</defs>
</svg>
