<svg id="Layer_1" data-name="Layer 1" xmlns="http://www.w3.org/2000/svg" xmlns:xlink="http://www.w3.org/1999/xlink" viewBox="0 0 465.7 563.23"><defs><style>.cls-1{fill:none;}.cls-2{clip-path:url(#clip-path);}.cls-3{fill:#a64697;}.cls-4{fill:#a74797;}.cls-5{fill:#a84896;}.cls-6{fill:#a84996;}.cls-7{fill:#a94996;}.cls-8{fill:#a94a95;}.cls-9{fill:#aa4a95;}.cls-10{fill:#aa4b95;}.cls-11{fill:#ab4b95;}.cls-12{fill:#ab4c95;}.cls-13{fill:#ab4c94;}.cls-14{fill:#ac4d94;}.cls-15{fill:#ad4e94;}.cls-16{fill:#ad4e93;}.cls-17{fill:#ad4f93;}.cls-18{fill:#ae4f93;}.cls-19{fill:#ae5093;}.cls-20{fill:#af5092;}.cls-21{fill:#af5192;}.cls-22{fill:#b05192;}.cls-23{fill:#b05292;}.cls-24{fill:#b05291;}.cls-25{fill:#b15391;}.cls-26{fill:#b25491;}.cls-27{fill:#b25490;}.cls-28{fill:#b25590;}.cls-29{fill:#b35590;}.cls-30{fill:#b35690;}.cls-31{fill:#b45690;}.cls-32{fill:#b4578f;}.cls-33{fill:#b5588f;}.cls-34{fill:#b5598e;}.cls-35{fill:#b6598e;}.cls-36{fill:#b65a8e;}.cls-37{fill:#b75a8e;}.cls-38{fill:#b75b8d;}.cls-39{fill:#b85c8d;}.cls-40{fill:#b85d8d;}.cls-41{fill:#b95d8c;}.cls-42{fill:#b95e8c;}.cls-43{fill:#ba5e8c;}.cls-44{fill:#ba5f8c;}.cls-45{fill:#ba5f8b;}.cls-46{fill:#bb608b;}.cls-47{fill:#bc618a;}.cls-48{fill:#bd628a;}.cls-49{fill:#bd6389;}.cls-50{fill:#be6389;}.cls-51{fill:#be6489;}.cls-52{fill:#bf6488;}.cls-53{fill:#bf6588;}.cls-54{fill:#c06688;}.cls-55{fill:#c06687;}.cls-56{fill:#c16787;}.cls-57{fill:#c16887;}.cls-58{fill:#c26886;}.cls-59{fill:#c36986;}.cls-60{fill:#c36985;}.cls-61{fill:#c36a85;}.cls-62{fill:#c46a85;}.cls-63{fill:#c46b85;}.cls-64{fill:#c56b84;}.cls-65{fill:#c56c84;}.cls-66{fill:#c66c83;}.cls-67{fill:#c66d83;}.cls-68{fill:#c76e82;}.cls-69{fill:#c86f82;}.cls-70{fill:#c86f81;}.cls-71{fill:#c87081;}.cls-72{fill:#c97081;}.cls-73{fill:#c97080;}.cls-74{fill:#ca7180;}.cls-75{fill:#ca727f;}.cls-76{fill:#cb727f;}.cls-77{fill:#cb737f;}.cls-78{fill:#cc737e;}.cls-79{fill:#cc747e;}.cls-80{fill:#cd747d;}.cls-81{fill:#cd757d;}.cls-82{fill:#ce767c;}.cls-83{fill:#cf777c;}.cls-84{fill:#cf777b;}.cls-85{fill:#d0787a;}.cls-86{fill:#d1797a;}.cls-87{fill:#d17979;}.cls-88{fill:#d17a79;}.cls-89{fill:#d27a79;}.cls-90{fill:#d27a78;}.cls-91{fill:#d37b78;}.cls-92{fill:#d37c77;}.cls-93{fill:#d47c77;}.cls-94{fill:#d47d76;}.cls-95{fill:#d57d76;}.cls-96{fill:#d57e75;}.cls-97{fill:#d67e75;}.cls-98{fill:#d67f74;}.cls-99{fill:#d77f74;}.cls-100{fill:#d78074;}.cls-101{fill:#d88073;}.cls-102{fill:#d88173;}.cls-103{fill:#d98172;}.cls-104{fill:#d98272;}.cls-105{fill:#da8271;}.cls-106{fill:#da8371;}.cls-107{fill:#db8371;}.cls-108{fill:#db8370;}.cls-109{fill:#db8470;}.cls-110{fill:#dc846f;}.cls-111{fill:#dc856f;}.cls-112{fill:#dd856f;}.cls-113{fill:#dd866e;}.cls-114{fill:#de876d;}.cls-115{fill:#df876c;}.cls-116{fill:#df886c;}.cls-117{fill:#e0886b;}.cls-118{fill:#e0896b;}.cls-119{fill:#e18a6a;}.cls-120{fill:#e28a69;}.cls-121{fill:#e28b69;}.cls-122{fill:#e38b68;}.cls-123{fill:#e38c68;}.cls-124{fill:#e38c67;}.cls-125{fill:#e48d67;}.cls-126{fill:#e48d66;}.cls-127{fill:#e58e66;}.cls-128{fill:#e58e65;}.cls-129{fill:#e68f64;}.cls-130{fill:#e79063;}.cls-131{fill:#e89162;}.cls-132{fill:#e89161;}.cls-133{fill:#e99261;}.cls-134{fill:#e99260;}.cls-135{fill:#ea9360;}.cls-136{fill:#ea935f;}.cls-137{fill:#eb945e;}.cls-138{fill:#eb955d;}.cls-139{fill:#ec955d;}.cls-140{fill:#ec955c;}.cls-141{fill:#ed965b;}.cls-142{fill:#ee975a;}.cls-143{fill:#ee9759;}.cls-144{fill:#ef9859;}.cls-145{fill:#ef9858;}.cls-146{fill:#f09957;}.cls-147{fill:#f09a56;}.cls-148{fill:#f19a55;}.cls-149{fill:#f19b55;}.cls-150{fill:#f29b54;}.cls-151{fill:#f39c53;}.cls-152{fill:#f39c52;}.cls-153{fill:#f49d52;}.cls-154{fill:#f49d51;}.cls-155{fill:#f59d50;}.cls-156{fill:#f59e4f;}.cls-157{fill:#f69f4e;}.cls-158{fill:#f79f4e;}.cls-159{fill:#f7a04d;}.cls-160{fill:#f8a04c;}.cls-161{fill:#f9a14b;}</style><clipPath id="clip-path"><path class="cls-1" d="M95.1,176c0-14.35-11-23.92-27.55-23.92H30.81c-16.53,0-27.54-9.57-27.54-23.92V26.06c0-14.36,11-23.93,27.54-23.93H67.55c16.53,0,27.55,9.57,27.55,23.93V152h91.83v79.74h91.84V152H370.6v-126c0-14.36,11-23.93,27.55-23.93h36.74c16.53,0,27.55,9.57,27.55,23.93V128.12c0,14.35-11,23.92-27.55,23.92H398.15c-16.53,0-27.55,9.57-27.55,23.92v16.75c0,23.92-17.45,39.07-45,39.07-28.47,0-46.83,15.95-46.83,39.87v20.73c0,23.92,18.36,39.07,46.83,39.07,27.55,0,45,15.15,45,39.08v16.74c0,14.35,11,23.92,27.55,23.92h36.74c16.53,0,27.55,9.57,27.55,23.92V537.18c0,14.35-11,23.92-27.55,23.92H398.15c-16.53,0-27.55-9.57-27.55-23.92v-126H278.77V331.45H186.93v79.74H95.1v126c0,14.35-11,23.92-27.55,23.92H30.81c-16.53,0-27.54-9.57-27.54-23.92V435.11c0-14.35,11-23.92,27.54-23.92H67.55c16.53,0,27.55-9.57,27.55-23.92V370.53c0-23.93,18.37-39.08,46.83-39.08,27.56,0,45-15.15,45-39.07V271.65c0-23.92-17.44-39.87-45-39.87-28.46,0-46.83-15.15-46.83-39.07Z"/></clipPath></defs><g class="cls-2"><rect class="cls-3" x="3.27" y="2.13" width="459.17"/><rect class="cls-3" x="3.27" y="2.13" width="459.17" height="2.82"/><rect class="cls-4" x="3.27" y="4.96" width="459.17" height="2.82"/><rect class="cls-4" x="3.27" y="7.78" width="459.17" height="2.82"/><rect class="cls-5" x="3.27" y="10.6" width="459.17" height="2.82"/><rect class="cls-5" x="3.27" y="13.43" width="459.17" height="2.82"/><rect class="cls-6" x="3.27" y="16.25" width="459.17" height="2.82"/><rect class="cls-7" x="3.27" y="19.07" width="459.17" height="2.82"/><rect class="cls-8" x="3.27" y="21.89" width="459.17" height="2.82"/><rect class="cls-9" x="3.27" y="24.72" width="459.17" height="2.82"/><rect class="cls-10" x="3.27" y="27.54" width="459.17" height="2.82"/><rect class="cls-11" x="3.27" y="30.36" width="459.17" height="2.82"/><rect class="cls-12" x="3.27" y="33.19" width="459.17" height="2.82"/><rect class="cls-13" x="3.27" y="36.01" width="459.17" height="2.82"/><rect class="cls-14" x="3.27" y="38.83" width="459.17" height="2.82"/><rect class="cls-14" x="3.27" y="41.66" width="459.17" height="2.82"/><rect class="cls-15" x="3.27" y="44.48" width="459.17" height="2.82"/><rect class="cls-16" x="3.27" y="47.3" width="459.17" height="2.82"/><rect class="cls-17" x="3.27" y="50.13" width="459.17" height="2.82"/><rect class="cls-18" x="3.27" y="52.95" width="459.17" height="2.82"/><rect class="cls-19" x="3.27" y="55.77" width="459.17" height="2.82"/><rect class="cls-20" x="3.27" y="58.59" width="459.17" height="2.82"/><rect class="cls-21" x="3.27" y="61.42" width="459.17" height="2.82"/><rect class="cls-21" x="3.27" y="64.24" width="459.17" height="2.82"/><rect class="cls-22" x="3.27" y="67.06" width="459.17" height="2.82"/><rect class="cls-23" x="3.27" y="69.89" width="459.17" height="2.82"/><rect class="cls-24" x="3.27" y="72.71" width="459.17" height="2.82"/><rect class="cls-25" x="3.27" y="75.53" width="459.17" height="2.82"/><rect class="cls-25" x="3.27" y="78.36" width="459.17" height="2.82"/><rect class="cls-26" x="3.27" y="81.18" width="459.17" height="2.82"/><rect class="cls-27" x="3.27" y="84" width="459.17" height="2.82"/><rect class="cls-28" x="3.27" y="86.83" width="459.17" height="2.82"/><rect class="cls-29" x="3.27" y="89.65" width="459.17" height="2.82"/><rect class="cls-30" x="3.27" y="92.47" width="459.17" height="2.82"/><rect class="cls-31" x="3.27" y="95.29" width="459.17" height="2.82"/><rect class="cls-32" x="3.27" y="98.12" width="459.17" height="2.82"/><rect class="cls-32" x="3.27" y="100.94" width="459.17" height="2.82"/><rect class="cls-33" x="3.27" y="103.76" width="459.17" height="2.82"/><rect class="cls-33" x="3.27" y="106.59" width="459.17" height="2.82"/><rect class="cls-34" x="3.27" y="109.41" width="459.17" height="2.82"/><rect class="cls-35" x="3.27" y="112.23" width="459.17" height="2.82"/><rect class="cls-36" x="3.27" y="115.06" width="459.17" height="2.82"/><rect class="cls-37" x="3.27" y="117.88" width="459.17" height="2.82"/><rect class="cls-38" x="3.27" y="120.7" width="459.17" height="2.82"/><rect class="cls-38" x="3.27" y="123.53" width="459.17" height="2.82"/><rect class="cls-39" x="3.27" y="126.35" width="459.17" height="2.82"/><rect class="cls-39" x="3.27" y="129.17" width="459.17" height="2.82"/><rect class="cls-40" x="3.27" y="131.99" width="459.17" height="2.82"/><rect class="cls-41" x="3.27" y="134.82" width="459.17" height="2.82"/><rect class="cls-42" x="3.27" y="137.64" width="459.17" height="2.82"/><rect class="cls-43" x="3.27" y="140.46" width="459.17" height="2.82"/><rect class="cls-44" x="3.27" y="143.29" width="459.17" height="2.82"/><rect class="cls-45" x="3.27" y="146.11" width="459.17" height="2.82"/><rect class="cls-46" x="3.27" y="148.93" width="459.17" height="2.82"/><rect class="cls-46" x="3.27" y="151.76" width="459.17" height="2.82"/><rect class="cls-46" x="3.27" y="154.58" width="459.17" height="2.82"/><rect class="cls-47" x="3.27" y="157.4" width="459.17" height="2.82"/><rect class="cls-47" x="3.27" y="160.22" width="459.17" height="2.82"/><rect class="cls-48" x="3.27" y="163.05" width="459.17" height="2.82"/><rect class="cls-48" x="3.27" y="165.87" width="459.17" height="2.82"/><rect class="cls-49" x="3.27" y="168.69" width="459.17" height="2.82"/><rect class="cls-50" x="3.27" y="171.52" width="459.17" height="2.82"/><rect class="cls-51" x="3.27" y="174.34" width="459.17" height="2.82"/><rect class="cls-52" x="3.27" y="177.16" width="459.17" height="2.82"/><rect class="cls-53" x="3.27" y="179.99" width="459.17" height="2.82"/><rect class="cls-53" x="3.27" y="182.81" width="459.17" height="2.82"/><rect class="cls-54" x="3.27" y="185.63" width="459.17" height="2.82"/><rect class="cls-55" x="3.27" y="188.46" width="459.17" height="2.82"/><rect class="cls-56" x="3.27" y="191.28" width="459.17" height="2.82"/><rect class="cls-56" x="3.27" y="194.1" width="459.17" height="2.82"/><rect class="cls-57" x="3.27" y="196.92" width="459.17" height="2.82"/><rect class="cls-58" x="3.27" y="199.75" width="459.17" height="2.82"/><rect class="cls-58" x="3.27" y="202.57" width="459.17" height="2.82"/><rect class="cls-59" x="3.27" y="205.39" width="459.17" height="2.82"/><rect class="cls-60" x="3.27" y="208.22" width="459.17" height="2.82"/><rect class="cls-61" x="3.27" y="211.04" width="459.17" height="2.82"/><rect class="cls-62" x="3.27" y="213.86" width="459.17" height="2.82"/><rect class="cls-63" x="3.27" y="216.69" width="459.17" height="2.82"/><rect class="cls-64" x="3.27" y="219.51" width="459.17" height="2.82"/><rect class="cls-65" x="3.27" y="222.33" width="459.17" height="2.82"/><rect class="cls-65" x="3.27" y="225.16" width="459.17" height="2.82"/><rect class="cls-66" x="3.27" y="227.98" width="459.17" height="2.82"/><rect class="cls-67" x="3.27" y="230.8" width="459.17" height="2.82"/><rect class="cls-67" x="3.27" y="233.62" width="459.17" height="2.82"/><rect class="cls-68" x="3.27" y="236.45" width="459.17" height="2.82"/><rect class="cls-68" x="3.27" y="239.27" width="459.17" height="2.82"/><rect class="cls-69" x="3.27" y="242.09" width="459.17" height="2.82"/><rect class="cls-70" x="3.27" y="244.92" width="459.17" height="2.82"/><rect class="cls-71" x="3.27" y="247.74" width="459.17" height="2.82"/><rect class="cls-72" x="3.27" y="250.56" width="459.17" height="2.82"/><rect class="cls-73" x="3.27" y="253.39" width="459.17" height="2.82"/><rect class="cls-74" x="3.27" y="256.21" width="459.17" height="2.82"/><rect class="cls-74" x="3.27" y="259.03" width="459.17" height="2.82"/><rect class="cls-75" x="3.27" y="261.86" width="459.17" height="2.82"/><rect class="cls-76" x="3.27" y="264.68" width="459.17" height="2.82"/><rect class="cls-77" x="3.27" y="267.5" width="459.17" height="2.82"/><rect class="cls-78" x="3.27" y="270.32" width="459.17" height="2.82"/><rect class="cls-79" x="3.27" y="273.15" width="459.17" height="2.82"/><rect class="cls-79" x="3.27" y="275.97" width="459.17" height="2.82"/><rect class="cls-80" x="3.27" y="278.79" width="459.17" height="2.82"/><rect class="cls-81" x="3.27" y="281.62" width="459.17" height="2.82"/><rect class="cls-81" x="3.27" y="284.44" width="459.17" height="2.82"/><rect class="cls-82" x="3.27" y="287.26" width="459.17" height="2.82"/><rect class="cls-82" x="3.27" y="290.09" width="459.17" height="2.82"/><rect class="cls-83" x="3.27" y="292.91" width="459.17" height="2.82"/><rect class="cls-84" x="3.27" y="295.73" width="459.17" height="2.82"/><rect class="cls-84" x="3.27" y="298.56" width="459.17" height="2.82"/><rect class="cls-85" x="3.27" y="301.38" width="459.17" height="2.82"/><rect class="cls-85" x="3.27" y="304.2" width="459.17" height="2.82"/><rect class="cls-86" x="3.27" y="307.02" width="459.17" height="2.82"/><rect class="cls-87" x="3.27" y="309.85" width="459.17" height="2.82"/><rect class="cls-88" x="3.27" y="312.67" width="459.17" height="2.82"/><rect class="cls-89" x="3.27" y="315.49" width="459.17" height="2.82"/><rect class="cls-90" x="3.27" y="318.32" width="459.17" height="2.82"/><rect class="cls-91" x="3.27" y="321.14" width="459.17" height="2.82"/><rect class="cls-91" x="3.27" y="323.96" width="459.17" height="2.82"/><rect class="cls-92" x="3.27" y="326.79" width="459.17" height="2.82"/><rect class="cls-93" x="3.27" y="329.61" width="459.17" height="2.82"/><rect class="cls-94" x="3.27" y="332.43" width="459.17" height="2.82"/><rect class="cls-95" x="3.27" y="335.26" width="459.17" height="2.82"/><rect class="cls-95" x="3.27" y="338.08" width="459.17" height="2.82"/><rect class="cls-96" x="3.27" y="340.9" width="459.17" height="2.82"/><rect class="cls-97" x="3.27" y="343.72" width="459.17" height="2.82"/><rect class="cls-98" x="3.27" y="346.55" width="459.17" height="2.82"/><rect class="cls-99" x="3.27" y="349.37" width="459.17" height="2.82"/><rect class="cls-100" x="3.27" y="352.19" width="459.17" height="2.82"/><rect class="cls-101" x="3.27" y="355.02" width="459.17" height="2.82"/><rect class="cls-101" x="3.27" y="357.84" width="459.17" height="2.82"/><rect class="cls-102" x="3.27" y="360.66" width="459.17" height="2.82"/><rect class="cls-103" x="3.27" y="363.49" width="459.17" height="2.82"/><rect class="cls-104" x="3.27" y="366.31" width="459.17" height="2.82"/><rect class="cls-105" x="3.27" y="369.13" width="459.17" height="2.82"/><rect class="cls-106" x="3.27" y="371.96" width="459.17" height="2.82"/><rect class="cls-107" x="3.27" y="374.78" width="459.17" height="2.82"/><rect class="cls-108" x="3.27" y="377.6" width="459.17" height="2.82"/><rect class="cls-109" x="3.27" y="380.42" width="459.17" height="2.82"/><rect class="cls-110" x="3.27" y="383.25" width="459.17" height="2.82"/><rect class="cls-111" x="3.27" y="386.07" width="459.17" height="2.82"/><rect class="cls-112" x="3.27" y="388.89" width="459.17" height="2.82"/><rect class="cls-113" x="3.27" y="391.72" width="459.17" height="2.82"/><rect class="cls-113" x="3.27" y="394.54" width="459.17" height="2.82"/><rect class="cls-114" x="3.27" y="397.36" width="459.17" height="2.82"/><rect class="cls-114" x="3.27" y="400.19" width="459.17" height="2.82"/><rect class="cls-115" x="3.27" y="403.01" width="459.17" height="2.82"/><rect class="cls-116" x="3.27" y="405.83" width="459.17" height="2.82"/><rect class="cls-117" x="3.27" y="408.66" width="459.17" height="2.82"/><rect class="cls-118" x="3.27" y="411.48" width="459.17" height="2.82"/><rect class="cls-118" x="3.27" y="414.3" width="459.17" height="2.82"/><rect class="cls-119" x="3.27" y="417.12" width="459.17" height="2.82"/><rect class="cls-119" x="3.27" y="419.95" width="459.17" height="2.82"/><rect class="cls-120" x="3.27" y="422.77" width="459.17" height="2.82"/><rect class="cls-121" x="3.27" y="425.59" width="459.17" height="2.82"/><rect class="cls-122" x="3.27" y="428.42" width="459.17" height="2.82"/><rect class="cls-123" x="3.27" y="431.24" width="459.17" height="2.82"/><rect class="cls-124" x="3.27" y="434.06" width="459.17" height="2.82"/><rect class="cls-125" x="3.27" y="436.89" width="459.17" height="2.82"/><rect class="cls-126" x="3.27" y="439.71" width="459.17" height="2.82"/><rect class="cls-127" x="3.27" y="442.53" width="459.17" height="2.82"/><rect class="cls-128" x="3.27" y="445.36" width="459.17" height="2.82"/><rect class="cls-128" x="3.27" y="448.18" width="459.17" height="2.82"/><rect class="cls-129" x="3.27" y="451" width="459.17" height="2.82"/><rect class="cls-129" x="3.27" y="453.82" width="459.17" height="2.82"/><rect class="cls-130" x="3.27" y="456.65" width="459.17" height="2.82"/><rect class="cls-130" x="3.27" y="459.47" width="459.17" height="2.82"/><rect class="cls-131" x="3.27" y="462.29" width="459.17" height="2.82"/><rect class="cls-131" x="3.27" y="465.12" width="459.17" height="2.82"/><rect class="cls-132" x="3.27" y="467.94" width="459.17" height="2.82"/><rect class="cls-133" x="3.27" y="470.76" width="459.17" height="2.82"/><rect class="cls-134" x="3.27" y="473.59" width="459.17" height="2.82"/><rect class="cls-135" x="3.27" y="476.41" width="459.17" height="2.82"/><rect class="cls-136" x="3.27" y="479.23" width="459.17" height="2.82"/><rect class="cls-137" x="3.27" y="482.06" width="459.17" height="2.82"/><rect class="cls-137" x="3.27" y="484.88" width="459.17" height="2.82"/><rect class="cls-138" x="3.27" y="487.7" width="459.17" height="2.82"/><rect class="cls-139" x="3.27" y="490.52" width="459.17" height="2.82"/><rect class="cls-140" x="3.27" y="493.35" width="459.17" height="2.82"/><rect class="cls-141" x="3.27" y="496.17" width="459.17" height="2.82"/><rect class="cls-141" x="3.27" y="498.99" width="459.17" height="2.82"/><rect class="cls-142" x="3.27" y="501.82" width="459.17" height="2.82"/><rect class="cls-143" x="3.27" y="504.64" width="459.17" height="2.82"/><rect class="cls-144" x="3.27" y="507.46" width="459.17" height="2.82"/><rect class="cls-145" x="3.27" y="510.29" width="459.17" height="2.82"/><rect class="cls-146" x="3.27" y="513.11" width="459.17" height="2.82"/><rect class="cls-146" x="3.27" y="515.93" width="459.17" height="2.82"/><rect class="cls-147" x="3.27" y="518.76" width="459.17" height="2.82"/><rect class="cls-148" x="3.27" y="521.58" width="459.17" height="2.82"/><rect class="cls-149" x="3.27" y="524.4" width="459.17" height="2.82"/><rect class="cls-150" x="3.27" y="527.22" width="459.17" height="2.82"/><rect class="cls-151" x="3.27" y="530.05" width="459.17" height="2.82"/><rect class="cls-152" x="3.27" y="532.87" width="459.17" height="2.82"/><rect class="cls-153" x="3.27" y="535.69" width="459.17" height="2.82"/><rect class="cls-154" x="3.27" y="538.52" width="459.17" height="2.82"/><rect class="cls-155" x="3.27" y="541.34" width="459.17" height="2.82"/><rect class="cls-156" x="3.27" y="544.16" width="459.17" height="2.82"/><rect class="cls-157" x="3.27" y="546.99" width="459.17" height="2.82"/><rect class="cls-158" x="3.27" y="549.81" width="459.17" height="2.82"/><rect class="cls-159" x="3.27" y="552.63" width="459.17" height="2.82"/><rect class="cls-160" x="3.27" y="555.46" width="459.17" height="2.82"/><rect class="cls-161" x="3.27" y="558.28" width="459.17" height="2.82"/></g></svg>