<svg width="223" height="53" viewBox="0 0 223 53" fill="none" xmlns="http://www.w3.org/2000/svg">
<g clip-path="url(#clip0_376_2)">
<path d="M21.2908 25.9911H16.2961L4.99463 9.22363V25.9911H0V1.52051H4.99463L16.2961 18.344V1.52051H21.2908V25.9911Z" fill="#A70036"/>
<path d="M32.2557 5.51227V11.6299H40.6742V15.5248H32.2557V22.0044H41.7528V25.9911H27.2363V1.52051H41.7528V5.51227H32.2557Z" fill="#A70036"/>
<path d="M62.2941 25.9911L56.9185 17.7559L52.0454 25.9911H46.421L54.2281 13.6511L46.3145 1.52051H52.0454L57.4159 9.72501L62.2586 1.52051H67.8778L60.086 13.8247L68.02 25.9911H62.2941Z" fill="#A70036"/>
<path d="M90.2931 8.8868C89.7549 7.89375 88.9364 7.08087 87.9395 6.54936C86.8604 5.99543 85.66 5.71948 84.4472 5.7465C83.0775 5.72006 81.7252 6.05668 80.5278 6.72212C79.3877 7.37925 78.4599 8.34909 77.854 9.51689C77.1934 10.8121 76.8634 12.2505 76.8932 13.704C76.8573 15.1832 77.1947 16.6476 77.8743 17.9622C78.492 19.137 79.4389 20.1064 80.599 20.7519C81.8472 21.4236 83.2485 21.7598 84.6658 21.7275C86.3424 21.794 87.989 21.2687 89.3171 20.2437C90.5703 19.1874 91.4138 17.7257 91.7012 16.1125H83.1661V12.3777H96.6373V16.6359C96.2952 18.3495 95.5629 19.9613 94.4971 21.3464C93.3745 22.8124 91.929 24 90.2728 24.817C88.475 25.7092 86.4897 26.1587 84.4828 26.128C82.2152 26.1611 79.977 25.6135 77.981 24.5375C76.0771 23.5164 74.4935 21.988 73.4059 20.1218C72.2858 18.1708 71.7149 15.9531 71.7538 13.704C71.7162 11.4486 72.2869 9.22466 73.4059 7.26583C74.4913 5.39402 76.0751 3.86009 77.981 2.83486C80.121 1.72308 82.5102 1.17766 84.9208 1.2506C87.3315 1.32354 89.6833 2.0124 91.7521 3.25153C93.801 4.56449 95.3176 6.56127 96.0323 8.8868H90.2931Z" fill="#A70036"/>
<path d="M106.496 5.51227V11.6299H114.914V15.5248H106.496V22.0044H115.993V25.9911H101.477V1.52051H115.993V5.51227H106.496Z" fill="#A70036"/>
<path d="M142.953 25.9911H137.962L126.658 9.22363V25.9911H121.662V1.52051H126.658L137.962 18.344V1.52051H142.953V25.9911Z" fill="#A70036"/>
<path d="M154.131 24.6566C152.179 23.593 150.556 22.0115 149.438 20.0847C148.32 18.1578 147.751 15.9598 147.793 13.7304C147.76 11.5096 148.333 9.32197 149.451 7.40488C150.568 5.48779 152.187 3.91438 154.131 2.85527C156.106 1.79748 158.31 1.24414 160.548 1.24414C162.787 1.24414 164.991 1.79748 166.965 2.85527C168.861 3.9043 170.44 5.44725 171.536 7.32158C172.675 9.26701 173.261 11.4892 173.227 13.7457C173.267 16.0068 172.689 18.2355 171.557 20.1903C170.452 22.0703 168.86 23.6139 166.95 24.6566C164.978 25.7143 162.777 26.2677 160.541 26.2677C158.305 26.2677 156.103 25.7143 154.131 24.6566ZM164.492 20.8888C165.637 20.2159 166.564 19.2265 167.163 18.0387C167.826 16.7018 168.156 15.2234 168.123 13.7304C168.157 12.2438 167.828 10.7715 167.163 9.44257C166.565 8.26231 165.636 7.28262 164.492 6.62308C163.284 5.95359 161.921 5.61593 160.541 5.64417C159.154 5.61666 157.785 5.95416 156.569 6.62308C155.416 7.27596 154.481 8.25703 153.883 9.44257C153.214 10.7703 152.883 12.2432 152.918 13.7304C152.885 15.2239 153.216 16.7028 153.883 18.0387C154.481 19.2318 155.416 20.2227 156.569 20.8888C157.779 21.5785 159.15 21.9306 160.541 21.9085C161.925 21.9312 163.29 21.5789 164.492 20.8888Z" fill="#A70036"/>
<path d="M200.465 1.52051L191.335 25.9911H185.268L176.133 1.52051H181.487L188.337 20.9775L195.152 1.52051H200.465Z" fill="#A70036"/>
<path d="M204.811 6.85474C204.8 5.63556 205.138 4.43883 205.787 3.40708C206.513 2.31147 207.541 1.45007 208.746 0.927C211.848 -0.309 215.304 -0.309 218.406 0.927C219.613 1.44704 220.641 2.3091 221.365 3.40708C222.018 4.43733 222.359 5.63474 222.347 6.85474C222.371 8.05124 222.037 9.2276 221.386 10.2311C220.749 11.1921 219.873 11.9697 218.843 12.4871C220.074 12.9908 221.133 13.8396 221.894 14.9315C222.646 16.0583 223.032 17.3908 222.997 18.7459C223.027 20.2244 222.591 21.6748 221.752 22.8912C220.903 24.0904 219.738 25.0286 218.386 25.6005C216.865 26.2492 215.224 26.5701 213.571 26.5426C211.924 26.5711 210.29 26.25 208.777 25.6005C207.432 25.0241 206.272 24.0865 205.426 22.8912C204.596 21.6714 204.167 20.2219 204.201 18.7459C204.157 17.3974 204.536 16.0691 205.283 14.9468C206.031 13.8245 207.11 12.9645 208.37 12.4871C205.994 11.2751 204.807 9.39763 204.811 6.85474ZM210.282 15.6343C209.857 15.9843 209.522 16.4296 209.302 16.934C209.082 17.4383 208.984 17.9876 209.016 18.5371C208.999 19.0731 209.1 19.6061 209.313 20.0982C209.526 20.5904 209.844 21.0293 210.246 21.3838C211.177 22.1603 212.367 22.5552 213.576 22.4889C214.784 22.5553 215.971 22.1542 216.891 21.3685C217.285 21.0121 217.598 20.5746 217.808 20.0859C218.017 19.5972 218.119 19.0689 218.106 18.5371C218.135 17.9917 218.037 17.4472 217.82 16.9462C217.603 16.4452 217.273 16.0014 216.856 15.6496C215.918 14.9309 214.755 14.5698 213.576 14.6311C212.395 14.5715 211.23 14.9262 210.282 15.6343ZM216.449 4.88392C215.643 4.22012 214.618 3.88385 213.576 3.9418C212.548 3.88869 211.537 4.22499 210.744 4.88392C210.384 5.22917 210.103 5.64911 209.921 6.11442C209.739 6.57973 209.661 7.07918 209.692 7.57788C209.673 8.05291 209.76 8.52616 209.949 8.96254C210.137 9.39892 210.421 9.78724 210.78 10.0987C211.584 10.7116 212.566 11.0435 213.576 11.0435C214.586 11.0435 215.569 10.7116 216.372 10.0987C216.736 9.78481 217.024 9.39281 217.215 8.95193C217.406 8.51104 217.495 8.03265 217.476 7.55242C217.508 7.05962 217.433 6.56564 217.256 6.10482C217.078 5.64399 216.803 5.22738 216.449 4.88392Z" fill="#A70036"/>
<path d="M7.05116 46.384C7.05973 46.8609 6.96087 47.3335 6.76193 47.7667C6.57735 48.1607 6.30683 48.5082 5.97034 48.7834C5.6186 49.072 5.21333 49.288 4.77789 49.4189C4.29928 49.5644 3.80142 49.6364 3.30127 49.6324C2.96059 49.6347 2.62056 49.6024 2.28641 49.5358C1.99997 49.4823 1.71829 49.4058 1.44408 49.307C1.22864 49.2314 1.01987 49.1379 0.819942 49.0274C0.692979 48.9624 0.576634 48.8784 0.474894 48.7784C0.404478 48.706 0.353806 48.6167 0.327739 48.5191C0.293472 48.3812 0.278106 48.2392 0.282069 48.0972C0.275769 47.9939 0.275769 47.8903 0.282069 47.7871C0.289808 47.7173 0.306875 47.6489 0.332811 47.5837C0.35025 47.5403 0.380304 47.5031 0.419076 47.477C0.456313 47.4563 0.498301 47.4458 0.540858 47.4465C0.663228 47.4662 0.778524 47.5169 0.875759 47.5939C1.05438 47.7117 1.24088 47.817 1.43393 47.9091C1.69908 48.0374 1.97395 48.1445 2.25597 48.2293C2.61723 48.3325 2.99162 48.3822 3.36724 48.3768C3.66302 48.3807 3.95757 48.3378 4.24001 48.2497C4.48719 48.173 4.71782 48.0506 4.91997 47.8887C5.10806 47.7318 5.25741 47.5335 5.35635 47.3092C5.46171 47.0655 5.51362 46.802 5.50858 46.5365C5.51677 46.2538 5.44273 45.9747 5.29547 45.7333C5.15037 45.503 4.96055 45.3042 4.73729 45.1487C4.48609 44.971 4.21946 44.8162 3.94063 44.6862L3.02218 44.2642C2.71265 44.1168 2.40819 43.9592 2.11389 43.7813C1.82463 43.6073 1.55863 43.3972 1.3223 43.156C1.09406 42.9129 0.908738 42.6327 0.774275 42.3274C0.623719 41.9619 0.551127 41.5688 0.561156 41.1735C0.552575 40.7484 0.637461 40.3267 0.809795 39.9382C0.971892 39.5859 1.21126 39.2749 1.51004 39.0282C1.82023 38.7823 2.17528 38.5993 2.55535 38.4894C2.98748 38.356 3.43773 38.2908 3.88989 38.2962C4.13639 38.2966 4.38244 38.317 4.62566 38.3572C4.86264 38.3992 5.09657 38.457 5.32591 38.5301C5.5261 38.595 5.72116 38.6749 5.90945 38.769C6.0302 38.8247 6.14286 38.8965 6.24435 38.9825C6.28658 39.0187 6.32258 39.0616 6.35091 39.1096C6.36955 39.1484 6.38319 39.1893 6.39151 39.2316C6.40393 39.2885 6.41241 39.3463 6.41688 39.4044C6.41688 39.4705 6.41688 39.562 6.41688 39.6688C6.41688 39.7755 6.41688 39.8619 6.41688 39.9433C6.40833 40.0103 6.39476 40.0765 6.37629 40.1415C6.36573 40.1885 6.34091 40.2312 6.30525 40.2635C6.27488 40.2873 6.23724 40.2999 6.19869 40.2991C6.09291 40.2833 5.9922 40.2433 5.90438 40.1822C5.76737 40.1008 5.605 40.0093 5.39695 39.9128C5.17752 39.8004 4.9482 39.7085 4.71192 39.6383C4.42258 39.5494 4.12148 39.5048 3.81885 39.5061C3.5466 39.5005 3.27542 39.5418 3.01711 39.6281C2.80873 39.6984 2.61701 39.8108 2.45386 39.9585C2.30428 40.0986 2.19107 40.2731 2.12404 40.4669C2.04817 40.6576 2.01025 40.8614 2.0124 41.0667C2.00531 41.3461 2.07935 41.6216 2.22552 41.8597C2.38281 42.0798 2.57884 42.2693 2.80399 42.4189C3.05682 42.5984 3.32513 42.7549 3.60573 42.8866L4.52925 43.3187C4.83878 43.461 5.14323 43.6237 5.44769 43.7965C5.74053 43.9637 6.01009 44.1688 6.24943 44.4066C6.48908 44.6496 6.68328 44.9336 6.82282 45.2453C6.97781 45.6047 7.0556 45.9926 7.05116 46.384Z" fill="white"/>
<path d="M10.638 38.9962C10.653 39.1147 10.6436 39.2348 10.6104 39.3497C10.5772 39.4646 10.5209 39.572 10.4446 39.6657C10.2302 39.7834 9.98805 39.8453 9.74167 39.8453C9.4953 39.8453 9.25311 39.7834 9.03871 39.6657C8.91373 39.4653 8.84766 39.2355 8.84766 39.0013C8.84766 38.7671 8.91373 38.5373 9.03871 38.3369C9.25311 38.2191 9.4953 38.1572 9.74167 38.1572C9.98805 38.1572 10.2302 38.2191 10.4446 38.3369C10.5954 38.5237 10.6648 38.7604 10.638 38.9962ZM10.4708 49.2407C10.4724 49.2817 10.4615 49.3223 10.4394 49.3573C10.4073 49.3918 10.3681 49.4195 10.3244 49.4385C10.2539 49.4648 10.1801 49.4819 10.1049 49.4892C9.98479 49.4954 9.86441 49.4954 9.74429 49.4892C9.62765 49.4953 9.51076 49.4953 9.39412 49.4892C9.31736 49.4812 9.24189 49.4642 9.16937 49.4385C9.12406 49.4223 9.08425 49.3942 9.05439 49.3573C9.0323 49.3223 9.02139 49.2817 9.02303 49.2407V41.5827C9.02295 41.5434 9.03378 41.5049 9.05439 41.4711C9.08211 41.4311 9.12245 41.4008 9.16937 41.3849C9.24189 41.3592 9.31736 41.3422 9.39412 41.3342C9.51076 41.3281 9.62765 41.3281 9.74429 41.3342C9.86441 41.328 9.98479 41.328 10.1049 41.3342C10.1801 41.3415 10.2539 41.3586 10.3244 41.3849C10.3696 41.4038 10.4092 41.4335 10.4394 41.4711C10.46 41.5049 10.4709 41.5434 10.4708 41.5827V49.2407Z" fill="white"/>
<path d="M24.4707 49.2414C24.473 49.2832 24.4604 49.3245 24.4349 49.3579C24.4066 49.3935 24.3696 49.4213 24.3275 49.439C24.2585 49.4653 24.1862 49.4823 24.1126 49.4896C23.9984 49.4956 23.884 49.4956 23.7699 49.4896C23.6523 49.4958 23.5345 49.4958 23.4169 49.4896C23.3417 49.4816 23.2679 49.4646 23.1969 49.439C23.152 49.4212 23.1117 49.3935 23.0792 49.3579C23.0576 49.3229 23.0469 49.2824 23.0485 49.2414V44.5802C23.0506 44.2841 23.0214 43.9887 22.9616 43.6986C22.9145 43.4536 22.8207 43.2198 22.6853 43.0095C22.5631 42.8171 22.392 42.6599 22.1891 42.5535C21.9765 42.4483 21.7412 42.3961 21.5036 42.4016C21.1432 42.4145 20.7974 42.5465 20.5214 42.7765C20.1188 43.1009 19.755 43.4698 19.4369 43.8759V49.2414C19.4367 49.2828 19.4242 49.3233 19.4011 49.3579C19.3686 49.3935 19.3284 49.4212 19.2834 49.439C19.2126 49.4652 19.1387 49.4822 19.0634 49.4896C18.9493 49.4959 18.8349 49.4959 18.7207 49.4896C18.6082 49.4955 18.4955 49.4955 18.3831 49.4896C18.3063 49.4816 18.2307 49.4645 18.158 49.439C18.1149 49.4229 18.0776 49.3947 18.0505 49.3579C18.0289 49.3229 18.0182 49.2824 18.0198 49.2414V44.5802C18.0238 44.2835 17.9912 43.9874 17.9226 43.6986C17.8694 43.4546 17.7742 43.2216 17.6413 43.0095C17.5212 42.8252 17.358 42.6722 17.1655 42.5637C16.9532 42.4578 16.7177 42.4056 16.48 42.4117C16.1183 42.4262 15.7715 42.5579 15.4927 42.7866C15.0907 43.1099 14.7284 43.4789 14.4133 43.886V49.2414C14.4156 49.2832 14.4029 49.3245 14.3775 49.3579C14.3471 49.3935 14.3085 49.4213 14.2649 49.439C14.1975 49.4648 14.127 49.4818 14.0552 49.4896C13.9376 49.4958 13.8198 49.4958 13.7022 49.4896C13.5881 49.4959 13.4736 49.4959 13.3595 49.4896C13.2842 49.4822 13.2103 49.4652 13.1395 49.439C13.0951 49.4228 13.0562 49.3947 13.0269 49.3579C13.0053 49.3229 12.9946 49.2824 12.9963 49.2414V41.5909C12.9957 41.5506 13.0044 41.5108 13.0218 41.4744C13.0463 41.436 13.082 41.406 13.1241 41.3882C13.1874 41.3606 13.2548 41.3435 13.3237 41.3376H13.6408H13.9529C14.0202 41.3427 14.0861 41.3598 14.1473 41.3882C14.1863 41.4087 14.2196 41.4383 14.2445 41.4744C14.2661 41.5094 14.2768 41.5499 14.2752 41.5909V42.6042C14.6323 42.1811 15.0596 41.8213 15.5387 41.5402C15.9144 41.3219 16.3412 41.2048 16.7767 41.2008C17.0687 41.1986 17.3596 41.2361 17.6413 41.3123C17.8804 41.3821 18.1079 41.4863 18.3166 41.6213C18.5104 41.7536 18.6828 41.9142 18.8281 42.0976C18.9682 42.2885 19.0834 42.4961 19.1709 42.7157C19.3989 42.4653 19.6433 42.2301 19.9024 42.0114C20.1119 41.8358 20.3361 41.6782 20.5726 41.5402C20.7715 41.4302 20.9826 41.3435 21.2018 41.2819C21.4022 41.2294 21.6084 41.2022 21.8157 41.2008C22.2489 41.186 22.6792 41.2764 23.069 41.4642C23.3938 41.6255 23.6745 41.8618 23.8875 42.1533C24.1041 42.4575 24.2555 42.8023 24.3326 43.1666C24.4245 43.5689 24.4691 43.9803 24.4656 44.3927L24.4707 49.2414Z" fill="white"/>
<path d="M34.0092 45.2964C34.0196 45.9056 33.951 46.5135 33.8051 47.1045C33.6817 47.5917 33.4688 48.051 33.1777 48.4581C32.9101 48.8219 32.5599 49.1147 32.1569 49.3117C31.7195 49.52 31.2408 49.6237 30.7576 49.6148C30.5498 49.6154 30.3426 49.5917 30.1402 49.544C29.948 49.4992 29.7623 49.4296 29.5875 49.337C29.3937 49.2348 29.2116 49.1111 29.0447 48.9683C28.8654 48.8235 28.6762 48.6551 28.477 48.4632V52.2765C28.4777 52.3189 28.4674 52.3607 28.4472 52.3977C28.4179 52.4335 28.3802 52.4613 28.3376 52.4785C28.2712 52.5072 28.2005 52.5242 28.1285 52.529C28.0141 52.5381 27.8993 52.5381 27.7849 52.529C27.6739 52.538 27.5623 52.538 27.4513 52.529C27.3778 52.5235 27.3055 52.5065 27.2372 52.4785C27.193 52.4643 27.1545 52.436 27.1276 52.3977C27.1074 52.3607 27.0971 52.3189 27.0977 52.2765V41.5992C27.0968 41.5574 27.1053 41.5159 27.1226 41.478C27.1453 41.4399 27.1806 41.4112 27.2222 41.3972C27.284 41.3702 27.3495 41.3532 27.4164 41.3467H27.7002H27.9891C28.0544 41.3531 28.1183 41.3702 28.1783 41.3972C28.2213 41.411 28.2583 41.4395 28.2828 41.478C28.3043 41.5146 28.3147 41.5567 28.3127 41.5992V42.6094C28.5202 42.39 28.7396 42.1826 28.97 41.9881C29.171 41.8244 29.386 41.679 29.6124 41.5538C29.8207 41.4407 30.0413 41.3526 30.2696 41.2911C30.5037 41.2292 30.7448 41.1987 30.9867 41.2002C31.4708 41.1875 31.9503 41.2986 32.3809 41.5235C32.757 41.7425 33.0748 42.0511 33.3071 42.4225C33.5589 42.8193 33.7378 43.259 33.8349 43.7205C33.9527 44.2372 34.0112 44.766 34.0092 45.2964ZM32.5801 45.4529C32.581 45.074 32.551 44.6955 32.4905 44.3216C32.4399 43.9842 32.3374 43.657 32.1867 43.3518C32.0546 43.0813 31.8577 42.8486 31.6141 42.675C31.3468 42.498 31.0318 42.4098 30.7128 42.4225C30.5338 42.4214 30.3557 42.4486 30.185 42.5033C29.9963 42.561 29.8169 42.6461 29.6522 42.7558C29.4509 42.889 29.2625 43.0412 29.0895 43.2104C28.868 43.4312 28.6601 43.6657 28.4671 43.9125V46.9429C28.782 47.3471 29.1469 47.7087 29.5526 48.0187C29.863 48.2558 30.2396 48.3867 30.6282 48.3925C30.9459 48.4016 31.2587 48.3117 31.5245 48.1349C31.7768 47.9626 31.9837 47.7302 32.127 47.4581C32.2873 47.1606 32.4031 46.8406 32.4706 46.5085C32.5417 46.1613 32.5784 45.8076 32.5801 45.4529Z" fill="white"/>
<path d="M37.6052 49.2408C37.605 49.2823 37.5928 49.3229 37.5702 49.3575C37.5396 49.392 37.5022 49.4197 37.4605 49.4387C37.3931 49.4651 37.3226 49.4821 37.2509 49.4895C37.1362 49.4957 37.0212 49.4957 36.9065 49.4895C36.7951 49.4955 36.6835 49.4955 36.5721 49.4895C36.4989 49.4815 36.4268 49.4644 36.3575 49.4387C36.3164 49.4211 36.2804 49.3931 36.2528 49.3575C36.2317 49.3225 36.2212 49.2819 36.2228 49.2408V37.8629C36.2221 37.8219 36.2324 37.7816 36.2528 37.7462C36.2771 37.7062 36.314 37.6758 36.3575 37.6599C36.4261 37.6318 36.4985 37.6147 36.5721 37.6092C36.6835 37.6032 36.7951 37.6032 36.9065 37.6092C37.0212 37.6029 37.1362 37.6029 37.2509 37.6092C37.323 37.614 37.3939 37.6311 37.4605 37.6599C37.5046 37.677 37.5428 37.707 37.5702 37.7462C37.5921 37.7812 37.6042 37.8215 37.6052 37.8629V49.2408Z" fill="white"/>
<path d="M41.7463 38.9962C41.7601 39.1147 41.7515 39.2348 41.7209 39.3497C41.6903 39.4646 41.6383 39.572 41.5679 39.6657C41.37 39.7834 41.1463 39.8453 40.9189 39.8453C40.6915 39.8453 40.468 39.7834 40.2701 39.6657C40.1547 39.4653 40.0938 39.2355 40.0938 39.0013C40.0938 38.7671 40.1547 38.5373 40.2701 38.3369C40.468 38.2191 40.6915 38.1572 40.9189 38.1572C41.1463 38.1572 41.37 38.2191 41.5679 38.3369C41.7071 38.5237 41.771 38.7604 41.7463 38.9962ZM41.5919 49.2407C41.5934 49.2817 41.5834 49.3223 41.563 49.3573C41.5333 49.3918 41.4973 49.4195 41.4569 49.4385C41.3918 49.4648 41.3236 49.4819 41.2542 49.4892C41.1433 49.4954 41.0322 49.4954 40.9213 49.4892C40.8136 49.4953 40.7058 49.4953 40.5982 49.4892C40.5273 49.4812 40.4577 49.4642 40.3907 49.4385C40.3496 49.4208 40.3131 49.393 40.2845 49.3573C40.2739 49.3193 40.2739 49.2788 40.2845 49.2407V41.5827C40.2751 41.5462 40.2751 41.5076 40.2845 41.4711C40.3114 41.4324 40.3483 41.4025 40.3907 41.3849C40.4577 41.3592 40.5273 41.3422 40.5982 41.3342C40.7058 41.3281 40.8136 41.3281 40.9213 41.3342C41.0322 41.328 41.1433 41.328 41.2542 41.3342C41.3236 41.3415 41.3918 41.3586 41.4569 41.3849C41.4986 41.4038 41.535 41.4335 41.563 41.4711C41.582 41.5049 41.592 41.5434 41.5919 41.5827V49.2407Z" fill="white"/>
<path d="M48.5222 38.3641C48.5286 38.4507 48.5286 38.5377 48.5222 38.6243C48.513 38.6777 48.501 38.7305 48.4861 38.7825C48.4757 38.8146 48.456 38.843 48.4295 38.8642C48.4008 38.8723 48.3705 38.8723 48.3419 38.8642C48.2885 38.8624 48.236 38.8503 48.1874 38.8285L47.971 38.7417C47.8699 38.7064 47.7666 38.6775 47.6619 38.655C47.5262 38.6286 47.388 38.6166 47.2498 38.6192C47.064 38.6125 46.8791 38.6474 46.7089 38.7213C46.5567 38.7891 46.4291 38.9012 46.3431 39.0428C46.2388 39.2161 46.1721 39.409 46.1474 39.6093C46.1024 39.8877 46.0817 40.1694 46.0855 40.4513V41.2882H47.8216C47.8633 41.2866 47.9045 41.2973 47.9401 41.3188C47.9768 41.3458 48.0067 41.3807 48.0276 41.4209C48.0564 41.4787 48.0756 41.5408 48.0843 41.6046C48.102 41.6954 48.1106 41.7877 48.1101 41.8802C48.119 42.0326 48.0908 42.1849 48.0276 42.3242C48.0101 42.3642 47.9813 42.3983 47.9448 42.4227C47.9084 42.4471 47.8656 42.4607 47.8216 42.462H46.0855V49.239C46.0879 49.2812 46.0751 49.3227 46.0495 49.3564C46.0179 49.3935 45.977 49.4216 45.931 49.4381C45.8615 49.4646 45.7887 49.4817 45.7146 49.4891C45.5997 49.4951 45.4844 49.4951 45.3695 49.4891C45.2528 49.4953 45.1359 49.4953 45.0192 49.4891C44.9452 49.4811 44.8725 49.464 44.8028 49.4381C44.7567 49.4216 44.7159 49.3935 44.6843 49.3564C44.661 49.3216 44.6485 49.2808 44.6483 49.239V42.5028H43.551C43.5067 42.5029 43.4633 42.4898 43.4266 42.4652C43.3899 42.4407 43.3614 42.4058 43.3449 42.365C43.2909 42.2234 43.2681 42.0721 43.278 41.921C43.2719 41.8293 43.2719 41.7372 43.278 41.6454C43.2852 41.5819 43.3026 41.5199 43.3295 41.4617C43.3469 41.4193 43.3776 41.3835 43.417 41.3597C43.4526 41.3381 43.4939 41.3274 43.5355 41.329H44.6328V40.5125C44.6247 40.0469 44.6767 39.5822 44.7874 39.1296C44.8664 38.7837 45.0251 38.4606 45.251 38.1855C45.4573 37.9389 45.7256 37.7505 46.0289 37.6394C46.5764 37.4586 47.1613 37.4182 47.7289 37.522C47.8797 37.5483 48.0279 37.5876 48.1719 37.6394C48.2465 37.6674 48.316 37.707 48.378 37.7568C48.4152 37.7952 48.4449 37.8402 48.4655 37.8895C48.4882 37.9522 48.5037 38.0173 48.5119 38.0834C48.521 38.1767 48.5244 38.2704 48.5222 38.3641Z" fill="white"/>
<path d="M53.1881 49.4334L52.1669 52.2464C52.1427 52.2993 52.1067 52.346 52.0615 52.3829C52.0164 52.4198 51.9633 52.4459 51.9064 52.4593C51.6984 52.5143 51.4833 52.5382 51.2682 52.5303C51.1492 52.537 51.0298 52.537 50.9108 52.5303C50.8359 52.5218 50.7641 52.4957 50.7014 52.4542C50.6778 52.4408 50.658 52.4216 50.6437 52.3986C50.6295 52.3756 50.6212 52.3494 50.6197 52.3224C50.6127 52.2507 50.6269 52.1785 50.6606 52.1146L51.7226 49.4537C51.6671 49.4276 51.6183 49.3895 51.5797 49.3422C51.5343 49.2969 51.5009 49.2412 51.4826 49.18L48.7305 41.8661C48.6946 41.7769 48.6722 41.683 48.6641 41.5873C48.6633 41.5572 48.6688 41.5272 48.6802 41.4993C48.6916 41.4714 48.7088 41.4461 48.7305 41.4251C48.7964 41.378 48.8742 41.3499 48.9552 41.344C49.0929 41.3345 49.2311 41.3345 49.3688 41.344H49.7721C49.8508 41.3497 49.9282 41.3668 50.0019 41.3947C50.0535 41.4104 50.0973 41.4447 50.1245 41.491C50.1555 41.5466 50.1828 41.6041 50.2062 41.6633L52.4068 47.8064L54.536 41.6329C54.5509 41.5501 54.5942 41.4748 54.6586 41.42C54.7267 41.384 54.8013 41.3616 54.8781 41.3542C55.0175 41.3442 55.1574 41.3442 55.2968 41.3542C55.4277 41.345 55.5591 41.345 55.69 41.3542C55.7723 41.3611 55.8515 41.389 55.9198 41.4352C55.9433 41.4552 55.9619 41.4801 55.9743 41.5082C55.9867 41.5363 55.9925 41.5668 55.9912 41.5974C55.9858 41.6838 55.9686 41.7691 55.9402 41.8509L53.1881 49.4334Z" fill="white"/>
<path d="M68.5685 39.0632C68.5743 39.1562 68.5743 39.2495 68.5685 39.3425C68.5596 39.4092 68.5409 39.4742 68.513 39.5354C68.4907 39.5786 68.4578 39.6153 68.4173 39.642C68.3808 39.6644 68.3391 39.6767 68.2964 39.6776H65.2183V49.233C65.2198 49.2764 65.2074 49.3191 65.1831 49.3549C65.1551 49.3948 65.1141 49.4236 65.0672 49.4361C64.9933 49.4598 64.9174 49.4768 64.8405 49.4869C64.7248 49.496 64.6086 49.496 64.4929 49.4869C64.3772 49.4957 64.261 49.4957 64.1453 49.4869C64.0684 49.4768 63.9925 49.4598 63.9186 49.4361C63.8704 49.4235 63.8278 49.3949 63.7977 49.3549C63.7755 49.3181 63.7633 49.276 63.7624 49.233V39.6776H60.6894C60.6452 39.676 60.602 39.6638 60.5634 39.642C60.5247 39.6162 60.4948 39.5789 60.4778 39.5354C60.45 39.4742 60.4313 39.4092 60.4224 39.3425C60.4139 39.2496 60.4139 39.1561 60.4224 39.0632C60.4139 38.9686 60.4139 38.8735 60.4224 38.7789C60.4314 38.7089 60.4501 38.6406 60.4778 38.5758C60.4948 38.5309 60.5246 38.492 60.5634 38.4641C60.6024 38.4439 60.6456 38.4334 60.6894 38.4336H68.2964C68.3387 38.433 68.3804 38.4435 68.4173 38.4641C68.4578 38.4928 68.4907 38.5312 68.513 38.5758C68.5408 38.6406 68.5594 38.7089 68.5685 38.7789C68.5742 38.8736 68.5742 38.9685 68.5685 39.0632Z" fill="white"/>
<path d="M73.4123 42.0898C73.4123 42.212 73.4123 42.3189 73.4123 42.4054C73.4067 42.4725 73.395 42.5389 73.3773 42.6039C73.3654 42.6462 73.343 42.6847 73.3124 42.7158C73.2984 42.7294 73.2819 42.74 73.2639 42.747C73.2459 42.7539 73.2267 42.7572 73.2074 42.7565C73.152 42.7534 73.0978 42.7395 73.0475 42.7158L72.8275 42.6395C72.7311 42.6043 72.6326 42.5754 72.5326 42.553C72.4262 42.5277 72.3171 42.5158 72.2078 42.5173C72.0669 42.5185 71.9276 42.5479 71.7979 42.6039C71.6432 42.6748 71.5 42.7692 71.373 42.8838C71.2009 43.0362 71.0451 43.2068 70.9082 43.3927C70.7169 43.648 70.5384 43.9129 70.3734 44.1866V49.2403C70.3732 49.2819 70.361 49.3226 70.3384 49.3573C70.3077 49.3919 70.2703 49.4197 70.2285 49.4387C70.161 49.4652 70.0904 49.4823 70.0185 49.4896C69.9036 49.4959 69.7885 49.4959 69.6736 49.4896C69.5621 49.4958 69.4503 49.4958 69.3388 49.4896C69.2654 49.4816 69.1932 49.4645 69.1238 49.4387C69.0818 49.4226 69.0453 49.3943 69.0189 49.3573C68.9977 49.3222 68.9873 49.2814 68.9889 49.2403V41.586C68.9858 41.5453 68.9945 41.5046 69.0139 41.469C69.0378 41.4304 69.0727 41.4002 69.1138 41.3824C69.1741 41.3552 69.2382 41.338 69.3038 41.3315H69.6137H69.9236C69.9878 41.3362 70.0506 41.3535 70.1085 41.3824C70.1479 41.4031 70.1821 41.4327 70.2085 41.469C70.2296 41.5041 70.24 41.5448 70.2384 41.586V42.7056C70.4111 42.4388 70.605 42.1869 70.8182 41.9524C70.9702 41.784 71.1376 41.6306 71.3181 41.4944C71.4701 41.3886 71.6393 41.3111 71.8179 41.2654C71.9811 41.2219 72.149 41.1997 72.3177 41.1992H72.5676L72.8575 41.245L73.1274 41.3214C73.1902 41.3397 73.2494 41.369 73.3024 41.4079C73.3287 41.4308 73.3507 41.4584 73.3674 41.4893C73.3795 41.5208 73.3895 41.5531 73.3973 41.586C73.4039 41.6452 73.4039 41.7049 73.3973 41.7641C73.4123 41.8557 73.4123 41.9575 73.4123 42.0898Z" fill="white"/>
<path d="M80.441 49.2675C80.4432 49.2963 80.4385 49.3252 80.4271 49.3517C80.4158 49.3781 80.3983 49.4014 80.376 49.4195C80.3208 49.4585 80.2576 49.4845 80.1911 49.4954C80.0763 49.5058 79.9608 49.5058 79.8461 49.4954C79.7296 49.5051 79.6126 49.5051 79.4961 49.4954C79.4273 49.4874 79.3618 49.4612 79.3061 49.4195C79.2874 49.3992 79.2729 49.3753 79.2634 49.3492C79.254 49.3231 79.2498 49.2953 79.2511 49.2675V48.5028C78.9364 48.8462 78.5618 49.1277 78.1462 49.3334C77.7442 49.531 77.3031 49.6332 76.8563 49.6322C76.4921 49.6377 76.1292 49.5848 75.7814 49.4752C75.4797 49.3791 75.1995 49.2242 74.9564 49.0194C74.7295 48.8194 74.5501 48.5701 74.4315 48.2901C74.2951 47.9709 74.2302 47.625 74.2415 47.2773C74.2307 46.8876 74.3203 46.5019 74.5015 46.158C74.6789 45.8345 74.9354 45.5624 75.2464 45.368C75.6139 45.1392 76.0184 44.9781 76.4413 44.892C76.9627 44.7836 77.494 44.731 78.0262 44.735H79.0661V44.1424C79.071 43.8792 79.039 43.6166 78.9711 43.3625C78.9191 43.1522 78.818 42.9577 78.6762 42.7953C78.5289 42.6384 78.3449 42.5217 78.1412 42.456C77.881 42.373 77.6091 42.3336 77.3363 42.3395C77.0251 42.3347 76.715 42.3774 76.4163 42.4661C76.1736 42.538 75.9363 42.6277 75.7064 42.7346C75.5014 42.8358 75.3314 42.927 75.2064 43.008C75.116 43.0729 75.0113 43.1147 74.9015 43.1296C74.861 43.1312 74.821 43.1206 74.7865 43.0992C74.749 43.0709 74.7183 43.0346 74.6965 42.9928C74.6681 42.9393 74.6494 42.8809 74.6415 42.8206C74.636 42.7431 74.636 42.6652 74.6415 42.5877C74.6386 42.4755 74.6487 42.3633 74.6715 42.2534C74.6936 42.1631 74.7424 42.0818 74.8114 42.0205C74.9294 41.9156 75.0605 41.8271 75.2014 41.7571C75.4077 41.6514 75.6217 41.5617 75.8414 41.4887C76.0976 41.3998 76.3599 41.3304 76.6263 41.2811C76.9118 41.2287 77.2012 41.2016 77.4913 41.2001C77.9596 41.191 78.4266 41.2542 78.8762 41.3874C79.2227 41.4935 79.5396 41.6809 79.8011 41.9344C80.0386 42.1885 80.2103 42.4982 80.3011 42.8358C80.4136 43.2411 80.4675 43.6607 80.461 44.0817L80.441 49.2675ZM79.0661 45.7732H77.8812C77.5455 45.7693 77.2103 45.8016 76.8813 45.8694C76.6342 45.9218 76.3986 46.0196 76.1863 46.158C76.0145 46.2738 75.875 46.4326 75.7814 46.6189C75.6899 46.8114 75.6454 47.0232 75.6514 47.2367C75.6428 47.4122 75.6713 47.5875 75.7351 47.7508C75.7989 47.9142 75.8965 48.0618 76.0214 48.1838C76.3134 48.4301 76.6869 48.555 77.0663 48.5332C77.4184 48.5345 77.7642 48.4382 78.0662 48.2547C78.4402 48.0221 78.7774 47.7336 79.0661 47.3988V45.7732Z" fill="white"/>
<path d="M89.1696 41.5744C89.1696 41.5744 89.1696 41.62 89.1696 41.6453C89.1716 41.6723 89.1716 41.6994 89.1696 41.7264C89.1696 41.7264 89.1696 41.7821 89.1696 41.8176C89.1696 41.853 89.1696 41.8885 89.1388 41.929L86.4999 49.1999C86.4815 49.2558 86.4518 49.3075 86.4128 49.3519C86.3652 49.396 86.307 49.4274 86.2437 49.4431C86.1504 49.4709 86.0541 49.4879 85.9568 49.4938H85.5315C85.3573 49.4938 85.2138 49.4938 85.1011 49.4938C85.0057 49.486 84.9113 49.469 84.8193 49.4431C84.7564 49.4237 84.6987 49.3909 84.6502 49.3468C84.6108 49.3056 84.5795 49.2575 84.5579 49.205L81.9242 41.9341C81.9242 41.8682 81.8832 41.8074 81.8729 41.7568C81.8598 41.7191 81.8512 41.6799 81.8473 41.6402C81.8452 41.62 81.8452 41.5996 81.8473 41.5794C81.8467 41.5369 81.8573 41.495 81.8781 41.4578C81.9076 41.4191 81.9489 41.3907 81.9959 41.3768C82.0656 41.3551 82.1381 41.3431 82.2111 41.3413C82.3221 41.3355 82.4332 41.3355 82.5442 41.3413H82.9439C83.0229 41.3464 83.1007 41.3635 83.1745 41.392C83.2205 41.4078 83.2612 41.4359 83.2923 41.473C83.3223 41.5143 83.3481 41.5584 83.3692 41.6048L85.552 47.9129L85.5879 48.0143V47.9129L87.7451 41.6048C87.7527 41.556 87.774 41.5104 87.8066 41.473C87.8397 41.4359 87.8821 41.4079 87.9296 41.392C88.0013 41.3628 88.0775 41.3457 88.155 41.3413H88.5291C88.6366 41.3355 88.7444 41.3355 88.8519 41.3413C88.9223 41.3407 88.9921 41.3545 89.0568 41.3818C89.0979 41.399 89.1334 41.427 89.1593 41.4629C89.173 41.4984 89.1765 41.537 89.1696 41.5744Z" fill="white"/>
<path d="M97.0502 45.0909C97.0583 45.177 97.0475 45.264 97.0186 45.3456C96.9897 45.4272 96.9434 45.5014 96.8828 45.5632C96.7765 45.6529 96.6416 45.7015 96.5026 45.7003H91.4327C91.4299 46.0883 91.4725 46.4752 91.5594 46.8533C91.6352 47.175 91.7825 47.4753 91.9904 47.732C92.1962 47.9825 92.4635 48.175 92.7661 48.2907C93.1399 48.4324 93.5377 48.4996 93.9372 48.4887C94.264 48.4924 94.5902 48.4618 94.9106 48.3973C95.1622 48.3511 95.4098 48.2849 95.6509 48.1992L96.1579 48.0011C96.2527 47.9519 96.3558 47.9209 96.462 47.9097C96.4998 47.9089 96.5369 47.9195 96.5685 47.9402C96.6015 47.9612 96.6278 47.9912 96.6446 48.0265C96.6644 48.0804 96.6764 48.1369 96.6801 48.1941C96.686 48.2804 96.686 48.3669 96.6801 48.4532C96.6801 48.5294 96.6801 48.5903 96.6801 48.6462C96.6832 48.6952 96.6832 48.7444 96.6801 48.7935C96.6704 48.832 96.6568 48.8695 96.6395 48.9052C96.6175 48.9414 96.592 48.9755 96.5634 49.0068C96.4761 49.0672 96.3826 49.1183 96.2846 49.1592C96.0916 49.2459 95.8914 49.3155 95.6863 49.3674C95.443 49.4334 95.1793 49.4944 94.8447 49.5502C94.5096 49.6058 94.1704 49.633 93.8307 49.6315C93.2685 49.6435 92.7086 49.554 92.178 49.3674C91.723 49.2027 91.3131 48.933 90.9815 48.5802C90.6417 48.2087 90.3919 47.7637 90.2514 47.2799C90.0754 46.6885 89.9917 46.0735 90.003 45.4565C89.9943 44.854 90.0816 44.2539 90.2615 43.6789C90.4103 43.1854 90.6607 42.7286 90.9967 42.338C91.3154 41.973 91.7122 41.6848 92.1577 41.4949C92.6394 41.2942 93.1569 41.1939 93.6787 41.2003C94.2004 41.1875 94.7189 41.2862 95.1996 41.4898C95.6015 41.6696 95.9582 41.9368 96.244 42.272C96.5201 42.6094 96.7237 43.0001 96.8423 43.4199C96.9724 43.8791 97.0373 44.3544 97.0349 44.8318L97.0502 45.0909ZM95.6357 44.6693C95.682 44.0479 95.5019 43.4308 95.1287 42.9323C94.9398 42.7181 94.7046 42.55 94.441 42.4408C94.1774 42.3317 93.8924 42.2843 93.6077 42.3025C93.2912 42.2963 92.9773 42.3623 92.69 42.4955C92.4377 42.6173 92.2132 42.7903 92.0309 43.0034C91.8491 43.2265 91.7098 43.4813 91.6203 43.7551C91.523 44.0453 91.4683 44.3481 91.458 44.6541L95.6357 44.6693Z" fill="white"/>
<path d="M100.648 49.2408C100.648 49.2823 100.636 49.3229 100.613 49.3575C100.584 49.3932 100.546 49.4211 100.503 49.4387C100.436 49.4651 100.366 49.4821 100.294 49.4895C100.179 49.4957 100.064 49.4957 99.9495 49.4895C99.8381 49.4955 99.7265 49.4955 99.6151 49.4895C99.5433 49.4821 99.4728 49.4651 99.4055 49.4387C99.3622 49.4225 99.3242 49.3944 99.2957 49.3575C99.2746 49.3225 99.2642 49.2819 99.2658 49.2408V37.8629C99.265 37.8219 99.2754 37.7816 99.2957 37.7462C99.321 37.705 99.3599 37.6744 99.4055 37.6599C99.4721 37.6311 99.5429 37.614 99.6151 37.6092C99.7265 37.6032 99.8381 37.6032 99.9495 37.6092C100.064 37.6029 100.179 37.6029 100.294 37.6092C100.366 37.614 100.437 37.6311 100.503 37.6599C100.548 37.6758 100.587 37.7061 100.613 37.7462C100.635 37.7812 100.647 37.8215 100.648 37.8629V49.2408Z" fill="white"/>
<path d="M105.071 48.221C105.074 48.3934 105.066 48.5659 105.046 48.7371C105.03 48.8801 105.003 49.0216 104.966 49.1602C104.923 49.2948 104.871 49.4259 104.81 49.5525C104.738 49.6948 104.657 49.8326 104.569 49.9653L103.415 51.7509C103.386 51.7891 103.352 51.8237 103.315 51.8541L103.185 51.9315C103.125 51.9537 103.062 51.9692 102.999 51.978C102.91 51.9842 102.822 51.9842 102.733 51.978C102.653 51.9841 102.572 51.9841 102.492 51.978C102.443 51.9742 102.395 51.9602 102.352 51.9367C102.327 51.9164 102.311 51.8867 102.307 51.8541C102.306 51.8108 102.316 51.768 102.337 51.7303L103.456 49.3512V48.2416C103.452 48.1161 103.467 47.9908 103.501 47.8701C103.527 47.7861 103.58 47.7136 103.651 47.6636C103.728 47.6139 103.813 47.5806 103.902 47.5656C104.026 47.5563 104.15 47.5563 104.273 47.5656C104.394 47.5564 104.514 47.5564 104.634 47.5656C104.724 47.5806 104.809 47.6139 104.885 47.6636C104.952 47.7157 105.001 47.7879 105.026 47.8701C105.058 47.9841 105.073 48.1024 105.071 48.221Z" fill="white"/>
<path d="M120.068 48.9405C120.109 49.0353 120.133 49.1362 120.14 49.239C120.143 49.2711 120.139 49.3036 120.129 49.3342C120.118 49.3648 120.101 49.3927 120.078 49.416C120.011 49.464 119.931 49.4905 119.848 49.4919C119.741 49.4919 119.603 49.4919 119.424 49.4919H119C118.918 49.4863 118.838 49.471 118.76 49.4464C118.712 49.4325 118.669 49.4042 118.637 49.3654C118.609 49.3258 118.585 49.2834 118.566 49.239L117.615 46.568H113.016L112.106 49.2036C112.091 49.2507 112.069 49.2951 112.04 49.3351C112.007 49.3763 111.965 49.4093 111.917 49.4312C111.842 49.4622 111.763 49.481 111.682 49.4868C111.585 49.4868 111.452 49.4868 111.293 49.4868C111.157 49.496 111.021 49.496 110.885 49.4868C110.803 49.4818 110.725 49.4537 110.66 49.4059C110.638 49.3833 110.621 49.3561 110.612 49.3263C110.602 49.2965 110.599 49.2649 110.604 49.2339C110.61 49.1295 110.634 49.0269 110.675 48.9304L114.396 38.727C114.418 38.6718 114.449 38.6206 114.488 38.5752C114.533 38.5303 114.589 38.4972 114.651 38.4791C114.74 38.456 114.83 38.4407 114.922 38.4336C115.034 38.4336 115.177 38.4336 115.351 38.4336C115.525 38.4336 115.683 38.4336 115.801 38.4336C115.901 38.4403 116 38.4555 116.097 38.4791C116.161 38.4981 116.219 38.5329 116.266 38.5803C116.309 38.6251 116.342 38.6786 116.363 38.7371L120.068 48.9405ZM115.29 39.931L113.373 45.4095H117.232L115.29 39.931Z" fill="white"/>
<path d="M133.137 49.2414C133.138 49.2824 133.128 49.3229 133.106 49.3579C133.075 49.3924 133.036 49.42 132.993 49.439C132.924 49.4653 132.852 49.4823 132.778 49.4897C132.664 49.4958 132.549 49.4958 132.435 49.4897C132.317 49.4959 132.199 49.4959 132.082 49.4897C132.006 49.4817 131.932 49.4647 131.861 49.439C131.818 49.4214 131.779 49.3935 131.749 49.3579C131.723 49.3245 131.71 49.2832 131.713 49.2414V44.5802C131.715 44.2841 131.686 43.9887 131.626 43.6986C131.578 43.4536 131.485 43.2198 131.349 43.0095C131.23 42.8228 131.064 42.6693 130.868 42.5637C130.655 42.4579 130.419 42.4056 130.181 42.4117C129.82 42.4246 129.474 42.5566 129.198 42.7866C128.794 43.111 128.43 43.4799 128.112 43.8861V49.2414C128.114 49.2832 128.101 49.3245 128.076 49.3579C128.044 49.3947 128.004 49.4227 127.958 49.439C127.889 49.4653 127.816 49.4823 127.743 49.4897C127.628 49.4957 127.514 49.4957 127.4 49.4897C127.285 49.4955 127.171 49.4955 127.056 49.4897C126.981 49.4823 126.907 49.4652 126.836 49.439C126.792 49.4228 126.753 49.3947 126.723 49.3579C126.702 49.3229 126.691 49.2824 126.693 49.2414V44.5802C126.697 44.2835 126.664 43.9874 126.595 43.6986C126.544 43.454 126.449 43.2205 126.314 43.0095C126.195 42.8241 126.031 42.6709 125.837 42.5637C125.626 42.4585 125.392 42.4063 125.156 42.4117C124.793 42.4247 124.446 42.5566 124.167 42.7866C123.762 43.1084 123.397 43.4775 123.081 43.8861V49.2414C123.084 49.2832 123.071 49.3245 123.045 49.3579C123.017 49.3935 122.98 49.4214 122.938 49.439C122.869 49.4653 122.796 49.4823 122.723 49.4897C122.605 49.4959 122.487 49.4959 122.369 49.4897C122.255 49.4958 122.14 49.4958 122.026 49.4897C121.951 49.4817 121.877 49.4647 121.806 49.439C121.761 49.4228 121.722 49.3947 121.693 49.3579C121.671 49.3229 121.661 49.2824 121.662 49.2414V41.5909C121.662 41.5506 121.67 41.5108 121.688 41.4744C121.714 41.4359 121.752 41.4059 121.795 41.3882C121.857 41.3605 121.923 41.3434 121.99 41.3376H122.308H122.62C122.688 41.3416 122.754 41.3588 122.815 41.3882C122.855 41.4073 122.889 41.4372 122.912 41.4744C122.934 41.5094 122.945 41.5499 122.943 41.5909V42.6042C123.302 42.1807 123.732 41.8208 124.213 41.5402C124.59 41.3223 125.017 41.2053 125.453 41.2008C125.745 41.1986 126.037 41.2361 126.319 41.3123C126.559 41.3801 126.787 41.4844 126.995 41.6213C127.19 41.7521 127.363 41.9129 127.507 42.0976C127.647 42.2885 127.763 42.4961 127.85 42.7157C128.076 42.4661 128.319 42.2324 128.578 42.0165C128.785 41.8382 129.008 41.6788 129.244 41.5402C129.441 41.4294 129.65 41.3427 129.869 41.2819C130.069 41.2303 130.276 41.2031 130.483 41.2008C130.917 41.186 131.348 41.2764 131.738 41.4642C132.064 41.6255 132.345 41.8618 132.558 42.1533C132.775 42.4575 132.926 42.8023 133.004 43.1666C133.096 43.5689 133.14 43.9803 133.137 44.3927V49.2414Z" fill="white"/>
<path d="M142.814 45.3051C142.822 45.9103 142.749 46.514 142.596 47.0997C142.474 47.5889 142.257 48.0493 141.956 48.4545C141.683 48.8186 141.327 49.1116 140.916 49.3088C140.47 49.5178 139.982 49.6216 139.49 49.6121C139.278 49.6128 139.067 49.5891 138.86 49.5414C138.664 49.4965 138.475 49.4268 138.297 49.3341C138.1 49.233 137.916 49.1091 137.749 48.9651C137.566 48.8185 137.373 48.6466 137.165 48.4595V52.2763C137.166 52.3187 137.155 52.3605 137.135 52.3976C137.105 52.4334 137.067 52.4613 137.023 52.4785C136.955 52.5071 136.883 52.5242 136.81 52.529C136.693 52.5381 136.576 52.5381 136.46 52.529C136.347 52.538 136.233 52.538 136.12 52.529C136.045 52.5235 135.971 52.5065 135.901 52.4785C135.857 52.4628 135.818 52.4347 135.79 52.3976C135.771 52.3601 135.762 52.3182 135.764 52.2763V41.6046C135.761 41.5626 135.77 41.5204 135.79 41.4833C135.8 41.4638 135.815 41.4465 135.832 41.4326C135.85 41.4188 135.87 41.4085 135.891 41.4024C135.952 41.3754 136.018 41.3583 136.084 41.3519H136.373H136.668C136.734 41.3583 136.8 41.3754 136.861 41.4024C136.905 41.4162 136.942 41.4448 136.967 41.4833C136.989 41.5199 137 41.5621 136.998 41.6046V42.6157C137.21 42.3973 137.434 42.1898 137.668 41.9939C137.872 41.8282 138.091 41.681 138.322 41.5541C138.535 41.441 138.759 41.3527 138.992 41.2912C139.231 41.2296 139.477 41.199 139.723 41.2002C140.217 41.1875 140.705 41.2987 141.144 41.5237C141.531 41.7367 141.86 42.0404 142.103 42.4084C142.36 42.8055 142.542 43.2457 142.641 43.7076C142.761 44.2316 142.819 44.7677 142.814 45.3051ZM141.357 45.4618C141.358 45.0825 141.328 44.7037 141.266 44.3294C141.214 43.9917 141.11 43.6642 140.956 43.3588C140.816 43.0856 140.608 42.8525 140.352 42.6814C140.08 42.5043 139.759 42.4159 139.434 42.4286C139.251 42.4278 139.07 42.4551 138.896 42.5095C138.704 42.5683 138.521 42.6534 138.353 42.7623C138.149 42.8969 137.957 43.0491 137.779 43.2172C137.554 43.4383 137.342 43.6729 137.145 43.9199V46.9531C137.467 47.3565 137.839 47.7182 138.251 48.0298C138.568 48.2672 138.952 48.3982 139.347 48.4039C139.671 48.4131 139.99 48.3231 140.261 48.1461C140.52 47.974 140.732 47.7414 140.88 47.4687C141.042 47.1707 141.158 46.8504 141.225 46.5183C141.311 46.1722 141.358 45.818 141.367 45.4618H141.357Z" fill="white"/>
<path d="M146.271 49.2407C146.273 49.2826 146.261 49.3239 146.236 49.3574C146.206 49.3931 146.169 49.4209 146.126 49.4386C146.059 49.4649 145.988 49.482 145.917 49.4893C145.804 49.4957 145.69 49.4957 145.577 49.4893C145.466 49.4956 145.354 49.4956 145.243 49.4893C145.17 49.4819 145.098 49.4649 145.029 49.4386C144.985 49.4224 144.947 49.3943 144.919 49.3574C144.898 49.3224 144.887 49.2817 144.889 49.2407V37.863C144.888 37.8221 144.898 37.7817 144.919 37.7463C144.944 37.7051 144.983 37.6745 145.029 37.66C145.097 37.6313 145.169 37.6142 145.243 37.6093C145.354 37.603 145.466 37.603 145.577 37.6093C145.69 37.6029 145.804 37.6029 145.917 37.6093C145.989 37.6141 146.06 37.6313 146.126 37.66C146.171 37.676 146.21 37.7062 146.236 37.7463C146.26 37.7802 146.272 37.8212 146.271 37.863V49.2407Z" fill="white"/>
<path d="M150.551 39.0041C150.579 39.243 150.51 39.483 150.358 39.673C150.143 39.7911 149.901 39.8532 149.654 39.8532C149.408 39.8532 149.165 39.7911 148.95 39.673C148.826 39.4728 148.76 39.2432 148.76 39.0091C148.76 38.7751 148.826 38.5455 148.95 38.3453C149.156 38.203 149.408 38.1382 149.659 38.1628C149.905 38.1372 150.152 38.2003 150.353 38.3402C150.429 38.4328 150.486 38.539 150.52 38.653C150.554 38.7669 150.565 38.8862 150.551 39.0041ZM150.384 49.2409C150.384 49.2824 150.371 49.3229 150.348 49.3574C150.316 49.3919 150.277 49.4195 150.233 49.4385C150.163 49.4648 150.089 49.4819 150.014 49.4892C149.894 49.4954 149.774 49.4954 149.654 49.4892C149.538 49.4952 149.421 49.4952 149.305 49.4892C149.228 49.4812 149.153 49.4642 149.081 49.4385C149.038 49.4209 149 49.393 148.971 49.3574C148.949 49.3224 148.938 49.2819 148.94 49.2409V41.5886C148.94 41.5494 148.951 41.5109 148.971 41.4771C148.998 41.4384 149.036 41.4084 149.081 41.391C149.153 41.3653 149.228 41.3483 149.305 41.3403C149.421 41.3343 149.538 41.3343 149.654 41.3403C149.774 41.3341 149.894 41.3341 150.014 41.3403C150.089 41.3476 150.163 41.3647 150.233 41.391C150.278 41.4099 150.317 41.4395 150.348 41.4771C150.37 41.5105 150.382 41.5489 150.384 41.5886V49.2409Z" fill="white"/>
<path d="M157.186 38.3633C157.195 38.4497 157.195 38.5369 157.186 38.6233C157.179 38.6771 157.167 38.73 157.15 38.7814C157.14 38.8134 157.12 38.8418 157.094 38.863C157.065 38.871 157.035 38.871 157.006 38.863C156.955 38.8617 156.904 38.8495 156.858 38.8273L156.637 38.7406C156.537 38.7054 156.434 38.6764 156.329 38.6539C156.196 38.6278 156.06 38.6158 155.924 38.6182C155.738 38.6111 155.552 38.646 155.381 38.7202C155.23 38.7868 155.104 38.8993 155.021 39.0414C154.918 39.2151 154.85 39.4074 154.821 39.6074C154.777 39.8855 154.756 40.167 154.76 40.4487V41.2848H156.488C156.53 41.2832 156.571 41.2939 156.606 41.3154C156.643 41.3423 156.673 41.3772 156.694 41.4174C156.722 41.4758 156.742 41.5375 156.755 41.601C156.761 41.6926 156.761 41.7846 156.755 41.8763C156.765 42.0281 156.739 42.1802 156.678 42.3199C156.66 42.3602 156.63 42.3946 156.593 42.4189C156.556 42.4433 156.512 42.4567 156.468 42.4575H154.739V49.2286C154.742 49.2707 154.729 49.3122 154.703 49.3459C154.673 49.3817 154.634 49.4097 154.591 49.4274C154.519 49.4533 154.445 49.4704 154.37 49.4784C154.141 49.4988 153.911 49.4988 153.683 49.4784C153.607 49.4704 153.533 49.4533 153.462 49.4274C153.417 49.4096 153.377 49.3816 153.344 49.3459C153.323 49.3107 153.312 49.2698 153.313 49.2286V42.4983H152.221C152.176 42.4987 152.132 42.4859 152.095 42.4614C152.057 42.4368 152.028 42.4018 152.011 42.3607C151.957 42.2192 151.934 42.068 151.944 41.9171C151.938 41.8254 151.938 41.7334 151.944 41.6417C151.954 41.5787 151.971 41.5171 151.995 41.4582C152.014 41.4169 152.045 41.3817 152.082 41.3562C152.12 41.3355 152.163 41.325 152.206 41.3256H153.298V40.5098C153.289 40.0448 153.339 39.5805 153.447 39.1281C153.528 38.7833 153.686 38.461 153.908 38.1848C154.116 37.9383 154.385 37.7501 154.688 37.6393C155.232 37.4586 155.812 37.4183 156.376 37.522C156.526 37.5476 156.674 37.5868 156.817 37.6393C156.891 37.6672 156.96 37.7068 157.022 37.7565C157.059 37.795 157.089 37.8399 157.109 37.8891C157.132 37.9518 157.147 38.0168 157.155 38.0829C157.171 38.1756 157.182 38.2693 157.186 38.3633Z" fill="white"/>
<path d="M161.843 49.4391L160.826 52.2469C160.8 52.2994 160.763 52.3457 160.717 52.3824C160.672 52.4191 160.618 52.4454 160.561 52.4594C160.354 52.5144 160.14 52.5382 159.925 52.5303C159.807 52.537 159.688 52.537 159.569 52.5303C159.494 52.5218 159.423 52.4958 159.36 52.4544C159.337 52.4409 159.317 52.4219 159.303 52.3989C159.289 52.3759 159.28 52.3498 159.279 52.3228C159.278 52.2516 159.292 52.1809 159.32 52.1154L160.378 49.4593C160.323 49.4333 160.274 49.3953 160.236 49.348C160.192 49.3015 160.159 49.2463 160.139 49.1861L157.401 41.8857C157.362 41.7976 157.338 41.7035 157.33 41.6074C157.329 41.5768 157.335 41.5464 157.347 41.5183C157.359 41.4903 157.378 41.4654 157.401 41.4455C157.465 41.3984 157.541 41.3703 157.62 41.3646C157.757 41.3553 157.895 41.3553 158.032 41.3646H158.434C158.513 41.3697 158.59 41.3867 158.663 41.4152C158.715 41.4308 158.758 41.4651 158.785 41.5113C158.818 41.5657 158.846 41.6233 158.867 41.6833L161.065 47.8151H161.09L163.207 41.6226C163.224 41.5406 163.267 41.466 163.329 41.4101C163.397 41.3749 163.472 41.3526 163.548 41.3443C163.687 41.3344 163.826 41.3344 163.965 41.3443C164.096 41.3352 164.227 41.3352 164.357 41.3443C164.439 41.3513 164.518 41.3791 164.586 41.4253C164.609 41.4451 164.628 41.47 164.64 41.4981C164.653 41.5261 164.658 41.5566 164.657 41.5872C164.654 41.6737 164.637 41.7591 164.606 41.8401L161.843 49.4391Z" fill="white"/>
<path d="M176.27 46.3841C176.28 46.8605 176.183 47.3331 175.986 47.7668C175.801 48.1608 175.531 48.5082 175.195 48.7835C174.843 49.0721 174.438 49.288 174.003 49.4189C173.191 49.6565 172.334 49.6966 171.504 49.5359C171.217 49.4823 170.936 49.4058 170.662 49.3071C170.447 49.2315 170.238 49.1379 170.038 49.0275C169.911 48.9625 169.795 48.8785 169.693 48.7784C169.623 48.7061 169.572 48.6168 169.546 48.5192C169.512 48.3812 169.497 48.2393 169.501 48.0972C169.495 47.994 169.495 47.8904 169.501 47.7871C169.509 47.7174 169.526 47.649 169.552 47.5838C169.566 47.5423 169.594 47.5067 169.631 47.4821C169.667 47.4574 169.71 47.445 169.754 47.4465C169.879 47.4649 169.996 47.5158 170.094 47.594C170.273 47.7117 170.459 47.817 170.652 47.9091C170.917 48.0374 171.191 48.1445 171.473 48.2294C171.834 48.3326 172.208 48.3822 172.584 48.3768C172.879 48.3807 173.173 48.3378 173.456 48.2497C173.703 48.173 173.933 48.0506 174.135 47.8888C174.323 47.7319 174.472 47.5336 174.571 47.3093C174.676 47.0656 174.728 46.8021 174.723 46.5366C174.731 46.2538 174.657 45.9748 174.51 45.7334C174.365 45.503 174.176 45.3042 173.953 45.1488C173.702 44.971 173.435 44.8162 173.157 44.6862L172.239 44.2643C171.93 44.1168 171.625 43.9592 171.331 43.7813C171.042 43.6074 170.776 43.3973 170.54 43.156C170.304 42.9115 170.112 42.6277 169.972 42.3173C169.82 41.9521 169.746 41.559 169.754 41.1633C169.747 40.7379 169.834 40.3161 170.008 39.928C170.17 39.5758 170.409 39.2647 170.708 39.0181C171.027 38.7722 171.393 38.5925 171.782 38.4894C172.214 38.356 172.664 38.2908 173.116 38.2962C173.362 38.2966 173.608 38.317 173.851 38.3572C174.088 38.3992 174.322 38.457 174.551 38.5301C174.751 38.595 174.946 38.6749 175.134 38.769C175.255 38.8247 175.367 38.8965 175.469 38.9825C175.51 39.02 175.545 39.0627 175.575 39.1096C175.594 39.1484 175.607 39.1894 175.616 39.2316C175.628 39.2885 175.637 39.3463 175.641 39.4044C175.641 39.4705 175.641 39.562 175.641 39.6688C175.647 39.7602 175.647 39.8519 175.641 39.9433C175.636 40.0104 175.624 40.0769 175.605 40.1415C175.595 40.1886 175.57 40.2312 175.535 40.2635C175.504 40.2873 175.467 40.2999 175.428 40.2991C175.322 40.2833 175.222 40.2433 175.134 40.1822C174.997 40.1009 174.835 40.0094 174.627 39.9128C174.408 39.8004 174.179 39.7085 173.942 39.6383C173.654 39.5533 173.355 39.5122 173.055 39.5163C172.783 39.5107 172.512 39.5519 172.254 39.6383C172.046 39.7085 171.854 39.821 171.691 39.9687C171.542 40.1087 171.429 40.2832 171.362 40.477C171.286 40.6678 171.248 40.8716 171.25 41.0769C171.243 41.3563 171.317 41.6318 171.463 41.8699C171.614 42.1 171.807 42.3 172.031 42.4596C172.284 42.6391 172.552 42.7956 172.832 42.9273L173.755 43.3594C174.064 43.5017 174.368 43.6644 174.673 43.8372C174.965 44.0044 175.235 44.2095 175.474 44.4473C175.713 44.6903 175.907 44.9744 176.047 45.286C176.194 45.6332 176.27 46.0067 176.27 46.3841Z" fill="white"/>
<path d="M184.812 49.2552C184.814 49.2963 184.803 49.3369 184.782 49.372C184.754 49.4076 184.717 49.4355 184.675 49.4532C184.611 49.4785 184.544 49.4956 184.476 49.504C184.374 49.5101 184.272 49.5101 184.171 49.504C184.064 49.51 183.957 49.51 183.85 49.504C183.783 49.4964 183.718 49.4793 183.656 49.4532C183.616 49.4358 183.581 49.4077 183.555 49.372C183.546 49.3336 183.546 49.2937 183.555 49.2552V48.2401C183.188 48.6678 182.749 49.027 182.256 49.3009C181.856 49.5136 181.411 49.6268 180.958 49.6309C180.513 49.6433 180.071 49.5565 179.664 49.3771C179.33 49.2158 179.038 48.9775 178.814 48.6817C178.593 48.3774 178.436 48.0322 178.351 47.6665C178.247 47.2018 178.199 46.7264 178.208 46.2503V41.5907C178.207 41.5496 178.217 41.509 178.239 41.474C178.268 41.4342 178.309 41.4042 178.356 41.3877C178.426 41.3596 178.5 41.3424 178.575 41.3369H178.916H179.257C179.332 41.3418 179.406 41.359 179.476 41.3877C179.521 41.4069 179.561 41.4365 179.593 41.474C179.616 41.5086 179.629 41.5492 179.629 41.5907V46.0524C179.619 46.4136 179.652 46.7747 179.726 47.1285C179.779 47.3762 179.881 47.6108 180.026 47.8188C180.156 48.0077 180.331 48.1613 180.535 48.2654C180.759 48.3721 181.005 48.4259 181.253 48.4228C181.637 48.4123 182.008 48.2808 182.312 48.0472C182.729 47.7281 183.103 47.3581 183.427 46.9457V41.5907C183.424 41.5501 183.433 41.5096 183.453 41.474C183.484 41.4354 183.524 41.4056 183.57 41.3877C183.64 41.3602 183.714 41.343 183.789 41.3369H184.135H184.476C184.55 41.3417 184.622 41.3589 184.69 41.3877C184.735 41.4083 184.774 41.4377 184.807 41.474C184.833 41.5075 184.845 41.5488 184.843 41.5907L184.812 49.2552Z" fill="white"/>
<path d="M192.999 48.0858C192.999 48.1824 192.999 48.2689 192.999 48.3401C192.996 48.4004 192.985 48.4601 192.968 48.5181C192.955 48.562 192.938 48.6046 192.917 48.6453C192.878 48.7047 192.832 48.7593 192.78 48.808C192.668 48.9077 192.547 48.9963 192.417 49.0725C192.233 49.1838 192.038 49.2775 191.836 49.3522C191.612 49.4418 191.379 49.5099 191.142 49.5557C190.885 49.607 190.623 49.6325 190.361 49.632C189.856 49.6411 189.355 49.5476 188.887 49.3573C188.469 49.1831 188.101 48.9088 187.815 48.5588C187.505 48.1812 187.277 47.7428 187.147 47.272C186.985 46.6979 186.908 46.1035 186.918 45.5072C186.903 44.8469 186.998 44.1887 187.198 43.5592C187.355 43.0653 187.614 42.6096 187.958 42.2216C188.273 41.882 188.663 41.6192 189.096 41.4536C189.549 41.2821 190.03 41.1958 190.514 41.1993C190.754 41.1996 190.994 41.2234 191.229 41.2705C191.447 41.3086 191.66 41.3682 191.866 41.4485C192.045 41.5154 192.216 41.6006 192.377 41.7028C192.494 41.7738 192.604 41.8573 192.703 41.9521C192.757 42.0001 192.805 42.0548 192.846 42.1148C192.873 42.1573 192.894 42.2036 192.907 42.2521C192.927 42.3113 192.939 42.3729 192.943 42.4352C192.943 42.5064 192.943 42.5929 192.943 42.6946C192.954 42.8527 192.928 43.0112 192.866 43.1574C192.849 43.1941 192.823 43.2257 192.79 43.2489C192.757 43.2721 192.718 43.2862 192.678 43.2897C192.565 43.2789 192.46 43.2284 192.382 43.1473C192.27 43.0557 192.127 42.954 191.958 42.837C191.763 42.7115 191.554 42.6074 191.336 42.5268C191.061 42.428 190.771 42.3797 190.479 42.3844C190.172 42.3707 189.867 42.4355 189.593 42.5726C189.319 42.7097 189.085 42.9146 188.912 43.1676C188.509 43.851 188.32 44.6395 188.372 45.4309C188.365 45.8688 188.411 46.306 188.509 46.7329C188.587 47.0687 188.729 47.3864 188.928 47.6688C189.1 47.9097 189.332 48.1023 189.601 48.2282C189.887 48.3547 190.197 48.4172 190.509 48.4113C190.802 48.4175 191.094 48.3656 191.366 48.2587C191.59 48.1688 191.804 48.0563 192.004 47.9231C192.183 47.7959 192.336 47.6891 192.458 47.5874C192.535 47.5088 192.635 47.457 192.744 47.4399C192.78 47.4384 192.816 47.4491 192.846 47.4704C192.882 47.5017 192.908 47.5421 192.923 47.5874C192.944 47.6535 192.957 47.7217 192.963 47.7908C192.981 47.8884 192.993 47.9869 192.999 48.0858Z" fill="white"/>
<path d="M200.328 48.0858C200.328 48.1824 200.328 48.2689 200.328 48.3401C200.324 48.4004 200.314 48.4601 200.298 48.5181C200.285 48.5619 200.268 48.6045 200.248 48.6452C200.209 48.7047 200.164 48.7593 200.113 48.808C200.003 48.9077 199.885 48.9963 199.758 49.0724C199.579 49.1838 199.39 49.2775 199.194 49.3522C198.972 49.4411 198.743 49.5092 198.509 49.5556C198.258 49.6072 198.002 49.6327 197.745 49.6319C197.252 49.6414 196.762 49.548 196.306 49.3573C195.896 49.1832 195.534 48.909 195.252 48.5588C194.953 48.1792 194.734 47.7412 194.608 47.272C194.292 46.0529 194.309 44.7691 194.658 43.5592C194.811 43.0652 195.065 42.6095 195.402 42.2216C195.71 41.882 196.092 41.6192 196.516 41.4536C196.96 41.2825 197.43 41.1963 197.905 41.1993C198.14 41.1996 198.374 41.2234 198.604 41.2705C198.818 41.3079 199.027 41.3675 199.229 41.4485C199.403 41.5154 199.571 41.6006 199.728 41.7028C199.843 41.7737 199.951 41.8573 200.048 41.952C200.101 42.0001 200.148 42.0548 200.188 42.1148C200.214 42.158 200.236 42.204 200.253 42.2521C200.268 42.312 200.278 42.3733 200.283 42.4352C200.283 42.5064 200.283 42.5929 200.283 42.6946C200.293 42.8527 200.268 43.0112 200.208 43.1574C200.192 43.1948 200.166 43.2269 200.134 43.2503C200.101 43.2736 200.063 43.2873 200.023 43.2896C199.913 43.2788 199.81 43.2283 199.733 43.1472C199.623 43.0557 199.488 42.954 199.319 42.837C199.128 42.7103 198.923 42.6062 198.709 42.5267C198.44 42.4275 198.156 42.3793 197.87 42.3843C197.569 42.3693 197.269 42.4335 197 42.5707C196.73 42.7078 196.5 42.9134 196.331 43.1676C195.932 43.8494 195.745 44.6387 195.797 45.4309C195.789 45.8691 195.836 46.3066 195.936 46.7329C196.009 47.069 196.147 47.3871 196.341 47.6687C196.51 47.9096 196.737 48.1022 197.001 48.2282C197.282 48.3551 197.587 48.4176 197.895 48.4113C198.18 48.4169 198.464 48.3651 198.729 48.2587C198.948 48.1688 199.157 48.0563 199.353 47.923C199.533 47.7959 199.678 47.6891 199.798 47.5873C199.873 47.5087 199.971 47.457 200.078 47.4398C200.115 47.439 200.152 47.4497 200.183 47.4704C200.214 47.5036 200.238 47.5435 200.253 47.5873C200.276 47.6528 200.289 47.7213 200.293 47.7908C200.31 47.8883 200.322 47.9868 200.328 48.0858Z" fill="white"/>
<path d="M208.757 45.0909C208.765 45.1771 208.755 45.264 208.726 45.3456C208.697 45.4272 208.65 45.5014 208.59 45.5632C208.483 45.6529 208.348 45.7015 208.209 45.7003H203.136C203.132 46.0886 203.176 46.4759 203.267 46.8533C203.344 47.1738 203.489 47.4738 203.694 47.732C203.901 47.9827 204.171 48.1752 204.475 48.2907C204.847 48.4325 205.244 48.4998 205.642 48.4887C205.971 48.4924 206.299 48.4618 206.621 48.3973C206.873 48.3505 207.12 48.2842 207.362 48.1992L207.869 48.0012C207.964 47.9508 208.067 47.9197 208.174 47.9097C208.211 47.9089 208.249 47.9195 208.28 47.9402C208.312 47.9616 208.336 47.9915 208.351 48.0265C208.371 48.0808 208.384 48.137 208.392 48.1942C208.392 48.2653 208.392 48.3516 208.392 48.4532C208.398 48.5174 208.398 48.582 208.392 48.6462C208.395 48.6952 208.395 48.7444 208.392 48.7935C208.387 48.8333 208.373 48.8715 208.351 48.9052C208.329 48.9414 208.304 48.9755 208.275 49.0068C208.188 49.0683 208.095 49.1195 207.996 49.1592C207.804 49.2452 207.606 49.3148 207.403 49.3674C207.159 49.4334 206.895 49.4944 206.555 49.5503C206.22 49.6061 205.88 49.6333 205.54 49.6315C204.976 49.6434 204.414 49.554 203.881 49.3674C203.426 49.2027 203.016 48.933 202.684 48.5802C202.348 48.2061 202.098 47.762 201.953 47.2799C201.782 46.6877 201.699 46.0731 201.71 45.4566C201.7 44.8543 201.785 44.2542 201.964 43.6789C202.114 43.1862 202.365 42.7298 202.699 42.338C203.019 41.9741 203.416 41.6861 203.861 41.4949C204.343 41.2951 204.861 41.1949 205.383 41.2003C205.905 41.1875 206.424 41.2862 206.905 41.4898C207.314 41.6662 207.676 41.9338 207.966 42.272C208.244 42.6081 208.448 42.9993 208.564 43.4199C208.695 43.8791 208.76 44.3544 208.757 44.8318V45.0909ZM207.342 44.6693C207.391 44.0476 207.211 43.4293 206.834 42.9323C206.645 42.7181 206.41 42.55 206.146 42.4408C205.882 42.3317 205.597 42.2843 205.312 42.3025C204.997 42.2964 204.685 42.3624 204.399 42.4955C204.145 42.6146 203.92 42.7879 203.739 43.0034C203.557 43.2265 203.418 43.4813 203.328 43.7551C203.229 44.045 203.173 44.3479 203.161 44.6541L207.342 44.6693Z" fill="white"/>
<path d="M215.811 47.1716C215.818 47.532 215.742 47.8894 215.589 48.2168C215.447 48.521 215.233 48.7872 214.965 48.9931C214.675 49.2106 214.346 49.3724 213.996 49.4701C213.593 49.581 213.176 49.6357 212.758 49.6324C212.492 49.6343 212.226 49.6122 211.964 49.5665C211.735 49.5297 211.509 49.4754 211.288 49.4041C211.111 49.3513 210.938 49.2834 210.773 49.2012C210.664 49.1514 210.563 49.0865 210.474 49.0083C210.402 48.9462 210.353 48.8623 210.334 48.7699C210.299 48.634 210.284 48.4939 210.288 48.3538C210.279 48.2627 210.279 48.1709 210.288 48.0798C210.296 48.0195 210.31 47.9601 210.329 47.9022C210.341 47.8629 210.367 47.8288 210.401 47.8058C210.434 47.7852 210.471 47.7746 210.51 47.7754C210.613 47.7902 210.71 47.8303 210.793 47.8921C210.917 47.9682 211.067 48.0494 211.252 48.1407C211.459 48.2431 211.675 48.328 211.897 48.3944C212.175 48.4739 212.463 48.5116 212.753 48.506C212.974 48.5084 213.194 48.4828 213.408 48.4299C213.591 48.3851 213.766 48.3096 213.923 48.2067C214.066 48.1096 214.181 47.9787 214.259 47.8261C214.34 47.6567 214.381 47.4708 214.377 47.2832C214.383 47.0871 214.323 46.8946 214.207 46.7353C214.082 46.5799 213.93 46.4476 213.758 46.3446C213.562 46.2257 213.355 46.1255 213.14 46.0452L212.423 45.7661C212.177 45.6708 211.938 45.5606 211.706 45.4363C211.476 45.3175 211.264 45.1671 211.077 44.9898C210.889 44.8103 210.739 44.5966 210.633 44.3607C210.513 44.0836 210.455 43.7841 210.463 43.4829C210.463 43.1863 210.525 42.8928 210.644 42.6203C210.759 42.3441 210.935 42.0963 211.159 41.8948C211.42 41.6729 211.721 41.5008 212.046 41.3874C212.447 41.2568 212.867 41.1933 213.289 41.1996C213.496 41.2014 213.703 41.2184 213.908 41.2504C214.098 41.2819 214.286 41.326 214.47 41.3823C214.617 41.4247 214.76 41.479 214.898 41.5447C214.993 41.5904 215.084 41.643 215.171 41.702C215.218 41.7358 215.258 41.7769 215.29 41.8237C215.311 41.8578 215.325 41.8958 215.331 41.9354C215.344 41.9888 215.353 42.043 215.357 42.0977C215.363 42.1737 215.363 42.2501 215.357 42.3261C215.363 42.4088 215.363 42.4919 215.357 42.5747C215.354 42.6357 215.34 42.6958 215.316 42.7523C215.3 42.7897 215.275 42.8228 215.244 42.8487C215.215 42.8685 215.181 42.8791 215.146 42.8791C215.064 42.8676 214.987 42.8342 214.924 42.7827C214.801 42.7092 214.673 42.6431 214.542 42.5848C214.364 42.5054 214.179 42.4393 213.99 42.3869C213.756 42.3184 213.513 42.2859 213.269 42.2905C213.052 42.2864 212.837 42.3137 212.629 42.3717C212.464 42.4175 212.31 42.4951 212.175 42.6C212.06 42.6976 211.969 42.8189 211.907 42.9552C211.845 43.0943 211.813 43.2447 211.814 43.3966C211.806 43.597 211.868 43.7941 211.99 43.9548C212.111 44.1143 212.264 44.2488 212.438 44.3505C212.639 44.4739 212.851 44.5776 213.073 44.66L213.795 44.9391C214.037 45.0355 214.279 45.1421 214.522 45.2638C214.752 45.3778 214.966 45.523 215.156 45.6951C215.344 45.8686 215.495 46.0774 215.599 46.309C215.735 46.5773 215.807 46.8721 215.811 47.1716Z" fill="white"/>
<path d="M222.585 47.176C222.592 47.5358 222.518 47.8926 222.368 48.2194C222.23 48.523 222.022 48.7888 221.76 48.9943C221.478 49.2124 221.157 49.374 220.815 49.4704C220.422 49.5811 220.016 49.6357 219.608 49.6324C219.349 49.6342 219.089 49.6122 218.834 49.5666C218.611 49.5299 218.39 49.4757 218.175 49.4045C218.002 49.3518 217.834 49.284 217.672 49.2019C217.567 49.1523 217.468 49.0875 217.381 49.0095C217.311 48.9474 217.263 48.8637 217.245 48.7714C217.211 48.6358 217.196 48.496 217.2 48.3561C217.191 48.2652 217.191 48.1736 217.2 48.0826C217.208 48.0224 217.221 47.9631 217.24 47.9054C217.252 47.866 217.277 47.832 217.31 47.8091C217.342 47.7898 217.379 47.7793 217.416 47.7787C217.516 47.7935 217.612 47.8336 217.693 47.8952C217.813 47.9712 217.964 48.0522 218.14 48.1434C218.342 48.2456 218.552 48.3303 218.769 48.3966C219.04 48.476 219.321 48.5136 219.603 48.5081C219.818 48.5108 220.033 48.4853 220.242 48.4321C220.42 48.3859 220.59 48.3106 220.745 48.2092C220.88 48.1101 220.99 47.9799 221.066 47.8294C221.146 47.6602 221.186 47.4747 221.182 47.2875C221.188 47.0917 221.129 46.8995 221.016 46.7405C220.895 46.5866 220.749 46.4547 220.584 46.3505C220.391 46.2319 220.187 46.1318 219.975 46.0517L219.276 45.7731C219.037 45.6779 218.804 45.5679 218.577 45.4439C218.353 45.3252 218.147 45.1752 217.964 44.9982C217.764 44.8018 217.607 44.5649 217.503 44.303C217.4 44.0411 217.353 43.7602 217.366 43.4788C217.366 43.1827 217.426 42.8898 217.542 42.6178C217.654 42.342 217.826 42.0947 218.045 41.8935C218.299 41.672 218.592 41.5002 218.909 41.387C219.3 41.2567 219.71 41.1933 220.121 41.1996C220.325 41.2016 220.528 41.2185 220.729 41.2503C220.915 41.2829 221.098 41.3269 221.277 41.382C221.434 41.4291 221.587 41.4883 221.735 41.5592C221.826 41.6047 221.913 41.6572 221.996 41.7162C222.041 41.75 222.081 41.7911 222.112 41.8378C222.132 41.8726 222.147 41.9101 222.157 41.9492C222.157 41.9948 222.157 42.0455 222.157 42.1113C222.157 42.1771 222.157 42.248 222.157 42.3392C222.157 42.4304 222.157 42.5165 222.157 42.5874C222.15 42.6482 222.135 42.7079 222.112 42.7646C222.097 42.802 222.073 42.8351 222.042 42.8609C222.014 42.8807 221.98 42.8913 221.946 42.8913C221.867 42.8798 221.792 42.8465 221.73 42.795C221.61 42.7217 221.486 42.6557 221.358 42.5975C221.184 42.5183 221.004 42.4523 220.82 42.4C220.592 42.3313 220.354 42.2988 220.116 42.3038C219.905 42.2996 219.695 42.3269 219.493 42.3848C219.332 42.4305 219.181 42.5079 219.05 42.6127C218.938 42.7101 218.849 42.8311 218.789 42.9672C218.728 43.106 218.697 43.2562 218.698 43.4079C218.692 43.6075 218.752 43.8035 218.869 43.965C218.988 44.1243 219.136 44.2585 219.307 44.36C219.502 44.4832 219.709 44.5867 219.925 44.669L220.629 44.9476C220.865 45.0438 221.101 45.1501 221.338 45.2717C221.563 45.3855 221.771 45.5304 221.956 45.7022C222.139 45.8766 222.288 46.0846 222.394 46.315C222.518 46.5849 222.583 46.8785 222.585 47.176Z" fill="white"/>
</g>
<defs>
<clipPath id="clip0_376_2">
<rect width="223" height="53" fill="white"/>
</clipPath>
</defs>
</svg>
