<svg id="Layer_1" data-name="Layer 1" xmlns="http://www.w3.org/2000/svg" xmlns:xlink="http://www.w3.org/1999/xlink" viewBox="0 0 721.02 771.99"><defs><style>.cls-1{fill:url(#linear-gradient);}.cls-2{fill:url(#linear-gradient-2);}.cls-3{fill:url(#linear-gradient-3);}.cls-4{fill:url(#linear-gradient-4);}.cls-5{fill:url(#linear-gradient-5);}.cls-6{fill:url(#linear-gradient-6);}</style><linearGradient id="linear-gradient" x1="360.51" y1="509.09" x2="609.78" y2="509.09" gradientUnits="userSpaceOnUse"><stop offset="0" stop-color="#395af9"/><stop offset="1" stop-color="#5894ff"/></linearGradient><linearGradient id="linear-gradient-2" x1="601.69" y1="509.09" x2="708.34" y2="509.09" gradientUnits="userSpaceOnUse"><stop offset="0" stop-color="#1b52e7"/><stop offset="1" stop-color="#337fe6"/></linearGradient><linearGradient id="linear-gradient-3" x1="360.51" y1="141.67" x2="687.75" y2="141.67" gradientUnits="userSpaceOnUse"><stop offset="0" stop-color="#95caff"/><stop offset="1" stop-color="#5596fc"/></linearGradient><linearGradient id="linear-gradient-4" x1="111.24" y1="262.89" x2="360.51" y2="262.89" xlink:href="#linear-gradient"/><linearGradient id="linear-gradient-5" x1="12.69" y1="262.89" x2="119.33" y2="262.89" xlink:href="#linear-gradient-2"/><linearGradient id="linear-gradient-6" x1="33.27" y1="630.32" x2="360.51" y2="630.32" xlink:href="#linear-gradient-3"/></defs><path class="cls-1" d="M360.51,754.87c1.14,0,2.27.08,3.41.08,135.79,0,245.86-110.07,245.86-245.86S499.71,263.23,363.92,263.23c-1.14,0-2.27.08-3.41.09Z"/><path class="cls-2" d="M601.69,306.47V711.72a245.81,245.81,0,0,0,0-405.25Z"/><path class="cls-3" d="M607.84,17v0c-.49,0-1,0-1.47,0C470.58,17,360.51,127.11,360.51,262.89c0,1.15.07,2.28.09,3.42H687.75c0-1.14,0-2.27,0-3.42V17Z"/><path class="cls-4" d="M360.51,17.12c-1.14,0-2.27-.09-3.41-.09C221.31,17,111.24,127.11,111.24,262.89S221.31,508.75,357.1,508.75c1.14,0,2.27-.07,3.41-.08Z"/><path class="cls-5" d="M119.33,465.51V60.27a245.81,245.81,0,0,0,0,405.24Z"/><path class="cls-6" d="M113.18,755v0l1.47,0c135.79,0,245.86-110.07,245.86-245.86,0-1.14-.07-2.27-.08-3.41H33.28c0,1.14,0,2.27,0,3.41V755Z"/></svg>