<svg width="297" height="335" viewBox="0 0 297 335" fill="none" xmlns="http://www.w3.org/2000/svg">
<path d="M8.31922 118.089C21.6323 93.2555 55.7504 77.0209 71.965 70.6203C87.0068 69.6603 105.887 66.78 111.648 64.8599C116.256 63.3238 123.168 64.2198 126.049 64.8599C136.29 69.2122 140.77 77.5542 141.73 81.1812C126.881 81.9492 52.3366 123.318 16.9206 143.906C3.09555 139.554 5.97237 123.957 8.31922 118.089Z" fill="#E7A52C"/>
<path d="M132.852 331.133C113.651 324.22 124.852 307.131 132.852 299.451C136.052 299.451 143.285 299.258 146.613 298.49C149.941 297.722 173.815 293.477 185.336 291.45C195.536 289.943 208.954 292.538 217.659 309.691C228.54 331.133 156.854 339.774 132.852 331.133Z" fill="#E7A52C"/>
<path d="M31.3229 232.233C13.1455 261.163 42.5238 271.17 59.4852 272.556L178.855 202.791C160.974 179.854 132.812 181.988 116.49 188.175C106.249 190.991 95.3286 189.35 92.7684 189.03L88.608 186.47C56.0935 203.623 36.8702 224.126 31.3229 232.233Z" fill="#E7A52C"/>
<path d="M69.7255 28.0556C61.7249 32.8163 54.2576 38.4031 50.524 41.8167C42.7158 49.4212 35.9641 58.375 30.3624 66.78C72.4992 44.0593 143.189 18.5628 175.654 11.0956C169.765 4.18302 157.946 0.853549 152.932 0.213448C130.658 -2.60278 77.7261 23.295 69.7255 28.0556Z" fill="url(#paint0_linear_960_181)"/>
<path d="M142.052 122.465C71.902 142.946 21.2954 187.536 4.76071 207.271C-1.89582 181.157 -0.146348 167.588 1.56045 164.068C16.9217 127.713 79.726 99.3128 117.129 85.7665C190.351 56.8361 232.978 51.8442 256.98 57.2846C282.07 66.7573 291.863 83.8463 293.783 92.167C256.66 88.0707 177.254 111.157 142.052 122.465Z" fill="url(#paint1_linear_960_181)"/>
<path d="M4.44141 206.631C9.56181 229.417 22.1495 250.475 28.4433 258.155C22.5548 249.963 28.55 239.38 31.6436 235.113C50.8451 211.304 82.1009 194.47 95.3286 189.03C114.53 178.277 166.908 160.228 190.696 152.547C209.642 145.634 251.074 138.359 269.422 135.586C302.193 132.257 299.078 104.33 293.424 90.782C115.746 88.9898 26.7365 167.268 4.44141 206.631Z" fill="url(#paint2_linear_960_181)"/>
<path d="M31.0021 65.8198C19.4812 79.3889 11.5206 105.928 8.32031 118.089C42.115 76.3579 115.382 49.3918 148.451 40.5378C182.246 30.553 180.454 16.5359 175.654 11.0955C123.425 16.9839 57.6709 50.2452 31.0021 65.8198Z" fill="url(#paint3_linear_960_181)"/>
<path d="M54.3616 288.558C60.506 298.031 77.4034 309.146 85.084 313.52L88.3248 315.545C98.3096 266.389 195.427 232.765 243.217 220.818C237.585 194.192 216.402 190.63 206.374 192.87C201.254 192.87 166.478 204.818 149.73 210.792C109.791 225.897 81.8839 245.034 72.923 252.715C64.1757 260.716 48.2171 279.085 54.3616 288.558Z" fill="url(#paint4_linear_960_181)"/>
<path d="M243.179 220.392C126.434 235.753 89.5669 289.091 85.7266 313.839C95.7114 320.752 122.569 330.266 135.05 331.866C117.769 327.066 127.218 313.839 139.171 304.559C166.373 283.437 192.295 275.223 209.896 269.996C216.041 267.692 218.537 268.396 228.458 261.995C243.179 247.274 243.926 230.526 243.179 220.392Z" fill="url(#paint5_linear_960_181)"/>
<path d="M49.2852 159.052C76.0606 138.677 147.789 96.8395 219.219 95.0474C191.27 98.461 117.899 116.553 49.2852 159.052Z" fill="white" stroke="white" stroke-width="1.83227"/>
<path d="M98.9414 285.834C115.432 267.511 147.37 246.007 176.813 235.446C162.092 238.006 126.144 250.631 98.9414 285.834Z" fill="white" stroke="white" stroke-width="0.916133"/>
<path d="M67.7924 46.7233C84.2827 40.3101 84.599 35.7361 151.162 15.5743C126.348 20.0481 90.6957 30.2329 67.7924 46.7233Z" fill="white" stroke="white" stroke-width="0.916133"/>
<defs>
<linearGradient id="paint0_linear_960_181" x1="37.4029" y1="63.5797" x2="164.493" y2="8.32066" gradientUnits="userSpaceOnUse">
<stop stop-color="#FFE245"/>
<stop offset="1" stop-color="#FFE14B"/>
</linearGradient>
<linearGradient id="paint1_linear_960_181" x1="55.2224" y1="132.609" x2="244.011" y2="16.0425" gradientUnits="userSpaceOnUse">
<stop stop-color="#FFE245"/>
<stop offset="1" stop-color="#FFE14B"/>
</linearGradient>
<linearGradient id="paint2_linear_960_181" x1="18.6951" y1="227.447" x2="279.184" y2="69.7123" gradientUnits="userSpaceOnUse">
<stop stop-color="#FFD600"/>
<stop offset="1" stop-color="#FFC505"/>
</linearGradient>
<linearGradient id="paint3_linear_960_181" x1="16.601" y1="98.4623" x2="175.334" y2="11.0954" gradientUnits="userSpaceOnUse">
<stop stop-color="#FFD600"/>
<stop offset="1" stop-color="#FFC505"/>
</linearGradient>
<linearGradient id="paint4_linear_960_181" x1="88.7456" y1="254.981" x2="224.593" y2="188.026" gradientUnits="userSpaceOnUse">
<stop stop-color="#FFE245"/>
<stop offset="1" stop-color="#FFE14B"/>
</linearGradient>
<linearGradient id="paint5_linear_960_181" x1="93.4072" y1="311.417" x2="248.098" y2="235.619" gradientUnits="userSpaceOnUse">
<stop stop-color="#FFD600"/>
<stop offset="1" stop-color="#FFC505"/>
</linearGradient>
</defs>
</svg>
