<svg width="22" height="22" viewBox="0 0 22 22" fill="none" xmlns="http://www.w3.org/2000/svg">
<path fill-rule="evenodd" clip-rule="evenodd" d="M15.0344 2.37286H20.2909C21.075 2.37286 21.7256 2.98257 21.9236 3.80757C21.9762 4.03071 21.9841 4.21771 21.8497 4.4165C21.7857 4.51291 21.6988 4.59199 21.5968 4.64669C21.4948 4.70139 21.3809 4.73001 21.2652 4.73H21.2023V22H0.773719V4.73H0.695147C0.576747 4.72986 0.460297 4.69983 0.356596 4.6427C0.252895 4.58556 0.1653 4.50316 0.101933 4.40314C-0.0316386 4.19571 -0.0143529 3.99457 0.0430043 3.76514C0.24179 2.96136 0.883719 2.37286 1.65372 2.37286H6.91015C7.3171 1.6536 7.90743 1.05507 8.62101 0.638245C9.33458 0.221418 10.1459 0.00119095 10.9723 0C11.7987 0.00119095 12.61 0.221418 13.3236 0.638245C14.0372 1.05507 14.6275 1.6536 15.0344 2.37286ZM6.27372 21.7014C6.27372 21.4343 6.49372 21.2143 6.76165 21.2143H7.05943V4.73H6.27372V21.7014ZM15.2144 21.2143H14.9166V4.73H15.7023V21.7014C15.7023 21.4343 15.4823 21.2143 15.2144 21.2143ZM10.9802 0.785714H10.9841C10.9828 0.785714 10.9815 0.785714 10.9802 0.785714ZM3.13086 15.169V17.0414C3.13086 17.1749 3.02086 17.2857 2.87943 17.2857H1.803C1.66943 17.2857 1.55943 17.1757 1.55943 17.0421V15.169C1.55943 15.0354 1.66943 14.9254 1.803 14.9254H2.88729C3.02086 14.9254 3.13086 15.0354 3.13086 15.169ZM5.48801 15.169V17.0414C5.48801 17.1749 5.37801 17.2857 5.23658 17.2857H4.16015C4.02658 17.2857 3.91658 17.1757 3.91658 17.0421V15.169C3.91658 15.0354 4.02658 14.9254 4.16015 14.9254H5.24443C5.37801 14.9254 5.48801 15.0354 5.48801 15.169ZM3.13086 11.2341V13.1073C3.13086 13.2409 3.02086 13.3509 2.87943 13.3509H1.803C1.66943 13.3509 1.55943 13.2409 1.55943 13.1073V11.2341C1.55943 11.1006 1.66943 10.9906 1.803 10.9906H2.88729C3.02086 10.9906 3.13086 11.1006 3.13086 11.2341ZM5.48801 11.2341V13.1073C5.48801 13.2409 5.37801 13.3509 5.23658 13.3509H4.16015C4.02658 13.3509 3.91658 13.2409 3.91658 13.1073V11.2341C3.91658 11.1006 4.02658 10.9906 4.16015 10.9906H5.24443C5.37801 10.9906 5.48801 11.1006 5.48801 11.2341ZM3.13086 7.31579V9.18814C3.13086 9.32171 3.02086 9.43171 2.87943 9.43171H1.803C1.66943 9.43171 1.55943 9.32171 1.55943 9.18814V7.315C1.55943 7.18143 1.66943 7.07143 1.803 7.07143H2.88729C3.02086 7.07143 3.13086 7.18221 3.13086 7.31579ZM5.48801 7.315V9.18736C5.48801 9.32093 5.37801 9.43093 5.23658 9.43093H4.16015C4.02658 9.43093 3.91658 9.32093 3.91658 9.18736V7.315C3.91658 7.18143 4.02658 7.07143 4.16015 7.07143H5.24443C5.37801 7.07143 5.48801 7.18143 5.48801 7.315ZM18.0547 15.1682V17.0406C18.0547 17.1741 17.9447 17.2849 17.8112 17.2849H16.7316C16.667 17.2847 16.6051 17.259 16.5593 17.2134C16.5135 17.1678 16.4876 17.106 16.4872 17.0414V15.1682C16.4872 15.0346 16.5972 14.9246 16.7308 14.9246H17.8096C17.9432 14.9246 18.0547 15.0346 18.0547 15.1682ZM20.4158 15.1682V17.0406C20.4158 17.1741 20.3058 17.2849 20.1722 17.2849H19.0934C19.0288 17.2847 18.9669 17.259 18.9212 17.2134C18.8754 17.1678 18.8495 17.106 18.8491 17.0414V15.1682C18.8491 15.0346 18.9591 14.9246 19.0927 14.9246H20.1714C20.305 14.9246 20.4158 15.0346 20.4158 15.1682ZM18.0539 11.2334V13.1065C18.0539 13.2401 17.9439 13.3501 17.8104 13.3501H16.7316C16.667 13.3499 16.6051 13.3242 16.5593 13.2786C16.5135 13.2329 16.4876 13.1711 16.4872 13.1065V11.2334C16.4872 11.0998 16.5972 10.9898 16.7308 10.9898H17.8096C17.9432 10.9898 18.0539 11.0998 18.0539 11.2334ZM20.4158 11.2334V13.1065C20.4158 13.2401 20.3058 13.3501 20.1722 13.3501H19.0934C19.0288 13.3499 18.9669 13.3242 18.9212 13.2786C18.8754 13.2329 18.8495 13.1711 18.8491 13.1065V11.2334C18.8491 11.0998 18.9591 10.9898 19.0927 10.9898H20.1714C20.305 10.9898 20.4158 11.0998 20.4158 11.2334ZM18.0539 7.315V9.18736C18.0539 9.32093 17.9439 9.43093 17.8104 9.43093H16.7316C16.667 9.43072 16.6051 9.40502 16.5593 9.35941C16.5135 9.3138 16.4876 9.25196 16.4872 9.18736V7.315C16.4872 7.18143 16.5972 7.07143 16.7308 7.07143H17.8096C17.9432 7.07143 18.0539 7.18143 18.0539 7.315ZM20.4158 7.315V9.18736C20.4158 9.32093 20.3058 9.43093 20.1722 9.43093H19.0934C19.0288 9.43072 18.9669 9.40502 18.9212 9.35941C18.8754 9.3138 18.8495 9.25196 18.8491 9.18736V7.315C18.8491 7.18143 18.9591 7.07143 19.0927 7.07143H20.1714C20.305 7.07143 20.4158 7.18143 20.4158 7.315ZM10.2023 8.88643V10.7564C10.2023 10.89 10.0923 11 9.95715 11H8.87601C8.81126 11 8.74915 10.9744 8.70322 10.9288C8.65729 10.8831 8.63128 10.8212 8.63086 10.7564V8.88643C8.63086 8.75286 8.74086 8.64286 8.87601 8.64286H9.95715C10.0915 8.64286 10.2023 8.75286 10.2023 8.88643ZM10.3099 19.6429H8.91608C8.87822 19.6427 8.84077 19.635 8.8059 19.6202C8.77103 19.6055 8.73942 19.5839 8.71291 19.5569C8.68639 19.5299 8.66549 19.4979 8.65141 19.4627C8.63733 19.4276 8.63034 19.39 8.63086 19.3521V15.7159H10.5951V19.3529C10.5951 19.5179 10.4639 19.6429 10.3099 19.6429ZM11.3809 14.9301V14.9286H10.5951V14.9301H8.63086V14.9286H7.80901C7.76231 14.929 7.716 14.9201 7.67273 14.9026C7.62947 14.885 7.59013 14.859 7.55696 14.8261C7.52379 14.7933 7.49747 14.7541 7.4795 14.711C7.46154 14.6679 7.45229 14.6217 7.45229 14.575C7.45229 14.5121 7.47586 14.4571 7.49944 14.41C7.50415 14.4053 7.50651 14.4037 7.50729 14.4014V14.3943C7.86584 13.7883 8.37616 13.2862 8.98792 12.9377C9.59968 12.5891 10.2918 12.406 10.9959 12.4064C11.7 12.406 12.392 12.5891 13.0038 12.9377C13.6156 13.2862 14.1259 13.7883 14.4844 14.3943C14.4884 14.3982 14.4884 14.4037 14.4884 14.41C14.4884 14.4163 14.4884 14.4218 14.4923 14.4257C14.5159 14.465 14.5237 14.52 14.5237 14.575C14.5237 14.6217 14.5145 14.6679 14.4965 14.711C14.4785 14.7541 14.4522 14.7933 14.4191 14.8261C14.3859 14.859 14.3465 14.885 14.3033 14.9026C14.26 14.9201 14.2137 14.929 14.167 14.9286H13.3452V14.9301H11.3809ZM11.3809 15.7159V19.3529C11.3809 19.5179 11.5121 19.6429 11.6661 19.6429H13.0599C13.2139 19.6429 13.3452 19.5171 13.3452 19.3521V15.7159H11.3809ZM13.3452 10.7564V8.88643C13.3452 8.75286 13.2352 8.64286 13.1 8.64286H12.0189C11.9542 8.64306 11.8922 8.66874 11.8463 8.71433C11.8004 8.75992 11.7743 8.82175 11.7737 8.88643V10.7564C11.7737 10.89 11.8837 11 12.0189 11H13.1C13.2344 11 13.3452 10.89 13.3452 10.7564ZM12.1752 3.14286H12.1595C12.0577 3.14327 11.9601 3.18402 11.8883 3.25618C11.8164 3.32833 11.7761 3.42602 11.7761 3.52786V4.71429H10.2007V3.52786C10.2007 3.42575 10.1602 3.32782 10.088 3.25562C10.0158 3.18342 9.91783 3.14286 9.81572 3.14286H9.80001C9.69817 3.14327 9.60065 3.18402 9.52879 3.25618C9.45692 3.32833 9.41658 3.42602 9.41658 3.52786V6.68643C9.41658 6.89857 9.58944 7.07143 9.80079 7.07143H9.81651C9.91848 7.07122 10.0162 7.03057 10.0882 6.95839C10.1603 6.88621 10.2007 6.7884 10.2007 6.68643V5.50786H11.7761V6.68643C11.7761 6.89857 11.9481 7.07143 12.1595 7.07143H12.1752C12.2772 7.07122 12.3749 7.03057 12.447 6.95839C12.519 6.88621 12.5594 6.7884 12.5594 6.68643V3.52786C12.5594 3.42588 12.519 3.32808 12.447 3.2559C12.3749 3.18372 12.2772 3.14307 12.1752 3.14286Z" fill="#EC5B0A"/>
</svg>
