<svg id="Layer_1" data-name="Layer 1" xmlns="http://www.w3.org/2000/svg" xmlns:xlink="http://www.w3.org/1999/xlink" viewBox="0 0 1249.44 286.91"><defs><style>.cls-1{fill:none;}.cls-2{clip-path:url(#clip-path);}.cls-3{fill:#a64697;}.cls-4{fill:#a74797;}.cls-5{fill:#a84896;}.cls-6{fill:#a84996;}.cls-7{fill:#a94996;}.cls-8{fill:#a94a95;}.cls-9{fill:#aa4a95;}.cls-10{fill:#aa4b95;}.cls-11{fill:#ab4b95;}.cls-12{fill:#ab4c95;}.cls-13{fill:#ab4c94;}.cls-14{fill:#ac4d94;}.cls-15{fill:#ad4e94;}.cls-16{fill:#ad4e93;}.cls-17{fill:#ad4f93;}.cls-18{fill:#ae4f93;}.cls-19{fill:#ae5093;}.cls-20{fill:#af5092;}.cls-21{fill:#af5192;}.cls-22{fill:#b05192;}.cls-23{fill:#b05292;}.cls-24{fill:#b05291;}.cls-25{fill:#b15391;}.cls-26{fill:#b25491;}.cls-27{fill:#b25490;}.cls-28{fill:#b25590;}.cls-29{fill:#b35590;}.cls-30{fill:#b35690;}.cls-31{fill:#b45690;}.cls-32{fill:#b4578f;}.cls-33{fill:#b5588f;}.cls-34{fill:#b5598e;}.cls-35{fill:#b6598e;}.cls-36{fill:#b65a8e;}.cls-37{fill:#b75a8e;}.cls-38{fill:#b75b8d;}.cls-39{fill:#b85c8d;}.cls-40{fill:#b85d8d;}.cls-41{fill:#b95d8c;}.cls-42{fill:#b95e8c;}.cls-43{fill:#ba5e8c;}.cls-44{fill:#ba5f8c;}.cls-45{fill:#ba5f8b;}.cls-46{fill:#bb608b;}.cls-47{fill:#bc618a;}.cls-48{fill:#bd628a;}.cls-49{fill:#bd6389;}.cls-50{fill:#be6389;}.cls-51{fill:#be6489;}.cls-52{fill:#bf6488;}.cls-53{fill:#bf6588;}.cls-54{fill:#c06688;}.cls-55{fill:#c06687;}.cls-56{fill:#c16787;}.cls-57{fill:#c16887;}.cls-58{fill:#c26886;}.cls-59{fill:#c36986;}.cls-60{fill:#c36985;}.cls-61{fill:#c36a85;}.cls-62{fill:#c46a85;}.cls-63{fill:#c46b85;}.cls-64{fill:#c56b84;}.cls-65{fill:#c56c84;}.cls-66{fill:#c66c83;}.cls-67{fill:#c66d83;}.cls-68{fill:#c76e82;}.cls-69{fill:#c86f82;}.cls-70{fill:#c86f81;}.cls-71{fill:#c87081;}.cls-72{fill:#c97081;}.cls-73{fill:#c97080;}.cls-74{fill:#ca7180;}.cls-75{fill:#ca727f;}.cls-76{fill:#cb727f;}.cls-77{fill:#cb737f;}.cls-78{fill:#cc737e;}.cls-79{fill:#cc747e;}.cls-80{fill:#cd747d;}.cls-81{fill:#cd757d;}.cls-82{fill:#ce767c;}.cls-83{fill:#cf777c;}.cls-84{fill:#cf777b;}.cls-85{fill:#d0787a;}.cls-86{fill:#d1797a;}.cls-87{fill:#d17979;}.cls-88{fill:#d17a79;}.cls-89{fill:#d27a79;}.cls-90{fill:#d27a78;}.cls-91{fill:#d37b78;}.cls-92{fill:#d37c77;}.cls-93{fill:#d47c77;}.cls-94{fill:#d47d76;}.cls-95{fill:#d57d76;}.cls-96{fill:#d57e75;}.cls-97{fill:#d67e75;}.cls-98{fill:#d67f74;}.cls-99{fill:#d77f74;}.cls-100{fill:#d78074;}.cls-101{fill:#d88073;}.cls-102{fill:#d88173;}.cls-103{fill:#d98172;}.cls-104{fill:#d98272;}.cls-105{fill:#da8271;}.cls-106{fill:#da8371;}.cls-107{fill:#db8371;}.cls-108{fill:#db8370;}.cls-109{fill:#db8470;}.cls-110{fill:#dc846f;}.cls-111{fill:#dc856f;}.cls-112{fill:#dd856f;}.cls-113{fill:#dd866e;}.cls-114{fill:#de876d;}.cls-115{fill:#df876c;}.cls-116{fill:#df886c;}.cls-117{fill:#e0886b;}.cls-118{fill:#e0896b;}.cls-119{fill:#e18a6a;}.cls-120{fill:#e28a69;}.cls-121{fill:#e28b69;}.cls-122{fill:#e38b68;}.cls-123{fill:#e38c68;}.cls-124{fill:#e38c67;}.cls-125{fill:#e48d67;}.cls-126{fill:#e48d66;}.cls-127{fill:#e58e66;}.cls-128{fill:#e58e65;}.cls-129{fill:#e68f64;}.cls-130{fill:#e79063;}.cls-131{fill:#e89162;}.cls-132{fill:#e89161;}.cls-133{fill:#e99261;}.cls-134{fill:#e99260;}.cls-135{fill:#ea9360;}.cls-136{fill:#ea935f;}.cls-137{fill:#eb945e;}.cls-138{fill:#eb955d;}.cls-139{fill:#ec955d;}.cls-140{fill:#ec955c;}.cls-141{fill:#ed965b;}.cls-142{fill:#ee975a;}.cls-143{fill:#ee9759;}.cls-144{fill:#ef9859;}.cls-145{fill:#ef9858;}.cls-146{fill:#f09957;}.cls-147{fill:#f09a56;}.cls-148{fill:#f19a55;}.cls-149{fill:#f19b55;}.cls-150{fill:#f29b54;}.cls-151{fill:#f39c53;}.cls-152{fill:#f39c52;}.cls-153{fill:#f49d52;}.cls-154{fill:#f49d51;}.cls-155{fill:#f59d50;}.cls-156{fill:#f59e4f;}.cls-157{fill:#f69f4e;}.cls-158{fill:#f79f4e;}.cls-159{fill:#f7a04d;}.cls-160{fill:#f8a04c;}.cls-161{fill:#f9a14b;}</style><clipPath id="clip-path"><path class="cls-1" d="M309.57,61c0-4.21-3.23-7-8.09-7H290.69c-4.86,0-8.1-2.81-8.1-7V17c0-4.21,3.24-7,8.1-7h10.79c4.86,0,8.09,2.82,8.09,7V54h27V77.43h27V54h27V17c0-4.21,3.23-7,8.09-7H409.4c4.86,0,8.1,2.82,8.1,7V47c0,4.22-3.24,7-8.1,7H398.61c-4.86,0-8.09,2.81-8.09,7V66c0,7-5.13,11.47-13.22,11.47-8.37,0-13.76,4.69-13.76,11.72v6.09c0,7,5.39,11.48,13.76,11.48,8.09,0,13.22,4.45,13.22,11.48v4.92c0,4.21,3.23,7,8.09,7H409.4c4.86,0,8.1,2.82,8.1,7v30c0,4.22-3.24,7-8.1,7H398.61c-4.86,0-8.09-2.81-8.09-7v-37h-27V106.72h-27v23.42h-27v37c0,4.22-3.23,7-8.09,7H290.69c-4.86,0-8.1-2.81-8.1-7v-30c0-4.21,3.24-7,8.1-7h10.79c4.86,0,8.09-2.81,8.09-7V118.2c0-7,5.4-11.48,13.76-11.48,8.1,0,13.23-4.45,13.23-11.48V89.15c0-7-5.13-11.72-13.23-11.72C315,77.43,309.57,73,309.57,66Z"/></clipPath></defs><path d="M134.76,256.1a16,16,0,0,1-10.67,8.62,22.64,22.64,0,0,1-5.22.7h-.27c-6.9,0-13-3.55-17.28-10L99.72,253l5.78-3.11,1.35,2c2.12,3.17,5.86,6.95,11.68,6.95h.19a16.53,16.53,0,0,0,3.77-.53,9.42,9.42,0,0,0,6.36-5,7.37,7.37,0,0,0,0-6.26c-1.69-3.69-6-5.75-10.6-7.93-4-1.89-8.07-3.84-10.9-7.12A12.57,12.57,0,0,1,106,217a15.29,15.29,0,0,1,12.91-7.36,16.12,16.12,0,0,1,6.66,1.26,14.57,14.57,0,0,1,2.62,1.5,17.39,17.39,0,0,1,5,6.23l.89,2-6.25,2.7-.84-2s-1.89-4.34-6-4.9a14.38,14.38,0,0,0-2-.15,8.76,8.76,0,0,0-7.41,4.15,6,6,0,0,0,.71,7.27c1.93,2.24,5.25,3.81,8.76,5.48,5.44,2.59,11.07,5.27,13.75,11.15A13.94,13.94,0,0,1,134.76,256.1Z"/><path d="M140,219a4.08,4.08,0,1,1,4.08,4.08A4.09,4.09,0,0,1,140,219Zm.9,45.28V226.87h6.58v37.37Z"/><path d="M212.39,242.82v21.43H205.8V242.82c0-9.45-6.78-10.47-9.7-10.47s-9.22,1-9.68,9.48c0,.33,0,.66,0,1v21.43h-6.58V242.81c0-9.12-4.78-10.47-8.75-10.47-6,0-10.66,3.93-10.66,11.71v20.19h-6.58V226.88h6.58V232a12.43,12.43,0,0,1,10.66-6.2c6.67,0,10.62,2.83,12.84,6.63a13.63,13.63,0,0,1,12.15-6.62,15.84,15.84,0,0,1,11.8,4.72A17.49,17.49,0,0,1,212.39,242.82Z"/><path d="M258.48,245.28a19.83,19.83,0,0,1-19.8,19.81c-5,0-11.24-2.57-13.22-7.69v22.53h-6.58V226.6h6.58V233c1.62-4.83,8.15-7.53,13.22-7.53A19.83,19.83,0,0,1,258.48,245.28Zm-6.58,0c0-7.29-5.93-13.86-13.22-13.86s-13.22,6.57-13.22,13.86,5.93,13.93,13.22,13.93S251.9,252.57,251.9,245.28Z"/><path d="M279.5,257.66v6.58h-2.18c-4.32,0-7.78-1.38-10.28-4.11-4.14-4.5-3.92-10.83-3.82-12.13V211h6.58v37.34c0,.2-.27,4.79,2.1,7.36a7,7,0,0,0,5.32,2Z"/><path d="M282,219a4.08,4.08,0,1,1,4.08,4.08A4.09,4.09,0,0,1,282,219Zm.9,45.28V226.87h6.59v37.37Z"/><path d="M314.8,210v6.58l-2.58.08a6.82,6.82,0,0,0-5,2c-2.39,2.6-2.12,7.17-2.11,7.22v.74h5.67v6.58H305.1v31.12h-6.58V233.12h-5.08v-6.58h5.08v-.4c-.09-1.28-.28-7.54,3.83-12a13.15,13.15,0,0,1,9.7-4.1Z"/><path d="M347.62,226.86l-23,52.39h-7.52l7.64-17.31-14-35.08h7.19l10.56,26.8,11.84-26.8Z"/><path d="M393.87,257.66v6.58H391.7c-4.32,0-7.78-1.38-10.29-4.11-4.1-4.46-3.91-10.82-3.82-12.12V216.48h6.58V226.9h9.24v6.58h-9.24v14.86s-.34,4.71,2.1,7.35a7,7,0,0,0,5.43,2Z"/><path d="M418.09,226.1v6.8l-.92-.23a11.83,11.83,0,0,0-2.83-.35c-2.9,0-9.66,1-9.71,10.37v21.54h-6.58V226.85h6.58l.07,4.4c1.23-3.59,5.89-5.51,9.64-5.51a19,19,0,0,1,3.13.26Z"/><path d="M459.22,226.88v37.36h-6.58v-6.4c-1.63,4.82-8.15,7.52-13.22,7.52a19.81,19.81,0,0,1,0-39.61c5,0,11.24,2.57,13.22,7.69v-6.56Zm-6.58,18.68c0-7.29-5.93-13.92-13.22-13.92s-13.22,6.63-13.22,13.92,5.93,13.86,13.22,13.86S452.64,252.85,452.64,245.56Z"/><path d="M499.45,226.87,483,264.24h-5.18l-15.08-37.37h7l10.8,26.24,11.72-26.24Z"/><path d="M540,248.73H508.06a13,13,0,0,0,12.55,10,12.79,12.79,0,0,0,8.7-3.46s6.81,2.36,6.76,2.42a19.79,19.79,0,0,1-1.52,1.76,19.67,19.67,0,1,1-13.94-33.74c9.93,0,18.26,7.73,19.38,18C540,243.83,540,248.73,540,248.73Zm-6.86-6.15a12.73,12.73,0,0,0-25,0Z"/><path d="M560.67,257.66v6.58H558.5c-4.33,0-7.79-1.38-10.29-4.11-4.14-4.5-3.92-10.83-3.82-12.13V211H551v37.34c0,.2-.26,4.79,2.11,7.36a7,7,0,0,0,5.31,2Z"/><path d="M577.17,257.19l-8.4,14.29h-4.65l5.42-14.29Z"/><path d="M659.88,264.24h-7.26l-7.3-15.8H621l-7.21,15.8h-7.24L630.83,211h4.46Zm-17.6-22.38-9.19-19.92L624,241.86Z"/><path d="M721.31,242.82v21.43h-6.59V242.82c0-9.45-6.78-10.47-9.7-10.47s-9.22,1-9.68,9.48c0,.33,0,.66,0,1v21.43h-6.58V242.81c0-9.12-4.78-10.47-8.75-10.47-6,0-10.66,3.93-10.66,11.71v20.19h-6.58V226.88h6.58V232a12.43,12.43,0,0,1,10.66-6.2c6.67,0,10.62,2.83,12.84,6.63A13.63,13.63,0,0,1,705,225.77a15.84,15.84,0,0,1,11.8,4.72A17.49,17.49,0,0,1,721.31,242.82Z"/><path d="M767.4,245.28a19.83,19.83,0,0,1-19.8,19.81c-5,0-11.24-2.57-13.22-7.69v22.53H727.8V226.6h6.57V233c1.62-4.83,8.15-7.53,13.22-7.53A19.83,19.83,0,0,1,767.4,245.28Zm-6.58,0c0-7.29-5.93-13.86-13.22-13.86s-13.22,6.57-13.22,13.86,5.93,13.93,13.22,13.93S760.82,252.57,760.82,245.28Z"/><path d="M788.42,257.66v6.58h-2.18c-4.32,0-7.78-1.38-10.28-4.11-4.14-4.5-3.92-10.83-3.82-12.13V211h6.58v37.34c0,.2-.27,4.79,2.1,7.36a7,7,0,0,0,5.32,2Z"/><path d="M790.92,219A4.08,4.08,0,1,1,795,223,4.09,4.09,0,0,1,790.92,219Zm.9,45.28V226.87h6.58v37.37Z"/><path d="M823.72,210v6.58l-2.58.08a6.82,6.82,0,0,0-5,2c-2.4,2.6-2.12,7.17-2.11,7.22v.74h5.67v6.58H814v31.12h-6.58V233.12h-5.08v-6.58h5.08v-.4c-.09-1.28-.28-7.54,3.82-12A13.19,13.19,0,0,1,821,210Z"/><path d="M856.54,226.86l-23,52.39H826l7.65-17.31-14-35.08h7.19l10.56,26.8,11.84-26.8Z"/><path d="M919.06,256.1a16,16,0,0,1-10.67,8.62,22.64,22.64,0,0,1-5.22.7h-.27c-6.9,0-13-3.55-17.28-10L884,253l5.78-3.11,1.35,2c2.12,3.17,5.86,6.95,11.68,6.95H903a16.53,16.53,0,0,0,3.77-.53,9.42,9.42,0,0,0,6.36-5,7.37,7.37,0,0,0,0-6.26c-1.69-3.69-6-5.75-10.6-7.93-4-1.89-8.07-3.84-10.9-7.12a12.57,12.57,0,0,1-1.39-15,15.29,15.29,0,0,1,12.91-7.36,16.12,16.12,0,0,1,6.66,1.26,14.57,14.57,0,0,1,2.62,1.5,17.39,17.39,0,0,1,5,6.23l.89,2-6.25,2.7-.84-2s-1.89-4.34-6-4.9a14.38,14.38,0,0,0-2-.15,8.76,8.76,0,0,0-7.41,4.15,6,6,0,0,0,.71,7.27c1.93,2.24,5.25,3.81,8.76,5.48,5.45,2.59,11.07,5.27,13.75,11.15A13.94,13.94,0,0,1,919.06,256.1Z"/><path d="M957.35,226.9v21.44a17.4,17.4,0,0,1-4.49,12.32,17.07,17.07,0,0,1-23.59,0,17.41,17.41,0,0,1-4.5-12.32V226.9h6.59v21.44c0,9.44,6.78,10.46,9.7,10.46s9.71-1,9.71-10.46V226.9Z"/><path d="M992.75,253l4.71,4.77-1.05,1.15a19.8,19.8,0,1,1,0-26.62l1.1,1.21L992.65,238l-.5-.63a13.22,13.22,0,1,0,.09,16.23Z"/><path d="M1032,253l4.71,4.77-1,1.15a19.8,19.8,0,1,1,0-26.62l1.1,1.21-4.86,4.56-.5-.63a13.22,13.22,0,1,0,.08,16.23Z"/><path d="M1079.27,248.73h-31.89a13,13,0,0,0,12.55,10,12.8,12.8,0,0,0,8.71-3.46s6.8,2.36,6.75,2.42a18.28,18.28,0,0,1-1.52,1.76,19.67,19.67,0,1,1-13.94-33.74c9.93,0,18.27,7.73,19.39,18C1079.33,243.83,1079.27,248.73,1079.27,248.73Zm-6.85-6.15a12.74,12.74,0,0,0-25,0Z"/><path d="M1113.69,257.35a9.77,9.77,0,0,1-1,2.06c-1.9,2.87-5.08,4.71-9.71,5.64a19.61,19.61,0,0,1-3.71.35,22,22,0,0,1-7.12-1.21,21.7,21.7,0,0,1-4.92-2.44,21,21,0,0,1-2.17-1.69l-.16-.14A9.57,9.57,0,0,1,1083,258l-.37-.54,5.75-3.88.36.55c3.06,4.56,10.52,4.84,11,4.85a15.35,15.35,0,0,0,5.26-1.2,4.92,4.92,0,0,0,2.63-2.56,2.66,2.66,0,0,0-.17-2.19c-.78-1.61-2.94-2.49-4.73-3.08a39,39,0,0,0-4.23-1,36.12,36.12,0,0,1-6.11-1.61c-3-1.15-6.53-3-7.92-7-1.54-4.45.8-9.16,3.9-11.52a17.5,17.5,0,0,1,10.14-3.27h.42a16.79,16.79,0,0,1,13,5.85l1.2,1.6-5,3.93-1.29-1.59a10.72,10.72,0,0,0-8.25-3.35,10.91,10.91,0,0,0-6.35,1.94c-1.21.92-2.17,2.76-1.66,4.22s2.35,2.42,4.23,3.15a30.49,30.49,0,0,0,5,1.31,41.62,41.62,0,0,1,5,1.2c2.75.9,6.63,2.54,8.47,6.35A9.08,9.08,0,0,1,1113.69,257.35Z"/><path d="M1149.16,257.35a9.77,9.77,0,0,1-1.05,2.06c-1.9,2.87-5.07,4.71-9.71,5.64a19.61,19.61,0,0,1-3.71.35,21.9,21.9,0,0,1-7.11-1.21,21.3,21.3,0,0,1-4.92-2.44,20.11,20.11,0,0,1-2.18-1.69l-.16-.14a10.16,10.16,0,0,1-1.82-1.93l-.36-.54,5.74-3.88.36.55c3.06,4.56,10.52,4.84,11,4.85a15.35,15.35,0,0,0,5.25-1.2,4.88,4.88,0,0,0,2.63-2.56A2.66,2.66,0,0,0,1143,253c-.78-1.61-2.93-2.49-4.73-3.08a39,39,0,0,0-4.23-1,36.12,36.12,0,0,1-6.11-1.61c-3-1.15-6.53-3-7.91-7-1.55-4.45.79-9.16,3.9-11.52a17.44,17.44,0,0,1,10.13-3.27h.42a16.77,16.77,0,0,1,13,5.85l1.21,1.6-5.06,3.93-1.29-1.59a10.72,10.72,0,0,0-8.25-3.35,10.85,10.85,0,0,0-6.34,1.94c-1.22.92-2.18,2.76-1.67,4.22s2.35,2.42,4.23,3.15a30.87,30.87,0,0,0,5,1.31,41.94,41.94,0,0,1,5,1.2c2.76.9,6.63,2.54,8.47,6.35A9.08,9.08,0,0,1,1149.16,257.35Z"/><path d="M23.23,14.07h26L92,135.7q3,8.42,8.65,8.42a8.38,8.38,0,0,0,8.42-8.42V14.07h26V135.7A33,33,0,0,1,124.85,160a33.23,33.23,0,0,1-24.21,10.06q-13.1,0-21-9.24T66,135.7L49.19,87.75v82.33h-26Z"/><path d="M154.21,14.07h100.1V40H180.17V79.09h61v26h-61v39.06h74.14v26H154.21Z"/><path d="M511.2,144.12a51.7,51.7,0,0,0,44.91-26H511.2v-26h77.89a78,78,0,1,1-156-.11A76.26,76.26,0,0,1,443.49,53,77.48,77.48,0,0,1,471.91,24.6,76.44,76.44,0,0,1,511.2,14.07a74.93,74.93,0,0,1,50.4,18.6,76.22,76.22,0,0,1,26.32,46.42H561.49A51.22,51.22,0,0,0,543,51a51.9,51.9,0,0,0-68.77,4.32A50.46,50.46,0,0,0,459,92.19a51.91,51.91,0,0,0,52.16,51.93Z"/><path d="M602.42,14.07h100.1V40H628.38V79.09h61v26h-61v39.06h74.14v26H602.42Z"/><path d="M717,14.07h26l42.8,121.63q3,8.42,8.65,8.42a8.38,8.38,0,0,0,8.42-8.42V14.07h26V135.7a34.55,34.55,0,0,1-34.39,34.38q-13.1,0-21.05-9.24T759.83,135.7L743,87.75v82.33H717Z"/><path d="M851.87,131.25a76.79,76.79,0,0,1-10.41-39.17A76.16,76.16,0,0,1,851.87,53,77.45,77.45,0,0,1,880.28,24.6a78.16,78.16,0,0,1,78.36,0A77.63,77.63,0,0,1,987.06,53a76.35,76.35,0,0,1,10.4,39.06,78,78,0,0,1-145.59,39.17Zm30.87-2.34A52,52,0,0,0,971.5,92.19a50.46,50.46,0,0,0-15.2-36.84,51.81,51.81,0,0,0-73.56,0,50.22,50.22,0,0,0-15.32,36.84A49.8,49.8,0,0,0,882.74,128.91Z"/><path d="M996.06,14.07h27.13l32.75,110.4,32.74-110.4h27.13l-46.31,156h-27.13Z"/><path d="M1125.87,124.7q0-20.58,13.33-32.51Q1125.88,80,1125.87,59.68q0-14.73,7.49-25.26A44.76,44.76,0,0,1,1152,19a61.55,61.55,0,0,1,48.18,0,44.85,44.85,0,0,1,18.6,15.44q7.49,10.53,7.48,25.26,0,20.35-13.33,32.51,13.33,11.93,13.33,32.51,0,14.51-7.48,25.15a43.65,43.65,0,0,1-18.6,15.43,62.85,62.85,0,0,1-48.18,0,43.57,43.57,0,0,1-18.59-15.43Q1125.86,139.2,1125.87,124.7Zm74.38-65q0-9.34-7.13-14.5a28.23,28.23,0,0,0-17-5.15h-.24a28.2,28.2,0,0,0-17,5.15q-7.14,5.15-7.14,14.5a17,17,0,0,0,5,12.51,21.63,21.63,0,0,0,12.05,6.2,43.07,43.07,0,0,0,14.15,0,21.71,21.71,0,0,0,12.16-6.2A17,17,0,0,0,1200.25,59.68Zm-24.33,84.44h.24a28.71,28.71,0,0,0,17-5q7.13-5,7.13-14.39a17.39,17.39,0,0,0-5-12.63,21.5,21.5,0,0,0-12.16-6.31,43.07,43.07,0,0,0-14.15,0,21.42,21.42,0,0,0-12.05,6.31,17.39,17.39,0,0,0-5,12.63q0,9.36,7.14,14.39A28.67,28.67,0,0,0,1175.92,144.12Z"/><g class="cls-2"><rect class="cls-3" x="282.59" y="9.96" width="134.9"/><rect class="cls-3" x="282.59" y="9.96" width="134.9" height="0.83"/><rect class="cls-4" x="282.59" y="10.79" width="134.9" height="0.83"/><rect class="cls-4" x="282.59" y="11.62" width="134.9" height="0.83"/><rect class="cls-5" x="282.59" y="12.45" width="134.9" height="0.83"/><rect class="cls-5" x="282.59" y="13.28" width="134.9" height="0.83"/><rect class="cls-6" x="282.59" y="14.11" width="134.9" height="0.83"/><rect class="cls-7" x="282.59" y="14.94" width="134.9" height="0.83"/><rect class="cls-8" x="282.59" y="15.77" width="134.9" height="0.83"/><rect class="cls-9" x="282.59" y="16.6" width="134.9" height="0.83"/><rect class="cls-10" x="282.59" y="17.43" width="134.9" height="0.83"/><rect class="cls-11" x="282.59" y="18.26" width="134.9" height="0.83"/><rect class="cls-12" x="282.59" y="19.09" width="134.9" height="0.83"/><rect class="cls-13" x="282.59" y="19.92" width="134.9" height="0.83"/><rect class="cls-14" x="282.59" y="20.75" width="134.9" height="0.83"/><rect class="cls-14" x="282.59" y="21.58" width="134.9" height="0.83"/><rect class="cls-15" x="282.59" y="22.41" width="134.9" height="0.83"/><rect class="cls-16" x="282.59" y="23.24" width="134.9" height="0.83"/><rect class="cls-17" x="282.59" y="24.06" width="134.9" height="0.83"/><rect class="cls-18" x="282.59" y="24.89" width="134.9" height="0.83"/><rect class="cls-19" x="282.59" y="25.72" width="134.9" height="0.83"/><rect class="cls-20" x="282.59" y="26.55" width="134.9" height="0.83"/><rect class="cls-21" x="282.59" y="27.38" width="134.9" height="0.83"/><rect class="cls-21" x="282.59" y="28.21" width="134.9" height="0.83"/><rect class="cls-22" x="282.59" y="29.04" width="134.9" height="0.83"/><rect class="cls-23" x="282.59" y="29.87" width="134.9" height="0.83"/><rect class="cls-24" x="282.59" y="30.7" width="134.9" height="0.83"/><rect class="cls-25" x="282.59" y="31.53" width="134.9" height="0.83"/><rect class="cls-25" x="282.59" y="32.36" width="134.9" height="0.83"/><rect class="cls-26" x="282.59" y="33.19" width="134.9" height="0.83"/><rect class="cls-27" x="282.59" y="34.02" width="134.9" height="0.83"/><rect class="cls-28" x="282.59" y="34.85" width="134.9" height="0.83"/><rect class="cls-29" x="282.59" y="35.68" width="134.9" height="0.83"/><rect class="cls-30" x="282.59" y="36.51" width="134.9" height="0.83"/><rect class="cls-31" x="282.59" y="37.33" width="134.9" height="0.83"/><rect class="cls-32" x="282.59" y="38.16" width="134.9" height="0.83"/><rect class="cls-32" x="282.59" y="38.99" width="134.9" height="0.83"/><rect class="cls-33" x="282.59" y="39.82" width="134.9" height="0.83"/><rect class="cls-33" x="282.59" y="40.65" width="134.9" height="0.83"/><rect class="cls-34" x="282.59" y="41.48" width="134.9" height="0.83"/><rect class="cls-35" x="282.59" y="42.31" width="134.9" height="0.83"/><rect class="cls-36" x="282.59" y="43.14" width="134.9" height="0.83"/><rect class="cls-37" x="282.59" y="43.97" width="134.9" height="0.83"/><rect class="cls-38" x="282.59" y="44.8" width="134.9" height="0.83"/><rect class="cls-38" x="282.59" y="45.63" width="134.9" height="0.83"/><rect class="cls-39" x="282.59" y="46.46" width="134.9" height="0.83"/><rect class="cls-39" x="282.59" y="47.29" width="134.9" height="0.83"/><rect class="cls-40" x="282.59" y="48.12" width="134.9" height="0.83"/><rect class="cls-41" x="282.59" y="48.95" width="134.9" height="0.83"/><rect class="cls-42" x="282.59" y="49.78" width="134.9" height="0.83"/><rect class="cls-43" x="282.59" y="50.61" width="134.9" height="0.83"/><rect class="cls-44" x="282.59" y="51.43" width="134.9" height="0.83"/><rect class="cls-45" x="282.59" y="52.26" width="134.9" height="0.83"/><rect class="cls-46" x="282.59" y="53.09" width="134.9" height="0.83"/><rect class="cls-46" x="282.59" y="53.92" width="134.9" height="0.83"/><rect class="cls-46" x="282.59" y="54.75" width="134.9" height="0.83"/><rect class="cls-47" x="282.59" y="55.58" width="134.9" height="0.83"/><rect class="cls-47" x="282.59" y="56.41" width="134.9" height="0.83"/><rect class="cls-48" x="282.59" y="57.24" width="134.9" height="0.83"/><rect class="cls-48" x="282.59" y="58.07" width="134.9" height="0.83"/><rect class="cls-49" x="282.59" y="58.9" width="134.9" height="0.83"/><rect class="cls-50" x="282.59" y="59.73" width="134.9" height="0.83"/><rect class="cls-51" x="282.59" y="60.56" width="134.9" height="0.83"/><rect class="cls-52" x="282.59" y="61.39" width="134.9" height="0.83"/><rect class="cls-53" x="282.59" y="62.22" width="134.9" height="0.83"/><rect class="cls-53" x="282.59" y="63.05" width="134.9" height="0.83"/><rect class="cls-54" x="282.59" y="63.88" width="134.9" height="0.83"/><rect class="cls-55" x="282.59" y="64.71" width="134.9" height="0.83"/><rect class="cls-56" x="282.59" y="65.53" width="134.9" height="0.83"/><rect class="cls-56" x="282.59" y="66.36" width="134.9" height="0.83"/><rect class="cls-57" x="282.59" y="67.19" width="134.9" height="0.83"/><rect class="cls-58" x="282.59" y="68.02" width="134.9" height="0.83"/><rect class="cls-58" x="282.59" y="68.85" width="134.9" height="0.83"/><rect class="cls-59" x="282.59" y="69.68" width="134.9" height="0.83"/><rect class="cls-60" x="282.59" y="70.51" width="134.9" height="0.83"/><rect class="cls-61" x="282.59" y="71.34" width="134.9" height="0.83"/><rect class="cls-62" x="282.59" y="72.17" width="134.9" height="0.83"/><rect class="cls-63" x="282.59" y="73" width="134.9" height="0.83"/><rect class="cls-64" x="282.59" y="73.83" width="134.9" height="0.83"/><rect class="cls-65" x="282.59" y="74.66" width="134.9" height="0.83"/><rect class="cls-65" x="282.59" y="75.49" width="134.9" height="0.83"/><rect class="cls-66" x="282.59" y="76.32" width="134.9" height="0.83"/><rect class="cls-67" x="282.59" y="77.15" width="134.9" height="0.83"/><rect class="cls-67" x="282.59" y="77.98" width="134.9" height="0.83"/><rect class="cls-68" x="282.59" y="78.81" width="134.9" height="0.83"/><rect class="cls-68" x="282.59" y="79.63" width="134.9" height="0.83"/><rect class="cls-69" x="282.59" y="80.46" width="134.9" height="0.83"/><rect class="cls-70" x="282.59" y="81.29" width="134.9" height="0.83"/><rect class="cls-71" x="282.59" y="82.12" width="134.9" height="0.83"/><rect class="cls-72" x="282.59" y="82.95" width="134.9" height="0.83"/><rect class="cls-73" x="282.59" y="83.78" width="134.9" height="0.83"/><rect class="cls-74" x="282.59" y="84.61" width="134.9" height="0.83"/><rect class="cls-74" x="282.59" y="85.44" width="134.9" height="0.83"/><rect class="cls-75" x="282.59" y="86.27" width="134.9" height="0.83"/><rect class="cls-76" x="282.59" y="87.1" width="134.9" height="0.83"/><rect class="cls-77" x="282.59" y="87.93" width="134.9" height="0.83"/><rect class="cls-78" x="282.59" y="88.76" width="134.9" height="0.83"/><rect class="cls-79" x="282.59" y="89.59" width="134.9" height="0.83"/><rect class="cls-79" x="282.59" y="90.42" width="134.9" height="0.83"/><rect class="cls-80" x="282.59" y="91.25" width="134.9" height="0.83"/><rect class="cls-81" x="282.59" y="92.08" width="134.9" height="0.83"/><rect class="cls-81" x="282.59" y="92.91" width="134.9" height="0.83"/><rect class="cls-82" x="282.59" y="93.73" width="134.9" height="0.83"/><rect class="cls-82" x="282.59" y="94.56" width="134.9" height="0.83"/><rect class="cls-83" x="282.59" y="95.39" width="134.9" height="0.83"/><rect class="cls-84" x="282.59" y="96.22" width="134.9" height="0.83"/><rect class="cls-84" x="282.59" y="97.05" width="134.9" height="0.83"/><rect class="cls-85" x="282.59" y="97.88" width="134.9" height="0.83"/><rect class="cls-85" x="282.59" y="98.71" width="134.9" height="0.83"/><rect class="cls-86" x="282.59" y="99.54" width="134.9" height="0.83"/><rect class="cls-87" x="282.59" y="100.37" width="134.9" height="0.83"/><rect class="cls-88" x="282.59" y="101.2" width="134.9" height="0.83"/><rect class="cls-89" x="282.59" y="102.03" width="134.9" height="0.83"/><rect class="cls-90" x="282.59" y="102.86" width="134.9" height="0.83"/><rect class="cls-91" x="282.59" y="103.69" width="134.9" height="0.83"/><rect class="cls-91" x="282.59" y="104.52" width="134.9" height="0.83"/><rect class="cls-92" x="282.59" y="105.35" width="134.9" height="0.83"/><rect class="cls-93" x="282.59" y="106.18" width="134.9" height="0.83"/><rect class="cls-94" x="282.59" y="107" width="134.9" height="0.83"/><rect class="cls-95" x="282.59" y="107.83" width="134.9" height="0.83"/><rect class="cls-95" x="282.59" y="108.66" width="134.9" height="0.83"/><rect class="cls-96" x="282.59" y="109.49" width="134.9" height="0.83"/><rect class="cls-97" x="282.59" y="110.32" width="134.9" height="0.83"/><rect class="cls-98" x="282.59" y="111.15" width="134.9" height="0.83"/><rect class="cls-99" x="282.59" y="111.98" width="134.9" height="0.83"/><rect class="cls-100" x="282.59" y="112.81" width="134.9" height="0.83"/><rect class="cls-101" x="282.59" y="113.64" width="134.9" height="0.83"/><rect class="cls-101" x="282.59" y="114.47" width="134.9" height="0.83"/><rect class="cls-102" x="282.59" y="115.3" width="134.9" height="0.83"/><rect class="cls-103" x="282.59" y="116.13" width="134.9" height="0.83"/><rect class="cls-104" x="282.59" y="116.96" width="134.9" height="0.83"/><rect class="cls-105" x="282.59" y="117.79" width="134.9" height="0.83"/><rect class="cls-106" x="282.59" y="118.62" width="134.9" height="0.83"/><rect class="cls-107" x="282.59" y="119.45" width="134.9" height="0.83"/><rect class="cls-108" x="282.59" y="120.28" width="134.9" height="0.83"/><rect class="cls-109" x="282.59" y="121.1" width="134.9" height="0.83"/><rect class="cls-110" x="282.59" y="121.93" width="134.9" height="0.83"/><rect class="cls-111" x="282.59" y="122.76" width="134.9" height="0.83"/><rect class="cls-112" x="282.59" y="123.59" width="134.9" height="0.83"/><rect class="cls-113" x="282.59" y="124.42" width="134.9" height="0.83"/><rect class="cls-113" x="282.59" y="125.25" width="134.9" height="0.83"/><rect class="cls-114" x="282.59" y="126.08" width="134.9" height="0.83"/><rect class="cls-114" x="282.59" y="126.91" width="134.9" height="0.83"/><rect class="cls-115" x="282.59" y="127.74" width="134.9" height="0.83"/><rect class="cls-116" x="282.59" y="128.57" width="134.9" height="0.83"/><rect class="cls-117" x="282.59" y="129.4" width="134.9" height="0.83"/><rect class="cls-118" x="282.59" y="130.23" width="134.9" height="0.83"/><rect class="cls-118" x="282.59" y="131.06" width="134.9" height="0.83"/><rect class="cls-119" x="282.59" y="131.89" width="134.9" height="0.83"/><rect class="cls-119" x="282.59" y="132.72" width="134.9" height="0.83"/><rect class="cls-120" x="282.59" y="133.55" width="134.9" height="0.83"/><rect class="cls-121" x="282.59" y="134.38" width="134.9" height="0.83"/><rect class="cls-122" x="282.59" y="135.2" width="134.9" height="0.83"/><rect class="cls-123" x="282.59" y="136.03" width="134.9" height="0.83"/><rect class="cls-124" x="282.59" y="136.86" width="134.9" height="0.83"/><rect class="cls-125" x="282.59" y="137.69" width="134.9" height="0.83"/><rect class="cls-126" x="282.59" y="138.52" width="134.9" height="0.83"/><rect class="cls-127" x="282.59" y="139.35" width="134.9" height="0.83"/><rect class="cls-128" x="282.59" y="140.18" width="134.9" height="0.83"/><rect class="cls-128" x="282.59" y="141.01" width="134.9" height="0.83"/><rect class="cls-129" x="282.59" y="141.84" width="134.9" height="0.83"/><rect class="cls-129" x="282.59" y="142.67" width="134.9" height="0.83"/><rect class="cls-130" x="282.59" y="143.5" width="134.9" height="0.83"/><rect class="cls-130" x="282.59" y="144.33" width="134.9" height="0.83"/><rect class="cls-131" x="282.59" y="145.16" width="134.9" height="0.83"/><rect class="cls-131" x="282.59" y="145.99" width="134.9" height="0.83"/><rect class="cls-132" x="282.59" y="146.82" width="134.9" height="0.83"/><rect class="cls-133" x="282.59" y="147.65" width="134.9" height="0.83"/><rect class="cls-134" x="282.59" y="148.48" width="134.9" height="0.83"/><rect class="cls-135" x="282.59" y="149.3" width="134.9" height="0.83"/><rect class="cls-136" x="282.59" y="150.13" width="134.9" height="0.83"/><rect class="cls-137" x="282.59" y="150.96" width="134.9" height="0.83"/><rect class="cls-137" x="282.59" y="151.79" width="134.9" height="0.83"/><rect class="cls-138" x="282.59" y="152.62" width="134.9" height="0.83"/><rect class="cls-139" x="282.59" y="153.45" width="134.9" height="0.83"/><rect class="cls-140" x="282.59" y="154.28" width="134.9" height="0.83"/><rect class="cls-141" x="282.59" y="155.11" width="134.9" height="0.83"/><rect class="cls-141" x="282.59" y="155.94" width="134.9" height="0.83"/><rect class="cls-142" x="282.59" y="156.77" width="134.9" height="0.83"/><rect class="cls-143" x="282.59" y="157.6" width="134.9" height="0.83"/><rect class="cls-144" x="282.59" y="158.43" width="134.9" height="0.83"/><rect class="cls-145" x="282.59" y="159.26" width="134.9" height="0.83"/><rect class="cls-146" x="282.59" y="160.09" width="134.9" height="0.83"/><rect class="cls-146" x="282.59" y="160.92" width="134.9" height="0.83"/><rect class="cls-147" x="282.59" y="161.75" width="134.9" height="0.83"/><rect class="cls-148" x="282.59" y="162.58" width="134.9" height="0.83"/><rect class="cls-149" x="282.59" y="163.4" width="134.9" height="0.83"/><rect class="cls-150" x="282.59" y="164.23" width="134.9" height="0.83"/><rect class="cls-151" x="282.59" y="165.06" width="134.9" height="0.83"/><rect class="cls-152" x="282.59" y="165.89" width="134.9" height="0.83"/><rect class="cls-153" x="282.59" y="166.72" width="134.9" height="0.83"/><rect class="cls-154" x="282.59" y="167.55" width="134.9" height="0.83"/><rect class="cls-155" x="282.59" y="168.38" width="134.9" height="0.83"/><rect class="cls-156" x="282.59" y="169.21" width="134.9" height="0.83"/><rect class="cls-157" x="282.59" y="170.04" width="134.9" height="0.83"/><rect class="cls-158" x="282.59" y="170.87" width="134.9" height="0.83"/><rect class="cls-159" x="282.59" y="171.7" width="134.9" height="0.83"/><rect class="cls-160" x="282.59" y="172.53" width="134.9" height="0.83"/><rect class="cls-161" x="282.59" y="173.36" width="134.9" height="0.83"/></g></svg>