<svg id="Layer_1" data-name="Layer 1" xmlns="http://www.w3.org/2000/svg" xmlns:xlink="http://www.w3.org/1999/xlink" viewBox="0 0 1249.44 286.91"><defs><style>.cls-1{fill:none;}.cls-2{fill:#fff;}.cls-3{clip-path:url(#clip-path);}.cls-4{fill:#a64697;}.cls-5{fill:#a74797;}.cls-6{fill:#a84896;}.cls-7{fill:#a84996;}.cls-8{fill:#a94996;}.cls-9{fill:#a94a95;}.cls-10{fill:#aa4a95;}.cls-11{fill:#aa4b95;}.cls-12{fill:#ab4b95;}.cls-13{fill:#ab4c95;}.cls-14{fill:#ab4c94;}.cls-15{fill:#ac4d94;}.cls-16{fill:#ad4e94;}.cls-17{fill:#ad4e93;}.cls-18{fill:#ad4f93;}.cls-19{fill:#ae4f93;}.cls-20{fill:#ae5093;}.cls-21{fill:#af5092;}.cls-22{fill:#af5192;}.cls-23{fill:#b05192;}.cls-24{fill:#b05292;}.cls-25{fill:#b05291;}.cls-26{fill:#b15391;}.cls-27{fill:#b25491;}.cls-28{fill:#b25490;}.cls-29{fill:#b25590;}.cls-30{fill:#b35590;}.cls-31{fill:#b35690;}.cls-32{fill:#b45690;}.cls-33{fill:#b4578f;}.cls-34{fill:#b5588f;}.cls-35{fill:#b5598e;}.cls-36{fill:#b6598e;}.cls-37{fill:#b65a8e;}.cls-38{fill:#b75a8e;}.cls-39{fill:#b75b8d;}.cls-40{fill:#b85c8d;}.cls-41{fill:#b85d8d;}.cls-42{fill:#b95d8c;}.cls-43{fill:#b95e8c;}.cls-44{fill:#ba5e8c;}.cls-45{fill:#ba5f8c;}.cls-46{fill:#ba5f8b;}.cls-47{fill:#bb608b;}.cls-48{fill:#bc618a;}.cls-49{fill:#bd628a;}.cls-50{fill:#bd6389;}.cls-51{fill:#be6389;}.cls-52{fill:#be6489;}.cls-53{fill:#bf6488;}.cls-54{fill:#bf6588;}.cls-55{fill:#c06688;}.cls-56{fill:#c06687;}.cls-57{fill:#c16787;}.cls-58{fill:#c16887;}.cls-59{fill:#c26886;}.cls-60{fill:#c36986;}.cls-61{fill:#c36985;}.cls-62{fill:#c36a85;}.cls-63{fill:#c46a85;}.cls-64{fill:#c46b85;}.cls-65{fill:#c56b84;}.cls-66{fill:#c56c84;}.cls-67{fill:#c66c83;}.cls-68{fill:#c66d83;}.cls-69{fill:#c76e82;}.cls-70{fill:#c86f82;}.cls-71{fill:#c86f81;}.cls-72{fill:#c87081;}.cls-73{fill:#c97081;}.cls-74{fill:#c97080;}.cls-75{fill:#ca7180;}.cls-76{fill:#ca727f;}.cls-77{fill:#cb727f;}.cls-78{fill:#cb737f;}.cls-79{fill:#cc737e;}.cls-80{fill:#cc747e;}.cls-81{fill:#cd747d;}.cls-82{fill:#cd757d;}.cls-83{fill:#ce767c;}.cls-84{fill:#cf777c;}.cls-85{fill:#cf777b;}.cls-86{fill:#d0787a;}.cls-87{fill:#d1797a;}.cls-88{fill:#d17979;}.cls-89{fill:#d17a79;}.cls-90{fill:#d27a79;}.cls-91{fill:#d27a78;}.cls-92{fill:#d37b78;}.cls-93{fill:#d37c77;}.cls-94{fill:#d47c77;}.cls-95{fill:#d47d76;}.cls-96{fill:#d57d76;}.cls-97{fill:#d57e75;}.cls-98{fill:#d67e75;}.cls-99{fill:#d67f74;}.cls-100{fill:#d77f74;}.cls-101{fill:#d78074;}.cls-102{fill:#d88073;}.cls-103{fill:#d88173;}.cls-104{fill:#d98172;}.cls-105{fill:#d98272;}.cls-106{fill:#da8271;}.cls-107{fill:#da8371;}.cls-108{fill:#db8371;}.cls-109{fill:#db8370;}.cls-110{fill:#db8470;}.cls-111{fill:#dc846f;}.cls-112{fill:#dc856f;}.cls-113{fill:#dd856f;}.cls-114{fill:#dd866e;}.cls-115{fill:#de876d;}.cls-116{fill:#df876c;}.cls-117{fill:#df886c;}.cls-118{fill:#e0886b;}.cls-119{fill:#e0896b;}.cls-120{fill:#e18a6a;}.cls-121{fill:#e28a69;}.cls-122{fill:#e28b69;}.cls-123{fill:#e38b68;}.cls-124{fill:#e38c68;}.cls-125{fill:#e38c67;}.cls-126{fill:#e48d67;}.cls-127{fill:#e48d66;}.cls-128{fill:#e58e66;}.cls-129{fill:#e58e65;}.cls-130{fill:#e68f64;}.cls-131{fill:#e79063;}.cls-132{fill:#e89162;}.cls-133{fill:#e89161;}.cls-134{fill:#e99261;}.cls-135{fill:#e99260;}.cls-136{fill:#ea9360;}.cls-137{fill:#ea935f;}.cls-138{fill:#eb945e;}.cls-139{fill:#eb955d;}.cls-140{fill:#ec955d;}.cls-141{fill:#ec955c;}.cls-142{fill:#ed965b;}.cls-143{fill:#ee975a;}.cls-144{fill:#ee9759;}.cls-145{fill:#ef9859;}.cls-146{fill:#ef9858;}.cls-147{fill:#f09957;}.cls-148{fill:#f09a56;}.cls-149{fill:#f19a55;}.cls-150{fill:#f19b55;}.cls-151{fill:#f29b54;}.cls-152{fill:#f39c53;}.cls-153{fill:#f39c52;}.cls-154{fill:#f49d52;}.cls-155{fill:#f49d51;}.cls-156{fill:#f59d50;}.cls-157{fill:#f59e4f;}.cls-158{fill:#f69f4e;}.cls-159{fill:#f79f4e;}.cls-160{fill:#f7a04d;}.cls-161{fill:#f8a04c;}.cls-162{fill:#f9a14b;}</style><clipPath id="clip-path"><path class="cls-1" d="M310.91,61c0-4.21-3.24-7-8.09-7H292c-4.85,0-8.09-2.81-8.09-7V17c0-4.21,3.24-7,8.09-7h10.8c4.85,0,8.09,2.82,8.09,7V54h27V77.43h27V54h27V17c0-4.21,3.24-7,8.09-7h10.8c4.85,0,8.09,2.82,8.09,7V47c0,4.22-3.24,7-8.09,7h-10.8c-4.85,0-8.09,2.81-8.09,7V66c0,7-5.13,11.47-13.22,11.47-8.36,0-13.76,4.69-13.76,11.72v6.09c0,7,5.4,11.48,13.76,11.48,8.09,0,13.22,4.45,13.22,11.48v4.92c0,4.21,3.24,7,8.09,7h10.8c4.85,0,8.09,2.82,8.09,7v30c0,4.22-3.24,7-8.09,7h-10.8c-4.85,0-8.09-2.81-8.09-7v-37h-27V106.72h-27v23.42h-27v37c0,4.22-3.24,7-8.09,7H292c-4.85,0-8.09-2.81-8.09-7v-30c0-4.21,3.24-7,8.09-7h10.8c4.85,0,8.09-2.81,8.09-7V118.2c0-7,5.4-11.48,13.76-11.48,8.09,0,13.22-4.45,13.22-11.48V89.15c0-7-5.13-11.72-13.22-11.72-8.36,0-13.76-4.45-13.76-11.47Z"/></clipPath></defs><path class="cls-2" d="M134.22,256.14a16,16,0,0,1-10.7,8.65,22.37,22.37,0,0,1-5.24.71H118c-6.93,0-13.09-3.56-17.35-10L99.05,253l5.81-3.12,1.35,2c2.13,3.18,5.88,7,11.72,7h.2a16.22,16.22,0,0,0,3.79-.53,9.46,9.46,0,0,0,6.38-5.05,7.38,7.38,0,0,0,0-6.28c-1.69-3.71-6-5.78-10.63-8-4-1.89-8.1-3.85-11-7.14a12.63,12.63,0,0,1-1.39-15.06,15.34,15.34,0,0,1,13-7.38,16.22,16.22,0,0,1,6.68,1.26,14.94,14.94,0,0,1,2.63,1.5,17.46,17.46,0,0,1,5,6.26l.9,2-6.28,2.71-.84-2.05s-1.89-4.36-6-4.92a14.4,14.4,0,0,0-2-.14,8.75,8.75,0,0,0-7.44,4.16,6,6,0,0,0,.71,7.29c1.94,2.25,5.27,3.83,8.8,5.51,5.46,2.6,11.11,5.28,13.8,11.19A14,14,0,0,1,134.22,256.14Z"/><path class="cls-2" d="M139.53,218.86a4.1,4.1,0,1,1,4.1,4.09A4.11,4.11,0,0,1,139.53,218.86Zm.91,45.46V226.8H147v37.52Z"/><path class="cls-2" d="M212.15,242.81v21.52h-6.61V242.81c0-9.48-6.81-10.51-9.74-10.51s-9.25.95-9.71,9.52c0,.33,0,.66,0,1v21.52H179.5V242.8c0-9.15-4.8-10.51-8.78-10.51-6.05,0-10.7,4-10.7,11.76v20.27h-6.61V226.81H160v5.1a12.51,12.51,0,0,1,10.71-6.22c6.69,0,10.66,2.84,12.88,6.65a13.71,13.71,0,0,1,12.2-6.65,15.86,15.86,0,0,1,11.84,4.75A17.48,17.48,0,0,1,212.15,242.81Z"/><path class="cls-2" d="M258.42,245.29a19.91,19.91,0,0,1-19.88,19.88c-5,0-11.28-2.58-13.27-7.72v22.61h-6.61V226.53h6.61V233c1.63-4.84,8.18-7.55,13.27-7.55A19.9,19.9,0,0,1,258.42,245.29Zm-6.61,0c0-7.32-5.95-13.92-13.27-13.92s-13.27,6.6-13.27,13.92,5.95,14,13.27,14S251.81,252.6,251.81,245.29Z"/><path class="cls-2" d="M279.52,257.71v6.6h-2.18c-4.34,0-7.82-1.38-10.33-4.12-4.15-4.52-3.93-10.87-3.83-12.18V210.86h6.61v37.49c0,.19-.26,4.8,2.11,7.38a7,7,0,0,0,5.34,2Z"/><path class="cls-2" d="M282,218.86a4.1,4.1,0,1,1,4.1,4.09A4.11,4.11,0,0,1,282,218.86Zm.91,45.46V226.8h6.6v37.52Z"/><path class="cls-2" d="M315,209.83v6.6l-2.6.08a6.89,6.89,0,0,0-5,2c-2.4,2.61-2.12,7.2-2.12,7.25v.74h5.69v6.61h-5.69v31.24h-6.61V233.08h-5.1v-6.61h5.1v-.4c-.09-1.29-.27-7.56,3.84-12a13.21,13.21,0,0,1,9.74-4.11Z"/><path class="cls-2" d="M347.9,226.79l-23.1,52.59h-7.56L324.91,262l-14-35.22h7.21l10.6,26.9,11.89-26.9Z"/><path class="cls-2" d="M394.33,257.71v6.6h-2.18c-4.34,0-7.82-1.38-10.33-4.12-4.12-4.48-3.92-10.86-3.83-12.17V216.37h6.61v10.46h9.27v6.61h-9.27v14.91c0,.05-.33,4.73,2.11,7.38a7.11,7.11,0,0,0,5.46,2Z"/><path class="cls-2" d="M418.64,226v6.83l-.93-.23a11.85,11.85,0,0,0-2.84-.35c-2.91,0-9.69,1-9.74,10.4V264.3h-6.61V226.79h6.6l.08,4.4c1.23-3.6,5.91-5.52,9.67-5.52a20.39,20.39,0,0,1,3.15.25Z"/><path class="cls-2" d="M459.93,226.81v37.51h-6.61v-6.43c-1.63,4.84-8.18,7.55-13.27,7.55a19.88,19.88,0,0,1,0-39.76c5,0,11.28,2.58,13.27,7.72v-6.59Zm-6.61,18.75c0-7.31-5.95-14-13.27-14s-13.27,6.67-13.27,14,6,13.92,13.27,13.92S453.32,252.88,453.32,245.56Z"/><path class="cls-2" d="M500.3,226.8l-16.47,37.52h-5.21L463.49,226.8h7.06l10.83,26.35,11.77-26.35Z"/><path class="cls-2" d="M541,248.74H509a12.86,12.86,0,0,0,21.34,6.62s6.83,2.37,6.78,2.43a21.58,21.58,0,0,1-1.53,1.77,19.75,19.75,0,1,1-14-33.88c10,0,18.33,7.76,19.45,18C541,243.82,541,248.74,541,248.74Zm-6.88-6.17a12.78,12.78,0,0,0-25.07,0Z"/><path class="cls-2" d="M561.76,257.71v6.6h-2.18c-4.34,0-7.81-1.38-10.33-4.12-4.15-4.52-3.93-10.87-3.83-12.18V210.86H552v37.49c0,.19-.27,4.8,2.11,7.38a7,7,0,0,0,5.33,2Z"/><path class="cls-2" d="M578.32,257.24l-8.43,14.34h-4.67l5.45-14.34Z"/><path class="cls-2" d="M661.35,264.32h-7.28l-7.33-15.87H622.32l-7.25,15.87H607.8l24.39-53.44h4.48Zm-17.66-22.48-9.24-20-9.12,20Z"/><path class="cls-2" d="M723,242.81v21.52H716.4V242.81c0-9.48-6.81-10.51-9.74-10.51s-9.25.95-9.71,9.52c0,.33,0,.66,0,1v21.52h-6.61V242.8c0-9.15-4.8-10.51-8.78-10.51-6.06,0-10.71,4-10.71,11.76v20.27h-6.6V226.81h6.6v5.1a12.5,12.5,0,0,1,10.71-6.22c6.69,0,10.65,2.84,12.88,6.65a13.69,13.69,0,0,1,12.2-6.65,15.86,15.86,0,0,1,11.84,4.75A17.48,17.48,0,0,1,723,242.81Z"/><path class="cls-2" d="M769.28,245.29a19.91,19.91,0,0,1-19.88,19.88c-5,0-11.28-2.58-13.27-7.72v22.61h-6.61V226.53h6.61V233c1.63-4.84,8.18-7.55,13.27-7.55A19.9,19.9,0,0,1,769.28,245.29Zm-6.61,0c0-7.32-5.95-13.92-13.27-13.92s-13.27,6.6-13.27,13.92,6,14,13.27,14S762.67,252.6,762.67,245.29Z"/><path class="cls-2" d="M790.37,257.71v6.6h-2.18c-4.33,0-7.81-1.38-10.32-4.12-4.16-4.52-3.93-10.87-3.84-12.18V210.86h6.6v37.49c0,.19-.27,4.8,2.11,7.38a7,7,0,0,0,5.34,2Z"/><path class="cls-2" d="M792.89,218.86A4.1,4.1,0,1,1,797,223,4.11,4.11,0,0,1,792.89,218.86Zm.91,45.46V226.8h6.6v37.52Z"/><path class="cls-2" d="M825.81,209.83v6.6l-2.59.08a6.88,6.88,0,0,0-5,2c-2.4,2.61-2.12,7.2-2.12,7.25v.74h5.68v6.61h-5.68v31.24h-6.6V233.08h-5.1v-6.61h5.1v-.4c-.09-1.29-.28-7.56,3.84-12a13.21,13.21,0,0,1,9.74-4.11Z"/><path class="cls-2" d="M858.76,226.79l-23.11,52.59H828.1L835.77,262l-14-35.22H829l10.6,26.9,11.89-26.9Z"/><path class="cls-2" d="M921.51,256.14a16,16,0,0,1-10.7,8.65,22.37,22.37,0,0,1-5.24.71h-.27c-6.93,0-13.09-3.56-17.35-10L886.34,253l5.81-3.12,1.35,2c2.12,3.18,5.88,7,11.72,7h.19a16.15,16.15,0,0,0,3.79-.53,9.44,9.44,0,0,0,6.38-5.05,7.38,7.38,0,0,0,0-6.28c-1.69-3.71-6-5.78-10.64-8-4-1.89-8.1-3.85-10.94-7.14a12.62,12.62,0,0,1-1.39-15.06,15.32,15.32,0,0,1,13-7.38,16.25,16.25,0,0,1,6.68,1.26,14.94,14.94,0,0,1,2.63,1.5,17.59,17.59,0,0,1,5,6.26l.89,2-6.28,2.71-.83-2.05s-1.9-4.36-6-4.92a14.4,14.4,0,0,0-2-.14,8.75,8.75,0,0,0-7.44,4.16,6,6,0,0,0,.71,7.29c1.94,2.25,5.27,3.83,8.8,5.51,5.46,2.6,11.11,5.28,13.8,11.19A14,14,0,0,1,921.51,256.14Z"/><path class="cls-2" d="M960,226.83v21.52a17.48,17.48,0,0,1-4.51,12.37,17.13,17.13,0,0,1-23.68,0,17.48,17.48,0,0,1-4.51-12.37V226.83h6.61v21.52c0,9.48,6.81,10.51,9.74,10.51s9.74-1,9.74-10.51V226.83Z"/><path class="cls-2" d="M995.49,253l4.73,4.79-1.05,1.15a19.89,19.89,0,1,1,0-26.71l1.1,1.21L995.39,238l-.5-.64a13.27,13.27,0,1,0,.08,16.3Z"/><path class="cls-2" d="M1034.87,253l4.73,4.79-1,1.15a19.89,19.89,0,1,1,0-26.71l1.11,1.21-4.89,4.58-.5-.64a13.26,13.26,0,1,0,.09,16.3Z"/><path class="cls-2" d="M1082.34,248.74h-32a13,13,0,0,0,12.6,10.09,12.88,12.88,0,0,0,8.74-3.47s6.84,2.37,6.79,2.43a19.92,19.92,0,0,1-1.54,1.77,19.53,19.53,0,0,1-14,5.88,19.88,19.88,0,0,1,0-39.76c10,0,18.34,7.76,19.46,18C1082.39,243.82,1082.34,248.74,1082.34,248.74Zm-6.88-6.17a12.78,12.78,0,0,0-25.07,0Z"/><path class="cls-2" d="M1116.88,257.4a10,10,0,0,1-1,2.06c-1.91,2.89-5.1,4.74-9.75,5.66a19,19,0,0,1-3.73.36,22.12,22.12,0,0,1-7.14-1.21,21.51,21.51,0,0,1-4.94-2.46,18.93,18.93,0,0,1-2.18-1.69l-.16-.14a10.25,10.25,0,0,1-1.83-1.94l-.37-.54,5.77-3.9.36.55c3.07,4.58,10.56,4.87,11,4.88a15.4,15.4,0,0,0,5.27-1.21,5,5,0,0,0,2.64-2.57,2.68,2.68,0,0,0-.17-2.2c-.78-1.62-2.94-2.5-4.74-3.09a37.14,37.14,0,0,0-4.25-1,37.47,37.47,0,0,1-6.14-1.62c-3-1.16-6.55-3-7.94-7-1.55-4.46.8-9.19,3.91-11.56a17.56,17.56,0,0,1,10.18-3.28h.42a16.84,16.84,0,0,1,13.08,5.87l1.21,1.6-5.07,3.95-1.3-1.59a10.75,10.75,0,0,0-8.28-3.37,11,11,0,0,0-6.37,2c-1.22.93-2.18,2.77-1.67,4.24s2.35,2.43,4.24,3.16a31.11,31.11,0,0,0,5.07,1.31,42.33,42.33,0,0,1,5,1.21c2.77.9,6.66,2.54,8.5,6.37A9.07,9.07,0,0,1,1116.88,257.4Z"/><path class="cls-2" d="M1152.49,257.4a9.53,9.53,0,0,1-1,2.06c-1.9,2.89-5.09,4.74-9.75,5.66a18.93,18.93,0,0,1-3.72.36,22.08,22.08,0,0,1-7.14-1.21,21.51,21.51,0,0,1-4.94-2.46,18.93,18.93,0,0,1-2.18-1.69l-.16-.14a10.3,10.3,0,0,1-1.84-1.94l-.36-.54,5.76-3.9.37.55c3.07,4.58,10.56,4.87,11,4.88a15.46,15.46,0,0,0,5.28-1.21,5,5,0,0,0,2.64-2.57,2.68,2.68,0,0,0-.17-2.2c-.78-1.62-3-2.5-4.75-3.09a37,37,0,0,0-4.24-1,37.47,37.47,0,0,1-6.14-1.62c-3-1.16-6.55-3-7.94-7-1.55-4.46.79-9.19,3.91-11.56a17.53,17.53,0,0,1,10.17-3.28h.43a16.86,16.86,0,0,1,13.08,5.87L1152,233l-5.08,3.95-1.3-1.59a10.71,10.71,0,0,0-8.28-3.37,11,11,0,0,0-6.36,2c-1.23.93-2.19,2.77-1.68,4.24s2.36,2.43,4.25,3.16a30.85,30.85,0,0,0,5.07,1.31,42.81,42.81,0,0,1,5,1.21c2.76.9,6.66,2.54,8.5,6.37A9.07,9.07,0,0,1,1152.49,257.4Z"/><path class="cls-2" d="M24.56,14.07h26L93.33,135.7q3,8.42,8.65,8.42a8.4,8.4,0,0,0,8.42-8.42V14.07h26V135.7A32.94,32.94,0,0,1,126.19,160,33.26,33.26,0,0,1,102,170.08q-13.11,0-21-9.24T67.36,135.7L50.52,87.75v82.33h-26Z"/><path class="cls-2" d="M155.54,14.07H255.65V40H181.5V79.09h61.05v26H181.5v39.06h74.15v26H155.54Z"/><path class="cls-2" d="M512.53,144.12a51.7,51.7,0,0,0,44.91-26H512.53v-26h77.89a78,78,0,1,1-156-.11A76.26,76.26,0,0,1,444.82,53,77.55,77.55,0,0,1,473.24,24.6a76.46,76.46,0,0,1,39.29-10.53,75,75,0,0,1,50.41,18.6,76.16,76.16,0,0,1,26.31,46.42H562.82A51.11,51.11,0,0,0,544.34,51a51.89,51.89,0,0,0-68.76,4.32,50.42,50.42,0,0,0-15.2,36.84,51.91,51.91,0,0,0,52.15,51.93Z"/><path class="cls-2" d="M603.75,14.07H703.86V40H629.71V79.09h61v26h-61v39.06h74.15v26H603.75Z"/><path class="cls-2" d="M718.36,14.07h26l42.8,121.63q3,8.42,8.66,8.42a8.4,8.4,0,0,0,8.42-8.42V14.07h26V135.7a34.54,34.54,0,0,1-34.38,34.38q-13.11,0-21-9.24T761.16,135.7L744.32,87.75v82.33h-26Z"/><path class="cls-2" d="M853.2,131.25a76.89,76.89,0,0,1-10.41-39.17A76.26,76.26,0,0,1,853.2,53,77.55,77.55,0,0,1,881.62,24.6a78.14,78.14,0,0,1,78.35,0A77.55,77.55,0,0,1,988.39,53,76.26,76.26,0,0,1,998.8,92.08a78.06,78.06,0,0,1-145.6,39.17Zm30.87-2.34a52,52,0,0,0,88.77-36.72,50.43,50.43,0,0,0-15.21-36.84,51.81,51.81,0,0,0-73.56,0,50.26,50.26,0,0,0-15.32,36.84A49.84,49.84,0,0,0,884.07,128.91Z"/><path class="cls-2" d="M997.4,14.07h27.13l32.74,110.4L1090,14.07h27.13l-46.31,156h-27.13Z"/><path class="cls-2" d="M1127.21,124.7q0-20.58,13.33-32.51Q1127.21,80,1127.21,59.68q0-14.73,7.48-25.26A44.85,44.85,0,0,1,1153.29,19a61.55,61.55,0,0,1,48.18,0,44.89,44.89,0,0,1,18.59,15.44q7.49,10.53,7.49,25.26,0,20.35-13.34,32.51,13.33,11.93,13.34,32.51,0,14.51-7.49,25.15a43.69,43.69,0,0,1-18.59,15.43,62.85,62.85,0,0,1-48.18,0,43.65,43.65,0,0,1-18.6-15.43Q1127.21,139.2,1127.21,124.7Zm74.37-65q0-9.34-7.13-14.5a28.23,28.23,0,0,0-17-5.15h-.23a28.23,28.23,0,0,0-17,5.15q-7.14,5.15-7.13,14.5a17,17,0,0,0,5,12.51,21.61,21.61,0,0,0,12,6.2,43.07,43.07,0,0,0,14.15,0,21.74,21.74,0,0,0,12.17-6.2A17,17,0,0,0,1201.58,59.68Zm-24.32,84.44h.23a28.71,28.71,0,0,0,17-5q7.14-5,7.13-14.39a17.38,17.38,0,0,0-5-12.63,21.52,21.52,0,0,0-12.17-6.31,43.07,43.07,0,0,0-14.15,0,21.39,21.39,0,0,0-12,6.31,17.35,17.35,0,0,0-5,12.63q0,9.36,7.13,14.39A28.71,28.71,0,0,0,1177.26,144.12Z"/><g class="cls-3"><rect class="cls-4" x="283.93" y="9.96" width="134.9"/><rect class="cls-4" x="283.93" y="9.96" width="134.9" height="0.83"/><rect class="cls-5" x="283.93" y="10.79" width="134.9" height="0.83"/><rect class="cls-5" x="283.93" y="11.62" width="134.9" height="0.83"/><rect class="cls-6" x="283.93" y="12.45" width="134.9" height="0.83"/><rect class="cls-6" x="283.93" y="13.28" width="134.9" height="0.83"/><rect class="cls-7" x="283.93" y="14.11" width="134.9" height="0.83"/><rect class="cls-8" x="283.93" y="14.94" width="134.9" height="0.83"/><rect class="cls-9" x="283.93" y="15.77" width="134.9" height="0.83"/><rect class="cls-10" x="283.93" y="16.6" width="134.9" height="0.83"/><rect class="cls-11" x="283.93" y="17.43" width="134.9" height="0.83"/><rect class="cls-12" x="283.93" y="18.26" width="134.9" height="0.83"/><rect class="cls-13" x="283.93" y="19.09" width="134.9" height="0.83"/><rect class="cls-14" x="283.93" y="19.92" width="134.9" height="0.83"/><rect class="cls-15" x="283.93" y="20.75" width="134.9" height="0.83"/><rect class="cls-15" x="283.93" y="21.58" width="134.9" height="0.83"/><rect class="cls-16" x="283.93" y="22.41" width="134.9" height="0.83"/><rect class="cls-17" x="283.93" y="23.24" width="134.9" height="0.83"/><rect class="cls-18" x="283.93" y="24.06" width="134.9" height="0.83"/><rect class="cls-19" x="283.93" y="24.89" width="134.9" height="0.83"/><rect class="cls-20" x="283.93" y="25.72" width="134.9" height="0.83"/><rect class="cls-21" x="283.93" y="26.55" width="134.9" height="0.83"/><rect class="cls-22" x="283.93" y="27.38" width="134.9" height="0.83"/><rect class="cls-22" x="283.93" y="28.21" width="134.9" height="0.83"/><rect class="cls-23" x="283.93" y="29.04" width="134.9" height="0.83"/><rect class="cls-24" x="283.93" y="29.87" width="134.9" height="0.83"/><rect class="cls-25" x="283.93" y="30.7" width="134.9" height="0.83"/><rect class="cls-26" x="283.93" y="31.53" width="134.9" height="0.83"/><rect class="cls-26" x="283.93" y="32.36" width="134.9" height="0.83"/><rect class="cls-27" x="283.93" y="33.19" width="134.9" height="0.83"/><rect class="cls-28" x="283.93" y="34.02" width="134.9" height="0.83"/><rect class="cls-29" x="283.93" y="34.85" width="134.9" height="0.83"/><rect class="cls-30" x="283.93" y="35.68" width="134.9" height="0.83"/><rect class="cls-31" x="283.93" y="36.51" width="134.9" height="0.83"/><rect class="cls-32" x="283.93" y="37.33" width="134.9" height="0.83"/><rect class="cls-33" x="283.93" y="38.16" width="134.9" height="0.83"/><rect class="cls-33" x="283.93" y="38.99" width="134.9" height="0.83"/><rect class="cls-34" x="283.93" y="39.82" width="134.9" height="0.83"/><rect class="cls-34" x="283.93" y="40.65" width="134.9" height="0.83"/><rect class="cls-35" x="283.93" y="41.48" width="134.9" height="0.83"/><rect class="cls-36" x="283.93" y="42.31" width="134.9" height="0.83"/><rect class="cls-37" x="283.93" y="43.14" width="134.9" height="0.83"/><rect class="cls-38" x="283.93" y="43.97" width="134.9" height="0.83"/><rect class="cls-39" x="283.93" y="44.8" width="134.9" height="0.83"/><rect class="cls-39" x="283.93" y="45.63" width="134.9" height="0.83"/><rect class="cls-40" x="283.93" y="46.46" width="134.9" height="0.83"/><rect class="cls-40" x="283.93" y="47.29" width="134.9" height="0.83"/><rect class="cls-41" x="283.93" y="48.12" width="134.9" height="0.83"/><rect class="cls-42" x="283.93" y="48.95" width="134.9" height="0.83"/><rect class="cls-43" x="283.93" y="49.78" width="134.9" height="0.83"/><rect class="cls-44" x="283.93" y="50.61" width="134.9" height="0.83"/><rect class="cls-45" x="283.93" y="51.43" width="134.9" height="0.83"/><rect class="cls-46" x="283.93" y="52.26" width="134.9" height="0.83"/><rect class="cls-47" x="283.93" y="53.09" width="134.9" height="0.83"/><rect class="cls-47" x="283.93" y="53.92" width="134.9" height="0.83"/><rect class="cls-47" x="283.93" y="54.75" width="134.9" height="0.83"/><rect class="cls-48" x="283.93" y="55.58" width="134.9" height="0.83"/><rect class="cls-48" x="283.93" y="56.41" width="134.9" height="0.83"/><rect class="cls-49" x="283.93" y="57.24" width="134.9" height="0.83"/><rect class="cls-49" x="283.93" y="58.07" width="134.9" height="0.83"/><rect class="cls-50" x="283.93" y="58.9" width="134.9" height="0.83"/><rect class="cls-51" x="283.93" y="59.73" width="134.9" height="0.83"/><rect class="cls-52" x="283.93" y="60.56" width="134.9" height="0.83"/><rect class="cls-53" x="283.93" y="61.39" width="134.9" height="0.83"/><rect class="cls-54" x="283.93" y="62.22" width="134.9" height="0.83"/><rect class="cls-54" x="283.93" y="63.05" width="134.9" height="0.83"/><rect class="cls-55" x="283.93" y="63.88" width="134.9" height="0.83"/><rect class="cls-56" x="283.93" y="64.71" width="134.9" height="0.83"/><rect class="cls-57" x="283.93" y="65.53" width="134.9" height="0.83"/><rect class="cls-57" x="283.93" y="66.36" width="134.9" height="0.83"/><rect class="cls-58" x="283.93" y="67.19" width="134.9" height="0.83"/><rect class="cls-59" x="283.93" y="68.02" width="134.9" height="0.83"/><rect class="cls-59" x="283.93" y="68.85" width="134.9" height="0.83"/><rect class="cls-60" x="283.93" y="69.68" width="134.9" height="0.83"/><rect class="cls-61" x="283.93" y="70.51" width="134.9" height="0.83"/><rect class="cls-62" x="283.93" y="71.34" width="134.9" height="0.83"/><rect class="cls-63" x="283.93" y="72.17" width="134.9" height="0.83"/><rect class="cls-64" x="283.93" y="73" width="134.9" height="0.83"/><rect class="cls-65" x="283.93" y="73.83" width="134.9" height="0.83"/><rect class="cls-66" x="283.93" y="74.66" width="134.9" height="0.83"/><rect class="cls-66" x="283.93" y="75.49" width="134.9" height="0.83"/><rect class="cls-67" x="283.93" y="76.32" width="134.9" height="0.83"/><rect class="cls-68" x="283.93" y="77.15" width="134.9" height="0.83"/><rect class="cls-68" x="283.93" y="77.98" width="134.9" height="0.83"/><rect class="cls-69" x="283.93" y="78.81" width="134.9" height="0.83"/><rect class="cls-69" x="283.93" y="79.63" width="134.9" height="0.83"/><rect class="cls-70" x="283.93" y="80.46" width="134.9" height="0.83"/><rect class="cls-71" x="283.93" y="81.29" width="134.9" height="0.83"/><rect class="cls-72" x="283.93" y="82.12" width="134.9" height="0.83"/><rect class="cls-73" x="283.93" y="82.95" width="134.9" height="0.83"/><rect class="cls-74" x="283.93" y="83.78" width="134.9" height="0.83"/><rect class="cls-75" x="283.93" y="84.61" width="134.9" height="0.83"/><rect class="cls-75" x="283.93" y="85.44" width="134.9" height="0.83"/><rect class="cls-76" x="283.93" y="86.27" width="134.9" height="0.83"/><rect class="cls-77" x="283.93" y="87.1" width="134.9" height="0.83"/><rect class="cls-78" x="283.93" y="87.93" width="134.9" height="0.83"/><rect class="cls-79" x="283.93" y="88.76" width="134.9" height="0.83"/><rect class="cls-80" x="283.93" y="89.59" width="134.9" height="0.83"/><rect class="cls-80" x="283.93" y="90.42" width="134.9" height="0.83"/><rect class="cls-81" x="283.93" y="91.25" width="134.9" height="0.83"/><rect class="cls-82" x="283.93" y="92.08" width="134.9" height="0.83"/><rect class="cls-82" x="283.93" y="92.91" width="134.9" height="0.83"/><rect class="cls-83" x="283.93" y="93.73" width="134.9" height="0.83"/><rect class="cls-83" x="283.93" y="94.56" width="134.9" height="0.83"/><rect class="cls-84" x="283.93" y="95.39" width="134.9" height="0.83"/><rect class="cls-85" x="283.93" y="96.22" width="134.9" height="0.83"/><rect class="cls-85" x="283.93" y="97.05" width="134.9" height="0.83"/><rect class="cls-86" x="283.93" y="97.88" width="134.9" height="0.83"/><rect class="cls-86" x="283.93" y="98.71" width="134.9" height="0.83"/><rect class="cls-87" x="283.93" y="99.54" width="134.9" height="0.83"/><rect class="cls-88" x="283.93" y="100.37" width="134.9" height="0.83"/><rect class="cls-89" x="283.93" y="101.2" width="134.9" height="0.83"/><rect class="cls-90" x="283.93" y="102.03" width="134.9" height="0.83"/><rect class="cls-91" x="283.93" y="102.86" width="134.9" height="0.83"/><rect class="cls-92" x="283.93" y="103.69" width="134.9" height="0.83"/><rect class="cls-92" x="283.93" y="104.52" width="134.9" height="0.83"/><rect class="cls-93" x="283.93" y="105.35" width="134.9" height="0.83"/><rect class="cls-94" x="283.93" y="106.18" width="134.9" height="0.83"/><rect class="cls-95" x="283.93" y="107" width="134.9" height="0.83"/><rect class="cls-96" x="283.93" y="107.83" width="134.9" height="0.83"/><rect class="cls-96" x="283.93" y="108.66" width="134.9" height="0.83"/><rect class="cls-97" x="283.93" y="109.49" width="134.9" height="0.83"/><rect class="cls-98" x="283.93" y="110.32" width="134.9" height="0.83"/><rect class="cls-99" x="283.93" y="111.15" width="134.9" height="0.83"/><rect class="cls-100" x="283.93" y="111.98" width="134.9" height="0.83"/><rect class="cls-101" x="283.93" y="112.81" width="134.9" height="0.83"/><rect class="cls-102" x="283.93" y="113.64" width="134.9" height="0.83"/><rect class="cls-102" x="283.93" y="114.47" width="134.9" height="0.83"/><rect class="cls-103" x="283.93" y="115.3" width="134.9" height="0.83"/><rect class="cls-104" x="283.93" y="116.13" width="134.9" height="0.83"/><rect class="cls-105" x="283.93" y="116.96" width="134.9" height="0.83"/><rect class="cls-106" x="283.93" y="117.79" width="134.9" height="0.83"/><rect class="cls-107" x="283.93" y="118.62" width="134.9" height="0.83"/><rect class="cls-108" x="283.93" y="119.45" width="134.9" height="0.83"/><rect class="cls-109" x="283.93" y="120.28" width="134.9" height="0.83"/><rect class="cls-110" x="283.93" y="121.1" width="134.9" height="0.83"/><rect class="cls-111" x="283.93" y="121.93" width="134.9" height="0.83"/><rect class="cls-112" x="283.93" y="122.76" width="134.9" height="0.83"/><rect class="cls-113" x="283.93" y="123.59" width="134.9" height="0.83"/><rect class="cls-114" x="283.93" y="124.42" width="134.9" height="0.83"/><rect class="cls-114" x="283.93" y="125.25" width="134.9" height="0.83"/><rect class="cls-115" x="283.93" y="126.08" width="134.9" height="0.83"/><rect class="cls-115" x="283.93" y="126.91" width="134.9" height="0.83"/><rect class="cls-116" x="283.93" y="127.74" width="134.9" height="0.83"/><rect class="cls-117" x="283.93" y="128.57" width="134.9" height="0.83"/><rect class="cls-118" x="283.93" y="129.4" width="134.9" height="0.83"/><rect class="cls-119" x="283.93" y="130.23" width="134.9" height="0.83"/><rect class="cls-119" x="283.93" y="131.06" width="134.9" height="0.83"/><rect class="cls-120" x="283.93" y="131.89" width="134.9" height="0.83"/><rect class="cls-120" x="283.93" y="132.72" width="134.9" height="0.83"/><rect class="cls-121" x="283.93" y="133.55" width="134.9" height="0.83"/><rect class="cls-122" x="283.93" y="134.38" width="134.9" height="0.83"/><rect class="cls-123" x="283.93" y="135.2" width="134.9" height="0.83"/><rect class="cls-124" x="283.93" y="136.03" width="134.9" height="0.83"/><rect class="cls-125" x="283.93" y="136.86" width="134.9" height="0.83"/><rect class="cls-126" x="283.93" y="137.69" width="134.9" height="0.83"/><rect class="cls-127" x="283.93" y="138.52" width="134.9" height="0.83"/><rect class="cls-128" x="283.93" y="139.35" width="134.9" height="0.83"/><rect class="cls-129" x="283.93" y="140.18" width="134.9" height="0.83"/><rect class="cls-129" x="283.93" y="141.01" width="134.9" height="0.83"/><rect class="cls-130" x="283.93" y="141.84" width="134.9" height="0.83"/><rect class="cls-130" x="283.93" y="142.67" width="134.9" height="0.83"/><rect class="cls-131" x="283.93" y="143.5" width="134.9" height="0.83"/><rect class="cls-131" x="283.93" y="144.33" width="134.9" height="0.83"/><rect class="cls-132" x="283.93" y="145.16" width="134.9" height="0.83"/><rect class="cls-132" x="283.93" y="145.99" width="134.9" height="0.83"/><rect class="cls-133" x="283.93" y="146.82" width="134.9" height="0.83"/><rect class="cls-134" x="283.93" y="147.65" width="134.9" height="0.83"/><rect class="cls-135" x="283.93" y="148.48" width="134.9" height="0.83"/><rect class="cls-136" x="283.93" y="149.3" width="134.9" height="0.83"/><rect class="cls-137" x="283.93" y="150.13" width="134.9" height="0.83"/><rect class="cls-138" x="283.93" y="150.96" width="134.9" height="0.83"/><rect class="cls-138" x="283.93" y="151.79" width="134.9" height="0.83"/><rect class="cls-139" x="283.93" y="152.62" width="134.9" height="0.83"/><rect class="cls-140" x="283.93" y="153.45" width="134.9" height="0.83"/><rect class="cls-141" x="283.93" y="154.28" width="134.9" height="0.83"/><rect class="cls-142" x="283.93" y="155.11" width="134.9" height="0.83"/><rect class="cls-142" x="283.93" y="155.94" width="134.9" height="0.83"/><rect class="cls-143" x="283.93" y="156.77" width="134.9" height="0.83"/><rect class="cls-144" x="283.93" y="157.6" width="134.9" height="0.83"/><rect class="cls-145" x="283.93" y="158.43" width="134.9" height="0.83"/><rect class="cls-146" x="283.93" y="159.26" width="134.9" height="0.83"/><rect class="cls-147" x="283.93" y="160.09" width="134.9" height="0.83"/><rect class="cls-147" x="283.93" y="160.92" width="134.9" height="0.83"/><rect class="cls-148" x="283.93" y="161.75" width="134.9" height="0.83"/><rect class="cls-149" x="283.93" y="162.58" width="134.9" height="0.83"/><rect class="cls-150" x="283.93" y="163.4" width="134.9" height="0.83"/><rect class="cls-151" x="283.93" y="164.23" width="134.9" height="0.83"/><rect class="cls-152" x="283.93" y="165.06" width="134.9" height="0.83"/><rect class="cls-153" x="283.93" y="165.89" width="134.9" height="0.83"/><rect class="cls-154" x="283.93" y="166.72" width="134.9" height="0.83"/><rect class="cls-155" x="283.93" y="167.55" width="134.9" height="0.83"/><rect class="cls-156" x="283.93" y="168.38" width="134.9" height="0.83"/><rect class="cls-157" x="283.93" y="169.21" width="134.9" height="0.83"/><rect class="cls-158" x="283.93" y="170.04" width="134.9" height="0.83"/><rect class="cls-159" x="283.93" y="170.87" width="134.9" height="0.83"/><rect class="cls-160" x="283.93" y="171.7" width="134.9" height="0.83"/><rect class="cls-161" x="283.93" y="172.53" width="134.9" height="0.83"/><rect class="cls-162" x="283.93" y="173.36" width="134.9" height="0.83"/></g></svg>