<svg id="Layer_1" data-name="Layer 1" xmlns="http://www.w3.org/2000/svg" xmlns:xlink="http://www.w3.org/1999/xlink" viewBox="0 0 552.43 143.44"><defs><style>.cls-1{fill:url(#linear-gradient);}.cls-2{fill:url(#linear-gradient-2);}.cls-3{fill:#a70036;}.cls-4{fill:#353535;}</style><linearGradient id="linear-gradient" x1="12.7" y1="80.68" x2="60.43" y2="39.82" gradientUnits="userSpaceOnUse"><stop offset="0" stop-color="#540017"/><stop offset="0.58" stop-color="#ac0038"/><stop offset="1" stop-color="#ac0038"/></linearGradient><linearGradient id="linear-gradient-2" x1="10.68" y1="86.9" x2="86.53" y2="48.25" gradientUnits="userSpaceOnUse"><stop offset="0" stop-color="#540017"/><stop offset="0.76" stop-color="#ac0038"/><stop offset="1" stop-color="#ac0038"/></linearGradient></defs><path class="cls-1" d="M62.3,78.36c-2.93-2.89-5.38-5.28-7.8-7.7-4.5-4.51-4.51-4.53-9.13-.08q-12.46,12-24.89,24.11c-2.94,2.85-2.94,2.87-5.77.09-4.55-4.48-9-9-13.64-13.43C-.34,80-.36,79.09,1.05,77.7c9.25-9.11,18.42-18.29,27.63-27.44,2.62-2.59,2.64-2.57,0-5.25S23.53,39.94,21,37.39c-.56-.57-1.07-1.2-2-2.23,1.24-.13,2-.27,2.74-.27,12.85,0,25.69,0,38.53,0,1.71,0,2.6.35,2.58,2.36-.12,12.89-.14,25.79-.21,38.69A23.34,23.34,0,0,1,62.3,78.36Z"/><path class="cls-2" d="M39.49,84c0,3.31,0,6.22,0,9.13,0,5.33-.06,10.65-.06,16,0,2.49.25,2.57,2.78,2.35A43.71,43.71,0,0,0,69.6,98.74c7.15-7,11.84-15.49,13.08-25.53C85.06,54,78,38.88,62,28.05a42.18,42.18,0,0,0-20-6.82c-1.56-.15-2.24.49-2.21,2,0,1.2,0,2.4,0,3.6s-.5,1.92-1.88,1.88-1.92-.53-1.91-1.89c0-3.75,0-7.5,0-11.25a3.41,3.41,0,0,0-1.73-3.33,6.48,6.48,0,0,1-2.76-7.65A6.76,6.76,0,0,1,38,0a6.62,6.62,0,0,1,6.63,5.06,6.68,6.68,0,0,1-3,7.36c-.43.29-1,.51-1.24.92s-.61,1.42-.36,1.81a3.1,3.1,0,0,0,1.81,1c4.8,1.17,9.82,1.71,14.36,3.5,16,6.32,26.41,18,30.45,34.77,5.31,22-4,43.42-23.37,55a43.36,43.36,0,0,1-16.4,5.92,37.37,37.37,0,0,0-5.5.93,2.93,2.93,0,0,0-1.83,2c-.18,5-.12,10-.15,15.07,0,1.58,1,1.91,2.31,2.18a49.46,49.46,0,0,1,6.68,1.79c.85.32,2,1.41,2,2.16s-1.12,1.66-1.95,2.18a9.35,9.35,0,0,1-3.15,1.13c-5.75,1-11.51,1.16-17.11-.71a4.21,4.21,0,0,1-2.46-2.69c-.12-.65,1.41-2,2.44-2.38a23,23,0,0,1,5.62-1.43c1.82-.24,2.67-1,2.63-2.85q-.14-6.85-.09-13.72c0-1.85-.65-2.71-2.6-2.81a45.38,45.38,0,0,1-17.87-4.91,5.56,5.56,0,0,0-4.48-.55A6.44,6.44,0,0,1,3.09,106a6.74,6.74,0,0,1,5.63-8.06,6.49,6.49,0,0,1,7.16,5.92c.1,2.24,1.13,3.13,2.93,3.89a46.16,46.16,0,0,0,14.48,3.9c2.36.19,2.86-.1,2.86-2.48,0-6.67,0-13.35-.21-20C35.86,86.63,37,85.25,39.49,84Z"/><path class="cls-3" d="M156.27,65.43h-9.82L124.23,32.54V65.43h-9.82v-48h9.82l22.22,33v-33h9.82Z"/><path class="cls-3" d="M177.93,25.26v12H194.4V44.9H177.93V57.61h18.58v7.82h-28.4v-48h28.4v7.83Z"/><path class="cls-3" d="M236.89,65.43,226.3,49.3l-9.6,16.13H205.62L221,41.26,205.41,17.5H216.7l10.58,16.07,9.54-16.07h11.07L232.54,41.6l15.63,23.83Z"/><path class="cls-3" d="M291.92,31.92a11.33,11.33,0,0,0-4.63-4.6,14.34,14.34,0,0,0-6.87-1.58,15.26,15.26,0,0,0-7.71,1.92,13.55,13.55,0,0,0-5.26,5.5,17.36,17.36,0,0,0-1.89,8.24,17.34,17.34,0,0,0,1.93,8.38,13.44,13.44,0,0,0,5.36,5.49,16.1,16.1,0,0,0,8,1.92A14.06,14.06,0,0,0,290,54.27a13.8,13.8,0,0,0,4.69-8.13H277.9V38.79h26.5v8.38a22.39,22.39,0,0,1-4.21,9.27,23.64,23.64,0,0,1-8.31,6.83,24.76,24.76,0,0,1-11.39,2.58,26.14,26.14,0,0,1-12.79-3.13,23,23,0,0,1-9-8.69,24.52,24.52,0,0,1-3.25-12.63,24.72,24.72,0,0,1,3.25-12.67,23,23,0,0,1,9-8.72,27.78,27.78,0,0,1,27.09.82,20.23,20.23,0,0,1,8.42,11.09Z"/><path class="cls-3" d="M323.68,25.26v12h16.47V44.9H323.68V57.61h18.58v7.82h-28.4v-48h28.4v7.83Z"/><path class="cls-3" d="M395.18,65.43h-9.81L363.15,32.54V65.43h-9.82v-48h9.82l22.22,33v-33h9.81Z"/><path class="cls-3" d="M417.13,62.76a23.87,23.87,0,0,1-12.48-21.43A23.86,23.86,0,0,1,417.13,20a26.84,26.84,0,0,1,25.27,0,23.7,23.7,0,0,1,9,8.76,24.16,24.16,0,0,1,3.33,12.6A24.29,24.29,0,0,1,451.44,54a23.64,23.64,0,0,1-9.07,8.76,26.78,26.78,0,0,1-25.24,0Zm20.4-7.39a13.6,13.6,0,0,0,5.26-5.59,18.08,18.08,0,0,0,1.89-8.45,17.83,17.83,0,0,0-1.89-8.41,13.38,13.38,0,0,0-5.26-5.53,15.45,15.45,0,0,0-7.78-1.92,15.63,15.63,0,0,0-7.82,1.92,13.2,13.2,0,0,0-5.29,5.53,17.72,17.72,0,0,0-1.9,8.41,18,18,0,0,0,1.9,8.45,13.41,13.41,0,0,0,5.29,5.59,15.34,15.34,0,0,0,7.82,2A15.17,15.17,0,0,0,437.53,55.37Z"/><path class="cls-3" d="M508.19,17.5,490.25,65.43H478.33L460.38,17.5H470.9l13.46,38.11L497.75,17.5Z"/><path class="cls-3" d="M516.68,27.87a12.49,12.49,0,0,1,1.92-6.77,13.37,13.37,0,0,1,5.82-4.87,25.7,25.7,0,0,1,19,0,13.25,13.25,0,0,1,5.82,4.87,12.41,12.41,0,0,1,1.93,6.77,11.72,11.72,0,0,1-1.89,6.63,13,13,0,0,1-5,4.43,13.58,13.58,0,0,1,6,4.8,12.88,12.88,0,0,1,2.17,7.49A13.82,13.82,0,0,1,550,59.36a15.51,15.51,0,0,1-6.62,5.32,23.19,23.19,0,0,1-9.47,1.85,22.94,22.94,0,0,1-9.43-1.85,15.6,15.6,0,0,1-6.59-5.32,13.89,13.89,0,0,1-2.41-8.14,12.7,12.7,0,0,1,8.2-12.29Q516.67,35.36,516.68,27.87Zm10.76,17.24a6.87,6.87,0,0,0-2.49,5.7,7.15,7.15,0,0,0,2.42,5.59,9.43,9.43,0,0,0,6.55,2.17,9.27,9.27,0,0,0,6.52-2.2,7.25,7.25,0,0,0,2.39-5.56,6.94,6.94,0,0,0-2.46-5.67,9.78,9.78,0,0,0-6.45-2A10,10,0,0,0,527.44,45.11ZM539.57,24a8.18,8.18,0,0,0-5.65-1.85A8.07,8.07,0,0,0,528.35,24a6.74,6.74,0,0,0-2.07,5.29,6.22,6.22,0,0,0,2.14,4.95,9.08,9.08,0,0,0,11,0,6.27,6.27,0,0,0,2.17-5A6.68,6.68,0,0,0,539.57,24Z"/><path class="cls-4" d="M128.37,105.53a6.24,6.24,0,0,1-.57,2.72,5.72,5.72,0,0,1-1.56,2,6.79,6.79,0,0,1-2.35,1.25,9.75,9.75,0,0,1-2.91.42,9.9,9.9,0,0,1-2-.19,10.72,10.72,0,0,1-1.66-.45,8.09,8.09,0,0,1-1.23-.55,2.77,2.77,0,0,1-.68-.49,1.16,1.16,0,0,1-.29-.51,3.08,3.08,0,0,1-.09-.83,5,5,0,0,1,0-.61,1.54,1.54,0,0,1,.1-.4.46.46,0,0,1,.17-.21.48.48,0,0,1,.24-.06,1.43,1.43,0,0,1,.66.29,9.19,9.19,0,0,0,1.1.62,11,11,0,0,0,1.62.63,7.59,7.59,0,0,0,2.19.29,5.54,5.54,0,0,0,1.72-.25,4.08,4.08,0,0,0,1.34-.71,3.13,3.13,0,0,0,.86-1.14,3.65,3.65,0,0,0,.3-1.52,2.87,2.87,0,0,0-.42-1.58,4,4,0,0,0-1.1-1.15,10.13,10.13,0,0,0-1.57-.91l-1.81-.83c-.61-.29-1.21-.6-1.79-.95a7.84,7.84,0,0,1-1.56-1.23A5.79,5.79,0,0,1,116,97.55a5.58,5.58,0,0,1-.42-2.27,5.7,5.7,0,0,1,.49-2.43,5.07,5.07,0,0,1,1.38-1.79A6,6,0,0,1,119.51,90a8.58,8.58,0,0,1,2.63-.38,9,9,0,0,1,1.45.12,10.71,10.71,0,0,1,1.38.34,8.32,8.32,0,0,1,1.15.47,2.9,2.9,0,0,1,.66.42,1,1,0,0,1,.21.25,1,1,0,0,1,.08.24,2.49,2.49,0,0,1,.05.34c0,.13,0,.31,0,.52s0,.38,0,.54a2.65,2.65,0,0,1-.08.39.46.46,0,0,1-.14.24.33.33,0,0,1-.21.07,1.37,1.37,0,0,1-.58-.23c-.27-.16-.59-.34-1-.53a7.9,7.9,0,0,0-1.35-.54A5.92,5.92,0,0,0,122,92a4.69,4.69,0,0,0-1.58.24,3.16,3.16,0,0,0-1.11.65,2.48,2.48,0,0,0-.65,1,3.1,3.1,0,0,0-.22,1.18,2.84,2.84,0,0,0,.42,1.56A4.38,4.38,0,0,0,120,97.73a10.27,10.27,0,0,0,1.58.92l1.82.85c.61.28,1.21.6,1.81.94a7.56,7.56,0,0,1,1.58,1.2,5.62,5.62,0,0,1,1.13,1.65A5.49,5.49,0,0,1,128.37,105.53Z"/><path class="cls-4" d="M135.26,91a1.78,1.78,0,0,1-.37,1.32,2.73,2.73,0,0,1-2.69,0,2.53,2.53,0,0,1,0-2.62,2.73,2.73,0,0,1,2.69,0A1.79,1.79,0,0,1,135.26,91Zm-.32,20.2a.41.41,0,0,1-.06.23.66.66,0,0,1-.22.16,1.62,1.62,0,0,1-.42.1,6.47,6.47,0,0,1-.69,0,6.19,6.19,0,0,1-.67,0,1.82,1.82,0,0,1-.43-.1.5.5,0,0,1-.22-.16.41.41,0,0,1-.06-.23V96.1a.43.43,0,0,1,.06-.22.44.44,0,0,1,.22-.17,1.82,1.82,0,0,1,.43-.1,6.19,6.19,0,0,1,.67,0,6.47,6.47,0,0,1,.69,0,1.62,1.62,0,0,1,.42.1.56.56,0,0,1,.22.17.43.43,0,0,1,.06.22Z"/><path class="cls-4" d="M162.46,111.2a.35.35,0,0,1-.07.23.53.53,0,0,1-.21.16,1.62,1.62,0,0,1-.42.1,6.32,6.32,0,0,1-.67,0,6.47,6.47,0,0,1-.69,0,1.82,1.82,0,0,1-.43-.1.62.62,0,0,1-.23-.16.41.41,0,0,1-.06-.23V102a8.41,8.41,0,0,0-.17-1.74,3.88,3.88,0,0,0-.54-1.36A2.56,2.56,0,0,0,158,98a2.85,2.85,0,0,0-1.34-.3,3.16,3.16,0,0,0-1.92.74,13.33,13.33,0,0,0-2.12,2.17V111.2a.42.42,0,0,1-.07.23.62.62,0,0,1-.23.16,1.71,1.71,0,0,1-.43.1,6.06,6.06,0,0,1-.67,0,6.25,6.25,0,0,1-.66,0,1.92,1.92,0,0,1-.44-.1.46.46,0,0,1-.21-.16.41.41,0,0,1-.06-.23V102a7.19,7.19,0,0,0-.19-1.74,4.3,4.3,0,0,0-.55-1.36,2.69,2.69,0,0,0-.93-.88,2.82,2.82,0,0,0-1.34-.3,3.23,3.23,0,0,0-1.93.74,12.92,12.92,0,0,0-2.11,2.17V111.2a.35.35,0,0,1-.07.23.57.57,0,0,1-.22.16,1.63,1.63,0,0,1-.41.1,6.47,6.47,0,0,1-.69,0,6.06,6.06,0,0,1-.67,0,1.71,1.71,0,0,1-.43-.1.5.5,0,0,1-.22-.16.41.41,0,0,1-.06-.23V96.1a.52.52,0,0,1,.05-.23.44.44,0,0,1,.2-.17,1.23,1.23,0,0,1,.39-.1l.62,0,.61,0a1.09,1.09,0,0,1,.38.1.53.53,0,0,1,.19.17.41.41,0,0,1,.06.23v2A9.59,9.59,0,0,1,145,96a4.87,4.87,0,0,1,2.42-.67,6.24,6.24,0,0,1,1.69.22,5,5,0,0,1,1.32.61,4.56,4.56,0,0,1,1,.94,5.52,5.52,0,0,1,.67,1.22,15.19,15.19,0,0,1,1.43-1.39,9.44,9.44,0,0,1,1.31-.93,5.74,5.74,0,0,1,1.23-.51,4.82,4.82,0,0,1,1.2-.16,5.19,5.19,0,0,1,2.45.52,4.42,4.42,0,0,1,1.6,1.36,5.39,5.39,0,0,1,.87,2,10.56,10.56,0,0,1,.26,2.42Z"/><path class="cls-4" d="M181.41,103.42A13.76,13.76,0,0,1,181,107a7.92,7.92,0,0,1-1.26,2.68,5.58,5.58,0,0,1-2.05,1.69,6.34,6.34,0,0,1-2.81.6,5.41,5.41,0,0,1-1.24-.14,4.65,4.65,0,0,1-1.11-.41,5.93,5.93,0,0,1-1.09-.73q-.54-.43-1.14-1v7.55a.48.48,0,0,1-.06.24.55.55,0,0,1-.22.16,1.29,1.29,0,0,1-.42.1,4.41,4.41,0,0,1-.69,0,4.22,4.22,0,0,1-.67,0,1.43,1.43,0,0,1-.43-.1.43.43,0,0,1-.22-.16.48.48,0,0,1-.06-.24V96.1a.54.54,0,0,1,.05-.24.37.37,0,0,1,.2-.16,1.3,1.3,0,0,1,.39-.1l.57,0,.58,0a1.23,1.23,0,0,1,.38.1.39.39,0,0,1,.21.16.43.43,0,0,1,.06.24v2a16.1,16.1,0,0,1,1.32-1.23,8.76,8.76,0,0,1,1.29-.86,6.14,6.14,0,0,1,1.32-.52,5.57,5.57,0,0,1,1.44-.18,5.79,5.79,0,0,1,2.8.64A5.37,5.37,0,0,1,180,97.73a7.73,7.73,0,0,1,1.06,2.57A13.63,13.63,0,0,1,181.41,103.42Zm-2.87.31a13.64,13.64,0,0,0-.18-2.24,6.46,6.46,0,0,0-.61-1.92,3.58,3.58,0,0,0-1.15-1.34,3.09,3.09,0,0,0-1.81-.5,3.45,3.45,0,0,0-1.06.16,4.11,4.11,0,0,0-1.07.5,7.65,7.65,0,0,0-1.13.9,15.18,15.18,0,0,0-1.25,1.39v6a11.92,11.92,0,0,0,2.18,2.13,3.68,3.68,0,0,0,2.16.74,3.12,3.12,0,0,0,1.8-.51,3.74,3.74,0,0,0,1.21-1.34,6.77,6.77,0,0,0,.69-1.88A10.54,10.54,0,0,0,178.54,103.73Z"/><path class="cls-4" d="M188.34,111.2a.42.42,0,0,1-.07.23.66.66,0,0,1-.22.16,1.62,1.62,0,0,1-.42.1,6.47,6.47,0,0,1-.69,0,6.32,6.32,0,0,1-.67,0,1.82,1.82,0,0,1-.43-.1.53.53,0,0,1-.21-.16.41.41,0,0,1-.06-.23V88.78a.44.44,0,0,1,.06-.23.41.41,0,0,1,.21-.17,1.43,1.43,0,0,1,.43-.1,6.32,6.32,0,0,1,.67,0,6.47,6.47,0,0,1,.69,0,1.29,1.29,0,0,1,.42.1.48.48,0,0,1,.22.17.45.45,0,0,1,.07.23Z"/><path class="cls-4" d="M196.54,91a1.78,1.78,0,0,1-.37,1.32,2.73,2.73,0,0,1-2.69,0,2.53,2.53,0,0,1,0-2.62,2.73,2.73,0,0,1,2.69,0A1.79,1.79,0,0,1,196.54,91Zm-.32,20.2a.41.41,0,0,1-.06.23.66.66,0,0,1-.22.16,1.62,1.62,0,0,1-.42.1,6.47,6.47,0,0,1-.69,0,6.19,6.19,0,0,1-.67,0,1.82,1.82,0,0,1-.43-.1.57.57,0,0,1-.22-.16.41.41,0,0,1,0-.23V96.1a.42.42,0,0,1,0-.22.5.5,0,0,1,.22-.17,1.82,1.82,0,0,1,.43-.1,6.19,6.19,0,0,1,.67,0,6.47,6.47,0,0,1,.69,0,1.62,1.62,0,0,1,.42.1.56.56,0,0,1,.22.17.43.43,0,0,1,.06.22Z"/><path class="cls-4" d="M209.61,89.89a3.49,3.49,0,0,1,0,.51,3,3,0,0,1-.07.31.34.34,0,0,1-.11.16.31.31,0,0,1-.17,0,.79.79,0,0,1-.3-.07l-.42-.17a5,5,0,0,0-.6-.17,3.78,3.78,0,0,0-.8-.07,2.4,2.4,0,0,0-1.05.2,1.59,1.59,0,0,0-.71.63,2.84,2.84,0,0,0-.38,1.11,9.62,9.62,0,0,0-.12,1.65v1.64h3.37a.41.41,0,0,1,.23.06.58.58,0,0,1,.17.2,1.17,1.17,0,0,1,.11.36,2.76,2.76,0,0,1,.05.54,1.86,1.86,0,0,1-.16.87.45.45,0,0,1-.4.27h-3.37V111.2a.35.35,0,0,1-.07.23.54.54,0,0,1-.23.16,1.62,1.62,0,0,1-.42.1,6.32,6.32,0,0,1-.67,0,6.39,6.39,0,0,1-.68,0,1.73,1.73,0,0,1-.42-.1.54.54,0,0,1-.23-.16.42.42,0,0,1-.07-.23V98h-2.13a.43.43,0,0,1-.4-.27,2.08,2.08,0,0,1-.13-.87,4.16,4.16,0,0,1,0-.54,1.18,1.18,0,0,1,.1-.36.42.42,0,0,1,.17-.2.41.41,0,0,1,.23-.06h2.13V94.1a10.73,10.73,0,0,1,.3-2.71,4.51,4.51,0,0,1,.9-1.85,3.57,3.57,0,0,1,1.51-1.07,6.63,6.63,0,0,1,3.3-.23,5.1,5.1,0,0,1,.86.23,1.45,1.45,0,0,1,.4.23.84.84,0,0,1,.17.26,1.77,1.77,0,0,1,.09.38A4.61,4.61,0,0,1,209.61,89.89Z"/><path class="cls-4" d="M218.88,111.62l-2,5.55a.75.75,0,0,1-.51.42,4.24,4.24,0,0,1-1.25.14,6.16,6.16,0,0,1-.7,0,.93.93,0,0,1-.41-.15.32.32,0,0,1-.16-.26.73.73,0,0,1,.08-.41l2.08-5.25a.8.8,0,0,1-.28-.22.76.76,0,0,1-.19-.32l-5.39-14.43a1.91,1.91,0,0,1-.13-.55.43.43,0,0,1,.13-.32.86.86,0,0,1,.44-.16,5.86,5.86,0,0,1,.81,0l.79,0a1.59,1.59,0,0,1,.45.1.42.42,0,0,1,.24.19,2.82,2.82,0,0,1,.16.34l4.31,12.12h0l4.17-12.18a.72.72,0,0,1,.24-.42,1.15,1.15,0,0,1,.43-.13,5.74,5.74,0,0,1,.82,0,5.5,5.5,0,0,1,.77,0,.94.94,0,0,1,.45.16.4.4,0,0,1,.14.32,1.9,1.9,0,0,1-.1.5Z"/><path class="cls-4" d="M249.25,91.15a4.33,4.33,0,0,1,0,.55,1.34,1.34,0,0,1-.11.38.56.56,0,0,1-.19.21.48.48,0,0,1-.24.07h-6.11v18.82a.4.4,0,0,1-.07.24.41.41,0,0,1-.23.16,2.58,2.58,0,0,1-.45.1,4.41,4.41,0,0,1-.69,0,4.58,4.58,0,0,1-.69,0,2.58,2.58,0,0,1-.45-.1.44.44,0,0,1-.24-.16.48.48,0,0,1-.07-.24V92.36h-6.1a.55.55,0,0,1-.25-.07.45.45,0,0,1-.17-.21,1.34,1.34,0,0,1-.11-.38,3,3,0,0,1,0-.55,3.13,3.13,0,0,1,0-.56,1.5,1.5,0,0,1,.11-.4.48.48,0,0,1,.17-.22.54.54,0,0,1,.25-.06h15.1a.48.48,0,0,1,.24.06.6.6,0,0,1,.19.22,1.5,1.5,0,0,1,.11.4A4.61,4.61,0,0,1,249.25,91.15Z"/><path class="cls-4" d="M258.76,97.09c0,.24,0,.45,0,.62a2.14,2.14,0,0,1-.07.39.51.51,0,0,1-.13.22.29.29,0,0,1-.21.08.88.88,0,0,1-.32-.08l-.44-.15A4.86,4.86,0,0,0,257,98a2.7,2.7,0,0,0-.65-.07,2.15,2.15,0,0,0-.82.17,3.37,3.37,0,0,0-.85.55,6.46,6.46,0,0,0-.93,1,18.64,18.64,0,0,0-1.07,1.56v9.93a.42.42,0,0,1-.07.23.66.66,0,0,1-.22.16,1.62,1.62,0,0,1-.42.1,6.47,6.47,0,0,1-.69,0,6.19,6.19,0,0,1-.67,0,1.82,1.82,0,0,1-.43-.1.46.46,0,0,1-.21-.16.41.41,0,0,1-.06-.23V96.1a.41.41,0,0,1,.05-.23.44.44,0,0,1,.2-.17,1.23,1.23,0,0,1,.38-.1l.62,0,.62,0a1,1,0,0,1,.37.1.58.58,0,0,1,.2.17.41.41,0,0,1,.06.23v2.2a11.43,11.43,0,0,1,1.16-1.48,7.09,7.09,0,0,1,1-.9,3.12,3.12,0,0,1,1-.45,4,4,0,0,1,1-.13l.5,0,.58.09.54.15a1.13,1.13,0,0,1,.35.17.57.57,0,0,1,.13.16,1.45,1.45,0,0,1,.06.19,1.56,1.56,0,0,1,0,.35C258.76,96.63,258.76,96.83,258.76,97.09Z"/><path class="cls-4" d="M272.59,111.22a.35.35,0,0,1-.13.3.9.9,0,0,1-.37.15,3.9,3.9,0,0,1-.69,0,4.3,4.3,0,0,1-.7,0,.79.79,0,0,1-.38-.15.41.41,0,0,1-.11-.3v-1.51a7.52,7.52,0,0,1-2.21,1.64,5.88,5.88,0,0,1-2.58.59,6.89,6.89,0,0,1-2.15-.31,4.86,4.86,0,0,1-1.65-.9,4,4,0,0,1-1.05-1.44,4.65,4.65,0,0,1-.38-2,4.43,4.43,0,0,1,.52-2.21,4.27,4.27,0,0,1,1.49-1.56,7.32,7.32,0,0,1,2.39-.94,15.21,15.21,0,0,1,3.17-.31h2.08v-1.17a5.5,5.5,0,0,0-.19-1.54,2.67,2.67,0,0,0-.59-1.12,2.54,2.54,0,0,0-1.07-.67,5,5,0,0,0-1.61-.23,6.2,6.2,0,0,0-1.84.25,10.39,10.39,0,0,0-1.42.53c-.41.2-.75.38-1,.54a1.37,1.37,0,0,1-.61.24.41.41,0,0,1-.23-.06.63.63,0,0,1-.18-.21,1,1,0,0,1-.11-.34,3.23,3.23,0,0,1,0-.46,2.85,2.85,0,0,1,.06-.66.9.9,0,0,1,.28-.46,3.55,3.55,0,0,1,.78-.52,9.16,9.16,0,0,1,1.28-.53,10.87,10.87,0,0,1,1.57-.41,10,10,0,0,1,1.73-.16,9.24,9.24,0,0,1,2.77.37,4.6,4.6,0,0,1,1.85,1.08,4.19,4.19,0,0,1,1,1.78,8.59,8.59,0,0,1,.32,2.46Zm-2.75-6.9h-2.37a9.5,9.5,0,0,0-2,.19,4.13,4.13,0,0,0-1.39.57,2.4,2.4,0,0,0-.81.91,2.64,2.64,0,0,0-.26,1.22,2.43,2.43,0,0,0,.74,1.87,3,3,0,0,0,2.09.69,3.86,3.86,0,0,0,2-.55,8.7,8.7,0,0,0,2-1.69Z"/><path class="cls-4" d="M289.49,96.07s0,.09,0,.14a1.1,1.1,0,0,1,0,.16s0,.11,0,.18,0,.14-.06.22l-5.15,14.35a.87.87,0,0,1-.17.3.75.75,0,0,1-.33.18,2.46,2.46,0,0,1-.56.1l-.83,0q-.51,0-.84,0a2.88,2.88,0,0,1-.55-.1.87.87,0,0,1-.33-.19.9.9,0,0,1-.18-.28l-5.14-14.35c0-.13-.08-.25-.1-.35a1,1,0,0,1-.05-.23.57.57,0,0,1,0-.12.48.48,0,0,1,.06-.24.45.45,0,0,1,.23-.16,1.53,1.53,0,0,1,.42-.07,6.13,6.13,0,0,1,.65,0l.78,0a1.51,1.51,0,0,1,.45.1.52.52,0,0,1,.23.16,1.5,1.5,0,0,1,.15.26l4.26,12.45.07.2,0-.2,4.21-12.45a.52.52,0,0,1,.12-.26.56.56,0,0,1,.24-.16,1.36,1.36,0,0,1,.44-.1l.73,0a5.74,5.74,0,0,1,.63,0,1,1,0,0,1,.4.08.47.47,0,0,1,.2.16A.41.41,0,0,1,289.49,96.07Z"/><path class="cls-4" d="M305.18,103a1.17,1.17,0,0,1-.33.93,1.15,1.15,0,0,1-.75.27h-10a9.8,9.8,0,0,0,.25,2.27,4.32,4.32,0,0,0,.85,1.73,3.68,3.68,0,0,0,1.53,1.1,6.06,6.06,0,0,0,2.31.39,9.22,9.22,0,0,0,1.92-.18,9.49,9.49,0,0,0,1.46-.39l1-.39a1.69,1.69,0,0,1,.6-.18.37.37,0,0,1,.21.06.41.41,0,0,1,.15.17,1.17,1.17,0,0,1,.07.33,3.68,3.68,0,0,1,0,.51c0,.15,0,.27,0,.38a2.26,2.26,0,0,1,0,.29,1.13,1.13,0,0,1-.08.22,1.3,1.3,0,0,1-.15.2,3,3,0,0,1-.55.3,7.18,7.18,0,0,1-1.18.41c-.48.13-1,.25-1.66.36a11.93,11.93,0,0,1-2,.16,9.25,9.25,0,0,1-3.26-.52,6.08,6.08,0,0,1-2.36-1.55,6.46,6.46,0,0,1-1.44-2.56,11.81,11.81,0,0,1-.49-3.59,11.16,11.16,0,0,1,.51-3.5,7.26,7.26,0,0,1,1.45-2.64,6.34,6.34,0,0,1,2.29-1.66,7.57,7.57,0,0,1,3-.58,7.25,7.25,0,0,1,3,.57,5.84,5.84,0,0,1,2.06,1.54,6.25,6.25,0,0,1,1.18,2.26,10,10,0,0,1,.38,2.78Zm-2.79-.83a5.07,5.07,0,0,0-1-3.42,3.69,3.69,0,0,0-3-1.24,4.12,4.12,0,0,0-1.81.38,4,4,0,0,0-1.3,1,4.61,4.61,0,0,0-.81,1.48,6.22,6.22,0,0,0-.32,1.77Z"/><path class="cls-4" d="M312.16,111.2a.42.42,0,0,1-.07.23.57.57,0,0,1-.22.16,1.62,1.62,0,0,1-.42.1,6.47,6.47,0,0,1-.69,0,6.32,6.32,0,0,1-.67,0,1.62,1.62,0,0,1-.42-.1.5.5,0,0,1-.22-.16.41.41,0,0,1-.06-.23V88.78a.44.44,0,0,1,.06-.23.4.4,0,0,1,.22-.17,1.29,1.29,0,0,1,.42-.1,6.32,6.32,0,0,1,.67,0,6.47,6.47,0,0,1,.69,0,1.29,1.29,0,0,1,.42.1.44.44,0,0,1,.22.17.45.45,0,0,1,.07.23Z"/><path class="cls-4" d="M320.93,109.22a7.15,7.15,0,0,1-.05,1,5.18,5.18,0,0,1-.16.82,5.51,5.51,0,0,1-.31.76,8,8,0,0,1-.48.8l-2.3,3.46a1.26,1.26,0,0,1-.2.2l-.26.15a1.82,1.82,0,0,1-.37.09,3.89,3.89,0,0,1-.53,0,3.23,3.23,0,0,1-.48,0,.72.72,0,0,1-.28-.08.24.24,0,0,1-.09-.16.47.47,0,0,1,.06-.24l2.23-4.61v-2.15a2.34,2.34,0,0,1,.09-.72.78.78,0,0,1,.3-.4,1.34,1.34,0,0,1,.5-.19,5.06,5.06,0,0,1,.74,0,4.87,4.87,0,0,1,.72,0,1.34,1.34,0,0,1,.5.19.8.8,0,0,1,.28.4A2.34,2.34,0,0,1,320.93,109.22Z"/><path class="cls-4" d="M350.2,110.6a1.82,1.82,0,0,1,.14.59.44.44,0,0,1-.12.35.79.79,0,0,1-.45.15c-.21,0-.48,0-.83,0l-.83,0a2,2,0,0,1-.47-.09.48.48,0,0,1-.24-.16,1.39,1.39,0,0,1-.14-.25l-1.86-5.28h-9l-1.78,5.21a.9.9,0,0,1-.13.26.65.65,0,0,1-.24.19,1.47,1.47,0,0,1-.46.11c-.19,0-.45,0-.76,0a5.88,5.88,0,0,1-.8,0,.83.83,0,0,1-.44-.16.41.41,0,0,1-.11-.34,1.86,1.86,0,0,1,.14-.6l7.28-20.17a1.09,1.09,0,0,1,.18-.3.76.76,0,0,1,.32-.19,3,3,0,0,1,.53-.09c.22,0,.5,0,.84,0s.65,0,.88,0a3.39,3.39,0,0,1,.58.09.77.77,0,0,1,.33.2.86.86,0,0,1,.19.31Zm-9.35-17.81h0l-3.75,10.83h7.55Z"/><path class="cls-4" d="M375.9,111.2a.41.41,0,0,1-.06.23.66.66,0,0,1-.22.16,1.62,1.62,0,0,1-.42.1,6.19,6.19,0,0,1-.67,0,6.47,6.47,0,0,1-.69,0,1.82,1.82,0,0,1-.43-.1.57.57,0,0,1-.22-.16.35.35,0,0,1-.07-.23V102a8.41,8.41,0,0,0-.17-1.74,3.88,3.88,0,0,0-.54-1.36,2.56,2.56,0,0,0-.94-.88,2.82,2.82,0,0,0-1.34-.3,3.16,3.16,0,0,0-1.92.74,13.33,13.33,0,0,0-2.12,2.17V111.2a.35.35,0,0,1-.07.23.54.54,0,0,1-.23.16,1.62,1.62,0,0,1-.42.1,6.32,6.32,0,0,1-.67,0,6.45,6.45,0,0,1-.67,0,1.71,1.71,0,0,1-.43-.1.5.5,0,0,1-.22-.16.41.41,0,0,1-.06-.23V102a7.19,7.19,0,0,0-.19-1.74,4.08,4.08,0,0,0-.55-1.36,2.61,2.61,0,0,0-.93-.88,2.81,2.81,0,0,0-1.33-.3,3.19,3.19,0,0,0-1.93.74,12.56,12.56,0,0,0-2.12,2.17V111.2a.35.35,0,0,1-.07.23.53.53,0,0,1-.21.16,1.62,1.62,0,0,1-.42.1,6.47,6.47,0,0,1-.69,0,6.19,6.19,0,0,1-.67,0,1.82,1.82,0,0,1-.43-.1.5.5,0,0,1-.22-.16.41.41,0,0,1-.06-.23V96.1a.52.52,0,0,1,.05-.23.47.47,0,0,1,.21-.17,1.16,1.16,0,0,1,.38-.1l.62,0,.61,0a1,1,0,0,1,.38.1.46.46,0,0,1,.19.17.41.41,0,0,1,.06.23v2A9.59,9.59,0,0,1,358.48,96a4.89,4.89,0,0,1,2.42-.67,6.24,6.24,0,0,1,1.69.22,4.72,4.72,0,0,1,1.32.61,4.33,4.33,0,0,1,1,.94,5.52,5.52,0,0,1,.67,1.22A14.1,14.1,0,0,1,367,96.94,8.89,8.89,0,0,1,368.3,96a5.47,5.47,0,0,1,1.22-.51,5,5,0,0,1,1.2-.16,5.19,5.19,0,0,1,2.45.52,4.42,4.42,0,0,1,1.6,1.36,5.39,5.39,0,0,1,.87,2,10.56,10.56,0,0,1,.26,2.42Z"/><path class="cls-4" d="M394.85,103.42a13.33,13.33,0,0,1-.43,3.55,7.56,7.56,0,0,1-1.26,2.68,5.58,5.58,0,0,1-2.05,1.69,6.31,6.31,0,0,1-2.81.6,5.41,5.41,0,0,1-1.24-.14,4.65,4.65,0,0,1-1.11-.41,5.55,5.55,0,0,1-1.08-.73c-.36-.29-.74-.63-1.15-1v7.55a.48.48,0,0,1-.06.24.55.55,0,0,1-.22.16,1.29,1.29,0,0,1-.42.1,4.41,4.41,0,0,1-.69,0,4.22,4.22,0,0,1-.67,0,1.43,1.43,0,0,1-.43-.1.48.48,0,0,1-.22-.16.47.47,0,0,1-.05-.24V96.1a.43.43,0,0,1,.05-.24.33.33,0,0,1,.2-.16,1.23,1.23,0,0,1,.38-.1l.57,0,.58,0a1.23,1.23,0,0,1,.38.1.39.39,0,0,1,.21.16.43.43,0,0,1,.06.24v2a17.9,17.9,0,0,1,1.32-1.23A8.76,8.76,0,0,1,386,96a6.14,6.14,0,0,1,1.32-.52,5.63,5.63,0,0,1,1.44-.18,5.79,5.79,0,0,1,2.8.64,5.37,5.37,0,0,1,1.89,1.75,7.73,7.73,0,0,1,1.06,2.57A13.63,13.63,0,0,1,394.85,103.42Zm-2.87.31a13.64,13.64,0,0,0-.18-2.24,6.46,6.46,0,0,0-.61-1.92A3.58,3.58,0,0,0,390,98.23a3.09,3.09,0,0,0-1.81-.5,3.49,3.49,0,0,0-1.06.16,4.27,4.27,0,0,0-1.07.5,8.21,8.21,0,0,0-1.13.9,15.18,15.18,0,0,0-1.25,1.39v6a12.24,12.24,0,0,0,2.18,2.13,3.68,3.68,0,0,0,2.16.74,3.12,3.12,0,0,0,1.8-.51,3.76,3.76,0,0,0,1.22-1.34,6.76,6.76,0,0,0,.68-1.88A9.85,9.85,0,0,0,392,103.73Z"/><path class="cls-4" d="M401.78,111.2a.35.35,0,0,1-.07.23.57.57,0,0,1-.22.16,1.62,1.62,0,0,1-.42.1,6.13,6.13,0,0,1-.68,0,6.06,6.06,0,0,1-.67,0,1.71,1.71,0,0,1-.43-.1.5.5,0,0,1-.22-.16.41.41,0,0,1-.06-.23V88.78a.44.44,0,0,1,.06-.23.4.4,0,0,1,.22-.17,1.36,1.36,0,0,1,.43-.1,6.06,6.06,0,0,1,.67,0,6.13,6.13,0,0,1,.68,0,1.29,1.29,0,0,1,.42.1.44.44,0,0,1,.22.17.37.37,0,0,1,.07.23Z"/><path class="cls-4" d="M410,91a1.82,1.82,0,0,1-.37,1.32,2.74,2.74,0,0,1-2.7,0,2.53,2.53,0,0,1,0-2.62,2,2,0,0,1,1.36-.36,1.93,1.93,0,0,1,1.33.35A1.78,1.78,0,0,1,410,91Zm-.32,20.2a.42.42,0,0,1-.07.23.66.66,0,0,1-.22.16,1.62,1.62,0,0,1-.42.1,6.47,6.47,0,0,1-.69,0,6.32,6.32,0,0,1-.67,0,1.82,1.82,0,0,1-.43-.1.53.53,0,0,1-.21-.16.41.41,0,0,1-.06-.23V96.1a.43.43,0,0,1,.06-.22.46.46,0,0,1,.21-.17,1.82,1.82,0,0,1,.43-.1,6.32,6.32,0,0,1,.67,0,6.47,6.47,0,0,1,.69,0,1.62,1.62,0,0,1,.42.1.56.56,0,0,1,.22.17.44.44,0,0,1,.07.22Z"/><path class="cls-4" d="M423.06,89.89a2.39,2.39,0,0,1,0,.51,1.61,1.61,0,0,1-.07.31.34.34,0,0,1-.11.16.31.31,0,0,1-.17,0,.71.71,0,0,1-.29-.07l-.43-.17a5,5,0,0,0-.6-.17,3.74,3.74,0,0,0-.79-.07,2.42,2.42,0,0,0-1.06.2,1.52,1.52,0,0,0-.7.63,3,3,0,0,0-.39,1.11,9.62,9.62,0,0,0-.12,1.65v1.64h3.37a.41.41,0,0,1,.23.06.58.58,0,0,1,.17.2,1.52,1.52,0,0,1,.12.36,4,4,0,0,1,0,.54,1.88,1.88,0,0,1-.15.87.46.46,0,0,1-.41.27h-3.37V111.2a.35.35,0,0,1-.07.23.57.57,0,0,1-.22.16,1.82,1.82,0,0,1-.43.1,7.5,7.5,0,0,1-1.34,0,1.82,1.82,0,0,1-.43-.1.62.62,0,0,1-.23-.16.41.41,0,0,1-.06-.23V98h-2.13a.44.44,0,0,1-.41-.27,2.08,2.08,0,0,1-.13-.87,4.16,4.16,0,0,1,0-.54,1.55,1.55,0,0,1,.1-.36.49.49,0,0,1,.17-.2.48.48,0,0,1,.24-.06h2.13V94.1a10.76,10.76,0,0,1,.29-2.71,4.64,4.64,0,0,1,.9-1.85,3.6,3.6,0,0,1,1.52-1.07,6.59,6.59,0,0,1,3.29-.23,4.85,4.85,0,0,1,.86.23,1.45,1.45,0,0,1,.4.23.84.84,0,0,1,.17.26,1.77,1.77,0,0,1,.09.38A4.44,4.44,0,0,1,423.06,89.89Z"/><path class="cls-4" d="M432.32,111.62l-2,5.55a.79.79,0,0,1-.52.42,4.24,4.24,0,0,1-1.25.14,6.16,6.16,0,0,1-.7,0,.93.93,0,0,1-.41-.15.32.32,0,0,1-.16-.26,1,1,0,0,1,.08-.41l2.08-5.25a.8.8,0,0,1-.28-.22.88.88,0,0,1-.19-.32l-5.38-14.43a1.69,1.69,0,0,1-.14-.55.4.4,0,0,1,.14-.32.82.82,0,0,1,.43-.16,6,6,0,0,1,.81,0l.79,0a1.51,1.51,0,0,1,.45.1.42.42,0,0,1,.24.19,1.83,1.83,0,0,1,.16.34l4.32,12.12h.05L435,96.17a.77.77,0,0,1,.24-.42,1.22,1.22,0,0,1,.43-.13,5.74,5.74,0,0,1,.82,0,5.5,5.5,0,0,1,.77,0,.94.94,0,0,1,.45.16.4.4,0,0,1,.14.32,1.57,1.57,0,0,1-.1.5Z"/><path class="cls-4" d="M460.74,105.53a6.24,6.24,0,0,1-.56,2.72,5.72,5.72,0,0,1-1.56,2,6.79,6.79,0,0,1-2.35,1.25,10.5,10.5,0,0,1-4.93.23,10.72,10.72,0,0,1-1.66-.45,8.09,8.09,0,0,1-1.23-.55,2.77,2.77,0,0,1-.68-.49,1.16,1.16,0,0,1-.29-.51,3.08,3.08,0,0,1-.09-.83,5,5,0,0,1,0-.61,1.54,1.54,0,0,1,.1-.4.41.41,0,0,1,.4-.27,1.41,1.41,0,0,1,.67.29,9.19,9.19,0,0,0,1.1.62,11,11,0,0,0,1.62.63,7.59,7.59,0,0,0,2.19.29,5.54,5.54,0,0,0,1.72-.25,4.08,4.08,0,0,0,1.34-.71,3.13,3.13,0,0,0,.86-1.14,3.65,3.65,0,0,0,.3-1.52,2.87,2.87,0,0,0-.42-1.58,4,4,0,0,0-1.1-1.15,10.13,10.13,0,0,0-1.57-.91l-1.81-.83c-.61-.29-1.21-.6-1.79-.95a7.84,7.84,0,0,1-1.56-1.23,5.79,5.79,0,0,1-1.12-1.65,5.57,5.57,0,0,1-.43-2.27,5.7,5.7,0,0,1,.5-2.43,5.07,5.07,0,0,1,1.38-1.79A6,6,0,0,1,451.89,90a8.58,8.58,0,0,1,2.63-.38,9,9,0,0,1,1.45.12,10.71,10.71,0,0,1,1.38.34,8.32,8.32,0,0,1,1.15.47,2.9,2.9,0,0,1,.66.42,1.24,1.24,0,0,1,.21.25,1,1,0,0,1,.08.24,2.49,2.49,0,0,1,.05.34c0,.13,0,.31,0,.52a4.39,4.39,0,0,1,0,.54,1.83,1.83,0,0,1-.07.39.46.46,0,0,1-.14.24.33.33,0,0,1-.21.07,1.37,1.37,0,0,1-.58-.23c-.27-.16-.59-.34-1-.53a7.9,7.9,0,0,0-1.35-.54,5.92,5.92,0,0,0-1.75-.24,4.69,4.69,0,0,0-1.58.24,3.16,3.16,0,0,0-1.11.65,2.48,2.48,0,0,0-.65,1,3.1,3.1,0,0,0-.22,1.18,2.84,2.84,0,0,0,.42,1.56,4.38,4.38,0,0,0,1.12,1.16,10.27,10.27,0,0,0,1.58.92l1.82.85c.61.28,1.21.6,1.81.94a7.56,7.56,0,0,1,1.58,1.2,5.62,5.62,0,0,1,1.13,1.65A5.49,5.49,0,0,1,460.74,105.53Z"/><path class="cls-4" d="M477.49,111.2a.41.41,0,0,1-.06.23.53.53,0,0,1-.21.16,1.57,1.57,0,0,1-.39.1,5,5,0,0,1-.6,0,5.53,5.53,0,0,1-.63,0,1.37,1.37,0,0,1-.38-.1.48.48,0,0,1-.2-.16.52.52,0,0,1,0-.23v-2a9.32,9.32,0,0,1-2.55,2.09,5.52,5.52,0,0,1-2.55.65,5.87,5.87,0,0,1-2.54-.5,4.6,4.6,0,0,1-1.67-1.37,5.56,5.56,0,0,1-.91-2,11.71,11.71,0,0,1-.28-2.79V96.1a.41.41,0,0,1,.06-.23.49.49,0,0,1,.23-.17,1.43,1.43,0,0,1,.43-.1l.67,0,.67,0a1.36,1.36,0,0,1,.43.1.62.62,0,0,1,.23.17.42.42,0,0,1,.07.23v8.79a9.24,9.24,0,0,0,.19,2.12,3.76,3.76,0,0,0,.59,1.36,2.7,2.7,0,0,0,1,.88,3.18,3.18,0,0,0,1.41.31,3.57,3.57,0,0,0,2.08-.74,12.29,12.29,0,0,0,2.19-2.17V96.1a.41.41,0,0,1,.05-.23.55.55,0,0,1,.23-.17,1.51,1.51,0,0,1,.43-.1l.68,0,.67,0a1.29,1.29,0,0,1,.42.1.72.72,0,0,1,.23.17.35.35,0,0,1,.07.23Z"/><path class="cls-4" d="M493.47,108.9c0,.19,0,.36,0,.5a1.58,1.58,0,0,1-.06.35,1.45,1.45,0,0,1-.1.25,1.79,1.79,0,0,1-.27.32,4.51,4.51,0,0,1-.71.52,6.7,6.7,0,0,1-1.14.55,7.48,7.48,0,0,1-1.36.4,7.71,7.71,0,0,1-1.53.15,7.3,7.3,0,0,1-2.89-.54,5.39,5.39,0,0,1-2.1-1.57A6.87,6.87,0,0,1,482,107.3a12.12,12.12,0,0,1-.45-3.47,11.78,11.78,0,0,1,.55-3.83,7.28,7.28,0,0,1,1.49-2.63,5.93,5.93,0,0,1,2.23-1.51,7.67,7.67,0,0,1,2.78-.5,7.15,7.15,0,0,1,1.4.14,6.52,6.52,0,0,1,1.25.35,5.38,5.38,0,0,1,1,.5,3.69,3.69,0,0,1,.64.49,1.69,1.69,0,0,1,.28.32,1,1,0,0,1,.12.27,1.35,1.35,0,0,1,.07.36c0,.14,0,.31,0,.51a2,2,0,0,1-.15.91.45.45,0,0,1-.37.26.93.93,0,0,1-.58-.28c-.22-.18-.5-.38-.83-.61a6.3,6.3,0,0,0-1.22-.61,4.73,4.73,0,0,0-1.68-.28,3.52,3.52,0,0,0-3.07,1.54,7.78,7.78,0,0,0-1.06,4.45,10.75,10.75,0,0,0,.27,2.56,5.29,5.29,0,0,0,.82,1.84,3.4,3.4,0,0,0,1.32,1.1,4.19,4.19,0,0,0,1.78.36,4.34,4.34,0,0,0,1.68-.3,6.93,6.93,0,0,0,1.25-.66c.35-.25.65-.46.89-.66a1,1,0,0,1,.56-.29.32.32,0,0,1,.2.06.51.51,0,0,1,.15.23,1.88,1.88,0,0,1,.08.4A5,5,0,0,1,493.47,108.9Z"/><path class="cls-4" d="M508,108.9c0,.19,0,.36,0,.5a1.58,1.58,0,0,1-.06.35,1.45,1.45,0,0,1-.1.25,1.79,1.79,0,0,1-.27.32,4.51,4.51,0,0,1-.71.52,6.59,6.59,0,0,1-1.13.55,7.83,7.83,0,0,1-1.37.4,7.63,7.63,0,0,1-1.53.15,7.22,7.22,0,0,1-2.88-.54,5.42,5.42,0,0,1-2.11-1.57,7,7,0,0,1-1.29-2.53,13.61,13.61,0,0,1,.1-7.3,7.28,7.28,0,0,1,1.49-2.63,5.93,5.93,0,0,1,2.23-1.51,7.71,7.71,0,0,1,2.78-.5,7.15,7.15,0,0,1,1.4.14,6.32,6.32,0,0,1,1.25.35,5.38,5.38,0,0,1,1,.5,3.69,3.69,0,0,1,.64.49,1.69,1.69,0,0,1,.28.32,1.36,1.36,0,0,1,.13.27,1.93,1.93,0,0,1,.06.36c0,.14,0,.31,0,.51a2,2,0,0,1-.15.91.43.43,0,0,1-.37.26.93.93,0,0,1-.58-.28c-.22-.18-.49-.38-.83-.61a6,6,0,0,0-1.22-.61,4.69,4.69,0,0,0-1.68-.28A3.51,3.51,0,0,0,500,99.23a7.7,7.7,0,0,0-1.07,4.45,10.23,10.23,0,0,0,.28,2.56,5.11,5.11,0,0,0,.81,1.84,3.4,3.4,0,0,0,1.32,1.1,4.21,4.21,0,0,0,1.79.36,4.33,4.33,0,0,0,1.67-.3,6.93,6.93,0,0,0,1.25-.66c.36-.25.65-.46.89-.66a1,1,0,0,1,.56-.29.37.37,0,0,1,.21.06.61.61,0,0,1,.14.23,1.41,1.41,0,0,1,.08.4A5,5,0,0,1,508,108.9Z"/><path class="cls-4" d="M524.56,103a1.17,1.17,0,0,1-.33.93,1.15,1.15,0,0,1-.75.27h-10a9.26,9.26,0,0,0,.26,2.27,4.44,4.44,0,0,0,.84,1.73,3.71,3.71,0,0,0,1.54,1.1,6,6,0,0,0,2.3.39,9.32,9.32,0,0,0,1.93-.18,9.81,9.81,0,0,0,1.46-.39l1-.39a1.59,1.59,0,0,1,.6-.18.37.37,0,0,1,.21.06.39.39,0,0,1,.14.17,1.59,1.59,0,0,1,.08.33c0,.14,0,.31,0,.51a2.18,2.18,0,0,1,0,.38,2.26,2.26,0,0,1,0,.29.53.53,0,0,1-.08.22,1.3,1.3,0,0,1-.15.2,2.68,2.68,0,0,1-.55.3,7.37,7.37,0,0,1-1.17.41c-.48.13-1,.25-1.67.36a11.82,11.82,0,0,1-2,.16,9.31,9.31,0,0,1-3.27-.52,6.08,6.08,0,0,1-2.36-1.55,6.71,6.71,0,0,1-1.44-2.56,12.14,12.14,0,0,1-.48-3.59,11.16,11.16,0,0,1,.5-3.5,7.41,7.41,0,0,1,1.45-2.64,6.43,6.43,0,0,1,2.29-1.66,7.64,7.64,0,0,1,3-.58,7.25,7.25,0,0,1,3,.57A5.75,5.75,0,0,1,523,97.45a6.1,6.1,0,0,1,1.18,2.26,10,10,0,0,1,.38,2.78Zm-2.79-.83a5,5,0,0,0-1-3.42,3.69,3.69,0,0,0-3-1.24,4.08,4.08,0,0,0-1.8.38,3.79,3.79,0,0,0-1.3,1,4.61,4.61,0,0,0-.81,1.48,6.23,6.23,0,0,0-.33,1.77Z"/><path class="cls-4" d="M538.25,107.09a4.69,4.69,0,0,1-.43,2.06,4.12,4.12,0,0,1-1.21,1.53,5.63,5.63,0,0,1-1.88.94,8.65,8.65,0,0,1-2.4.32,8.49,8.49,0,0,1-1.54-.13,8.67,8.67,0,0,1-1.31-.32,6.2,6.2,0,0,1-1-.4,2.41,2.41,0,0,1-.58-.38.84.84,0,0,1-.27-.47,3,3,0,0,1-.09-.82,2.83,2.83,0,0,1,0-.54,2,2,0,0,1,.08-.35.35.35,0,0,1,.14-.19.37.37,0,0,1,.21-.06,1.2,1.2,0,0,1,.55.23c.24.15.53.31.89.49a7.92,7.92,0,0,0,1.25.5,5.56,5.56,0,0,0,1.66.22,5,5,0,0,0,1.27-.15,3.2,3.2,0,0,0,1-.44,2,2,0,0,0,.65-.75,2.38,2.38,0,0,0,.23-1.07,1.76,1.76,0,0,0-.33-1.08,3.29,3.29,0,0,0-.87-.77,7.06,7.06,0,0,0-1.2-.59l-1.39-.55a12.5,12.5,0,0,1-1.39-.65,5.34,5.34,0,0,1-1.22-.88,3.93,3.93,0,0,1-.86-1.24,4.11,4.11,0,0,1-.33-1.73,4.31,4.31,0,0,1,.35-1.7,4,4,0,0,1,1-1.43,5.38,5.38,0,0,1,1.72-1,7.31,7.31,0,0,1,2.41-.37,8.09,8.09,0,0,1,1.2.1,8.35,8.35,0,0,1,1.09.26,5.37,5.37,0,0,1,.83.32,4.17,4.17,0,0,1,.53.31,1,1,0,0,1,.23.24.58.58,0,0,1,.08.22,2.16,2.16,0,0,1,.05.32,2.81,2.81,0,0,1,0,.45,3.48,3.48,0,0,1,0,.49,1.06,1.06,0,0,1-.08.35.49.49,0,0,1-.14.19.33.33,0,0,1-.19.06.87.87,0,0,1-.43-.19,6.89,6.89,0,0,0-.74-.39,7.64,7.64,0,0,0-1.07-.39,4.6,4.6,0,0,0-1.4-.19,4.24,4.24,0,0,0-1.24.16,2.51,2.51,0,0,0-.88.45,2,2,0,0,0-.52.7,2.12,2.12,0,0,0-.18.87,1.72,1.72,0,0,0,.34,1.1,3,3,0,0,0,.87.78,7,7,0,0,0,1.23.61l1.4.55c.47.19.94.4,1.41.64a5.38,5.38,0,0,1,1.23.85,3.75,3.75,0,0,1,.86,1.21A3.93,3.93,0,0,1,538.25,107.09Z"/><path class="cls-4" d="M551.69,107.09a4.69,4.69,0,0,1-.43,2.06,4.12,4.12,0,0,1-1.21,1.53,5.53,5.53,0,0,1-1.88.94,8.65,8.65,0,0,1-2.4.32,8.49,8.49,0,0,1-1.54-.13,8.67,8.67,0,0,1-1.31-.32,6.2,6.2,0,0,1-1-.4,2.41,2.41,0,0,1-.58-.38.84.84,0,0,1-.27-.47,3,3,0,0,1-.09-.82,2.83,2.83,0,0,1,0-.54,2,2,0,0,1,.08-.35.35.35,0,0,1,.14-.19.42.42,0,0,1,.21-.06,1.2,1.2,0,0,1,.55.23c.24.15.54.31.89.49a7.92,7.92,0,0,0,1.25.5,5.56,5.56,0,0,0,1.66.22,4.92,4.92,0,0,0,1.27-.15,3.37,3.37,0,0,0,1-.44,2.1,2.1,0,0,0,.64-.75,2.38,2.38,0,0,0,.23-1.07,1.76,1.76,0,0,0-.33-1.08,3.4,3.4,0,0,0-.86-.77,7.17,7.17,0,0,0-1.21-.59l-1.39-.55a12.5,12.5,0,0,1-1.39-.65,5.34,5.34,0,0,1-1.22-.88,3.94,3.94,0,0,1-1.19-3,4.31,4.31,0,0,1,.35-1.7,4,4,0,0,1,1-1.43,5.38,5.38,0,0,1,1.72-1,7.31,7.31,0,0,1,2.41-.37,8.34,8.34,0,0,1,1.21.1,9.21,9.21,0,0,1,1.09.26A6.3,6.3,0,0,1,550,96a3.93,3.93,0,0,1,.52.31,1,1,0,0,1,.23.24.85.85,0,0,1,.09.22c0,.09,0,.19,0,.32s0,.27,0,.45,0,.35,0,.49a1.36,1.36,0,0,1-.09.35.49.49,0,0,1-.14.19.33.33,0,0,1-.19.06.87.87,0,0,1-.43-.19,6.89,6.89,0,0,0-.74-.39,7.64,7.64,0,0,0-1.07-.39,4.56,4.56,0,0,0-1.4-.19,4.24,4.24,0,0,0-1.24.16,2.51,2.51,0,0,0-.88.45,2,2,0,0,0-.52.7,2.12,2.12,0,0,0-.18.87,1.78,1.78,0,0,0,.34,1.1,3,3,0,0,0,.87.78,7,7,0,0,0,1.23.61l1.4.55c.47.19.94.4,1.41.64a5.38,5.38,0,0,1,1.23.85,3.94,3.94,0,0,1,.87,1.21A4.09,4.09,0,0,1,551.69,107.09Z"/></svg>