<svg id="Layer_1" data-name="Layer 1" xmlns="http://www.w3.org/2000/svg" viewBox="0 0 227 134"><defs><style>.cls-1{fill:#ffc905;}.cls-2{fill:#fff;}.cls-3{fill:none;stroke:#fff;stroke-linejoin:round;stroke-width:2.62px;}</style></defs><path class="cls-1" d="M13.91,74.09a31.48,31.48,0,0,1-6.65-.73,30.24,30.24,0,0,1-5.12-1.47L.37,71.21l2.63-7A19.42,19.42,0,0,0,13.18,67a10,10,0,0,0,6.13-1.62,5.4,5.4,0,0,0,2.14-4.57,4.74,4.74,0,0,0-2.05-4,17.67,17.67,0,0,0-5-2.51c-1.94-.66-3.89-1.39-5.85-2.21a12.14,12.14,0,0,1-5-3.89,10.7,10.7,0,0,1-2.06-6.72q0-6.18,4.14-9.68T17,28.31a26.26,26.26,0,0,1,5.67.61,24.18,24.18,0,0,1,4.2,1.23l1.34.61-1.77,6A19.91,19.91,0,0,0,18,34.93a10.14,10.14,0,0,0-5.82,1.44,4.61,4.61,0,0,0-2.09,4A4.23,4.23,0,0,0,12.2,44a19.9,19.9,0,0,0,5.05,2.36,57.91,57.91,0,0,1,5.95,2.27,12.34,12.34,0,0,1,5.05,4.16,11.77,11.77,0,0,1,2.09,7.14q0,6.63-4.35,10.39T13.91,74.09Z"/><path class="cls-1" d="M57,65.64,57.89,72a18.17,18.17,0,0,1-8.21,1.88A10.42,10.42,0,0,1,41.94,71Q39.1,68.2,39.11,62.4v-16H35v-6.2h5l1.42-9.29,6.26-.6v9.89h8.62l-.47,6.2H47.66V60.65q0,6.06,4.58,6.06a10,10,0,0,0,2.25-.26,13,13,0,0,0,1.86-.54Z"/><path class="cls-1" d="M71.63,47.05q3.63-7.41,11.72-7.41l-1,8.49a7.45,7.45,0,0,0-3.24-.67q-4.63,0-7.13,5.32V73.11H63.42V40.45l6.39-.67A32.83,32.83,0,0,1,71.63,47.05Z"/><path class="cls-1" d="M94.59,73.92a9,9,0,0,1-6.7-2.59,9.4,9.4,0,0,1-2.52-6.84A9.34,9.34,0,0,1,88.67,57q3.3-2.84,8.82-2.83a16.77,16.77,0,0,1,3.77.4,10.53,10.53,0,0,1,2.49.81l.81.41c0-3.33-.51-5.78-1.65-7.38S99.73,46,96.81,46a22.15,22.15,0,0,0-3.8.34,24.58,24.58,0,0,0-3.06.67l-1.08.34-.94-5.66a30.11,30.11,0,0,1,12-2.29q13.2,0,13.2,13.54V73l-6.4.6a43.58,43.58,0,0,1-1.48-5.65,6.43,6.43,0,0,1-.4.67A12.11,12.11,0,0,1,103.55,70a17.93,17.93,0,0,1-2.12,1.82,11.41,11.41,0,0,1-3,1.45A11.64,11.64,0,0,1,94.59,73.92Zm3.3-6.6a7,7,0,0,0,3.37-.91,9.9,9.9,0,0,0,2.49-1.78l.81-.95V60.32A9,9,0,0,0,99.1,58.7a6.27,6.27,0,0,0-4,1.25,4,4,0,0,0-1.54,3.26,3.9,3.9,0,0,0,1.21,3A4.43,4.43,0,0,0,97.89,67.32Z"/><path class="cls-1" d="M140.25,65.64l.94,6.33A18.21,18.21,0,0,1,133,73.85,10.46,10.46,0,0,1,125.23,71q-2.83-2.82-2.83-8.62v-16h-4.11v-6.2h5l1.41-9.29,6.26-.6v9.89h8.62l-.47,6.2H131V60.65q0,6.06,4.58,6.06a10.12,10.12,0,0,0,2.26-.26,13.2,13.2,0,0,0,1.85-.54Z"/><path class="cls-1" d="M160.18,73.92q-7.41,0-11.52-4.48c-2.74-3-4.1-7.13-4.1-12.42q0-8.22,4.37-12.86t12-4.65q7.41,0,11.51,4.48t4.11,12.35q0,8.29-4.38,12.93T160.18,73.92Zm.33-6.4q7.55,0,7.55-10.84t-7.55-10.77q-7.53,0-7.54,10.77T160.51,67.52Z"/><path class="cls-1" d="M191.29,73.92a27,27,0,0,1-5.32-.54,24.23,24.23,0,0,1-4-1.08l-1.35-.6,1.75-6a17.24,17.24,0,0,0,8.35,2.16,7.51,7.51,0,0,0,4-.94,3,3,0,0,0,1.51-2.63,3.07,3.07,0,0,0-1.48-2.59,15.51,15.51,0,0,0-3.6-1.82,45.71,45.71,0,0,1-4.28-1.82,9.29,9.29,0,0,1-3.63-3.16,9,9,0,0,1-1.49-5.29,9.06,9.06,0,0,1,3.3-7.37q3.3-2.73,9-2.73a23.45,23.45,0,0,1,4.51.44,16.53,16.53,0,0,1,3.3.91l1,.47-1.41,5.39a15,15,0,0,0-6.27-1.28c-3.63,0-5.45,1.16-5.45,3.5a3.28,3.28,0,0,0,1.55,2.72,16.27,16.27,0,0,0,3.7,2q2.16.84,4.35,1.85A9.76,9.76,0,0,1,203,58.53a8.11,8.11,0,0,1,1.55,5,9.24,9.24,0,0,1-3.5,7.51Q197.54,73.93,191.29,73.92Z"/><path class="cls-2" d="M9,96.72V87.18H5.32v-1h8.49v1H10.12v9.54Z"/><path class="cls-2" d="M19.38,88.76a3.74,3.74,0,0,1,1.68.37,2.62,2.62,0,0,1,1.14,1.12,3.83,3.83,0,0,1,.42,1.89v4.58H21.55V92.25a2.64,2.64,0,0,0-.62-1.89,2.37,2.37,0,0,0-1.75-.64,3.06,3.06,0,0,0-1.46.34,2.27,2.27,0,0,0-1,1,3.16,3.16,0,0,0-.34,1.54v4.14H15.35V85.59h1.07V91l-.21-.41a2.88,2.88,0,0,1,1.2-1.34A3.86,3.86,0,0,1,19.38,88.76Z"/><path class="cls-2" d="M26,87.1a.79.79,0,0,1-.56-.22.76.76,0,0,1-.23-.54.74.74,0,0,1,.23-.54.78.78,0,0,1,.56-.21.79.79,0,0,1,.55.21.67.67,0,0,1,.23.52.82.82,0,0,1-.22.56A.8.8,0,0,1,26,87.1Zm-.54,9.62V88.84h1.06v7.88Z"/><path class="cls-2" d="M33.55,88.76a3.79,3.79,0,0,1,1.69.37,2.73,2.73,0,0,1,1.14,1.12,4,4,0,0,1,.41,1.89v4.58H35.72V92.25a2.6,2.6,0,0,0-.62-1.89,2.35,2.35,0,0,0-1.75-.64,3.09,3.09,0,0,0-1.46.34,2.39,2.39,0,0,0-1,1,3.28,3.28,0,0,0-.34,1.54v4.14H29.53V88.84h1V91l-.17-.41a2.88,2.88,0,0,1,1.2-1.34A3.86,3.86,0,0,1,33.55,88.76Z"/><path class="cls-2" d="M39.67,96.72V85.59h1.06V96.72Zm.84-2,0-1.37,4.9-4.47h1.31l-3.46,3.32-.61.51Zm5.26,2-3.28-4.1.69-.82,3.9,4.92Z"/><path class="cls-2" d="M52.84,96.72V86.22h4.53a4.54,4.54,0,0,1,2.72.7,2.31,2.31,0,0,1,1,2,2.43,2.43,0,0,1-.4,1.43,2.37,2.37,0,0,1-1.08.89,3.64,3.64,0,0,1-1.49.3l.25-.36a4.4,4.4,0,0,1,1.74.31,2.49,2.49,0,0,1,1.13.91,2.68,2.68,0,0,1,.4,1.51,2.42,2.42,0,0,1-1,2.07,4.91,4.91,0,0,1-3,.74ZM54,95.8h3.7a4,4,0,0,0,2.12-.47,1.67,1.67,0,0,0,.73-1.51,1.63,1.63,0,0,0-.73-1.49,3.89,3.89,0,0,0-2.12-.48H53.83v-.91h3.46a3.42,3.42,0,0,0,2-.48,1.81,1.81,0,0,0,0-2.86,3.5,3.5,0,0,0-2-.47H54Z"/><path class="cls-2" d="M67.27,96.79a4.32,4.32,0,0,1-2.16-.52,3.76,3.76,0,0,1-1.46-1.42,4.09,4.09,0,0,1-.52-2.08,4.23,4.23,0,0,1,.5-2.07A3.94,3.94,0,0,1,69,89.27a3.53,3.53,0,0,1,1.35,1.41,4.28,4.28,0,0,1,.5,2.09.92.92,0,0,1,0,.16s0,.11,0,.17H63.94v-.8h6.28l-.42.32a3.13,3.13,0,0,0-.36-1.52,2.73,2.73,0,0,0-1-1,3,3,0,0,0-2.91,0,2.68,2.68,0,0,0-1,1,3.37,3.37,0,0,0-.35,1.55v.16a3.15,3.15,0,0,0,.39,1.59,2.83,2.83,0,0,0,1.11,1.06,3.35,3.35,0,0,0,1.63.38,3.47,3.47,0,0,0,1.34-.25,2.67,2.67,0,0,0,1.07-.78l.6.69a3.33,3.33,0,0,1-1.31,1A4.41,4.41,0,0,1,67.27,96.79Z"/><path class="cls-2" d="M73,99.7A3,3,0,0,1,72,99.52a2.29,2.29,0,0,1-.87-.54l.5-.8a2.3,2.3,0,0,0,.65.45,2,2,0,0,0,.79.16,1.44,1.44,0,0,0,.91-.3,2.73,2.73,0,0,0,.72-1l.51-1.16.12-.17,3.24-7.3h1l-3.94,8.82a4.47,4.47,0,0,1-.73,1.22,2.2,2.2,0,0,1-.86.63A2.68,2.68,0,0,1,73,99.7Zm2.1-2.76-3.63-8.1h1.11l3.21,7.23Z"/><path class="cls-2" d="M84.32,96.79a4,4,0,0,1-2-.52,3.78,3.78,0,0,1-1.43-1.43,4.42,4.42,0,0,1,0-4.16,4,4,0,0,1,1.43-1.41,4.08,4.08,0,0,1,2-.51,4.17,4.17,0,0,1,2.08.52,3.87,3.87,0,0,1,1.43,1.41,4.14,4.14,0,0,1,.51,2.08,4.19,4.19,0,0,1-.51,2.08,3.78,3.78,0,0,1-1.44,1.42A4.08,4.08,0,0,1,84.32,96.79Zm0-1a2.93,2.93,0,0,0,1.52-.38,2.64,2.64,0,0,0,1-1.08,3.62,3.62,0,0,0,0-3.23,2.68,2.68,0,0,0-1-1.07,3.15,3.15,0,0,0-3,0,2.77,2.77,0,0,0-1,1.07,3.54,3.54,0,0,0,0,3.23,2.77,2.77,0,0,0,1,1.08A2.85,2.85,0,0,0,84.32,95.84Z"/><path class="cls-2" d="M94.54,88.76a3.79,3.79,0,0,1,1.69.37,2.73,2.73,0,0,1,1.14,1.12,4,4,0,0,1,.41,1.89v4.58H96.71V92.25a2.6,2.6,0,0,0-.62-1.89,2.35,2.35,0,0,0-1.75-.64,3.09,3.09,0,0,0-1.46.34,2.39,2.39,0,0,0-1,1,3.28,3.28,0,0,0-.34,1.54v4.14H90.52V88.84h1V91l-.17-.41a2.88,2.88,0,0,1,1.2-1.34A3.86,3.86,0,0,1,94.54,88.76Z"/><path class="cls-2" d="M103.79,96.79a4,4,0,0,1-2-.51,3.63,3.63,0,0,1-1.41-1.42,4.56,4.56,0,0,1,0-4.19,3.58,3.58,0,0,1,1.41-1.4,4,4,0,0,1,2-.51,3.72,3.72,0,0,1,1.86.47,3.35,3.35,0,0,1,1.3,1.36,4.42,4.42,0,0,1,.49,2.18A4.62,4.62,0,0,1,107,95a3.37,3.37,0,0,1-1.3,1.37A3.71,3.71,0,0,1,103.79,96.79Zm.08-1a3,3,0,0,0,1.51-.38,2.73,2.73,0,0,0,1.05-1.08,3.62,3.62,0,0,0,0-3.23,2.77,2.77,0,0,0-1.05-1.07,3,3,0,0,0-1.51-.38,2.87,2.87,0,0,0-1.49.38,2.77,2.77,0,0,0-1,1.07,3.54,3.54,0,0,0,0,3.23,2.73,2.73,0,0,0,1,1.08A2.87,2.87,0,0,0,103.87,95.84Zm3,.88V94.34l.1-1.58-.15-1.59V85.59h1.07V96.72Z"/><path class="cls-2" d="M115,96.72V86.22h4.53a4.59,4.59,0,0,1,2.73.7,2.33,2.33,0,0,1,1,2,2.51,2.51,0,0,1-.39,1.43,2.48,2.48,0,0,1-1.08.89,3.72,3.72,0,0,1-1.5.3l.26-.36a4.31,4.31,0,0,1,1.73.31,2.44,2.44,0,0,1,1.13.91,2.68,2.68,0,0,1,.41,1.51,2.45,2.45,0,0,1-1,2.07,5,5,0,0,1-3,.74Zm1.11-.92h3.71a4,4,0,0,0,2.11-.47,1.67,1.67,0,0,0,.74-1.51,1.64,1.64,0,0,0-.74-1.49,3.85,3.85,0,0,0-2.11-.48H116v-.91h3.47a3.44,3.44,0,0,0,2-.48,1.83,1.83,0,0,0,0-2.86,3.53,3.53,0,0,0-2-.47h-3.35Z"/><path class="cls-2" d="M129.28,96.79a4,4,0,0,1-2.06-.52,3.75,3.75,0,0,1-1.42-1.43,4.35,4.35,0,0,1,0-4.16,3.92,3.92,0,0,1,1.42-1.41,4.11,4.11,0,0,1,2.06-.51,4.2,4.2,0,0,1,2.08.52,3.84,3.84,0,0,1,1.42,1.41,4,4,0,0,1,.52,2.08,4.09,4.09,0,0,1-.52,2.08,3.68,3.68,0,0,1-1.43,1.42A4.08,4.08,0,0,1,129.28,96.79Zm0-1a2.9,2.9,0,0,0,1.51-.38,2.73,2.73,0,0,0,1.05-1.08,3.62,3.62,0,0,0,0-3.23,2.77,2.77,0,0,0-1.05-1.07,3.15,3.15,0,0,0-3,0,2.77,2.77,0,0,0-1.05,1.07,3.54,3.54,0,0,0,0,3.23,2.73,2.73,0,0,0,1.05,1.08A2.83,2.83,0,0,0,129.28,95.84Z"/><path class="cls-2" d="M138.73,96.79a3.9,3.9,0,0,1-1.76-.37,2.69,2.69,0,0,1-1.16-1.13,3.89,3.89,0,0,1-.41-1.87V88.84h1.06V93.3a2.57,2.57,0,0,0,.63,1.89,2.29,2.29,0,0,0,1.74.64,2.89,2.89,0,0,0,1.44-.34,2.26,2.26,0,0,0,.93-1,3.5,3.5,0,0,0,.32-1.54V88.84h1.06v7.88h-1V94.55l.17.4a2.89,2.89,0,0,1-1.16,1.35A3.4,3.4,0,0,1,138.73,96.79Z"/><path class="cls-2" d="M149.57,88.76a3.76,3.76,0,0,1,1.69.37,2.62,2.62,0,0,1,1.14,1.12,3.83,3.83,0,0,1,.41,1.89v4.58h-1.06V92.25a2.64,2.64,0,0,0-.62-1.89,2.37,2.37,0,0,0-1.75-.64,3.06,3.06,0,0,0-1.46.34,2.27,2.27,0,0,0-1,1,3.16,3.16,0,0,0-.34,1.54v4.14h-1.07V88.84h1V91l-.16-.41a2.88,2.88,0,0,1,1.2-1.34A3.82,3.82,0,0,1,149.57,88.76Z"/><path class="cls-2" d="M158.83,96.79a4,4,0,0,1-2-.51,3.67,3.67,0,0,1-1.4-1.42,4.56,4.56,0,0,1,0-4.19,3.62,3.62,0,0,1,1.4-1.4,4,4,0,0,1,2-.51,3.66,3.66,0,0,1,1.85.47A3.37,3.37,0,0,1,162,90.59a4.53,4.53,0,0,1,.48,2.18A4.62,4.62,0,0,1,162,95a3.42,3.42,0,0,1-1.29,1.37A3.74,3.74,0,0,1,158.83,96.79Zm.07-1a2.92,2.92,0,0,0,1.51-.38,2.6,2.6,0,0,0,1.05-1.08,3.62,3.62,0,0,0,0-3.23,2.64,2.64,0,0,0-1.05-1.07,2.92,2.92,0,0,0-1.51-.38,2.84,2.84,0,0,0-1.48.38,2.77,2.77,0,0,0-1,1.07,3.54,3.54,0,0,0,0,3.23,2.73,2.73,0,0,0,1,1.08A2.84,2.84,0,0,0,158.9,95.84Zm3,.88V94.34l.11-1.58-.15-1.59V85.59h1.06V96.72Z"/><path class="cls-2" d="M168.08,96.79a3.76,3.76,0,0,1-1.53-.29,2.33,2.33,0,0,1-1-.81,2.11,2.11,0,0,1-.35-1.19,2.13,2.13,0,0,1,.3-1.12,2,2,0,0,1,1-.81,4.23,4.23,0,0,1,1.79-.31H171v.79h-2.68a2.34,2.34,0,0,0-1.58.41,1.36,1.36,0,0,0,.08,2.09,2.42,2.42,0,0,0,1.47.4,2.87,2.87,0,0,0,1.55-.41,2.34,2.34,0,0,0,.95-1.2l.24.74a2.52,2.52,0,0,1-1,1.25A3.46,3.46,0,0,1,168.08,96.79Zm2.72-.07V95l-.05-.28V91.78a2,2,0,0,0-.56-1.55,2.36,2.36,0,0,0-1.67-.53,4.19,4.19,0,0,0-1.46.25,3.53,3.53,0,0,0-1.17.68l-.48-.8a4.35,4.35,0,0,1,1.44-.79,5.75,5.75,0,0,1,1.77-.28,3.44,3.44,0,0,1,2.37.76,3,3,0,0,1,.83,2.31v4.89Z"/><path class="cls-2" d="M174.71,96.72V88.84h1V91l-.1-.37a2.57,2.57,0,0,1,1.11-1.37,3.61,3.61,0,0,1,1.93-.48v1h-.24a2.55,2.55,0,0,0-2,.75,3.05,3.05,0,0,0-.7,2.16v4Z"/><path class="cls-2" d="M181.27,87.1a.8.8,0,0,1-.56-.22.75.75,0,0,1-.22-.54.73.73,0,0,1,.22-.54.79.79,0,0,1,.56-.21.77.77,0,0,1,.55.21.67.67,0,0,1,.23.52.78.78,0,0,1-.22.56A.77.77,0,0,1,181.27,87.1Zm-.54,9.62V88.84h1.06v7.88Z"/><path class="cls-2" d="M188.11,96.79a4.32,4.32,0,0,1-2.16-.52,3.76,3.76,0,0,1-1.46-1.42,4.09,4.09,0,0,1-.52-2.08,4.23,4.23,0,0,1,.5-2.07,3.94,3.94,0,0,1,5.33-1.43,3.53,3.53,0,0,1,1.35,1.41,4.28,4.28,0,0,1,.5,2.09.92.92,0,0,1,0,.16s0,.11,0,.17h-6.85v-.8h6.28l-.42.32a3.13,3.13,0,0,0-.36-1.52,2.73,2.73,0,0,0-1-1,3,3,0,0,0-2.91,0,2.68,2.68,0,0,0-1,1,3.25,3.25,0,0,0-.36,1.55v.16a3.15,3.15,0,0,0,.4,1.59,2.83,2.83,0,0,0,1.11,1.06,3.35,3.35,0,0,0,1.63.38,3.47,3.47,0,0,0,1.34-.25,2.74,2.74,0,0,0,1.07-.78l.6.69a3.33,3.33,0,0,1-1.31,1A4.41,4.41,0,0,1,188.11,96.79Z"/><path class="cls-2" d="M195.94,96.79a5.92,5.92,0,0,1-1.85-.28,3.85,3.85,0,0,1-1.36-.7l.48-.84a4.42,4.42,0,0,0,1.23.63,4.83,4.83,0,0,0,1.57.26,2.9,2.9,0,0,0,1.62-.35,1.11,1.11,0,0,0,.5-.94.84.84,0,0,0-.28-.68,1.8,1.8,0,0,0-.73-.38,8,8,0,0,0-1-.21c-.37-.07-.74-.13-1.1-.21a3.82,3.82,0,0,1-1-.36A1.77,1.77,0,0,1,193,91a2,2,0,0,1,.36-1.15,2.37,2.37,0,0,1,1.06-.8,4.31,4.31,0,0,1,1.7-.3,5.76,5.76,0,0,1,1.53.21,4.09,4.09,0,0,1,1.26.53l-.46.85a3.71,3.71,0,0,0-1.13-.51,4.5,4.5,0,0,0-1.2-.16,2.6,2.6,0,0,0-1.56.37,1.09,1.09,0,0,0-.51.93.93.93,0,0,0,.28.71,2,2,0,0,0,.74.4,7.8,7.8,0,0,0,1,.23c.37.06.73.13,1.1.22a4.9,4.9,0,0,1,1,.34,1.87,1.87,0,0,1,.74.62,1.8,1.8,0,0,1,.27,1,1.86,1.86,0,0,1-.38,1.19,2.32,2.32,0,0,1-1.11.78A4.85,4.85,0,0,1,195.94,96.79Z"/><polyline class="cls-3" points="100.5 29.5 100.5 16.5 225 2.5 225 131.5 100.5 117.5 100.5 104.5"/></svg>