<svg width="1081" height="431" viewBox="0 0 1081 431" fill="none" xmlns="http://www.w3.org/2000/svg">
<path d="M164.89 252.64C148.123 266.827 127.073 273.92 101.74 273.92C76.4063 273.92 55.2963 266.65 38.4096 252.11C21.563 237.57 13.1396 219.51 13.1396 197.93H63.0397C63.0397 207.083 66.8497 214.823 74.4697 221.15C82.0897 227.477 91.533 230.643 102.8 230.65C113.353 230.65 122.206 227.953 129.36 222.56C136.513 217.167 140.106 210.483 140.14 202.51C140.14 187.263 123.473 175.887 90.1396 168.38C68.5596 163.22 50.9697 154.777 37.3697 143.05C23.7697 131.323 16.963 115.61 16.9496 95.91C16.9496 74.33 24.9263 56.74 40.8796 43.14C56.833 29.54 76.8863 22.7367 101.04 22.73C125.193 22.73 145.42 29.65 161.72 43.49C178.02 57.33 186.16 74.6867 186.14 95.56H136.22C136.22 87.1067 132.816 80.07 126.01 74.45C119.203 68.83 110.76 66.0133 100.68 66C91.2996 66 83.3263 68.46 76.7596 73.38C70.193 78.3 66.9097 84.5067 66.9097 92C66.9097 107.007 82.3897 118.147 113.35 125.42C123.257 127.722 132.957 130.839 142.35 134.74C150.885 138.37 158.971 142.974 166.45 148.46C173.891 153.9 179.875 161.093 183.87 169.4C188.071 178.302 190.175 188.048 190.02 197.89C190.033 220.21 181.656 238.46 164.89 252.64Z" fill="black"/>
<path d="M306.84 132.14H265.33V205.32C265.33 212.36 267.44 217.87 271.66 221.85C275.88 225.83 281.626 227.83 288.9 227.85H306.84V269.7H282.22C261.553 269.7 245.956 264.893 235.43 255.28C224.903 245.667 219.623 231.593 219.59 213.06V132.14H191.14V90.28H207.67C217.29 90.28 222.1 85.4733 222.1 75.86V42.43H265.37V90.28H306.84V132.14Z" fill="black"/>
<path d="M365.939 117.72C380.946 97.5533 399.946 87.4667 422.939 87.46V134.61C404.879 134.61 390.879 139.063 380.939 147.97C370.999 156.877 365.999 168.957 365.939 184.21V269.7H320.209V90.28H365.939V117.72Z" fill="black"/>
<path d="M620.299 225.37H623.82V269.7H610.82C585.486 269.7 569.419 260.317 562.619 241.55C547.373 263.137 526.853 273.927 501.059 273.92C476.199 273.92 455.383 264.95 438.609 247.01C421.836 229.07 413.446 206.733 413.439 180C413.439 153.26 421.823 130.927 438.589 113C455.356 95.0733 476.173 86.0933 501.039 86.06C524.959 86.06 544.426 95.3233 559.439 113.85V90.28H605.139V210.28C605.139 220.347 610.193 225.377 620.299 225.37ZM509.829 229.59C524.136 229.59 535.979 224.843 545.359 215.35C554.739 205.857 559.433 194.073 559.439 180C559.439 165.927 554.746 154.14 545.359 144.64C535.973 135.14 524.129 130.39 509.829 130.39C495.756 130.39 484.029 135.14 474.649 144.64C465.269 154.14 460.579 165.927 460.579 180C460.579 194.067 465.269 205.853 474.649 215.36C484.029 224.867 495.756 229.61 509.829 229.59Z" fill="black"/>
<path d="M733.929 132.14H692.419V205.32C692.419 212.36 694.529 217.87 698.749 221.85C702.969 225.83 708.716 227.83 715.989 227.85H733.929V269.7H709.299C688.633 269.7 673.036 264.893 662.509 255.28C651.983 245.667 646.706 231.593 646.679 213.06V132.14H618.189V90.28H634.719C644.339 90.28 649.149 85.4733 649.149 75.86V42.43H692.419V90.28H733.929V132.14Z" fill="black"/>
<path d="M898.051 247C879.631 264.94 856.704 273.91 829.271 273.91C801.838 273.91 778.911 264.94 760.491 247C742.084 229.06 732.881 206.727 732.881 180C732.881 153.273 742.084 130.94 760.491 113C778.904 95.06 801.831 86.09 829.271 86.09C856.711 86.09 879.638 95.06 898.051 113C916.458 130.94 925.661 153.273 925.661 180C925.661 206.727 916.458 229.06 898.051 247ZM794.051 215.34C803.431 224.833 815.158 229.58 829.231 229.58C843.304 229.58 855.031 224.833 864.411 215.34C873.791 205.84 878.481 194.053 878.481 179.98C878.481 165.907 873.791 154.12 864.411 144.62C855.031 135.12 843.304 130.37 829.231 130.37C815.158 130.37 803.461 135.123 794.141 144.63C784.761 154.13 780.071 165.917 780.071 179.99C780.071 194.063 784.761 205.85 794.141 215.35L794.051 215.34Z" fill="black"/>
<path d="M997.78 273.92C977.113 273.92 959.993 268.29 946.42 257.03C932.846 245.77 926.043 232.05 926.01 215.87H972.14C972.14 221.497 974.66 226.307 979.7 230.3C984.74 234.293 990.896 236.293 998.17 236.3C1003.9 236.409 1009.53 234.815 1014.35 231.72C1019.02 228.68 1021.35 224.68 1021.35 219.72C1021.35 209.867 1009.86 202.48 986.87 197.56C948.17 189.347 928.836 170.937 928.87 142.33C928.87 124.997 935.376 111.277 948.39 101.17C961.403 91.0633 977.293 86.02 996.06 86.04C1015.52 86.04 1031.82 91.3733 1044.96 102.04C1058.1 112.707 1064.67 125.783 1064.66 141.27H1018.54C1018.54 136.35 1016.37 132.187 1012.03 128.78C1007.69 125.373 1002.36 123.673 996.03 123.68C990.74 123.579 985.559 125.181 981.25 128.25C977.03 131.31 974.92 134.947 974.92 139.16C974.92 148.313 986.646 155.583 1010.1 160.97C1048.33 169.637 1067.45 187.813 1067.45 215.5C1067.45 233.56 1060.76 247.81 1047.39 258.25C1034.02 268.69 1017.48 273.913 997.78 273.92Z" fill="black"/>
<path d="M106.49 333.74V341.24H88.3697V393.87H80.3697V341.24H62.2197V333.74H106.49Z" fill="black"/>
<path d="M156.33 386.64H157.14V393.87H154.87C151.496 393.87 148.913 392.997 147.12 391.25C145.326 389.503 144.427 387.007 144.42 383.76V368.76C144.498 367.015 144.227 365.271 143.62 363.633C143.014 361.994 142.086 360.494 140.89 359.22C139.648 357.997 138.166 357.044 136.538 356.421C134.91 355.798 133.171 355.518 131.43 355.6C129.627 355.52 127.826 355.803 126.134 356.431C124.442 357.06 122.893 358.022 121.58 359.26C120.325 360.53 119.346 362.045 118.702 363.711C118.059 365.376 117.765 367.156 117.84 368.94V393.86H110.34V331.13H117.84V356.83C121.38 351.203 126.713 348.387 133.84 348.38C139.24 348.38 143.597 350.02 146.91 353.3C150.223 356.58 151.89 360.953 151.91 366.42V382.19C151.872 382.783 151.961 383.378 152.17 383.935C152.38 384.491 152.705 384.996 153.125 385.417C153.545 385.838 154.05 386.165 154.606 386.376C155.162 386.587 155.756 386.677 156.35 386.64H156.33Z" fill="black"/>
<path d="M163.22 340.54C162.55 340.56 161.883 340.443 161.26 340.195C160.638 339.948 160.072 339.575 159.6 339.1C158.677 338.148 158.161 336.875 158.161 335.55C158.161 334.225 158.677 332.951 159.6 332C160.079 331.537 160.646 331.175 161.268 330.934C161.89 330.694 162.553 330.58 163.22 330.6C163.87 330.585 164.517 330.702 165.122 330.942C165.727 331.183 166.277 331.542 166.74 332C167.439 332.698 167.917 333.588 168.111 334.557C168.305 335.526 168.208 336.531 167.831 337.445C167.454 338.359 166.815 339.141 165.995 339.692C165.174 340.243 164.208 340.538 163.22 340.54ZM159.47 393.87V349.43H166.96V393.87H159.47Z" fill="black"/>
<path d="M220.549 386.64H221.34V393.87H219.07C215.703 393.87 213.12 392.997 211.32 391.25C209.52 389.503 208.616 387.007 208.609 383.76V368.76C208.689 367.015 208.419 365.272 207.815 363.634C207.21 361.995 206.283 360.495 205.09 359.22C203.848 357.997 202.366 357.044 200.738 356.421C199.11 355.798 197.371 355.518 195.63 355.6C193.826 355.52 192.025 355.803 190.333 356.431C188.642 357.06 187.093 358.022 185.78 359.26C184.513 360.534 183.526 362.058 182.882 363.735C182.238 365.413 181.951 367.206 182.04 369V393.92H174.54V349.43H182.04V356.57C185.58 351.11 190.913 348.38 198.04 348.38C203.44 348.38 207.796 350.02 211.109 353.3C214.423 356.58 216.089 360.953 216.109 366.42V382.19C216.071 382.783 216.16 383.378 216.37 383.935C216.579 384.491 216.905 384.996 217.325 385.417C217.745 385.838 218.25 386.165 218.806 386.376C219.362 386.587 219.956 386.677 220.549 386.64Z" fill="black"/>
<path d="M262.55 386.64H264.64V393.87H261.77C255.77 393.87 250.86 391.08 247.04 385.5L237.98 374.87L230.92 381.06V393.87H223.43V331.13H230.92V372.08L253.92 349.43H263.68L243.37 369.56L254 381.84C256.566 385.04 259.416 386.64 262.55 386.64Z" fill="black"/>
<path d="M307.689 348.38C310.66 348.312 313.611 348.871 316.35 350.02C319.09 351.17 321.557 352.883 323.589 355.05C327.714 359.595 329.999 365.512 329.999 371.65C329.999 377.788 327.714 383.705 323.589 388.25C321.555 390.413 319.087 392.124 316.348 393.272C313.609 394.419 310.659 394.977 307.689 394.91C304.238 394.958 300.834 394.109 297.81 392.445C294.786 390.781 292.246 388.361 290.439 385.42V393.87H282.939V331.13H290.439V357.88C292.229 354.967 294.731 352.559 297.709 350.88C300.76 349.188 304.201 348.326 307.689 348.38ZM306.299 387.68C308.413 387.742 310.517 387.369 312.48 386.583C314.443 385.796 316.223 384.614 317.709 383.11C320.62 380.004 322.24 375.907 322.24 371.65C322.24 367.393 320.62 363.296 317.709 360.19C314.654 357.251 310.579 355.609 306.339 355.609C302.1 355.609 298.025 357.251 294.969 360.19C292.059 363.296 290.439 367.393 290.439 371.65C290.439 375.907 292.059 380.004 294.969 383.11C296.442 384.61 298.208 385.79 300.158 386.577C302.107 387.363 304.198 387.739 306.299 387.68Z" fill="black"/>
<path d="M379.06 371.65C379.053 372.696 378.993 373.74 378.88 374.78H339.88C340.403 378.525 342.299 381.943 345.2 384.37C348.177 386.816 351.938 388.105 355.79 388C358.715 388.039 361.605 387.352 364.2 386C366.592 384.8 368.578 382.922 369.91 380.6H378.27C376.542 384.902 373.492 388.544 369.56 391C365.424 393.638 360.604 395.001 355.7 394.92C352.551 395.014 349.416 394.473 346.482 393.329C343.547 392.185 340.873 390.461 338.62 388.26C334.281 383.824 331.851 377.865 331.851 371.66C331.851 365.455 334.281 359.496 338.62 355.06C343.187 350.774 349.216 348.389 355.48 348.389C361.743 348.389 367.772 350.774 372.34 355.06C374.543 357.213 376.277 359.798 377.434 362.653C378.59 365.508 379.144 368.571 379.06 371.65ZM365.68 358.84C362.806 356.459 359.171 355.192 355.44 355.27C351.743 355.181 348.138 356.431 345.29 358.79C342.468 361.157 340.57 364.443 339.93 368.07H371.04C370.429 364.446 368.525 361.166 365.68 358.84Z" fill="black"/>
<path d="M415.48 349.43H422.97V391.78C422.97 397.7 421.07 402.463 417.27 406.07C413.47 409.677 408.603 411.477 402.67 411.47C398.29 411.588 393.992 410.271 390.43 407.72C386.955 405.117 384.429 401.446 383.24 397.27H390.99C391.979 399.463 393.584 401.322 395.61 402.62C398.122 404.144 401.062 404.81 403.985 404.518C406.909 404.226 409.659 402.991 411.82 401C413.042 399.785 413.999 398.329 414.629 396.724C415.259 395.12 415.549 393.402 415.48 391.68V386C412.047 391.333 406.933 394 400.14 394C394.92 394 390.723 392.403 387.55 389.21C384.376 386.017 382.793 381.777 382.8 376.49V349.39H390.3V374.39C390.218 376.036 390.469 377.681 391.038 379.227C391.606 380.774 392.481 382.19 393.61 383.39C394.782 384.53 396.176 385.416 397.706 385.994C399.235 386.572 400.867 386.83 402.5 386.75C404.218 386.828 405.934 386.563 407.55 385.973C409.165 385.382 410.647 384.477 411.91 383.31C413.107 382.124 414.044 380.702 414.658 379.133C415.273 377.564 415.553 375.884 415.48 374.2V349.43Z" fill="black"/>
<path d="M467.98 388.25C463.399 392.53 457.364 394.912 451.095 394.912C444.825 394.912 438.79 392.53 434.21 388.25C429.859 383.82 427.421 377.859 427.421 371.65C427.421 365.441 429.859 359.48 434.21 355.05C438.788 350.765 444.824 348.381 451.095 348.381C457.365 348.381 463.401 350.765 467.98 355.05C472.307 359.492 474.728 365.449 474.728 371.65C474.728 377.851 472.307 383.808 467.98 388.25ZM451.14 387.68C453.241 387.738 455.331 387.362 457.281 386.576C459.23 385.789 460.997 384.61 462.47 383.11C465.38 380.004 467 375.907 467 371.65C467 367.393 465.38 363.296 462.47 360.19C459.414 357.251 455.339 355.609 451.1 355.609C446.86 355.609 442.785 357.251 439.73 360.19C436.812 363.293 435.188 367.391 435.188 371.65C435.188 375.909 436.812 380.007 439.73 383.11C441.215 384.616 442.995 385.799 444.958 386.585C446.921 387.372 449.026 387.744 451.14 387.68Z" fill="black"/>
<path d="M525.36 386.64H526.14V393.87H523.87C520.496 393.87 517.913 392.997 516.12 391.25C514.326 389.503 513.423 387.007 513.41 383.76V368.76C513.49 367.015 513.219 365.272 512.615 363.634C512.01 361.995 511.084 360.495 509.89 359.22C508.648 357.997 507.166 357.044 505.538 356.421C503.91 355.798 502.171 355.518 500.43 355.6C498.627 355.52 496.826 355.803 495.134 356.431C493.442 357.06 491.893 358.022 490.58 359.26C489.321 360.527 488.338 362.041 487.694 363.708C487.051 365.374 486.76 367.156 486.84 368.94V393.86H479.34V349.43H486.84V356.57C490.38 351.11 495.713 348.38 502.84 348.38C508.24 348.38 512.597 350.02 515.91 353.3C519.223 356.58 520.89 360.953 520.91 366.42V382.19C520.872 382.783 520.961 383.378 521.17 383.935C521.38 384.491 521.705 384.996 522.125 385.417C522.545 385.838 523.05 386.165 523.606 386.376C524.162 386.587 524.756 386.677 525.35 386.64H525.36Z" fill="black"/>
<path d="M577.14 386.64H578.01V393.87H575.66C573.046 394.02 570.465 393.233 568.38 391.65C567.466 390.84 566.722 389.856 566.191 388.755C565.661 387.655 565.355 386.46 565.29 385.24C563.499 388.195 560.978 390.64 557.97 392.34C554.921 394.062 551.471 394.949 547.97 394.91C545.006 394.982 542.06 394.426 539.327 393.278C536.593 392.131 534.133 390.417 532.11 388.25C528.014 383.691 525.749 377.779 525.749 371.65C525.749 365.521 528.014 359.609 532.11 355.05C534.133 352.881 536.592 351.166 539.325 350.016C542.059 348.867 545.005 348.309 547.97 348.38C551.42 348.341 554.822 349.195 557.845 350.86C560.868 352.524 563.408 354.943 565.22 357.88V331.13H572.72V382.19C572.682 382.783 572.77 383.378 572.98 383.935C573.19 384.491 573.515 384.996 573.935 385.417C574.355 385.838 574.86 386.165 575.416 386.376C575.972 386.587 576.566 386.677 577.16 386.64H577.14ZM549.34 387.64C551.441 387.699 553.532 387.323 555.481 386.537C557.431 385.75 559.197 384.57 560.67 383.07C563.58 379.964 565.2 375.867 565.2 371.61C565.2 367.353 563.58 363.256 560.67 360.15C557.614 357.211 553.539 355.569 549.3 355.569C545.06 355.569 540.985 357.211 537.93 360.15C535.019 363.256 533.399 367.353 533.399 371.61C533.399 375.867 535.019 379.964 537.93 383.07C539.409 384.58 541.185 385.769 543.144 386.562C545.104 387.355 547.206 387.736 549.32 387.68L549.34 387.64Z" fill="black"/>
<path d="M631.839 362C635.163 362.789 638.079 364.776 640.029 367.58C642.137 370.524 643.238 374.07 643.169 377.69C643.229 379.846 642.837 381.991 642.019 383.987C641.201 385.983 639.975 387.786 638.419 389.28C636.862 390.801 635.015 391.994 632.988 392.788C630.961 393.581 628.795 393.96 626.619 393.9H597.859V333.74H623.999C626.035 333.683 628.063 334.031 629.963 334.764C631.863 335.497 633.599 336.6 635.069 338.01C636.526 339.4 637.674 341.081 638.439 342.943C639.204 344.805 639.568 346.808 639.509 348.82C639.53 351.598 638.775 354.327 637.329 356.7C636.053 358.962 634.145 360.804 631.839 362ZM622.139 341H605.589V359.3H622.139C623.938 359.26 625.686 358.698 627.171 357.682C628.655 356.666 629.812 355.24 630.5 353.577C631.188 351.915 631.378 350.089 631.046 348.321C630.713 346.552 629.874 344.919 628.629 343.62C627.787 342.759 626.776 342.081 625.659 341.63C624.542 341.179 623.343 340.965 622.139 341ZM624.759 386.67C626.113 386.7 627.458 386.449 628.709 385.932C629.96 385.416 631.091 384.646 632.029 383.67C632.987 382.711 633.739 381.568 634.241 380.31C634.743 379.051 634.984 377.704 634.949 376.35C634.975 375.005 634.729 373.668 634.226 372.42C633.723 371.172 632.974 370.039 632.022 369.087C631.071 368.136 629.937 367.386 628.689 366.883C627.441 366.38 626.105 366.134 624.759 366.16H605.589V386.64L624.759 386.67Z" fill="black"/>
<path d="M684.779 388.25C680.199 392.53 674.164 394.912 667.894 394.912C661.625 394.912 655.59 392.53 651.009 388.25C646.658 383.82 644.221 377.859 644.221 371.65C644.221 365.441 646.658 359.48 651.009 355.05C655.588 350.765 661.624 348.381 667.894 348.381C674.165 348.381 680.201 350.765 684.779 355.05C689.106 359.492 691.528 365.449 691.528 371.65C691.528 377.851 689.106 383.808 684.779 388.25ZM667.919 387.68C670.02 387.737 672.111 387.36 674.06 386.574C676.009 385.788 677.776 384.609 679.249 383.11C682.16 380.004 683.78 375.907 683.78 371.65C683.78 367.393 682.16 363.296 679.249 360.19C676.191 357.252 672.115 355.612 667.874 355.612C663.634 355.612 659.557 357.252 656.499 360.19C653.589 363.296 651.969 367.393 651.969 371.65C651.969 375.907 653.589 380.004 656.499 383.11C657.987 384.616 659.768 385.798 661.733 386.585C663.698 387.371 665.804 387.744 667.919 387.68Z" fill="black"/>
<path d="M740.14 386.64H740.92V393.87H738.66C732.84 393.87 729.449 391.4 728.459 386.46C725.033 392.1 719.833 394.917 712.859 394.91C707.686 394.91 703.503 393.313 700.31 390.12C697.116 386.927 695.52 382.687 695.52 377.4V349.4H703.01V375.19C702.929 376.845 703.182 378.5 703.752 380.056C704.322 381.612 705.199 383.038 706.329 384.25C707.493 385.401 708.884 386.298 710.412 386.883C711.941 387.468 713.575 387.73 715.209 387.65C716.932 387.727 718.653 387.46 720.271 386.862C721.889 386.264 723.371 385.349 724.63 384.17C725.825 382.973 726.76 381.541 727.375 379.964C727.989 378.388 728.27 376.701 728.2 375.01V349.43H735.69V382.19C735.662 382.78 735.752 383.369 735.955 383.924C736.158 384.478 736.468 384.987 736.87 385.42C737.3 385.839 737.813 386.164 738.376 386.374C738.939 386.584 739.54 386.675 740.14 386.64Z" fill="black"/>
<path d="M789.651 386.64H790.441V393.87H788.141C784.774 393.87 782.187 392.997 780.381 391.25C778.574 389.503 777.674 387.007 777.681 383.76V368.76C777.764 367.014 777.494 365.27 776.887 363.63C776.281 361.991 775.35 360.491 774.151 359.22C772.911 357.996 771.432 357.043 769.805 356.42C768.179 355.797 766.441 355.517 764.701 355.6C762.897 355.52 761.097 355.803 759.405 356.431C757.713 357.06 756.164 358.022 754.851 359.26C753.589 360.536 752.608 362.062 751.969 363.739C751.33 365.416 751.048 367.208 751.141 369V393.92H743.641V349.43H751.141V356.57C754.681 351.11 760.014 348.38 767.141 348.38C772.541 348.38 776.897 350.02 780.211 353.3C783.524 356.58 785.191 360.953 785.211 366.42V382.19C785.173 382.783 785.261 383.378 785.471 383.935C785.68 384.491 786.006 384.996 786.426 385.417C786.846 385.838 787.351 386.165 787.907 386.376C788.463 386.587 789.057 386.677 789.651 386.64Z" fill="black"/>
<path d="M841.411 386.64H842.281V393.87H839.931C837.317 394.02 834.736 393.233 832.651 391.65C831.737 390.84 830.993 389.856 830.462 388.755C829.932 387.655 829.626 386.46 829.561 385.24C827.77 388.195 825.249 390.64 822.241 392.34C819.192 394.062 815.742 394.949 812.241 394.91C809.277 394.982 806.331 394.426 803.598 393.278C800.864 392.131 798.404 390.417 796.381 388.25C792.285 383.691 790.02 377.779 790.02 371.65C790.02 365.521 792.285 359.609 796.381 355.05C798.404 352.881 800.863 351.166 803.596 350.016C806.33 348.867 809.276 348.309 812.241 348.38C815.691 348.341 819.093 349.195 822.116 350.86C825.139 352.524 827.679 354.943 829.491 357.88V331.13H836.991V382.19C836.953 382.783 837.041 383.378 837.251 383.935C837.461 384.491 837.786 384.996 838.206 385.417C838.626 385.838 839.131 386.165 839.687 386.376C840.243 386.587 840.837 386.677 841.431 386.64H841.411ZM813.611 387.64C815.712 387.698 817.803 387.322 819.752 386.536C821.701 385.749 823.468 384.57 824.941 383.07C827.851 379.964 829.471 375.867 829.471 371.61C829.471 367.353 827.851 363.256 824.941 360.15C821.885 357.211 817.81 355.569 813.571 355.569C809.331 355.569 805.256 357.211 802.201 360.15C799.29 363.256 797.67 367.353 797.67 371.61C797.67 375.867 799.29 379.964 802.201 383.07C803.683 384.583 805.461 385.773 807.425 386.566C809.388 387.359 811.494 387.738 813.611 387.68V387.64Z" fill="black"/>
<path d="M894.139 386.64H895.009V393.87H892.659C890.046 394.02 887.464 393.233 885.379 391.65C884.465 390.84 883.721 389.856 883.191 388.755C882.66 387.655 882.354 386.46 882.289 385.24C880.498 388.195 877.977 390.64 874.969 392.34C871.92 394.062 868.471 394.949 864.969 394.91C862.005 394.982 859.06 394.426 856.326 393.278C853.592 392.131 851.133 390.417 849.109 388.25C845.014 383.691 842.748 377.779 842.748 371.65C842.748 365.521 845.014 359.609 849.109 355.05C851.132 352.881 853.591 351.166 856.325 350.016C859.058 348.867 862.005 348.309 864.969 348.38C868.42 348.341 871.822 349.195 874.845 350.86C877.867 352.524 880.408 354.943 882.219 357.88V349.43H889.709V382.19C889.671 382.784 889.76 383.38 889.97 383.937C890.18 384.494 890.507 385 890.928 385.421C891.349 385.842 891.855 386.169 892.412 386.379C892.969 386.589 893.565 386.678 894.159 386.64H894.139ZM866.339 387.64C868.44 387.698 870.531 387.322 872.481 386.536C874.43 385.749 876.196 384.57 877.669 383.07C880.58 379.964 882.2 375.867 882.2 371.61C882.2 367.353 880.58 363.256 877.669 360.15C874.614 357.211 870.539 355.569 866.299 355.569C862.06 355.569 857.985 357.211 854.929 360.15C852.012 363.253 850.388 367.351 850.388 371.61C850.388 375.869 852.012 379.967 854.929 383.07C856.41 384.581 858.187 385.771 860.149 386.564C862.11 387.357 864.214 387.737 866.329 387.68L866.339 387.64Z" fill="black"/>
<path d="M905.19 357.79C908.91 351.75 914.243 348.73 921.19 348.73V356.48C916.25 356.48 912.357 357.847 909.51 360.58C906.663 363.313 905.24 366.98 905.24 371.58V393.89H897.75V349.43H905.24L905.19 357.79Z" fill="black"/>
<path d="M928.72 340.54C928.051 340.56 927.384 340.442 926.762 340.194C926.139 339.947 925.574 339.574 925.1 339.1C924.183 338.146 923.67 336.874 923.67 335.55C923.67 334.226 924.183 332.954 925.1 332C925.58 331.537 926.147 331.175 926.769 330.934C927.391 330.694 928.054 330.58 928.72 330.6C929.373 330.585 930.021 330.701 930.628 330.942C931.234 331.182 931.786 331.542 932.25 332C932.951 332.699 933.428 333.589 933.622 334.56C933.816 335.53 933.718 336.536 933.34 337.45C932.962 338.364 932.322 339.146 931.499 339.696C930.677 340.246 929.71 340.54 928.72 340.54ZM924.97 393.87V349.43H932.47V393.87H924.97Z" fill="black"/>
<path d="M984.4 371.65C984.4 372.58 984.34 373.65 984.23 374.78H945.23C945.754 378.523 947.646 381.939 950.54 384.37C953.52 386.818 957.285 388.107 961.14 388C964.062 388.04 966.949 387.352 969.54 386C971.932 384.8 973.918 382.922 975.25 380.6H983.62C981.882 384.891 978.829 388.521 974.9 390.97C970.767 393.606 965.951 394.969 961.05 394.89C957.901 394.987 954.766 394.447 951.831 393.302C948.896 392.158 946.222 390.433 943.97 388.23C939.624 383.798 937.189 377.838 937.189 371.63C937.189 365.422 939.624 359.462 943.97 355.03C948.538 350.744 954.566 348.359 960.83 348.359C967.094 348.359 973.122 350.744 977.69 355.03C979.894 357.188 981.628 359.778 982.782 362.639C983.937 365.499 984.488 368.567 984.4 371.65ZM971.03 358.84C968.155 356.461 964.521 355.194 960.79 355.27C957.093 355.179 953.487 356.429 950.64 358.79C947.815 361.154 945.916 364.441 945.28 368.07H976.39C975.775 364.448 973.872 361.169 971.03 358.84Z" fill="black"/>
<path d="M1002.26 394.91C997.981 395.078 993.787 393.685 990.46 390.99C988.987 389.829 987.8 388.345 986.992 386.653C986.184 384.961 985.776 383.105 985.8 381.23H993.46C993.472 382.194 993.717 383.141 994.173 383.99C994.629 384.84 995.283 385.567 996.08 386.11C997.838 387.363 999.93 388.061 1002.09 388.117C1004.25 388.172 1006.37 387.581 1008.19 386.42C1008.94 385.956 1009.56 385.308 1009.98 384.538C1010.41 383.767 1010.63 382.901 1010.63 382.02C1010.63 378.527 1007.2 376.057 1000.35 374.61C991.11 372.517 986.49 368.13 986.49 361.45C986.442 359.633 986.824 357.83 987.604 356.188C988.385 354.546 989.541 353.111 990.98 352C994.11 349.543 998.002 348.262 1001.98 348.38C1006.04 348.235 1010.01 349.583 1013.14 352.17C1014.54 353.293 1015.67 354.72 1016.44 356.344C1017.21 357.967 1017.6 359.744 1017.58 361.54H1009.91C1009.9 360.663 1009.69 359.801 1009.29 359.021C1008.89 358.241 1008.31 357.566 1007.6 357.05C1005.98 355.774 1003.96 355.112 1001.9 355.18C999.954 355.134 998.044 355.712 996.45 356.83C995.752 357.265 995.175 357.869 994.772 358.585C994.368 359.302 994.151 360.108 994.14 360.93C994.14 364.303 997.54 366.713 1004.34 368.16C1013.63 370.247 1018.27 374.663 1018.28 381.41C1018.34 383.292 1017.95 385.161 1017.15 386.864C1016.34 388.567 1015.15 390.056 1013.66 391.21C1010.41 393.735 1006.37 395.043 1002.26 394.91Z" fill="black"/>
</svg>
