<svg width="1073" height="431" viewBox="0 0 1073 431" fill="none" xmlns="http://www.w3.org/2000/svg">
<path d="M159.89 252.64C143.123 266.827 122.073 273.92 96.7396 273.92C71.4063 273.92 50.2963 266.65 33.4096 252.11C16.563 237.57 8.13965 219.51 8.13965 197.93H58.0397C58.0397 207.083 61.8497 214.823 69.4697 221.15C77.0897 227.477 86.533 230.643 97.7996 230.65C108.353 230.65 117.206 227.953 124.36 222.56C131.513 217.167 135.106 210.483 135.14 202.51C135.14 187.263 118.473 175.887 85.1396 168.38C63.5596 163.22 45.9697 154.777 32.3697 143.05C18.7697 131.323 11.963 115.61 11.9496 95.91C11.9496 74.33 19.9263 56.74 35.8796 43.14C51.833 29.54 71.8863 22.7366 96.0397 22.73C120.193 22.73 140.42 29.65 156.72 43.49C173.02 57.33 181.16 74.6866 181.14 95.56H131.22C131.22 87.1066 127.816 80.07 121.01 74.45C114.203 68.83 105.76 66.0133 95.6796 66C86.2996 66 78.3263 68.46 71.7596 73.38C65.193 78.3 61.9097 84.5067 61.9097 92C61.9097 107.007 77.3897 118.147 108.35 125.42C118.257 127.722 127.957 130.839 137.35 134.74C145.885 138.37 153.971 142.974 161.45 148.46C168.891 153.9 174.875 161.093 178.87 169.4C183.071 178.302 185.175 188.048 185.02 197.89C185.033 220.21 176.656 238.46 159.89 252.64Z" fill="white"/>
<path d="M301.84 132.14H260.33V205.32C260.33 212.36 262.44 217.87 266.66 221.85C270.88 225.83 276.626 227.83 283.9 227.85H301.84V269.7H277.22C256.553 269.7 240.956 264.893 230.43 255.28C219.903 245.667 214.623 231.593 214.59 213.06V132.14H186.14V90.28H202.67C212.29 90.28 217.1 85.4733 217.1 75.86V42.43H260.37V90.28H301.84V132.14Z" fill="white"/>
<path d="M360.939 117.72C375.946 97.5534 394.946 87.4667 417.939 87.46V134.61C399.879 134.61 385.879 139.063 375.939 147.97C365.999 156.877 360.999 168.957 360.939 184.21V269.7H315.209V90.28H360.939V117.72Z" fill="white"/>
<path d="M615.299 225.37H618.82V269.7H605.82C580.486 269.7 564.419 260.317 557.619 241.55C542.373 263.137 521.853 273.927 496.059 273.92C471.199 273.92 450.383 264.95 433.609 247.01C416.836 229.07 408.446 206.733 408.439 180C408.439 153.26 416.823 130.927 433.589 113C450.356 95.0733 471.173 86.0933 496.039 86.06C519.959 86.06 539.426 95.3233 554.439 113.85V90.28H600.139V210.28C600.139 220.347 605.193 225.377 615.299 225.37ZM504.829 229.59C519.136 229.59 530.979 224.843 540.359 215.35C549.739 205.857 554.433 194.073 554.439 180C554.439 165.927 549.746 154.14 540.359 144.64C530.973 135.14 519.129 130.39 504.829 130.39C490.756 130.39 479.029 135.14 469.649 144.64C460.269 154.14 455.579 165.927 455.579 180C455.579 194.067 460.269 205.853 469.649 215.36C479.029 224.867 490.756 229.61 504.829 229.59Z" fill="white"/>
<path d="M728.929 132.14H687.419V205.32C687.419 212.36 689.529 217.87 693.749 221.85C697.969 225.83 703.716 227.83 710.989 227.85H728.929V269.7H704.299C683.633 269.7 668.036 264.893 657.509 255.28C646.983 245.667 641.706 231.593 641.679 213.06V132.14H613.189V90.28H629.719C639.339 90.28 644.149 85.4733 644.149 75.86V42.43H687.419V90.28H728.929V132.14Z" fill="white"/>
<path d="M893.051 247C874.631 264.94 851.704 273.91 824.271 273.91C796.838 273.91 773.911 264.94 755.491 247C737.084 229.06 727.881 206.727 727.881 180C727.881 153.273 737.084 130.94 755.491 113C773.904 95.06 796.831 86.09 824.271 86.09C851.711 86.09 874.638 95.06 893.051 113C911.458 130.94 920.661 153.273 920.661 180C920.661 206.727 911.458 229.06 893.051 247ZM789.051 215.34C798.431 224.833 810.158 229.58 824.231 229.58C838.304 229.58 850.031 224.833 859.411 215.34C868.791 205.84 873.481 194.053 873.481 179.98C873.481 165.907 868.791 154.12 859.411 144.62C850.031 135.12 838.304 130.37 824.231 130.37C810.158 130.37 798.461 135.123 789.141 144.63C779.761 154.13 775.071 165.917 775.071 179.99C775.071 194.063 779.761 205.85 789.141 215.35L789.051 215.34Z" fill="white"/>
<path d="M992.78 273.92C972.113 273.92 954.993 268.29 941.42 257.03C927.846 245.77 921.043 232.05 921.01 215.87H967.14C967.14 221.497 969.66 226.307 974.7 230.3C979.74 234.293 985.896 236.293 993.17 236.3C998.898 236.409 1004.53 234.815 1009.35 231.72C1014.02 228.68 1016.35 224.68 1016.35 219.72C1016.35 209.867 1004.86 202.48 981.87 197.56C943.17 189.347 923.836 170.937 923.87 142.33C923.87 124.997 930.376 111.277 943.39 101.17C956.403 91.0633 972.293 86.02 991.06 86.04C1010.52 86.04 1026.82 91.3733 1039.96 102.04C1053.1 112.707 1059.67 125.783 1059.66 141.27H1013.54C1013.54 136.35 1011.37 132.187 1007.03 128.78C1002.69 125.373 997.356 123.673 991.03 123.68C985.74 123.579 980.559 125.181 976.25 128.25C972.03 131.31 969.92 134.947 969.92 139.16C969.92 148.313 981.646 155.583 1005.1 160.97C1043.33 169.637 1062.45 187.813 1062.45 215.5C1062.45 233.56 1055.76 247.81 1042.39 258.25C1029.02 268.69 1012.48 273.913 992.78 273.92Z" fill="white"/>
<path d="M101.49 333.74V341.24H83.3697V393.87H75.3697V341.24H57.2197V333.74H101.49Z" fill="#ECECEC"/>
<path d="M151.33 386.64H152.14V393.87H149.87C146.496 393.87 143.913 392.997 142.12 391.25C140.326 389.503 139.427 387.007 139.42 383.76V368.76C139.498 367.015 139.227 365.271 138.62 363.633C138.014 361.994 137.086 360.494 135.89 359.22C134.648 357.997 133.166 357.044 131.538 356.421C129.91 355.798 128.171 355.518 126.43 355.6C124.627 355.52 122.826 355.803 121.134 356.431C119.442 357.06 117.893 358.022 116.58 359.26C115.325 360.53 114.346 362.045 113.702 363.711C113.059 365.376 112.765 367.156 112.84 368.94V393.86H105.34V331.13H112.84V356.83C116.38 351.203 121.713 348.387 128.84 348.38C134.24 348.38 138.597 350.02 141.91 353.3C145.223 356.58 146.89 360.953 146.91 366.42V382.19C146.872 382.783 146.961 383.378 147.17 383.935C147.38 384.491 147.705 384.996 148.125 385.417C148.545 385.838 149.05 386.165 149.606 386.376C150.162 386.587 150.756 386.677 151.35 386.64H151.33Z" fill="#ECECEC"/>
<path d="M158.22 340.54C157.55 340.56 156.883 340.443 156.26 340.195C155.638 339.948 155.072 339.575 154.6 339.1C153.677 338.148 153.161 336.875 153.161 335.55C153.161 334.225 153.677 332.951 154.6 332C155.079 331.537 155.646 331.175 156.268 330.934C156.89 330.694 157.553 330.58 158.22 330.6C158.87 330.585 159.517 330.702 160.122 330.942C160.727 331.183 161.277 331.542 161.74 332C162.439 332.698 162.917 333.588 163.111 334.557C163.305 335.526 163.208 336.531 162.831 337.445C162.454 338.359 161.815 339.141 160.995 339.692C160.174 340.243 159.208 340.538 158.22 340.54ZM154.47 393.87V349.43H161.96V393.87H154.47Z" fill="#ECECEC"/>
<path d="M215.549 386.64H216.34V393.87H214.07C210.703 393.87 208.12 392.997 206.32 391.25C204.52 389.503 203.616 387.007 203.609 383.76V368.76C203.689 367.015 203.419 365.272 202.815 363.634C202.21 361.995 201.283 360.495 200.09 359.22C198.848 357.997 197.366 357.044 195.738 356.421C194.11 355.798 192.371 355.518 190.63 355.6C188.826 355.52 187.025 355.803 185.333 356.431C183.642 357.06 182.093 358.022 180.78 359.26C179.513 360.534 178.526 362.058 177.882 363.735C177.238 365.413 176.951 367.206 177.04 369V393.92H169.54V349.43H177.04V356.57C180.58 351.11 185.913 348.38 193.04 348.38C198.44 348.38 202.796 350.02 206.109 353.3C209.423 356.58 211.089 360.953 211.109 366.42V382.19C211.071 382.783 211.16 383.378 211.37 383.935C211.579 384.491 211.905 384.996 212.325 385.417C212.745 385.838 213.25 386.165 213.806 386.376C214.362 386.587 214.956 386.677 215.549 386.64Z" fill="#ECECEC"/>
<path d="M257.55 386.64H259.64V393.87H256.77C250.77 393.87 245.86 391.08 242.04 385.5L232.98 374.87L225.92 381.06V393.87H218.43V331.13H225.92V372.08L248.92 349.43H258.68L238.37 369.56L249 381.84C251.566 385.04 254.416 386.64 257.55 386.64Z" fill="#ECECEC"/>
<path d="M302.689 348.38C305.66 348.312 308.611 348.871 311.35 350.02C314.09 351.17 316.557 352.883 318.589 355.05C322.714 359.595 324.999 365.512 324.999 371.65C324.999 377.788 322.714 383.705 318.589 388.25C316.555 390.413 314.087 392.124 311.348 393.272C308.609 394.419 305.659 394.977 302.689 394.91C299.238 394.958 295.834 394.109 292.81 392.445C289.786 390.781 287.246 388.361 285.439 385.42V393.87H277.939V331.13H285.439V357.88C287.229 354.967 289.731 352.559 292.709 350.88C295.76 349.188 299.201 348.326 302.689 348.38ZM301.299 387.68C303.413 387.742 305.517 387.369 307.48 386.583C309.443 385.796 311.223 384.614 312.709 383.11C315.62 380.004 317.24 375.907 317.24 371.65C317.24 367.393 315.62 363.296 312.709 360.19C309.654 357.251 305.579 355.609 301.339 355.609C297.1 355.609 293.025 357.251 289.969 360.19C287.059 363.296 285.439 367.393 285.439 371.65C285.439 375.907 287.059 380.004 289.969 383.11C291.442 384.61 293.208 385.79 295.158 386.577C297.107 387.363 299.198 387.739 301.299 387.68Z" fill="#ECECEC"/>
<path d="M374.06 371.65C374.053 372.696 373.993 373.74 373.88 374.78H334.88C335.403 378.525 337.299 381.943 340.2 384.37C343.177 386.816 346.938 388.105 350.79 388C353.715 388.039 356.605 387.352 359.2 386C361.592 384.8 363.578 382.922 364.91 380.6H373.27C371.542 384.902 368.492 388.544 364.56 391C360.424 393.638 355.604 395.001 350.7 394.92C347.551 395.014 344.416 394.473 341.482 393.329C338.547 392.185 335.873 390.461 333.62 388.26C329.281 383.824 326.851 377.865 326.851 371.66C326.851 365.455 329.281 359.496 333.62 355.06C338.187 350.774 344.216 348.389 350.48 348.389C356.743 348.389 362.772 350.774 367.34 355.06C369.543 357.213 371.277 359.798 372.434 362.653C373.59 365.508 374.144 368.571 374.06 371.65ZM360.68 358.84C357.806 356.459 354.171 355.192 350.44 355.27C346.743 355.181 343.138 356.431 340.29 358.79C337.468 361.157 335.57 364.443 334.93 368.07H366.04C365.429 364.446 363.525 361.166 360.68 358.84Z" fill="#ECECEC"/>
<path d="M410.48 349.43H417.97V391.78C417.97 397.7 416.07 402.463 412.27 406.07C408.47 409.677 403.603 411.477 397.67 411.47C393.29 411.588 388.992 410.271 385.43 407.72C381.955 405.117 379.429 401.446 378.24 397.27H385.99C386.979 399.463 388.584 401.322 390.61 402.62C393.122 404.144 396.062 404.81 398.985 404.518C401.909 404.226 404.659 402.991 406.82 401C408.042 399.785 408.999 398.329 409.629 396.724C410.259 395.12 410.549 393.402 410.48 391.68V386C407.047 391.333 401.933 394 395.14 394C389.92 394 385.723 392.403 382.55 389.21C379.376 386.017 377.793 381.777 377.8 376.49V349.39H385.3V374.39C385.218 376.036 385.469 377.681 386.038 379.227C386.606 380.774 387.481 382.19 388.61 383.39C389.782 384.53 391.176 385.416 392.706 385.994C394.235 386.572 395.867 386.83 397.5 386.75C399.218 386.828 400.934 386.563 402.55 385.973C404.165 385.382 405.647 384.477 406.91 383.31C408.107 382.124 409.044 380.702 409.658 379.133C410.273 377.564 410.553 375.884 410.48 374.2V349.43Z" fill="#ECECEC"/>
<path d="M462.98 388.25C458.399 392.53 452.364 394.912 446.095 394.912C439.825 394.912 433.79 392.53 429.21 388.25C424.859 383.82 422.421 377.859 422.421 371.65C422.421 365.441 424.859 359.48 429.21 355.05C433.788 350.765 439.824 348.381 446.095 348.381C452.365 348.381 458.401 350.765 462.98 355.05C467.307 359.492 469.728 365.449 469.728 371.65C469.728 377.851 467.307 383.808 462.98 388.25ZM446.14 387.68C448.241 387.738 450.331 387.362 452.281 386.576C454.23 385.789 455.997 384.61 457.47 383.11C460.38 380.004 462 375.907 462 371.65C462 367.393 460.38 363.296 457.47 360.19C454.414 357.251 450.339 355.609 446.1 355.609C441.86 355.609 437.785 357.251 434.73 360.19C431.812 363.293 430.188 367.391 430.188 371.65C430.188 375.909 431.812 380.007 434.73 383.11C436.215 384.616 437.995 385.799 439.958 386.585C441.921 387.372 444.026 387.744 446.14 387.68Z" fill="#ECECEC"/>
<path d="M520.36 386.64H521.14V393.87H518.87C515.496 393.87 512.913 392.997 511.12 391.25C509.326 389.503 508.423 387.007 508.41 383.76V368.76C508.49 367.015 508.219 365.272 507.615 363.634C507.01 361.995 506.084 360.495 504.89 359.22C503.648 357.997 502.166 357.044 500.538 356.421C498.91 355.798 497.171 355.518 495.43 355.6C493.627 355.52 491.826 355.803 490.134 356.431C488.442 357.06 486.893 358.022 485.58 359.26C484.321 360.527 483.338 362.041 482.694 363.708C482.051 365.374 481.76 367.156 481.84 368.94V393.86H474.34V349.43H481.84V356.57C485.38 351.11 490.713 348.38 497.84 348.38C503.24 348.38 507.597 350.02 510.91 353.3C514.223 356.58 515.89 360.953 515.91 366.42V382.19C515.872 382.783 515.961 383.378 516.17 383.935C516.38 384.491 516.705 384.996 517.125 385.417C517.545 385.838 518.05 386.165 518.606 386.376C519.162 386.587 519.756 386.677 520.35 386.64H520.36Z" fill="#ECECEC"/>
<path d="M572.14 386.64H573.01V393.87H570.66C568.046 394.02 565.465 393.233 563.38 391.65C562.466 390.84 561.722 389.856 561.191 388.755C560.661 387.655 560.355 386.46 560.29 385.24C558.499 388.195 555.978 390.64 552.97 392.34C549.921 394.062 546.471 394.949 542.97 394.91C540.006 394.982 537.06 394.426 534.327 393.278C531.593 392.131 529.133 390.417 527.11 388.25C523.014 383.691 520.749 377.779 520.749 371.65C520.749 365.521 523.014 359.609 527.11 355.05C529.133 352.881 531.592 351.166 534.325 350.016C537.059 348.867 540.005 348.309 542.97 348.38C546.42 348.341 549.822 349.195 552.845 350.86C555.868 352.524 558.408 354.943 560.22 357.88V331.13H567.72V382.19C567.682 382.783 567.77 383.378 567.98 383.935C568.19 384.491 568.515 384.996 568.935 385.417C569.355 385.838 569.86 386.165 570.416 386.376C570.972 386.587 571.566 386.677 572.16 386.64H572.14ZM544.34 387.64C546.441 387.699 548.532 387.323 550.481 386.537C552.431 385.75 554.197 384.57 555.67 383.07C558.58 379.964 560.2 375.867 560.2 371.61C560.2 367.353 558.58 363.256 555.67 360.15C552.614 357.211 548.539 355.569 544.3 355.569C540.06 355.569 535.985 357.211 532.93 360.15C530.019 363.256 528.399 367.353 528.399 371.61C528.399 375.867 530.019 379.964 532.93 383.07C534.409 384.58 536.185 385.769 538.144 386.562C540.104 387.355 542.206 387.736 544.32 387.68L544.34 387.64Z" fill="#ECECEC"/>
<path d="M626.839 362C630.163 362.789 633.079 364.776 635.029 367.58C637.137 370.524 638.238 374.07 638.169 377.69C638.229 379.846 637.837 381.991 637.019 383.987C636.201 385.983 634.975 387.786 633.419 389.28C631.862 390.801 630.015 391.994 627.988 392.788C625.961 393.581 623.795 393.96 621.619 393.9H592.859V333.74H618.999C621.035 333.683 623.063 334.031 624.963 334.764C626.863 335.497 628.599 336.6 630.069 338.01C631.526 339.4 632.674 341.081 633.439 342.943C634.204 344.805 634.568 346.808 634.509 348.82C634.53 351.598 633.775 354.327 632.329 356.7C631.053 358.962 629.145 360.804 626.839 362ZM617.139 341H600.589V359.3H617.139C618.938 359.26 620.686 358.698 622.171 357.682C623.655 356.666 624.812 355.24 625.5 353.577C626.188 351.915 626.378 350.089 626.046 348.321C625.713 346.552 624.874 344.919 623.629 343.62C622.787 342.759 621.776 342.081 620.659 341.63C619.542 341.179 618.343 340.965 617.139 341ZM619.759 386.67C621.113 386.7 622.458 386.448 623.709 385.932C624.96 385.416 626.091 384.645 627.029 383.67C627.987 382.711 628.739 381.568 629.241 380.31C629.743 379.051 629.984 377.704 629.949 376.35C629.975 375.005 629.729 373.668 629.226 372.42C628.723 371.172 627.974 370.038 627.022 369.087C626.071 368.136 624.937 367.386 623.689 366.883C622.441 366.38 621.105 366.134 619.759 366.16H600.589V386.64L619.759 386.67Z" fill="#ECECEC"/>
<path d="M679.779 388.25C675.199 392.53 669.164 394.912 662.894 394.912C656.625 394.912 650.59 392.53 646.009 388.25C641.658 383.82 639.221 377.859 639.221 371.65C639.221 365.441 641.658 359.48 646.009 355.05C650.588 350.765 656.624 348.381 662.894 348.381C669.165 348.381 675.201 350.765 679.779 355.05C684.106 359.492 686.528 365.449 686.528 371.65C686.528 377.851 684.106 383.808 679.779 388.25ZM662.919 387.68C665.02 387.737 667.111 387.36 669.06 386.574C671.009 385.788 672.776 384.609 674.249 383.11C677.16 380.004 678.78 375.907 678.78 371.65C678.78 367.393 677.16 363.296 674.249 360.19C671.191 357.252 667.115 355.612 662.874 355.612C658.634 355.612 654.557 357.252 651.499 360.19C648.589 363.296 646.969 367.393 646.969 371.65C646.969 375.907 648.589 380.004 651.499 383.11C652.987 384.616 654.768 385.798 656.733 386.585C658.698 387.371 660.804 387.744 662.919 387.68Z" fill="#ECECEC"/>
<path d="M735.14 386.64H735.92V393.87H733.66C727.84 393.87 724.449 391.4 723.459 386.46C720.033 392.1 714.833 394.917 707.859 394.91C702.686 394.91 698.503 393.313 695.31 390.12C692.116 386.927 690.52 382.687 690.52 377.4V349.4H698.01V375.19C697.929 376.845 698.182 378.5 698.752 380.056C699.322 381.612 700.199 383.038 701.329 384.25C702.493 385.401 703.884 386.298 705.412 386.883C706.941 387.469 708.575 387.73 710.209 387.65C711.932 387.728 713.653 387.46 715.271 386.862C716.889 386.264 718.371 385.349 719.63 384.17C720.825 382.973 721.76 381.541 722.375 379.964C722.989 378.388 723.27 376.701 723.2 375.01V349.43H730.69V382.19C730.662 382.78 730.752 383.369 730.955 383.924C731.158 384.478 731.468 384.987 731.87 385.42C732.3 385.839 732.813 386.164 733.376 386.374C733.939 386.584 734.54 386.675 735.14 386.64Z" fill="#ECECEC"/>
<path d="M784.651 386.64H785.441V393.87H783.141C779.774 393.87 777.187 392.997 775.381 391.25C773.574 389.503 772.674 387.007 772.681 383.76V368.76C772.764 367.014 772.494 365.27 771.887 363.63C771.281 361.991 770.35 360.491 769.151 359.22C767.911 357.996 766.432 357.043 764.805 356.42C763.179 355.797 761.441 355.517 759.701 355.6C757.897 355.52 756.097 355.803 754.405 356.431C752.713 357.06 751.164 358.022 749.851 359.26C748.589 360.536 747.608 362.062 746.969 363.739C746.33 365.416 746.048 367.208 746.141 369V393.92H738.641V349.43H746.141V356.57C749.681 351.11 755.014 348.38 762.141 348.38C767.541 348.38 771.897 350.02 775.211 353.3C778.524 356.58 780.191 360.953 780.211 366.42V382.19C780.173 382.783 780.261 383.378 780.471 383.935C780.68 384.491 781.006 384.996 781.426 385.417C781.846 385.838 782.351 386.165 782.907 386.376C783.463 386.587 784.057 386.677 784.651 386.64Z" fill="#ECECEC"/>
<path d="M836.411 386.64H837.281V393.87H834.931C832.317 394.02 829.736 393.233 827.651 391.65C826.737 390.84 825.993 389.856 825.462 388.755C824.932 387.655 824.626 386.46 824.561 385.24C822.77 388.195 820.249 390.64 817.241 392.34C814.192 394.062 810.742 394.949 807.241 394.91C804.277 394.982 801.331 394.426 798.598 393.278C795.864 392.131 793.404 390.417 791.381 388.25C787.285 383.691 785.02 377.779 785.02 371.65C785.02 365.521 787.285 359.609 791.381 355.05C793.404 352.881 795.863 351.166 798.596 350.016C801.33 348.867 804.276 348.309 807.241 348.38C810.691 348.341 814.093 349.195 817.116 350.86C820.139 352.524 822.679 354.943 824.491 357.88V331.13H831.991V382.19C831.953 382.783 832.041 383.378 832.251 383.935C832.461 384.491 832.786 384.996 833.206 385.417C833.626 385.838 834.131 386.165 834.687 386.376C835.243 386.587 835.837 386.677 836.431 386.64H836.411ZM808.611 387.64C810.712 387.698 812.803 387.322 814.752 386.536C816.701 385.749 818.468 384.57 819.941 383.07C822.851 379.964 824.471 375.867 824.471 371.61C824.471 367.353 822.851 363.256 819.941 360.15C816.885 357.211 812.81 355.569 808.571 355.569C804.331 355.569 800.256 357.211 797.201 360.15C794.29 363.256 792.67 367.353 792.67 371.61C792.67 375.867 794.29 379.964 797.201 383.07C798.683 384.583 800.461 385.773 802.425 386.566C804.388 387.359 806.494 387.738 808.611 387.68V387.64Z" fill="#ECECEC"/>
<path d="M889.139 386.64H890.009V393.87H887.659C885.046 394.02 882.464 393.233 880.379 391.65C879.465 390.84 878.721 389.856 878.191 388.755C877.66 387.655 877.354 386.46 877.289 385.24C875.498 388.195 872.977 390.64 869.969 392.34C866.92 394.062 863.471 394.949 859.969 394.91C857.005 394.982 854.06 394.426 851.326 393.278C848.592 392.131 846.133 390.417 844.109 388.25C840.014 383.691 837.748 377.779 837.748 371.65C837.748 365.521 840.014 359.609 844.109 355.05C846.132 352.881 848.591 351.166 851.325 350.016C854.058 348.867 857.005 348.309 859.969 348.38C863.42 348.341 866.822 349.195 869.845 350.86C872.867 352.524 875.408 354.943 877.219 357.88V349.43H884.709V382.19C884.671 382.784 884.76 383.38 884.97 383.937C885.18 384.494 885.507 385 885.928 385.421C886.349 385.843 886.855 386.169 887.412 386.379C887.969 386.589 888.565 386.678 889.159 386.64H889.139ZM861.339 387.64C863.44 387.698 865.531 387.322 867.481 386.536C869.43 385.75 871.196 384.57 872.669 383.07C875.58 379.964 877.2 375.867 877.2 371.61C877.2 367.353 875.58 363.256 872.669 360.15C869.614 357.211 865.539 355.569 861.299 355.569C857.06 355.569 852.985 357.211 849.929 360.15C847.012 363.253 845.388 367.351 845.388 371.61C845.388 375.869 847.012 379.967 849.929 383.07C851.41 384.581 853.187 385.771 855.149 386.564C857.11 387.357 859.214 387.737 861.329 387.68L861.339 387.64Z" fill="#ECECEC"/>
<path d="M900.19 357.79C903.91 351.75 909.243 348.73 916.19 348.73V356.48C911.25 356.48 907.357 357.847 904.51 360.58C901.663 363.313 900.24 366.98 900.24 371.58V393.89H892.75V349.43H900.24L900.19 357.79Z" fill="#ECECEC"/>
<path d="M923.72 340.54C923.051 340.56 922.384 340.442 921.762 340.194C921.139 339.947 920.574 339.574 920.1 339.1C919.183 338.146 918.67 336.874 918.67 335.55C918.67 334.226 919.183 332.954 920.1 332C920.58 331.537 921.147 331.175 921.769 330.934C922.391 330.694 923.054 330.58 923.72 330.6C924.373 330.585 925.021 330.701 925.628 330.942C926.234 331.182 926.786 331.542 927.25 332C927.951 332.699 928.428 333.589 928.622 334.56C928.816 335.53 928.718 336.536 928.34 337.45C927.962 338.364 927.322 339.146 926.499 339.696C925.677 340.246 924.71 340.54 923.72 340.54ZM919.97 393.87V349.43H927.47V393.87H919.97Z" fill="#ECECEC"/>
<path d="M979.4 371.65C979.4 372.58 979.34 373.65 979.23 374.78H940.23C940.754 378.523 942.646 381.94 945.54 384.37C948.52 386.818 952.285 388.107 956.14 388C959.062 388.04 961.949 387.352 964.54 386C966.932 384.8 968.918 382.922 970.25 380.6H978.62C976.882 384.891 973.829 388.522 969.9 390.97C965.767 393.606 960.951 394.969 956.05 394.89C952.901 394.987 949.766 394.447 946.831 393.302C943.896 392.158 941.222 390.433 938.97 388.23C934.624 383.798 932.189 377.838 932.189 371.63C932.189 365.422 934.624 359.462 938.97 355.03C943.538 350.744 949.566 348.359 955.83 348.359C962.094 348.359 968.122 350.744 972.69 355.03C974.894 357.188 976.628 359.779 977.782 362.639C978.937 365.499 979.488 368.567 979.4 371.65ZM966.03 358.84C963.155 356.461 959.521 355.194 955.79 355.27C952.093 355.179 948.487 356.429 945.64 358.79C942.815 361.155 940.916 364.441 940.28 368.07H971.39C970.775 364.448 968.872 361.169 966.03 358.84Z" fill="#ECECEC"/>
<path d="M997.26 394.91C992.981 395.078 988.787 393.685 985.46 390.99C983.987 389.829 982.8 388.345 981.992 386.653C981.184 384.961 980.776 383.105 980.8 381.23H988.46C988.472 382.194 988.717 383.141 989.173 383.99C989.629 384.84 990.283 385.567 991.08 386.11C992.838 387.363 994.93 388.061 997.087 388.117C999.245 388.172 1001.37 387.581 1003.19 386.42C1003.94 385.956 1004.56 385.308 1004.98 384.538C1005.41 383.767 1005.63 382.901 1005.63 382.02C1005.63 378.527 1002.2 376.057 995.35 374.61C986.11 372.517 981.49 368.13 981.49 361.45C981.442 359.633 981.824 357.83 982.604 356.188C983.385 354.546 984.541 353.111 985.98 352C989.11 349.543 993.002 348.262 996.98 348.38C1001.04 348.235 1005.01 349.583 1008.14 352.17C1009.54 353.293 1010.67 354.72 1011.44 356.344C1012.21 357.967 1012.6 359.744 1012.58 361.54H1004.91C1004.9 360.663 1004.69 359.801 1004.29 359.021C1003.89 358.241 1003.31 357.566 1002.6 357.05C1000.98 355.774 998.961 355.112 996.9 355.18C994.954 355.134 993.044 355.712 991.45 356.83C990.752 357.265 990.175 357.869 989.772 358.585C989.368 359.302 989.151 360.108 989.14 360.93C989.14 364.303 992.54 366.713 999.34 368.16C1008.63 370.247 1013.27 374.663 1013.28 381.41C1013.34 383.292 1012.95 385.161 1012.15 386.864C1011.34 388.567 1010.15 390.056 1008.66 391.21C1005.41 393.735 1001.37 395.043 997.26 394.91Z" fill="#ECECEC"/>
</svg>
