<svg width="1538" height="431" viewBox="0 0 1538 431" fill="none" xmlns="http://www.w3.org/2000/svg">
<path d="M210.44 418.23C211.07 418.23 211.69 418.23 212.31 418.23C230.153 418.383 247.849 415.002 264.378 408.28C280.907 401.558 295.941 391.629 308.612 379.066C321.283 366.504 331.341 351.556 338.205 335.085C345.069 318.615 348.602 300.948 348.602 283.105C348.602 265.262 345.069 247.595 338.205 231.125C331.341 214.654 321.283 199.706 308.612 187.144C295.941 174.581 280.907 164.652 264.378 157.93C247.849 151.208 230.153 147.826 212.31 147.98C211.69 147.98 211.07 147.98 210.44 147.98V418.23Z" fill="url(#paint0_linear_392_89)"/>
<path d="M343 171.78V394.51C361.072 382.096 375.851 365.47 386.062 346.068C396.272 326.666 401.608 305.07 401.608 283.145C401.608 261.22 396.272 239.624 386.062 220.222C375.851 200.82 361.072 184.194 343 171.78Z" fill="url(#paint1_linear_392_89)"/>
<path d="M346.37 12.71H345.56C309.724 12.71 275.356 26.9458 250.016 52.2857C224.676 77.6257 210.44 111.994 210.44 147.83C210.44 148.46 210.44 149.08 210.49 149.71H390.29C390.29 149.08 390.29 148.46 390.29 147.83V12.71H346.37Z" fill="url(#paint2_linear_392_89)"/>
<path d="M210.44 12.75C209.81 12.75 209.19 12.75 208.56 12.75C172.924 13.0566 138.852 27.428 113.761 52.7355C88.6701 78.0431 74.5923 112.238 74.5923 147.875C74.5923 183.512 88.6701 217.707 113.761 243.014C138.852 268.322 172.924 282.693 208.56 283C209.19 283 209.81 283 210.44 283V12.75Z" fill="url(#paint3_linear_392_89)"/>
<path d="M77.8799 259.19V36.47C59.8082 48.8832 45.029 65.5081 34.8181 84.9094C24.6072 104.311 19.2715 125.906 19.2715 147.83C19.2715 169.754 24.6072 191.349 34.8181 210.751C45.029 230.152 59.8082 246.777 77.8799 259.19Z" fill="url(#paint4_linear_392_89)"/>
<path d="M74.4998 418.27H75.3098C93.0549 418.271 110.626 414.777 127.021 407.987C143.416 401.198 158.312 391.245 170.861 378.698C183.409 366.151 193.362 351.255 200.153 334.861C206.945 318.466 210.44 300.895 210.44 283.15C210.44 282.52 210.44 281.9 210.39 281.27H30.5898C30.5898 281.9 30.5898 282.52 30.5898 283.15V418.27H74.4998Z" fill="url(#paint5_linear_392_89)"/>
<path d="M615.75 252.64C598.983 266.827 577.933 273.92 552.6 273.92C527.267 273.92 506.157 266.65 489.27 252.11C472.423 237.57 464 219.51 464 197.93H513.9C513.9 207.083 517.71 214.823 525.33 221.15C532.95 227.477 542.393 230.643 553.66 230.65C564.213 230.65 573.067 227.953 580.22 222.56C587.373 217.167 590.967 210.483 591 202.51C591 187.263 574.333 175.887 541 168.38C519.42 163.22 501.83 154.777 488.23 143.05C474.63 131.323 467.823 115.61 467.81 95.91C467.81 74.33 475.787 56.74 491.74 43.14C507.693 29.54 527.747 22.7367 551.9 22.73C576.053 22.73 596.28 29.65 612.58 43.49C628.88 57.33 637.02 74.6867 637 95.56H587.08C587.08 87.1067 583.677 80.07 576.87 74.45C570.063 68.83 561.62 66.0133 551.54 66C542.16 66 534.187 68.46 527.62 73.38C521.053 78.3 517.77 84.5067 517.77 92C517.77 107.007 533.25 118.147 564.21 125.42C574.117 127.722 583.817 130.839 593.21 134.74C601.745 138.37 609.832 142.974 617.31 148.46C624.752 153.9 630.735 161.093 634.73 169.4C638.931 178.302 641.035 188.048 640.88 197.89C640.893 220.21 632.517 238.46 615.75 252.64Z" fill="white"/>
<path d="M757.7 132.14H716.19V205.32C716.19 212.36 718.3 217.87 722.52 221.85C726.74 225.83 732.487 227.83 739.76 227.85H757.7V269.7H733.08C712.413 269.7 696.817 264.893 686.29 255.28C675.763 245.667 670.483 231.593 670.45 213.06V132.14H642V90.28H658.53C668.15 90.28 672.96 85.4733 672.96 75.86V42.43H716.23V90.28H757.7V132.14Z" fill="white"/>
<path d="M816.8 117.72C831.806 97.5533 850.806 87.4667 873.8 87.46V134.61C855.74 134.61 841.74 139.063 831.8 147.97C821.86 156.877 816.86 168.957 816.8 184.21V269.7H771.07V90.28H816.8V117.72Z" fill="white"/>
<path d="M1071.16 225.37H1074.68V269.7H1061.68C1036.35 269.7 1020.28 260.317 1013.48 241.55C998.233 263.137 977.713 273.927 951.92 273.92C927.06 273.92 906.243 264.95 889.47 247.01C872.696 229.07 864.306 206.733 864.3 180C864.3 153.26 872.683 130.927 889.45 113C906.216 95.0733 927.033 86.0933 951.9 86.06C975.82 86.06 995.286 95.3233 1010.3 113.85V90.28H1056V210.28C1056 220.347 1061.05 225.377 1071.16 225.37ZM960.69 229.59C974.996 229.59 986.84 224.843 996.22 215.35C1005.6 205.857 1010.29 194.073 1010.3 180C1010.3 165.927 1005.61 154.14 996.22 144.64C986.833 135.14 974.99 130.39 960.69 130.39C946.616 130.39 934.89 135.14 925.51 144.64C916.13 154.14 911.44 165.927 911.44 180C911.44 194.067 916.13 205.853 925.51 215.36C934.89 224.867 946.616 229.61 960.69 229.59Z" fill="white"/>
<path d="M1184.79 132.14H1143.28V205.32C1143.28 212.36 1145.39 217.87 1149.61 221.85C1153.83 225.83 1159.58 227.83 1166.85 227.85H1184.79V269.7H1160.16C1139.49 269.7 1123.9 264.893 1113.37 255.28C1102.84 245.667 1097.57 231.593 1097.54 213.06V132.14H1069.05V90.28H1085.58C1095.2 90.28 1100.01 85.4733 1100.01 75.86V42.43H1143.28V90.28H1184.79V132.14Z" fill="white"/>
<path d="M1348.91 247C1330.49 264.94 1307.56 273.91 1280.13 273.91C1252.7 273.91 1229.77 264.94 1211.35 247C1192.94 229.06 1183.74 206.727 1183.74 180C1183.74 153.273 1192.94 130.94 1211.35 113C1229.76 95.06 1252.69 86.09 1280.13 86.09C1307.57 86.09 1330.5 95.06 1348.91 113C1367.32 130.94 1376.52 153.273 1376.52 180C1376.52 206.727 1367.32 229.06 1348.91 247ZM1244.91 215.34C1254.29 224.833 1266.02 229.58 1280.09 229.58C1294.16 229.58 1305.89 224.833 1315.27 215.34C1324.65 205.84 1329.34 194.053 1329.34 179.98C1329.34 165.907 1324.65 154.12 1315.27 144.62C1305.89 135.12 1294.16 130.37 1280.09 130.37C1266.02 130.37 1254.32 135.123 1245 144.63C1235.62 154.13 1230.93 165.917 1230.93 179.99C1230.93 194.063 1235.62 205.85 1245 215.35L1244.91 215.34Z" fill="white"/>
<path d="M1448.64 273.92C1427.97 273.92 1410.85 268.29 1397.28 257.03C1383.71 245.77 1376.9 232.05 1376.87 215.87H1423C1423 221.497 1425.52 226.307 1430.56 230.3C1435.6 234.293 1441.76 236.293 1449.03 236.3C1454.76 236.409 1460.39 234.815 1465.21 231.72C1469.88 228.68 1472.21 224.68 1472.21 219.72C1472.21 209.867 1460.72 202.48 1437.73 197.56C1399.03 189.347 1379.7 170.937 1379.73 142.33C1379.73 124.997 1386.24 111.277 1399.25 101.17C1412.26 91.0633 1428.15 86.02 1446.92 86.04C1466.38 86.04 1482.68 91.3733 1495.82 102.04C1508.96 112.707 1515.53 125.783 1515.52 141.27H1469.4C1469.4 136.35 1467.23 132.187 1462.89 128.78C1458.55 125.373 1453.22 123.673 1446.89 123.68C1441.6 123.579 1436.42 125.181 1432.11 128.25C1427.89 131.31 1425.78 134.947 1425.78 139.16C1425.78 148.313 1437.51 155.583 1460.96 160.97C1499.19 169.637 1518.31 187.813 1518.31 215.5C1518.31 233.56 1511.62 247.81 1498.25 258.25C1484.88 268.69 1468.34 273.913 1448.64 273.92Z" fill="white"/>
<path d="M557.35 333.74V341.24H539.23V393.87H531.23V341.24H513.08V333.74H557.35Z" fill="#ECECEC"/>
<path d="M607.19 386.64H608V393.87H605.73C602.357 393.87 599.773 392.997 597.98 391.25C596.187 389.503 595.287 387.007 595.28 383.76V368.76C595.359 367.015 595.087 365.271 594.481 363.633C593.874 361.994 592.946 360.494 591.75 359.22C590.508 357.997 589.027 357.044 587.399 356.421C585.771 355.798 584.031 355.518 582.29 355.6C580.487 355.52 578.686 355.803 576.994 356.431C575.302 357.06 573.754 358.022 572.44 359.26C571.185 360.53 570.206 362.045 569.562 363.711C568.919 365.376 568.625 367.156 568.7 368.94V393.86H561.2V331.13H568.7V356.83C572.24 351.203 577.574 348.387 584.7 348.38C590.1 348.38 594.457 350.02 597.77 353.3C601.084 356.58 602.75 360.953 602.77 366.42V382.19C602.732 382.783 602.821 383.378 603.03 383.935C603.24 384.491 603.565 384.996 603.985 385.417C604.405 385.838 604.91 386.165 605.466 386.376C606.022 386.587 606.617 386.677 607.21 386.64H607.19Z" fill="#ECECEC"/>
<path d="M614.08 340.54C613.41 340.56 612.743 340.443 612.121 340.195C611.498 339.948 610.933 339.575 610.46 339.1C609.537 338.148 609.021 336.875 609.021 335.55C609.021 334.225 609.537 332.951 610.46 332C610.94 331.537 611.507 331.175 612.128 330.934C612.75 330.694 613.414 330.58 614.08 330.6C614.731 330.585 615.378 330.702 615.982 330.942C616.587 331.183 617.137 331.542 617.6 332C618.3 332.698 618.777 333.588 618.971 334.557C619.166 335.526 619.068 336.531 618.692 337.445C618.315 338.359 617.676 339.141 616.855 339.692C616.034 340.243 615.068 340.538 614.08 340.54ZM610.33 393.87V349.43H617.82V393.87H610.33Z" fill="#ECECEC"/>
<path d="M671.41 386.64H672.2V393.87H669.93C666.563 393.87 663.98 392.997 662.18 391.25C660.38 389.503 659.477 387.007 659.47 383.76V368.76C659.55 367.015 659.279 365.272 658.675 363.634C658.07 361.995 657.144 360.495 655.95 359.22C654.708 357.997 653.226 357.044 651.598 356.421C649.97 355.798 648.231 355.518 646.49 355.6C644.687 355.52 642.886 355.803 641.194 356.431C639.502 357.06 637.953 358.022 636.64 359.26C635.373 360.534 634.386 362.058 633.742 363.735C633.098 365.413 632.811 367.206 632.9 369V393.92H625.4V349.43H632.9V356.57C636.44 351.11 641.773 348.38 648.9 348.38C654.3 348.38 658.657 350.02 661.97 353.3C665.283 356.58 666.95 360.953 666.97 366.42V382.19C666.932 382.783 667.021 383.378 667.23 383.935C667.44 384.491 667.765 384.996 668.185 385.417C668.605 385.838 669.11 386.165 669.666 386.376C670.222 386.587 670.816 386.677 671.41 386.64Z" fill="#ECECEC"/>
<path d="M713.41 386.64H715.5V393.87H712.63C706.63 393.87 701.72 391.08 697.9 385.5L688.84 374.87L681.78 381.06V393.87H674.29V331.13H681.78V372.08L704.78 349.43H714.54L694.23 369.56L704.86 381.84C707.427 385.04 710.277 386.64 713.41 386.64Z" fill="#ECECEC"/>
<path d="M758.55 348.38C761.52 348.312 764.471 348.871 767.211 350.02C769.95 351.17 772.417 352.883 774.45 355.05C778.575 359.595 780.86 365.512 780.86 371.65C780.86 377.788 778.575 383.705 774.45 388.25C772.415 390.413 769.948 392.124 767.208 393.272C764.469 394.419 761.519 394.977 758.55 394.91C755.099 394.958 751.694 394.109 748.67 392.445C745.646 390.781 743.107 388.361 741.3 385.42V393.87H733.8V331.13H741.3V357.88C743.09 354.967 745.592 352.559 748.57 350.88C751.62 349.188 755.062 348.326 758.55 348.38ZM757.16 387.68C759.274 387.742 761.377 387.369 763.341 386.583C765.304 385.796 767.084 384.614 768.57 383.11C771.48 380.004 773.1 375.907 773.1 371.65C773.1 367.393 771.48 363.296 768.57 360.19C765.514 357.251 761.44 355.609 757.2 355.609C752.96 355.609 748.885 357.251 745.83 360.19C742.919 363.296 741.3 367.393 741.3 371.65C741.3 375.907 742.919 380.004 745.83 383.11C747.302 384.61 749.069 385.79 751.018 386.577C752.968 387.363 755.058 387.739 757.16 387.68Z" fill="#ECECEC"/>
<path d="M829.92 371.65C829.913 372.696 829.853 373.74 829.74 374.78H790.74C791.264 378.525 793.16 381.943 796.06 384.37C799.038 386.816 802.798 388.105 806.65 388C809.576 388.039 812.465 387.352 815.06 386C817.452 384.8 819.438 382.922 820.77 380.6H829.13C827.402 384.902 824.352 388.544 820.42 391C816.285 393.638 811.465 395.001 806.56 394.92C803.412 395.014 800.277 394.473 797.342 393.329C794.407 392.185 791.733 390.461 789.48 388.26C785.141 383.824 782.711 377.865 782.711 371.66C782.711 365.455 785.141 359.496 789.48 355.06C794.048 350.774 800.076 348.389 806.34 348.389C812.604 348.389 818.632 350.774 823.2 355.06C825.403 357.213 827.138 359.798 828.294 362.653C829.451 365.508 830.004 368.571 829.92 371.65ZM816.54 358.84C813.666 356.459 810.031 355.192 806.3 355.27C802.603 355.181 798.998 356.431 796.15 358.79C793.328 361.157 791.431 364.443 790.79 368.07H821.9C821.29 364.446 819.385 361.166 816.54 358.84Z" fill="#ECECEC"/>
<path d="M866.34 349.43H873.83V391.78C873.83 397.7 871.93 402.463 868.13 406.07C864.33 409.677 859.464 411.477 853.53 411.47C849.15 411.588 844.852 410.271 841.29 407.72C837.815 405.117 835.289 401.446 834.1 397.27H841.85C842.839 399.463 844.444 401.322 846.47 402.62C848.982 404.144 851.922 404.81 854.846 404.518C857.77 404.226 860.519 402.991 862.68 401C863.903 399.785 864.859 398.329 865.489 396.724C866.119 395.12 866.409 393.402 866.34 391.68V386C862.907 391.333 857.794 394 851 394C845.78 394 841.584 392.403 838.41 389.21C835.237 386.017 833.654 381.777 833.66 376.49V349.39H841.16V374.39C841.078 376.036 841.329 377.681 841.898 379.227C842.467 380.774 843.342 382.19 844.47 383.39C845.642 384.53 847.037 385.416 848.566 385.994C850.095 386.572 851.727 386.83 853.36 386.75C855.078 386.828 856.795 386.563 858.41 385.973C860.025 385.382 861.507 384.477 862.77 383.31C863.968 382.124 864.904 380.702 865.519 379.133C866.134 377.564 866.413 375.884 866.34 374.2V349.43Z" fill="#ECECEC"/>
<path d="M918.84 388.25C914.259 392.53 908.224 394.912 901.955 394.912C895.686 394.912 889.65 392.53 885.07 388.25C880.719 383.82 878.281 377.859 878.281 371.65C878.281 365.441 880.719 359.48 885.07 355.05C889.648 350.765 895.684 348.381 901.955 348.381C908.226 348.381 914.262 350.765 918.84 355.05C923.167 359.492 925.589 365.449 925.589 371.65C925.589 377.851 923.167 383.808 918.84 388.25ZM902 387.68C904.101 387.738 906.192 387.362 908.141 386.576C910.091 385.789 911.857 384.61 913.33 383.11C916.24 380.004 917.86 375.907 917.86 371.65C917.86 367.393 916.24 363.296 913.33 360.19C910.275 357.251 906.2 355.609 901.96 355.609C897.72 355.609 893.645 357.251 890.59 360.19C887.673 363.293 886.048 367.391 886.048 371.65C886.048 375.909 887.673 380.007 890.59 383.11C892.075 384.616 893.855 385.799 895.818 386.585C897.781 387.372 899.886 387.744 902 387.68Z" fill="#ECECEC"/>
<path d="M976.22 386.64H977V393.87H974.73C971.357 393.87 968.773 392.997 966.98 391.25C965.187 389.503 964.284 387.007 964.27 383.76V368.76C964.35 367.015 964.08 365.272 963.475 363.634C962.871 361.995 961.944 360.495 960.75 359.22C959.508 357.997 958.027 357.044 956.399 356.421C954.771 355.798 953.031 355.518 951.29 355.6C949.487 355.52 947.686 355.803 945.994 356.431C944.302 357.06 942.754 358.022 941.44 359.26C940.181 360.527 939.199 362.041 938.555 363.708C937.911 365.374 937.62 367.156 937.7 368.94V393.86H930.2V349.43H937.7V356.57C941.24 351.11 946.574 348.38 953.7 348.38C959.1 348.38 963.457 350.02 966.77 353.3C970.084 356.58 971.75 360.953 971.77 366.42V382.19C971.732 382.783 971.821 383.378 972.03 383.935C972.24 384.491 972.565 384.996 972.985 385.417C973.405 385.838 973.91 386.165 974.466 386.376C975.022 386.587 975.617 386.677 976.21 386.64H976.22Z" fill="#ECECEC"/>
<path d="M1028 386.64H1028.87V393.87H1026.52C1023.91 394.02 1021.33 393.233 1019.24 391.65C1018.33 390.84 1017.58 389.856 1017.05 388.755C1016.52 387.655 1016.21 386.46 1016.15 385.24C1014.36 388.195 1011.84 390.64 1008.83 392.34C1005.78 394.062 1002.33 394.949 998.83 394.91C995.866 394.982 992.921 394.426 990.187 393.278C987.453 392.131 984.994 390.417 982.97 388.25C978.874 383.691 976.609 377.779 976.609 371.65C976.609 365.521 978.874 359.609 982.97 355.05C984.993 352.881 987.452 351.166 990.186 350.016C992.919 348.867 995.865 348.309 998.83 348.38C1002.28 348.341 1005.68 349.195 1008.71 350.86C1011.73 352.524 1014.27 354.943 1016.08 357.88V331.13H1023.58V382.19C1023.54 382.783 1023.63 383.378 1023.84 383.935C1024.05 384.491 1024.38 384.996 1024.8 385.417C1025.22 385.838 1025.72 386.165 1026.28 386.376C1026.83 386.587 1027.43 386.677 1028.02 386.64H1028ZM1000.2 387.64C1002.3 387.699 1004.39 387.323 1006.34 386.537C1008.29 385.75 1010.06 384.57 1011.53 383.07C1014.44 379.964 1016.06 375.867 1016.06 371.61C1016.06 367.353 1014.44 363.256 1011.53 360.15C1008.47 357.211 1004.4 355.569 1000.16 355.569C995.92 355.569 991.845 357.211 988.79 360.15C985.879 363.256 984.26 367.353 984.26 371.61C984.26 375.867 985.879 379.964 988.79 383.07C990.27 384.58 992.045 385.769 994.005 386.562C995.964 387.355 998.067 387.736 1000.18 387.68L1000.2 387.64Z" fill="#ECECEC"/>
<path d="M1082.7 362C1086.02 362.789 1088.94 364.776 1090.89 367.58C1093 370.524 1094.1 374.07 1094.03 377.69C1094.09 379.846 1093.7 381.991 1092.88 383.987C1092.06 385.983 1090.84 387.786 1089.28 389.28C1087.72 390.801 1085.88 391.994 1083.85 392.788C1081.82 393.581 1079.66 393.96 1077.48 393.9H1048.72V333.74H1074.86C1076.9 333.683 1078.92 334.031 1080.82 334.764C1082.72 335.497 1084.46 336.6 1085.93 338.01C1087.39 339.4 1088.53 341.081 1089.3 342.943C1090.06 344.805 1090.43 346.808 1090.37 348.82C1090.39 351.598 1089.64 354.327 1088.19 356.7C1086.91 358.962 1085.01 360.804 1082.7 362ZM1073 341H1056.45V359.3H1073C1074.8 359.26 1076.55 358.698 1078.03 357.682C1079.52 356.666 1080.67 355.24 1081.36 353.577C1082.05 351.915 1082.24 350.089 1081.91 348.321C1081.57 346.552 1080.73 344.919 1079.49 343.62C1078.65 342.759 1077.64 342.081 1076.52 341.63C1075.4 341.179 1074.2 340.965 1073 341ZM1075.62 386.67C1076.97 386.7 1078.32 386.449 1079.57 385.932C1080.82 385.416 1081.95 384.646 1082.89 383.67C1083.85 382.711 1084.6 381.568 1085.1 380.31C1085.6 379.051 1085.84 377.704 1085.81 376.35C1085.84 375.005 1085.59 373.668 1085.09 372.42C1084.58 371.172 1083.83 370.039 1082.88 369.087C1081.93 368.136 1080.8 367.386 1079.55 366.883C1078.3 366.38 1076.97 366.134 1075.62 366.16H1056.45V386.64L1075.62 386.67Z" fill="#ECECEC"/>
<path d="M1135.64 388.25C1131.06 392.53 1125.02 394.912 1118.75 394.912C1112.49 394.912 1106.45 392.53 1101.87 388.25C1097.52 383.82 1095.08 377.859 1095.08 371.65C1095.08 365.441 1097.52 359.48 1101.87 355.05C1106.45 350.765 1112.48 348.381 1118.75 348.381C1125.03 348.381 1131.06 350.765 1135.64 355.05C1139.97 359.492 1142.39 365.449 1142.39 371.65C1142.39 377.851 1139.97 383.808 1135.64 388.25ZM1118.78 387.68C1120.88 387.737 1122.97 387.36 1124.92 386.574C1126.87 385.788 1128.64 384.609 1130.11 383.11C1133.02 380.004 1134.64 375.907 1134.64 371.65C1134.64 367.393 1133.02 363.296 1130.11 360.19C1127.05 357.252 1122.98 355.612 1118.73 355.612C1114.49 355.612 1110.42 357.252 1107.36 360.19C1104.45 363.296 1102.83 367.393 1102.83 371.65C1102.83 375.907 1104.45 380.004 1107.36 383.11C1108.85 384.616 1110.63 385.798 1112.59 386.585C1114.56 387.371 1116.66 387.744 1118.78 387.68Z" fill="#ECECEC"/>
<path d="M1191 386.64H1191.78V393.87H1189.52C1183.7 393.87 1180.31 391.4 1179.32 386.46C1175.89 392.1 1170.69 394.917 1163.72 394.91C1158.55 394.91 1154.36 393.313 1151.17 390.12C1147.98 386.927 1146.38 382.687 1146.38 377.4V349.4H1153.87V375.19C1153.79 376.845 1154.04 378.5 1154.61 380.056C1155.18 381.612 1156.06 383.038 1157.19 384.25C1158.35 385.401 1159.74 386.298 1161.27 386.883C1162.8 387.468 1164.43 387.73 1166.07 387.65C1167.79 387.727 1169.51 387.46 1171.13 386.862C1172.75 386.264 1174.23 385.349 1175.49 384.17C1176.69 382.973 1177.62 381.541 1178.23 379.964C1178.85 378.388 1179.13 376.701 1179.06 375.01V349.43H1186.55V382.19C1186.52 382.78 1186.61 383.369 1186.82 383.924C1187.02 384.478 1187.33 384.987 1187.73 385.42C1188.16 385.839 1188.67 386.164 1189.24 386.374C1189.8 386.584 1190.4 386.675 1191 386.64Z" fill="#ECECEC"/>
<path d="M1240.51 386.64H1241.3V393.87H1239C1235.63 393.87 1233.05 392.997 1231.24 391.25C1229.43 389.503 1228.53 387.007 1228.54 383.76V368.76C1228.62 367.014 1228.35 365.27 1227.75 363.63C1227.14 361.991 1226.21 360.491 1225.01 359.22C1223.77 357.996 1222.29 357.043 1220.66 356.42C1219.04 355.797 1217.3 355.517 1215.56 355.6C1213.76 355.52 1211.96 355.803 1210.26 356.431C1208.57 357.06 1207.02 358.022 1205.71 359.26C1204.45 360.536 1203.47 362.062 1202.83 363.739C1202.19 365.416 1201.91 367.208 1202 369V393.92H1194.5V349.43H1202V356.57C1205.54 351.11 1210.87 348.38 1218 348.38C1223.4 348.38 1227.76 350.02 1231.07 353.3C1234.38 356.58 1236.05 360.953 1236.07 366.42V382.19C1236.03 382.783 1236.12 383.378 1236.33 383.935C1236.54 384.491 1236.87 384.996 1237.29 385.417C1237.71 385.838 1238.21 386.165 1238.77 386.376C1239.32 386.587 1239.92 386.677 1240.51 386.64Z" fill="#ECECEC"/>
<path d="M1292.27 386.64H1293.14V393.87H1290.79C1288.18 394.02 1285.6 393.233 1283.51 391.65C1282.6 390.84 1281.85 389.856 1281.32 388.755C1280.79 387.655 1280.48 386.46 1280.42 385.24C1278.63 388.195 1276.11 390.64 1273.1 392.34C1270.05 394.062 1266.6 394.949 1263.1 394.91C1260.14 394.982 1257.19 394.426 1254.46 393.278C1251.72 392.131 1249.26 390.417 1247.24 388.25C1243.14 383.691 1240.88 377.779 1240.88 371.65C1240.88 365.521 1243.14 359.609 1247.24 355.05C1249.26 352.881 1251.72 351.166 1254.46 350.016C1257.19 348.867 1260.14 348.309 1263.1 348.38C1266.55 348.341 1269.95 349.195 1272.98 350.86C1276 352.524 1278.54 354.943 1280.35 357.88V331.13H1287.85V382.19C1287.81 382.783 1287.9 383.378 1288.11 383.935C1288.32 384.491 1288.65 384.996 1289.07 385.417C1289.49 385.838 1289.99 386.165 1290.55 386.376C1291.1 386.587 1291.7 386.677 1292.29 386.64H1292.27ZM1264.47 387.64C1266.57 387.698 1268.66 387.322 1270.61 386.536C1272.56 385.749 1274.33 384.57 1275.8 383.07C1278.71 379.964 1280.33 375.867 1280.33 371.61C1280.33 367.353 1278.71 363.256 1275.8 360.15C1272.74 357.211 1268.67 355.569 1264.43 355.569C1260.19 355.569 1256.12 357.211 1253.06 360.15C1250.15 363.256 1248.53 367.353 1248.53 371.61C1248.53 375.867 1250.15 379.964 1253.06 383.07C1254.54 384.583 1256.32 385.773 1258.28 386.566C1260.25 387.359 1262.35 387.738 1264.47 387.68V387.64Z" fill="#ECECEC"/>
<path d="M1345 386.64H1345.87V393.87H1343.52C1340.91 394.02 1338.32 393.233 1336.24 391.65C1335.33 390.84 1334.58 389.856 1334.05 388.755C1333.52 387.655 1333.21 386.46 1333.15 385.24C1331.36 388.195 1328.84 390.64 1325.83 392.34C1322.78 394.062 1319.33 394.949 1315.83 394.91C1312.87 394.982 1309.92 394.426 1307.19 393.278C1304.45 392.131 1301.99 390.417 1299.97 388.25C1295.87 383.691 1293.61 377.779 1293.61 371.65C1293.61 365.521 1295.87 359.609 1299.97 355.05C1301.99 352.881 1304.45 351.166 1307.19 350.016C1309.92 348.867 1312.86 348.309 1315.83 348.38C1319.28 348.341 1322.68 349.195 1325.7 350.86C1328.73 352.524 1331.27 354.943 1333.08 357.88V349.43H1340.57V382.19C1340.53 382.784 1340.62 383.38 1340.83 383.937C1341.04 384.494 1341.37 385 1341.79 385.421C1342.21 385.842 1342.72 386.169 1343.27 386.379C1343.83 386.589 1344.43 386.678 1345.02 386.64H1345ZM1317.2 387.64C1319.3 387.698 1321.39 387.322 1323.34 386.536C1325.29 385.749 1327.06 384.57 1328.53 383.07C1331.44 379.964 1333.06 375.867 1333.06 371.61C1333.06 367.353 1331.44 363.256 1328.53 360.15C1325.47 357.211 1321.4 355.569 1317.16 355.569C1312.92 355.569 1308.85 357.211 1305.79 360.15C1302.87 363.253 1301.25 367.351 1301.25 371.61C1301.25 375.869 1302.87 379.967 1305.79 383.07C1307.27 384.581 1309.05 385.771 1311.01 386.564C1312.97 387.357 1315.07 387.737 1317.19 387.68L1317.2 387.64Z" fill="#ECECEC"/>
<path d="M1356.05 357.79C1359.77 351.75 1365.1 348.73 1372.05 348.73V356.48C1367.11 356.48 1363.22 357.847 1360.37 360.58C1357.52 363.313 1356.1 366.98 1356.1 371.58V393.89H1348.61V349.43H1356.1L1356.05 357.79Z" fill="#ECECEC"/>
<path d="M1379.58 340.54C1378.91 340.56 1378.24 340.442 1377.62 340.194C1377 339.947 1376.43 339.574 1375.96 339.1C1375.04 338.146 1374.53 336.874 1374.53 335.55C1374.53 334.226 1375.04 332.954 1375.96 332C1376.44 331.537 1377.01 331.175 1377.63 330.934C1378.25 330.694 1378.91 330.58 1379.58 330.6C1380.23 330.585 1380.88 330.701 1381.49 330.942C1382.09 331.182 1382.65 331.542 1383.11 332C1383.81 332.699 1384.29 333.589 1384.48 334.56C1384.68 335.53 1384.58 336.536 1384.2 337.45C1383.82 338.364 1383.18 339.146 1382.36 339.696C1381.54 340.246 1380.57 340.54 1379.58 340.54ZM1375.83 393.87V349.43H1383.33V393.87H1375.83Z" fill="#ECECEC"/>
<path d="M1435.26 371.65C1435.26 372.58 1435.2 373.65 1435.09 374.78H1396.09C1396.61 378.523 1398.51 381.939 1401.4 384.37C1404.38 386.818 1408.15 388.107 1412 388C1414.92 388.04 1417.81 387.352 1420.4 386C1422.79 384.8 1424.78 382.922 1426.11 380.6H1434.48C1432.74 384.891 1429.69 388.521 1425.76 390.97C1421.63 393.606 1416.81 394.969 1411.91 394.89C1408.76 394.987 1405.63 394.447 1402.69 393.302C1399.76 392.158 1397.08 390.433 1394.83 388.23C1390.48 383.798 1388.05 377.838 1388.05 371.63C1388.05 365.422 1390.48 359.462 1394.83 355.03C1399.4 350.744 1405.43 348.359 1411.69 348.359C1417.95 348.359 1423.98 350.744 1428.55 355.03C1430.75 357.188 1432.49 359.778 1433.64 362.639C1434.8 365.499 1435.35 368.567 1435.26 371.65ZM1421.89 358.84C1419.02 356.461 1415.38 355.194 1411.65 355.27C1407.95 355.179 1404.35 356.429 1401.5 358.79C1398.68 361.154 1396.78 364.441 1396.14 368.07H1427.25C1426.64 364.448 1424.73 361.169 1421.89 358.84Z" fill="#ECECEC"/>
<path d="M1453.12 394.91C1448.84 395.078 1444.65 393.685 1441.32 390.99C1439.85 389.829 1438.66 388.345 1437.85 386.653C1437.04 384.961 1436.64 383.105 1436.66 381.23H1444.32C1444.33 382.194 1444.58 383.141 1445.03 383.99C1445.49 384.84 1446.14 385.567 1446.94 386.11C1448.7 387.363 1450.79 388.061 1452.95 388.117C1455.11 388.172 1457.23 387.581 1459.05 386.42C1459.8 385.956 1460.42 385.308 1460.84 384.538C1461.27 383.767 1461.49 382.901 1461.49 382.02C1461.49 378.527 1458.06 376.057 1451.21 374.61C1441.97 372.517 1437.35 368.13 1437.35 361.45C1437.3 359.633 1437.68 357.83 1438.46 356.188C1439.24 354.546 1440.4 353.111 1441.84 352C1444.97 349.543 1448.86 348.262 1452.84 348.38C1456.9 348.235 1460.87 349.583 1464 352.17C1465.4 353.293 1466.53 354.72 1467.3 356.344C1468.07 357.967 1468.46 359.744 1468.44 361.54H1460.77C1460.76 360.663 1460.55 359.801 1460.15 359.021C1459.75 358.241 1459.17 357.566 1458.46 357.05C1456.84 355.774 1454.82 355.112 1452.76 355.18C1450.81 355.134 1448.9 355.712 1447.31 356.83C1446.61 357.265 1446.04 357.869 1445.63 358.585C1445.23 359.302 1445.01 360.108 1445 360.93C1445 364.303 1448.4 366.713 1455.2 368.16C1464.49 370.247 1469.13 374.663 1469.14 381.41C1469.2 383.292 1468.81 385.161 1468.01 386.864C1467.2 388.567 1466.01 390.056 1464.52 391.21C1461.27 393.735 1457.24 395.043 1453.12 394.91Z" fill="#ECECEC"/>
<defs>
<linearGradient id="paint0_linear_392_89" x1="210.44" y1="283.15" x2="347.44" y2="283.15" gradientUnits="userSpaceOnUse">
<stop stop-color="#395AF9"/>
<stop offset="1" stop-color="#5894FF"/>
</linearGradient>
<linearGradient id="paint1_linear_392_89" x1="343" y1="283.15" x2="401.61" y2="283.15" gradientUnits="userSpaceOnUse">
<stop stop-color="#1B52E7"/>
<stop offset="1" stop-color="#337FE6"/>
</linearGradient>
<linearGradient id="paint2_linear_392_89" x1="210.44" y1="81.21" x2="390.29" y2="81.21" gradientUnits="userSpaceOnUse">
<stop stop-color="#95CAFF"/>
<stop offset="1" stop-color="#5596FC"/>
</linearGradient>
<linearGradient id="paint3_linear_392_89" x1="73.4398" y1="147.83" x2="210.44" y2="147.83" gradientUnits="userSpaceOnUse">
<stop stop-color="#395AF9"/>
<stop offset="1" stop-color="#5894FF"/>
</linearGradient>
<linearGradient id="paint4_linear_392_89" x1="19.2699" y1="147.83" x2="77.8799" y2="147.83" gradientUnits="userSpaceOnUse">
<stop stop-color="#1B52E7"/>
<stop offset="1" stop-color="#337FE6"/>
</linearGradient>
<linearGradient id="paint5_linear_392_89" x1="30.5798" y1="349.77" x2="210.44" y2="349.77" gradientUnits="userSpaceOnUse">
<stop stop-color="#95CAFF"/>
<stop offset="1" stop-color="#5596FC"/>
</linearGradient>
</defs>
</svg>
