<svg id="Layer_1" data-name="Layer 1" xmlns="http://www.w3.org/2000/svg" xmlns:xlink="http://www.w3.org/1999/xlink" viewBox="0 0 1537.57 430.98"><defs><style>.cls-1{fill:url(#linear-gradient);}.cls-2{fill:url(#linear-gradient-2);}.cls-3{fill:url(#linear-gradient-3);}.cls-4{fill:url(#linear-gradient-4);}.cls-5{fill:url(#linear-gradient-5);}.cls-6{fill:url(#linear-gradient-6);}</style><linearGradient id="linear-gradient" x1="210.44" y1="283.15" x2="347.44" y2="283.15" gradientUnits="userSpaceOnUse"><stop offset="0" stop-color="#395af9"/><stop offset="1" stop-color="#5894ff"/></linearGradient><linearGradient id="linear-gradient-2" x1="343" y1="283.15" x2="401.61" y2="283.15" gradientUnits="userSpaceOnUse"><stop offset="0" stop-color="#1b52e7"/><stop offset="1" stop-color="#337fe6"/></linearGradient><linearGradient id="linear-gradient-3" x1="210.44" y1="81.21" x2="390.29" y2="81.21" gradientUnits="userSpaceOnUse"><stop offset="0" stop-color="#95caff"/><stop offset="1" stop-color="#5596fc"/></linearGradient><linearGradient id="linear-gradient-4" x1="73.44" y1="147.83" x2="210.44" y2="147.83" xlink:href="#linear-gradient"/><linearGradient id="linear-gradient-5" x1="19.27" y1="147.83" x2="77.88" y2="147.83" xlink:href="#linear-gradient-2"/><linearGradient id="linear-gradient-6" x1="30.58" y1="349.77" x2="210.44" y2="349.77" xlink:href="#linear-gradient-3"/></defs><path class="cls-1" d="M210.44,418.23c.63,0,1.25,0,1.87,0a135.13,135.13,0,1,0,0-270.25c-.62,0-1.24,0-1.87,0Z"/><path class="cls-2" d="M343,171.78V394.51a135.11,135.11,0,0,0,0-222.73Z"/><path class="cls-3" d="M346.37,12.71v0l-.81,0A135.12,135.12,0,0,0,210.44,147.83c0,.63,0,1.25.05,1.88h179.8c0-.63,0-1.25,0-1.88V12.71Z"/><path class="cls-4" d="M210.44,12.75c-.63,0-1.25,0-1.88,0a135.13,135.13,0,0,0,0,270.25c.63,0,1.25,0,1.88,0Z"/><path class="cls-5" d="M77.88,259.19V36.47a135.1,135.1,0,0,0,0,222.72Z"/><path class="cls-6" d="M74.5,418.27v0l.81,0A135.12,135.12,0,0,0,210.44,283.15c0-.63,0-1.25-.05-1.88H30.59c0,.63,0,1.25,0,1.88V418.27Z"/><path d="M615.75,252.64q-25.15,21.28-63.15,21.28t-63.33-21.81Q464,230.3,464,197.93H513.9q0,13.73,11.43,23.22t28.33,9.5q15.83,0,26.56-8.09T591,202.51q0-22.87-50-34.13-32.37-7.74-52.77-25.33T467.81,95.91q0-32.37,23.93-52.77T551.9,22.73q36.23,0,60.68,20.76T637,95.56H587.08q0-12.68-10.21-21.11T551.54,66q-14.07,0-23.92,7.38T517.77,92q0,22.51,46.44,33.42a184.45,184.45,0,0,1,29,9.32,120.42,120.42,0,0,1,24.1,13.72,56,56,0,0,1,17.42,20.94,64.37,64.37,0,0,1,6.15,28.49Q640.9,231.37,615.75,252.64Z"/><path d="M757.7,132.14H716.19v73.18q0,10.56,6.33,16.53t17.24,6H757.7V269.7H733.08q-31,0-46.79-14.42t-15.84-42.22V132.14H642V90.28h16.53q14.43,0,14.43-14.42V42.43h43.27V90.28H757.7Z"/><path d="M816.8,117.72q22.51-30.25,57-30.26v47.15q-27.09,0-42,13.36t-15,36.24V269.7H771.07V90.28H816.8Z"/><path d="M1071.16,225.37h3.52V269.7h-13q-38,0-48.2-28.15-22.87,32.38-61.56,32.37-37.29,0-62.45-26.91T864.3,180q0-40.11,25.15-67T951.9,86.06q35.88,0,58.4,27.79V90.28H1056v120Q1056,225.38,1071.16,225.37Zm-110.47,4.22q21.46,0,35.53-14.24T1010.3,180q0-21.11-14.08-35.36t-35.53-14.25q-21.11,0-35.18,14.25T911.44,180q0,21.1,14.07,35.36T960.69,229.59Z"/><path d="M1184.79,132.14h-41.51v73.18q0,10.56,6.33,16.53t17.24,6h17.94V269.7h-24.63q-31,0-46.79-14.42t-15.83-42.22V132.14h-28.49V90.28h16.53q14.43,0,14.43-14.42V42.43h43.27V90.28h41.51Z"/><path d="M1348.91,247q-27.63,26.91-68.78,26.91T1211.35,247q-27.61-26.91-27.61-67t27.61-67q27.62-26.91,68.78-26.91T1348.91,113q27.61,26.91,27.61,67T1348.91,247Zm-104-31.66q14.07,14.24,35.18,14.24t35.18-14.24q14.07-14.25,14.07-35.36t-14.07-35.36q-14.07-14.25-35.18-14.25T1245,144.63q-14.07,14.25-14.07,35.36T1245,215.35Z"/><path d="M1448.64,273.92q-31,0-51.36-16.89t-20.41-41.16H1423q0,8.44,7.56,14.43t18.47,6a28.93,28.93,0,0,0,16.18-4.58q7-4.56,7-12,0-14.78-34.48-22.16-58.05-12.32-58-55.23,0-26,19.52-41.16t47.67-15.13q29.19,0,48.9,16t19.7,39.23H1469.4q0-7.38-6.51-12.49t-16-5.1a24.66,24.66,0,0,0-14.78,4.57q-6.33,4.59-6.33,10.91,0,13.73,35.18,21.81,57.35,13,57.35,54.53,0,27.09-20.06,42.75T1448.64,273.92Z"/><path d="M557.35,333.74v7.5H539.23v52.63h-8V341.24H513.08v-7.5Z"/><path d="M607.19,386.64H608v7.23h-2.27q-5.06,0-7.75-2.62t-2.7-7.49v-15a13.08,13.08,0,0,0-3.53-9.54,12.64,12.64,0,0,0-9.46-3.62,13.49,13.49,0,0,0-9.85,3.66,13,13,0,0,0-3.74,9.68v24.92h-7.5V331.13h7.5v25.7q5.31-8.44,16-8.45,8.1,0,13.07,4.92t5,13.12v15.77a4.19,4.19,0,0,0,4.44,4.45Z"/><path d="M614.08,340.54a4.9,4.9,0,0,1-3.62-1.44,5.1,5.1,0,0,1,0-7.1,5,5,0,0,1,3.62-1.4,4.85,4.85,0,0,1,3.52,1.4,5,5,0,0,1-3.52,8.54Zm-3.75,53.33V349.43h7.49v44.44Z"/><path d="M671.41,386.64h.79v7.23h-2.27q-5.05,0-7.75-2.62t-2.71-7.49v-15a13.08,13.08,0,0,0-3.52-9.54,12.64,12.64,0,0,0-9.46-3.62,13.49,13.49,0,0,0-9.85,3.66A12.91,12.91,0,0,0,632.9,369v24.92h-7.5V349.43h7.5v7.14q5.31-8.19,16-8.19,8.1,0,13.07,4.92t5,13.12v15.77a4.19,4.19,0,0,0,4.44,4.45Z"/><path d="M713.41,386.64h2.09v7.23h-2.87q-9,0-14.73-8.37l-9.06-10.63-7.06,6.19v12.81h-7.49V331.13h7.49v40.95l23-22.65h9.76l-20.31,20.13,10.63,12.28Q708.71,386.64,713.41,386.64Z"/><path d="M758.55,348.38a21.14,21.14,0,0,1,15.9,6.67,24.7,24.7,0,0,1,0,33.2,21.17,21.17,0,0,1-15.9,6.66,19.92,19.92,0,0,1-17.25-9.49v8.45h-7.5V331.13h7.5v26.75a20.14,20.14,0,0,1,7.27-7A19.93,19.93,0,0,1,758.55,348.38Zm-1.39,39.3a15.4,15.4,0,0,0,11.41-4.57,16.76,16.76,0,0,0,0-22.92,16.4,16.4,0,0,0-22.74,0,16.76,16.76,0,0,0,0,22.92A15.28,15.28,0,0,0,757.16,387.68Z"/><path d="M829.92,371.65a30.66,30.66,0,0,1-.18,3.13h-39a15.26,15.26,0,0,0,5.32,9.59A16,16,0,0,0,806.65,388a17.68,17.68,0,0,0,8.41-2,13.63,13.63,0,0,0,5.71-5.4h8.36A21.88,21.88,0,0,1,820.42,391a25,25,0,0,1-13.86,3.92,23.44,23.44,0,0,1-17.08-6.66,23.74,23.74,0,0,1,0-33.2,24.64,24.64,0,0,1,33.72,0A22.34,22.34,0,0,1,829.92,371.65Zm-13.38-12.81a15.54,15.54,0,0,0-10.24-3.57,15.33,15.33,0,0,0-10.15,3.52,15.67,15.67,0,0,0-5.36,9.28H821.9A15.18,15.18,0,0,0,816.54,358.84Z"/><path d="M866.34,349.43h7.49v42.35q0,8.88-5.7,14.29t-14.6,5.4a20.09,20.09,0,0,1-12.24-3.75,19.85,19.85,0,0,1-7.19-10.45h7.75a12.42,12.42,0,0,0,4.62,5.35A13.55,13.55,0,0,0,862.68,401a12.44,12.44,0,0,0,3.66-9.32V386q-5.15,8-15.34,8-7.83,0-12.59-4.79t-4.75-12.72v-27.1h7.5v25a12.25,12.25,0,0,0,3.31,9,11.92,11.92,0,0,0,8.89,3.36,13,13,0,0,0,9.41-3.44,12.08,12.08,0,0,0,3.57-9.11Z"/><path d="M918.84,388.25a24.73,24.73,0,0,1-33.77,0,23.69,23.69,0,0,1,0-33.2,24.71,24.71,0,0,1,33.77,0,23.79,23.79,0,0,1,0,33.2ZM902,387.68a15.29,15.29,0,0,0,11.33-4.57,16.76,16.76,0,0,0,0-22.92,16.4,16.4,0,0,0-22.74,0,16.73,16.73,0,0,0,0,22.92A15.37,15.37,0,0,0,902,387.68Z"/><path d="M976.22,386.64H977v7.23h-2.27q-5.06,0-7.75-2.62t-2.71-7.49v-15a13.08,13.08,0,0,0-3.52-9.54,12.64,12.64,0,0,0-9.46-3.62,13.49,13.49,0,0,0-9.85,3.66,12.91,12.91,0,0,0-3.74,9.68v24.92h-7.5V349.43h7.5v7.14q5.31-8.19,16-8.19,8.1,0,13.07,4.92t5,13.12v15.77a4.19,4.19,0,0,0,4.44,4.45Z"/><path d="M1028,386.64h.87v7.23h-2.35a11,11,0,0,1-7.28-2.22,9.22,9.22,0,0,1-3.09-6.41,20.16,20.16,0,0,1-7.32,7.1,19.88,19.88,0,0,1-10,2.57,21,21,0,0,1-15.86-6.66,24.84,24.84,0,0,1,0-33.2,21,21,0,0,1,15.86-6.67,20,20,0,0,1,17.25,9.5V331.13h7.5v51.06a4.19,4.19,0,0,0,4.44,4.45Zm-27.8,1a15.28,15.28,0,0,0,11.33-4.57,16.76,16.76,0,0,0,0-22.92,16.4,16.4,0,0,0-22.74,0,16.76,16.76,0,0,0,0,22.92A15.38,15.38,0,0,0,1000.18,387.68Z"/><path d="M1082.7,362a13.88,13.88,0,0,1,8.19,5.58,16.82,16.82,0,0,1,3.14,10.11,15.48,15.48,0,0,1-4.75,11.59,16.25,16.25,0,0,1-11.8,4.62h-28.76V333.74h26.14a15.37,15.37,0,0,1,11.07,4.27,14.36,14.36,0,0,1,4.44,10.81,14.93,14.93,0,0,1-2.18,7.88A13.38,13.38,0,0,1,1082.7,362ZM1073,341h-16.55v18.3H1073a9.27,9.27,0,0,0,6.49-15.68A8.72,8.72,0,0,0,1073,341Zm2.62,45.67a9.79,9.79,0,0,0,7.27-3,10,10,0,0,0,2.92-7.32,10,10,0,0,0-10.19-10.19h-19.17v20.48Z"/><path d="M1135.64,388.25a24.73,24.73,0,0,1-33.77,0,23.69,23.69,0,0,1,0-33.2,24.71,24.71,0,0,1,33.77,0,23.79,23.79,0,0,1,0,33.2Zm-16.86-.57a15.31,15.31,0,0,0,11.33-4.57,16.76,16.76,0,0,0,0-22.92,16.42,16.42,0,0,0-22.75,0,16.76,16.76,0,0,0,0,22.92A15.4,15.4,0,0,0,1118.78,387.68Z"/><path d="M1191,386.64h.78v7.23h-2.26c-5.82,0-9.21-2.47-10.2-7.41q-5.14,8.46-15.6,8.45-7.76,0-12.55-4.79t-4.79-12.72v-28h7.49v25.79a12.4,12.4,0,0,0,3.32,9.06,11.81,11.81,0,0,0,8.88,3.4,12.93,12.93,0,0,0,9.42-3.48,12.24,12.24,0,0,0,3.57-9.16V349.43h7.49v32.76a4.45,4.45,0,0,0,1.18,3.23A4.33,4.33,0,0,0,1191,386.64Z"/><path d="M1240.51,386.64h.79v7.23H1239q-5.05,0-7.76-2.62t-2.7-7.49v-15a13,13,0,0,0-3.53-9.54,12.6,12.6,0,0,0-9.45-3.62,13.49,13.49,0,0,0-9.85,3.66A12.91,12.91,0,0,0,1202,369v24.92h-7.5V349.43h7.5v7.14q5.31-8.19,16-8.19,8.1,0,13.07,4.92t5,13.12v15.77a4.19,4.19,0,0,0,4.44,4.45Z"/><path d="M1292.27,386.64h.87v7.23h-2.35a11,11,0,0,1-7.28-2.22,9.22,9.22,0,0,1-3.09-6.41,20.16,20.16,0,0,1-7.32,7.1,19.88,19.88,0,0,1-10,2.57,21,21,0,0,1-15.86-6.66,24.84,24.84,0,0,1,0-33.2,21,21,0,0,1,15.86-6.67,20,20,0,0,1,17.25,9.5V331.13h7.5v51.06a4.19,4.19,0,0,0,4.44,4.45Zm-27.8,1a15.29,15.29,0,0,0,11.33-4.57,16.76,16.76,0,0,0,0-22.92,16.4,16.4,0,0,0-22.74,0,16.76,16.76,0,0,0,0,22.92A15.38,15.38,0,0,0,1264.47,387.68Z"/><path d="M1345,386.64h.87v7.23h-2.35a11,11,0,0,1-7.28-2.22,9.22,9.22,0,0,1-3.09-6.41,20.16,20.16,0,0,1-7.32,7.1,19.88,19.88,0,0,1-10,2.57,21,21,0,0,1-15.86-6.66,24.84,24.84,0,0,1,0-33.2,21,21,0,0,1,15.86-6.67,20,20,0,0,1,17.25,9.5v-8.45h7.49v32.76a4.19,4.19,0,0,0,4.45,4.45Zm-27.8,1a15.29,15.29,0,0,0,11.33-4.57,16.76,16.76,0,0,0,0-22.92,16.4,16.4,0,0,0-22.74,0,16.73,16.73,0,0,0,0,22.92A15.38,15.38,0,0,0,1317.19,387.68Z"/><path d="M1356.05,357.79q5.58-9.06,16-9.06v7.75q-7.41,0-11.68,4.1t-4.27,11v22.31h-7.49V349.43h7.49Z"/><path d="M1379.58,340.54a4.91,4.91,0,0,1-3.62-1.44,5.12,5.12,0,0,1,0-7.1,5,5,0,0,1,3.62-1.4,4.87,4.87,0,0,1,3.53,1.4,5,5,0,0,1-3.53,8.54Zm-3.75,53.33V349.43h7.5v44.44Z"/><path d="M1435.26,371.65c0,.93-.06,2-.17,3.13h-39a15.29,15.29,0,0,0,5.31,9.59A16,16,0,0,0,1412,388a17.64,17.64,0,0,0,8.4-2,13.63,13.63,0,0,0,5.71-5.4h8.37a21.91,21.91,0,0,1-8.72,10.37,25,25,0,0,1-13.85,3.92,23.4,23.4,0,0,1-17.08-6.66,23.71,23.71,0,0,1,0-33.2,24.64,24.64,0,0,1,33.72,0A22.37,22.37,0,0,1,1435.26,371.65Zm-13.37-12.81a15.56,15.56,0,0,0-10.24-3.57,15.31,15.31,0,0,0-10.15,3.52,15.62,15.62,0,0,0-5.36,9.28h31.11A15.23,15.23,0,0,0,1421.89,358.84Z"/><path d="M1453.12,394.91a17.65,17.65,0,0,1-11.8-3.92,12.23,12.23,0,0,1-4.66-9.76h7.66a6,6,0,0,0,2.62,4.88,10.83,10.83,0,0,0,12.11.31,5.16,5.16,0,0,0,2.44-4.4q0-5.24-10.28-7.41-13.86-3.14-13.86-13.16a11.56,11.56,0,0,1,4.49-9.45,17,17,0,0,1,11-3.62,16.59,16.59,0,0,1,11.16,3.79,11.85,11.85,0,0,1,4.44,9.37h-7.67a5.62,5.62,0,0,0-2.31-4.49,8.75,8.75,0,0,0-5.7-1.87,9.12,9.12,0,0,0-5.45,1.65,4.91,4.91,0,0,0-2.31,4.1q0,5.06,10.2,7.23,13.93,3.13,13.94,13.25a11.94,11.94,0,0,1-4.62,9.8A17.66,17.66,0,0,1,1453.12,394.91Z"/></svg>