<svg width="144" height="144" viewBox="0 0 144 144" fill="none" xmlns="http://www.w3.org/2000/svg">
<path d="M73.872 134.928L64.8 144L54 133.2L43.2 144L32.4 133.2L21.6 144L10.8 133.2L0 144V0L10.8 10.8L21.6 0L32.4 10.8L43.2 0L54 10.8L64.8 0L75.6 10.8L86.4 0L97.2 10.8L108 0L118.8 10.8L129.6 0V81.72C125.064 80.136 120.24 79.2 115.2 79.2V21.6H14.4V122.4H72C72 126.504 72.72 131.184 73.872 134.928ZM21.6 93.6V108H74.52C76.392 102.6 79.2 97.776 83.088 93.6H21.6ZM21.6 79.2H108V64.8H21.6V79.2ZM21.6 50.4H108V36H21.6V50.4ZM144 109.656L135.648 99.504L109.8 125.352L98.352 113.904L90 122.4L109.8 144" fill="white"/>
</svg>
