<svg width="127" height="167" viewBox="0 0 127 167" fill="none" xmlns="http://www.w3.org/2000/svg">
<path d="M104.612 6.27783H22.3893C13.8749 6.27783 6.97266 13.1801 6.97266 21.6945V145.028C6.97266 153.542 13.8749 160.444 22.3893 160.444H104.612C113.126 160.444 120.028 153.542 120.028 145.028V21.6945C120.028 13.1801 113.126 6.27783 104.612 6.27783Z" stroke="white" stroke-width="12"/>
<path d="M42.9437 83.3611L84.0548 42.25" stroke="white" stroke-width="10" stroke-linecap="round"/>
<path d="M48.0826 52.5278C50.9207 52.5278 53.2214 50.227 53.2214 47.3889C53.2214 44.5508 50.9207 42.25 48.0826 42.25C45.2444 42.25 42.9437 44.5508 42.9437 47.3889C42.9437 50.227 45.2444 52.5278 48.0826 52.5278Z" stroke="white" stroke-width="6.25"/>
<path d="M78.9168 83.361C81.7549 83.361 84.0557 81.0603 84.0557 78.2221C84.0557 75.384 81.7549 73.0833 78.9168 73.0833C76.0787 73.0833 73.7779 75.384 73.7779 78.2221C73.7779 81.0603 76.0787 83.361 78.9168 83.361Z" stroke="white" stroke-width="6.25"/>
<path d="M32.6661 114.194H94.3327M32.6661 134.749H94.3327" stroke="white" stroke-width="9" stroke-linecap="round"/>
</svg>
