<svg width="121" height="147" viewBox="0 0 121 147" fill="none" xmlns="http://www.w3.org/2000/svg">
<path d="M0 36.75V22.05H13.4444V14.7C13.4444 6.5415 19.4944 0 26.8889 0H67.2222V51.45L84.0278 40.425L100.833 51.45V0H107.556C114.614 0 121 6.9825 121 14.7V132.3C121 140.018 114.614 147 107.556 147H26.8889C19.8306 147 13.4444 140.018 13.4444 132.3V124.95H0V110.25H13.4444V80.85H0V66.15H13.4444V36.75H0ZM26.8889 66.15H13.4444V80.85H26.8889V66.15ZM26.8889 36.75V22.05H13.4444V36.75H26.8889ZM26.8889 124.95V110.25H13.4444V124.95H26.8889Z" fill="white"/>
</svg>
