<svg width="144" height="138" viewBox="0 0 144 138" fill="none" xmlns="http://www.w3.org/2000/svg">
<path d="M140.788 57.0338C126.053 69.5742 103.985 67.5904 91.625 52.6411C79.1947 37.6211 81.15 15.1618 95.8848 2.76313L99.4463 0.0708494C87.6445 12.9654 86.8763 33.0867 98.329 47.044C109.712 60.7888 129.405 63.4811 144 53.9164L140.788 57.0338ZM128.357 86.0112C106.22 104.928 73.189 102.023 54.6133 79.4931C35.9678 57.0338 38.9008 23.522 61.038 4.53436L67.4627 0C50.563 19.3419 49.725 48.8861 66.6247 69.2908C83.5243 89.5537 112.296 94.0172 134.014 80.485L128.357 86.0112ZM120.466 120.586C89.4602 147.013 43.1607 142.903 17.1128 111.375C-8.86518 79.9182 -4.81485 32.8741 26.1912 6.589L33.9427 0.991893C9.43115 27.9147 7.89482 69.9284 31.8477 98.9058C55.8005 127.812 96.8625 133.622 127.38 113.855L120.466 120.586Z" fill="white"/>
</svg>
