<svg width="174" height="174" viewBox="0 0 174 174" fill="none" xmlns="http://www.w3.org/2000/svg">
<path d="M134.857 82.8571V88.8571H140.857H153.286C157.188 88.8571 160.931 90.4074 163.69 93.1669C166.45 95.9263 168 99.669 168 103.571C168 107.474 166.45 111.217 163.69 113.976C160.931 116.735 157.188 118.286 153.286 118.286H140.857H134.857V124.286V157.429C134.857 160.232 133.743 162.921 131.761 164.904C129.778 166.886 127.089 168 124.286 168H98.8V161.571C98.8 145.829 86.1709 133.2 70.4286 133.2C54.6863 133.2 42.0571 145.829 42.0571 161.571V168H16.5714C13.7677 168 11.0788 166.886 9.0963 164.904C7.11377 162.921 6 160.232 6 157.429V131.943H12.4286C28.1709 131.943 40.8 119.314 40.8 103.571C40.8 87.8291 28.1709 75.2 12.4286 75.2H6V49.7143C6 46.9106 7.11377 44.2217 9.0963 42.2392C11.0788 40.2566 13.7677 39.1429 16.5714 39.1429H49.7143H55.7143V33.1429V20.7143C55.7143 16.8118 57.2645 13.0692 60.024 10.3097C62.7835 7.55025 66.5261 6 70.4286 6C74.331 6 78.0737 7.55025 80.8331 10.3097C83.5926 13.0692 85.1429 16.8118 85.1429 20.7143V33.1429V39.1429H91.1429H124.286C130.106 39.1429 134.857 43.8504 134.857 49.7143V82.8571Z" stroke="white" stroke-width="12"/>
</svg>
