<svg width="9" height="9" viewBox="0 0 9 9" fill="none" xmlns="http://www.w3.org/2000/svg">
<path fill-rule="evenodd" clip-rule="evenodd" d="M6.16193 0.970714H8.3163C8.63768 0.970714 8.90432 1.22014 8.98547 1.55764C9.00705 1.64893 9.01027 1.72543 8.9552 1.80675C8.92896 1.84619 8.89335 1.87854 8.85155 1.90092C8.80974 1.9233 8.76305 1.935 8.71561 1.935H8.68985V9H0.317112V1.935H0.284909C0.236382 1.93494 0.188655 1.92266 0.146153 1.89928C0.10365 1.87591 0.067749 1.8422 0.0417776 1.80129C-0.0129672 1.71643 -0.00588258 1.63414 0.0176255 1.54029C0.0990986 1.21146 0.362196 0.970714 0.677784 0.970714H2.83215C2.99894 0.676474 3.24089 0.431621 3.53335 0.2611C3.82582 0.0905802 4.15834 0.000487206 4.49704 0C4.83574 0.000487206 5.16826 0.0905802 5.46072 0.2611C5.75319 0.431621 5.99514 0.676474 6.16193 0.970714ZM2.57131 8.87786C2.57131 8.76857 2.66148 8.67857 2.77129 8.67857H2.89334V1.935H2.57131V8.87786ZM6.23567 8.67857H6.11362V1.935H6.43565V8.87786C6.43565 8.76857 6.34548 8.67857 6.23567 8.67857ZM4.50026 0.321429H4.50187C4.50133 0.321428 4.5008 0.321428 4.50026 0.321429ZM1.2832 6.2055V6.97146C1.2832 7.02611 1.23811 7.07143 1.18015 7.07143H0.738969C0.684224 7.07143 0.63914 7.02643 0.63914 6.97179V6.2055C0.63914 6.15086 0.684224 6.10586 0.738969 6.10586H1.18337C1.23811 6.10586 1.2832 6.15086 1.2832 6.2055ZM2.24928 6.2055V6.97146C2.24928 7.02611 2.2042 7.07143 2.14623 7.07143H1.70505C1.65031 7.07143 1.60522 7.02643 1.60522 6.97179V6.2055C1.60522 6.15086 1.65031 6.10586 1.70505 6.10586H2.14945C2.2042 6.10586 2.24928 6.15086 2.24928 6.2055ZM1.2832 4.59579V5.36207C1.2832 5.41671 1.23811 5.46171 1.18015 5.46171H0.738969C0.684224 5.46171 0.63914 5.41671 0.63914 5.36207V4.59579C0.63914 4.54114 0.684224 4.49614 0.738969 4.49614H1.18337C1.23811 4.49614 1.2832 4.54114 1.2832 4.59579ZM2.24928 4.59579V5.36207C2.24928 5.41671 2.2042 5.46171 2.14623 5.46171H1.70505C1.65031 5.46171 1.60522 5.41671 1.60522 5.36207V4.59579C1.60522 4.54114 1.65031 4.49614 1.70505 4.49614H2.14945C2.2042 4.49614 2.24928 4.54114 2.24928 4.59579ZM1.2832 2.99282V3.75879C1.2832 3.81343 1.23811 3.85843 1.18015 3.85843H0.738969C0.684224 3.85843 0.63914 3.81343 0.63914 3.75879V2.9925C0.63914 2.93786 0.684224 2.89286 0.738969 2.89286H1.18337C1.23811 2.89286 1.2832 2.93818 1.2832 2.99282ZM2.24928 2.9925V3.75846C2.24928 3.81311 2.2042 3.85811 2.14623 3.85811H1.70505C1.65031 3.85811 1.60522 3.81311 1.60522 3.75846V2.9925C1.60522 2.93786 1.65031 2.89286 1.70505 2.89286H2.14945C2.2042 2.89286 2.24928 2.93786 2.24928 2.9925ZM7.3998 6.20518V6.97114C7.3998 7.02579 7.35472 7.07111 7.29997 7.07111H6.85751C6.83103 7.07102 6.80565 7.06051 6.7869 7.04185C6.76814 7.02319 6.75753 6.99789 6.75736 6.97146V6.20518C6.75736 6.15054 6.80244 6.10554 6.85718 6.10554H7.29933C7.35407 6.10554 7.3998 6.15054 7.3998 6.20518ZM8.3675 6.20518V6.97114C8.3675 7.02579 8.32241 7.07111 8.26767 7.07111H7.82552C7.79904 7.07102 7.77367 7.06051 7.75491 7.04185C7.73616 7.02319 7.72554 6.99789 7.72537 6.97146V6.20518C7.72537 6.15054 7.77046 6.10554 7.8252 6.10554H8.26735C8.32209 6.10554 8.3675 6.15054 8.3675 6.20518ZM7.39948 4.59546V5.36175C7.39948 5.41639 7.3544 5.46139 7.29965 5.46139H6.85751C6.83103 5.46131 6.80565 5.45079 6.7869 5.43213C6.76814 5.41348 6.75753 5.38818 6.75736 5.36175V4.59546C6.75736 4.54082 6.80244 4.49582 6.85718 4.49582H7.29933C7.35407 4.49582 7.39948 4.54082 7.39948 4.59546ZM8.3675 4.59546V5.36175C8.3675 5.41639 8.32241 5.46139 8.26767 5.46139H7.82552C7.79904 5.46131 7.77367 5.45079 7.75491 5.43213C7.73616 5.41348 7.72554 5.38818 7.72537 5.36175V4.59546C7.72537 4.54082 7.77046 4.49582 7.8252 4.49582H8.26735C8.32209 4.49582 8.3675 4.54082 8.3675 4.59546ZM7.39948 2.9925V3.75846C7.39948 3.81311 7.3544 3.85811 7.29965 3.85811H6.85751C6.83103 3.85802 6.80565 3.84751 6.7869 3.82885C6.76814 3.81019 6.75753 3.78489 6.75736 3.75846V2.9925C6.75736 2.93786 6.80244 2.89286 6.85718 2.89286H7.29933C7.35407 2.89286 7.39948 2.93786 7.39948 2.9925ZM8.3675 2.9925V3.75846C8.3675 3.81311 8.32241 3.85811 8.26767 3.85811H7.82552C7.79904 3.85802 7.77367 3.84751 7.75491 3.82885C7.73616 3.81019 7.72554 3.78489 7.72537 3.75846V2.9925C7.72537 2.93786 7.77046 2.89286 7.8252 2.89286H8.26735C8.32209 2.89286 8.3675 2.93786 8.3675 2.9925ZM4.18145 3.63536V4.40036C4.18145 4.455 4.13637 4.5 4.08098 4.5H3.63787C3.61133 4.5 3.58587 4.48952 3.56705 4.47085C3.54823 4.45219 3.53756 4.42684 3.53739 4.40036V3.63536C3.53739 3.58071 3.58248 3.53571 3.63787 3.53571H4.08098C4.13605 3.53571 4.18145 3.58071 4.18145 3.63536ZM4.22557 8.03571H3.65429C3.63877 8.03563 3.62343 8.03248 3.60913 8.02645C3.59484 8.02041 3.58189 8.01161 3.57102 8.00056C3.56015 7.9895 3.55159 7.97641 3.54582 7.96203C3.54004 7.94765 3.53718 7.93227 3.53739 7.91679V6.42921H4.34247V7.91711C4.34247 7.98461 4.28869 8.03571 4.22557 8.03571ZM4.66449 6.10779V6.10714H4.34247V6.10779H3.53739V6.10714H3.20055C3.18142 6.10731 3.16243 6.1037 3.1447 6.0965C3.12697 6.08931 3.11084 6.07868 3.09725 6.06524C3.08366 6.05179 3.07287 6.03578 3.06551 6.01815C3.05814 6.00052 3.05435 5.9816 3.05435 5.9625C3.05435 5.93679 3.06401 5.91429 3.07367 5.895C3.07561 5.89307 3.07657 5.89243 3.07689 5.89146V5.88857C3.22384 5.64067 3.433 5.43528 3.68374 5.29268C3.93447 5.15007 4.21812 5.07517 4.5067 5.07536C4.79528 5.07517 5.07893 5.15007 5.32966 5.29268C5.5804 5.43528 5.78956 5.64067 5.93651 5.88857C5.93812 5.89018 5.93812 5.89243 5.93812 5.895C5.93812 5.89757 5.93812 5.89982 5.93973 5.90143C5.94939 5.9175 5.95261 5.94 5.95261 5.9625C5.95261 5.9816 5.94882 6.00052 5.94145 6.01815C5.93409 6.03578 5.9233 6.05179 5.90971 6.06524C5.89612 6.07868 5.87999 6.08931 5.86226 6.0965C5.84453 6.1037 5.82554 6.10731 5.80641 6.10714H5.46956V6.10779H4.66449ZM4.66449 6.42921V7.91711C4.66449 7.98461 4.71827 8.03571 4.78139 8.03571H5.35267C5.41579 8.03571 5.46956 7.98429 5.46956 7.91679V6.42921H4.66449ZM5.46956 4.40036V3.63536C5.46956 3.58071 5.42448 3.53571 5.36909 3.53571H4.92598C4.89947 3.5358 4.87406 3.5463 4.85526 3.56495C4.83645 3.5836 4.82576 3.6089 4.82551 3.63536V4.40036C4.82551 4.455 4.87059 4.5 4.92598 4.5H5.36909C5.42416 4.5 5.46956 4.455 5.46956 4.40036ZM4.99006 1.28571H4.98362C4.94189 1.28588 4.90192 1.30255 4.87246 1.33207C4.84301 1.36159 4.82647 1.40155 4.82647 1.44321V1.92857H4.18081V1.44321C4.18081 1.40144 4.16418 1.36138 4.13459 1.33184C4.105 1.30231 4.06486 1.28571 4.02301 1.28571H4.01657C3.97484 1.28588 3.93486 1.30255 3.90541 1.33207C3.87596 1.36159 3.85942 1.40155 3.85942 1.44321V2.73536C3.85942 2.82214 3.93027 2.89286 4.0169 2.89286H4.02334C4.06513 2.89277 4.10518 2.87614 4.1347 2.84661C4.16423 2.81709 4.18081 2.77707 4.18081 2.73536V2.25321H4.82647V2.73536C4.82647 2.82214 4.897 2.89286 4.98362 2.89286H4.99006C5.03186 2.89277 5.07191 2.87614 5.10143 2.84661C5.13096 2.81709 5.14754 2.77707 5.14754 2.73536V1.44321C5.14754 1.4015 5.13096 1.36149 5.10143 1.33196C5.07191 1.30243 5.03186 1.2858 4.99006 1.28571Z" fill="#EC5B0A"/>
</svg>
