<svg width="23" height="23" viewBox="0 0 23 23" fill="none" xmlns="http://www.w3.org/2000/svg">
<path fill-rule="evenodd" clip-rule="evenodd" d="M15.7471 2.48071H21.2528C22.0741 2.48071 22.7555 3.11814 22.9629 3.98064C23.018 4.21393 23.0262 4.40943 22.8855 4.61725C22.8185 4.71805 22.7275 4.80072 22.6206 4.85791C22.5138 4.91509 22.3944 4.94501 22.2732 4.945H22.2074V23H0.810397V4.945H0.728101C0.604088 4.94486 0.482118 4.91346 0.373501 4.85373C0.264884 4.79399 0.173136 4.70785 0.106765 4.60329C-0.0331384 4.38643 -0.0150333 4.17614 0.0450429 3.93629C0.253252 3.09596 0.925611 2.48071 1.73211 2.48071H7.23772C7.66396 1.72877 8.28228 1.10303 9.02968 0.667257C9.77709 0.231483 10.6269 0.00124508 11.4924 0C12.358 0.00124508 13.2078 0.231483 13.9552 0.667257C14.7026 1.10303 15.3209 1.72877 15.7471 2.48071ZM6.57113 22.6879C6.57113 22.4086 6.80156 22.1786 7.08218 22.1786H7.39409V4.945H6.57113V22.6879ZM15.9356 22.1786H15.6237V4.945H16.4467V22.6879C16.4467 22.4086 16.2162 22.1786 15.9356 22.1786ZM11.5007 0.821429H11.5048C11.5034 0.821428 11.502 0.821428 11.5007 0.821429ZM3.27928 15.8585V17.816C3.27928 17.9556 3.16407 18.0714 3.01593 18.0714H1.88848C1.74857 18.0714 1.63336 17.9564 1.63336 17.8168V15.8585C1.63336 15.7189 1.74857 15.6039 1.88848 15.6039H3.02416C3.16407 15.6039 3.27928 15.7189 3.27928 15.8585ZM5.74816 15.8585V17.816C5.74816 17.9556 5.63295 18.0714 5.48482 18.0714H4.35736C4.21746 18.0714 4.10224 17.9564 4.10224 17.8168V15.8585C4.10224 15.7189 4.21746 15.6039 4.35736 15.6039H5.49305C5.63295 15.6039 5.74816 15.7189 5.74816 15.8585ZM3.27928 11.7448V13.7031C3.27928 13.8427 3.16407 13.9577 3.01593 13.9577H1.88848C1.74857 13.9577 1.63336 13.8427 1.63336 13.7031V11.7448C1.63336 11.6051 1.74857 11.4901 1.88848 11.4901H3.02416C3.16407 11.4901 3.27928 11.6051 3.27928 11.7448ZM5.74816 11.7448V13.7031C5.74816 13.8427 5.63295 13.9577 5.48482 13.9577H4.35736C4.21746 13.9577 4.10224 13.8427 4.10224 13.7031V11.7448C4.10224 11.6051 4.21746 11.4901 4.35736 11.4901H5.49305C5.63295 11.4901 5.74816 11.6051 5.74816 11.7448ZM3.27928 7.64832V9.60579C3.27928 9.74543 3.16407 9.86043 3.01593 9.86043H1.88848C1.74857 9.86043 1.63336 9.74543 1.63336 9.60579V7.6475C1.63336 7.50786 1.74857 7.39286 1.88848 7.39286H3.02416C3.16407 7.39286 3.27928 7.50868 3.27928 7.64832ZM5.74816 7.6475V9.60496C5.74816 9.74461 5.63295 9.85961 5.48482 9.85961H4.35736C4.21746 9.85961 4.10224 9.74461 4.10224 9.60496V7.6475C4.10224 7.50786 4.21746 7.39286 4.35736 7.39286H5.49305C5.63295 7.39286 5.74816 7.50786 5.74816 7.6475ZM18.9106 15.8577V17.8151C18.9106 17.9548 18.7954 18.0706 18.6555 18.0706H17.5247C17.4571 18.0704 17.3922 18.0435 17.3443 17.9958C17.2964 17.9482 17.2692 17.8835 17.2688 17.816V15.8577C17.2688 15.718 17.384 15.603 17.5239 15.603H18.6538C18.7937 15.603 18.9106 15.718 18.9106 15.8577ZM21.3836 15.8577V17.8151C21.3836 17.9548 21.2684 18.0706 21.1285 18.0706H19.9986C19.9309 18.0704 19.866 18.0435 19.8181 17.9958C19.7702 17.9482 19.7431 17.8835 19.7426 17.816V15.8577C19.7426 15.718 19.8578 15.603 19.9977 15.603H21.1277C21.2676 15.603 21.3836 15.718 21.3836 15.8577ZM18.9098 11.744V13.7023C18.9098 13.8419 18.7946 13.9569 18.6547 13.9569H17.5247C17.4571 13.9567 17.3922 13.9298 17.3443 13.8821C17.2964 13.8344 17.2692 13.7698 17.2688 13.7023V11.744C17.2688 11.6043 17.384 11.4893 17.5239 11.4893H18.6538C18.7937 11.4893 18.9098 11.6043 18.9098 11.744ZM21.3836 11.744V13.7023C21.3836 13.8419 21.2684 13.9569 21.1285 13.9569H19.9986C19.9309 13.9567 19.866 13.9298 19.8181 13.8821C19.7702 13.8344 19.7431 13.7698 19.7426 13.7023V11.744C19.7426 11.6043 19.8578 11.4893 19.9977 11.4893H21.1277C21.2676 11.4893 21.3836 11.6043 21.3836 11.744ZM18.9098 7.6475V9.60496C18.9098 9.74461 18.7946 9.85961 18.6547 9.85961H17.5247C17.4571 9.85939 17.3922 9.83252 17.3443 9.78484C17.2964 9.73715 17.2692 9.67251 17.2688 9.60496V7.6475C17.2688 7.50786 17.384 7.39286 17.5239 7.39286H18.6538C18.7937 7.39286 18.9098 7.50786 18.9098 7.6475ZM21.3836 7.6475V9.60496C21.3836 9.74461 21.2684 9.85961 21.1285 9.85961H19.9986C19.9309 9.85939 19.866 9.83252 19.8181 9.78484C19.7702 9.73715 19.7431 9.67251 19.7426 9.60496V7.6475C19.7426 7.50786 19.8578 7.39286 19.9977 7.39286H21.1277C21.2676 7.39286 21.3836 7.50786 21.3836 7.6475ZM10.6859 9.29036V11.2454C10.6859 11.385 10.5707 11.5 10.4292 11.5H9.29677C9.22896 11.5 9.1639 11.4732 9.11579 11.4255C9.06769 11.3778 9.04044 11.313 9.04001 11.2454V9.29036C9.04001 9.15071 9.15522 9.03571 9.29677 9.03571H10.4292C10.5699 9.03571 10.6859 9.15071 10.6859 9.29036ZM10.7987 20.5357H9.33874C9.29909 20.5355 9.25987 20.5275 9.22334 20.512C9.18682 20.4966 9.15372 20.4741 9.12594 20.4459C9.09817 20.4176 9.07628 20.3841 9.06153 20.3474C9.04678 20.3107 9.03947 20.2714 9.04001 20.2318V16.4302H11.0974V20.2326C11.0974 20.4051 10.96 20.5357 10.7987 20.5357ZM11.9204 15.6088V15.6071H11.0974V15.6088H9.04001V15.6071H8.17919C8.13028 15.6076 8.08177 15.5983 8.03646 15.58C7.99115 15.5616 7.94993 15.5344 7.9152 15.5C7.88046 15.4657 7.85289 15.4248 7.83407 15.3797C7.81525 15.3347 7.80557 15.2863 7.80557 15.2375C7.80557 15.1718 7.83026 15.1143 7.85495 15.065C7.85988 15.0601 7.86235 15.0584 7.86317 15.056V15.0486C8.23872 14.415 8.77323 13.8902 9.41399 13.5257C10.0548 13.1613 10.7796 12.9699 11.5171 12.9704C12.2546 12.9699 12.9795 13.1613 13.6203 13.5257C14.261 13.8902 14.7955 14.415 15.1711 15.0486C15.1752 15.0527 15.1752 15.0584 15.1752 15.065C15.1752 15.0716 15.1752 15.0773 15.1793 15.0814C15.204 15.1225 15.2122 15.18 15.2122 15.2375C15.2122 15.2863 15.2025 15.3347 15.1837 15.3797C15.1649 15.4248 15.1373 15.4657 15.1026 15.5C15.0679 15.5344 15.0266 15.5616 14.9813 15.58C14.936 15.5983 14.8875 15.6076 14.8386 15.6071H13.9778V15.6088H11.9204ZM11.9204 16.4302V20.2326C11.9204 20.4051 12.0578 20.5357 12.2191 20.5357H13.679C13.8403 20.5357 13.9778 20.4043 13.9778 20.2318V16.4302H11.9204ZM13.9778 11.2454V9.29036C13.9778 9.15071 13.8626 9.03571 13.721 9.03571H12.5886C12.5209 9.03593 12.4559 9.06277 12.4079 9.11043C12.3598 9.1581 12.3325 9.22274 12.3319 9.29036V11.2454C12.3319 11.385 12.4471 11.5 12.5886 11.5H13.721C13.8617 11.5 13.9778 11.385 13.9778 11.2454ZM12.7524 3.28571H12.7359C12.6293 3.28615 12.5271 3.32875 12.4518 3.40418C12.3766 3.47962 12.3343 3.58175 12.3343 3.68821V4.92857H10.6843V3.68821C10.6843 3.58146 10.6418 3.47909 10.5662 3.4036C10.4906 3.32812 10.388 3.28571 10.281 3.28571H10.2646C10.1579 3.28615 10.0558 3.32875 9.9805 3.40418C9.90523 3.47962 9.86297 3.58175 9.86297 3.68821V6.99036C9.86297 7.21214 10.044 7.39286 10.2654 7.39286H10.2819C10.3887 7.39264 10.491 7.35014 10.5665 7.27468C10.6419 7.19922 10.6843 7.09696 10.6843 6.99036V5.75821H12.3343V6.99036C12.3343 7.21214 12.5146 7.39286 12.7359 7.39286H12.7524C12.8592 7.39264 12.9616 7.35014 13.037 7.27468C13.1124 7.19922 13.1548 7.09696 13.1548 6.99036V3.68821C13.1548 3.58161 13.1124 3.47935 13.037 3.40389C12.9616 3.32843 12.8592 3.28593 12.7524 3.28571Z" fill="#EC5B0A"/>
</svg>
