<svg width="68" height="24" viewBox="0 0 68 24" fill="none" xmlns="http://www.w3.org/2000/svg">
<rect x="12" y="3" width="56" height="17" rx="8.5" fill="black"/>
<g clip-path="url(#clip0_5955_174)">
<path d="M0.512212 11.8563C0.511649 13.8728 1.04265 15.8417 2.05234 17.5771L0.415649 23.5066L6.53115 21.9156C8.22262 22.8292 10.1178 23.308 12.0437 23.3081H12.0487C18.4064 23.3081 23.5817 18.1748 23.5844 11.8653C23.5856 8.80792 22.3867 5.93295 20.2085 3.76997C18.0307 1.60718 15.1343 0.415458 12.0482 0.414062C5.68984 0.414062 0.514837 5.54709 0.512212 11.8563Z" fill="#40C351"/>
<path d="M0.100313 11.8527C0.0996563 13.9417 0.649687 15.981 1.69537 17.7786L0 23.9207L6.33478 22.2726C8.08022 23.2168 10.0454 23.7147 12.0451 23.7154H12.0502C18.636 23.7154 23.9972 18.3975 24 11.8621C24.0011 8.69488 22.7591 5.71656 20.5031 3.47609C18.2468 1.23591 15.2468 0.00130233 12.0502 0C5.46337 0 0.102938 5.31721 0.100313 11.8527ZM3.87291 17.469L3.63637 17.0965C2.64206 15.5277 2.11725 13.7149 2.118 11.8534C2.12006 6.4213 6.57544 2.00186 12.054 2.00186C14.7071 2.00298 17.2005 3.02921 19.0759 4.89116C20.9512 6.7533 21.9831 9.22865 21.9824 11.8614C21.98 17.2935 17.5245 21.7135 12.0502 21.7135H12.0463C10.2638 21.7126 8.51569 21.2376 6.99112 20.34L6.62831 20.1265L2.86913 21.1045L3.87291 17.469Z" fill="url(#paint0_linear_5955_174)"/>
<path d="M9.06358 6.89746C8.8399 6.40416 8.60449 6.39421 8.39177 6.38556C8.21758 6.37811 8.01846 6.37867 7.81952 6.37867C7.6204 6.37867 7.29687 6.453 7.0234 6.74928C6.74965 7.04583 5.97827 7.76249 5.97827 9.22007C5.97827 10.6776 7.04824 12.0864 7.1974 12.2843C7.34674 12.4817 9.26299 15.5686 12.2979 16.7562C14.8201 17.743 15.3334 17.5468 15.8808 17.4973C16.4283 17.448 17.6474 16.7808 17.8961 16.089C18.1451 15.3973 18.1451 14.8043 18.0704 14.6804C17.9958 14.557 17.7967 14.4829 17.4981 14.3348C17.1995 14.1867 15.7315 13.4698 15.4578 13.371C15.1841 13.2722 14.985 13.2229 14.7859 13.5195C14.5868 13.8157 14.015 14.4829 13.8407 14.6804C13.6666 14.8785 13.4923 14.9031 13.1938 14.755C12.8951 14.6063 11.9335 14.2938 10.7926 13.2846C9.90499 12.4993 9.30574 11.5296 9.13155 11.2329C8.95737 10.9367 9.1129 10.7762 9.26262 10.6285C9.39677 10.4958 9.5613 10.2826 9.71074 10.1096C9.85962 9.93663 9.9093 9.81318 10.0089 9.6156C10.1085 9.41783 10.0586 9.24481 9.98412 9.09663C9.9093 8.94844 9.32908 7.48323 9.06358 6.89746Z" fill="white"/>
</g>
<path d="M28.6987 10.0464L29.6899 6.02344H30.2266L30.2607 6.87109L29.2012 11H28.6338L28.6987 10.0464ZM28.0732 6.02344L28.8867 10.0327V11H28.2681L27.1401 6.02344H28.0732ZM31.2896 10.0156L32.0894 6.02344H33.0259L31.8979 11H31.2793L31.2896 10.0156ZM30.4829 6.02344L31.4741 10.0601L31.5322 11H30.9648L29.9087 6.86768L29.9497 6.02344H30.4829ZM34.4375 5.75V11H33.5317V5.75H34.4375ZM34.2939 9.01758H34.0273C34.0273 8.76009 34.0615 8.52311 34.1299 8.30664C34.1982 8.09017 34.2951 7.90218 34.4204 7.74268C34.5457 7.58089 34.695 7.45557 34.8682 7.3667C35.0436 7.27783 35.2373 7.2334 35.4492 7.2334C35.6315 7.2334 35.7967 7.2596 35.9448 7.31201C36.0952 7.36214 36.224 7.44303 36.3311 7.55469C36.4382 7.66634 36.5202 7.81217 36.5771 7.99219C36.6364 8.16992 36.666 8.38639 36.666 8.6416V11H35.7568V8.63477C35.7568 8.46387 35.7318 8.32943 35.6816 8.23145C35.6315 8.13118 35.5597 8.05941 35.4663 8.01611C35.3752 7.97282 35.2624 7.95117 35.1279 7.95117C34.9821 7.95117 34.8568 7.97965 34.752 8.03662C34.6471 8.09131 34.5605 8.16764 34.4922 8.26562C34.4261 8.36361 34.376 8.4764 34.3418 8.604C34.3099 8.73161 34.2939 8.86947 34.2939 9.01758ZM39.4995 10.2139V8.5083C39.4995 8.38298 39.4779 8.27474 39.4346 8.18359C39.3913 8.09245 39.3252 8.02181 39.2363 7.97168C39.1475 7.92155 39.0347 7.89648 38.8979 7.89648C38.7772 7.89648 38.6712 7.91699 38.5801 7.95801C38.4912 7.99902 38.4229 8.05713 38.375 8.13232C38.3271 8.20524 38.3032 8.28955 38.3032 8.38525H37.3975C37.3975 8.23258 37.4339 8.08789 37.5068 7.95117C37.5798 7.81217 37.6834 7.68913 37.8179 7.58203C37.9546 7.47266 38.1175 7.38721 38.3066 7.32568C38.498 7.26416 38.7122 7.2334 38.9492 7.2334C39.2295 7.2334 39.479 7.28125 39.6978 7.37695C39.9188 7.47038 40.092 7.61165 40.2173 7.80078C40.3449 7.98991 40.4087 8.22803 40.4087 8.51514V10.1284C40.4087 10.313 40.4201 10.4714 40.4429 10.6035C40.4679 10.7334 40.5044 10.8462 40.5522 10.9419V11H39.6328C39.5895 10.9066 39.5565 10.7881 39.5337 10.6445C39.5109 10.4987 39.4995 10.3551 39.4995 10.2139ZM39.626 8.74756L39.6328 9.28418H39.062C38.9207 9.28418 38.7965 9.29899 38.6895 9.32861C38.5824 9.35596 38.4946 9.39697 38.4263 9.45166C38.3579 9.50407 38.3066 9.56787 38.2725 9.64307C38.2383 9.71598 38.2212 9.79915 38.2212 9.89258C38.2212 9.98372 38.2417 10.0658 38.2827 10.1387C38.326 10.2116 38.3875 10.2697 38.4673 10.313C38.5493 10.354 38.645 10.3745 38.7544 10.3745C38.9139 10.3745 39.0529 10.3426 39.1714 10.2788C39.2899 10.2127 39.3822 10.133 39.4482 10.0396C39.5143 9.94613 39.5496 9.85726 39.5542 9.77295L39.814 10.1626C39.7821 10.256 39.7342 10.3551 39.6704 10.46C39.6066 10.5648 39.5246 10.6628 39.4243 10.7539C39.3241 10.8451 39.2033 10.9202 39.062 10.9795C38.9207 11.0387 38.7567 11.0684 38.5698 11.0684C38.3306 11.0684 38.1164 11.0205 37.9272 10.9248C37.7381 10.8291 37.5889 10.6981 37.4795 10.5317C37.3701 10.3654 37.3154 10.1763 37.3154 9.96436C37.3154 9.76839 37.3519 9.59521 37.4248 9.44482C37.4977 9.29443 37.606 9.16797 37.7495 9.06543C37.8931 8.96061 38.0708 8.882 38.2827 8.82959C38.4969 8.7749 38.7419 8.74756 39.0176 8.74756H39.626ZM42.9722 7.30176V7.95117H40.853V7.30176H42.9722ZM41.4204 6.39258H42.3262V9.93359C42.3262 10.043 42.341 10.1273 42.3706 10.1865C42.4002 10.2458 42.4447 10.2856 42.5039 10.3062C42.5632 10.3267 42.6338 10.3369 42.7158 10.3369C42.7751 10.3369 42.8298 10.3335 42.8799 10.3267C42.93 10.3198 42.9722 10.313 43.0063 10.3062L43.0098 10.9829C42.9346 11.008 42.8491 11.0285 42.7534 11.0444C42.66 11.0604 42.554 11.0684 42.4355 11.0684C42.2327 11.0684 42.055 11.0342 41.9023 10.9658C41.7497 10.8952 41.6312 10.7824 41.5469 10.6274C41.4626 10.4702 41.4204 10.2629 41.4204 10.0054V6.39258ZM45.6074 9.98828C45.6074 9.91081 45.5869 9.84131 45.5459 9.77979C45.5049 9.71826 45.4274 9.66243 45.3135 9.6123C45.2018 9.5599 45.0378 9.5109 44.8213 9.46533C44.6299 9.42432 44.4533 9.37305 44.2915 9.31152C44.1297 9.25 43.9907 9.17594 43.8745 9.08936C43.7583 9.00049 43.6672 8.89681 43.6011 8.77832C43.5373 8.65755 43.5054 8.51855 43.5054 8.36133C43.5054 8.20866 43.5384 8.0651 43.6045 7.93066C43.6706 7.79395 43.7663 7.67432 43.8916 7.57178C44.0169 7.46696 44.1696 7.38493 44.3496 7.32568C44.5296 7.26416 44.7324 7.2334 44.958 7.2334C45.2725 7.2334 45.5425 7.28467 45.7681 7.38721C45.9959 7.48975 46.1702 7.63102 46.291 7.81104C46.4118 7.98877 46.4722 8.18929 46.4722 8.4126H45.5698C45.5698 8.31462 45.547 8.22575 45.5015 8.146C45.4582 8.06624 45.391 8.00244 45.2998 7.95459C45.2087 7.90446 45.0936 7.87939 44.9546 7.87939C44.8293 7.87939 44.7233 7.8999 44.6367 7.94092C44.5524 7.98193 44.4886 8.03548 44.4453 8.10156C44.402 8.16764 44.3804 8.24056 44.3804 8.32031C44.3804 8.37956 44.3918 8.43311 44.4146 8.48096C44.4396 8.52653 44.4795 8.56868 44.5342 8.60742C44.5889 8.64616 44.6629 8.68148 44.7563 8.71338C44.8521 8.74528 44.9694 8.77604 45.1084 8.80566C45.3841 8.86035 45.6245 8.93327 45.8296 9.02441C46.0369 9.11328 46.1987 9.23177 46.3149 9.37988C46.4312 9.52799 46.4893 9.71712 46.4893 9.94727C46.4893 10.1113 46.4539 10.2617 46.3833 10.3984C46.3127 10.5329 46.2101 10.6502 46.0757 10.7505C45.9412 10.8507 45.7806 10.9294 45.5938 10.9863C45.4069 11.041 45.1961 11.0684 44.9614 11.0684C44.6219 11.0684 44.3348 11.008 44.1001 10.8872C43.8654 10.7642 43.6877 10.6092 43.5669 10.4224C43.4461 10.2332 43.3857 10.0373 43.3857 9.83447H44.2505C44.2573 9.97803 44.2961 10.0931 44.3667 10.1797C44.4373 10.2663 44.5262 10.3289 44.6333 10.3677C44.7427 10.4041 44.8577 10.4224 44.9785 10.4224C45.1152 10.4224 45.2303 10.4041 45.3237 10.3677C45.4172 10.3289 45.4878 10.2777 45.5356 10.2139C45.5835 10.1478 45.6074 10.0726 45.6074 9.98828ZM49.2134 10.2139V8.5083C49.2134 8.38298 49.1917 8.27474 49.1484 8.18359C49.1051 8.09245 49.0391 8.02181 48.9502 7.97168C48.8613 7.92155 48.7485 7.89648 48.6118 7.89648C48.491 7.89648 48.3851 7.91699 48.2939 7.95801C48.2051 7.99902 48.1367 8.05713 48.0889 8.13232C48.041 8.20524 48.0171 8.28955 48.0171 8.38525H47.1113C47.1113 8.23258 47.1478 8.08789 47.2207 7.95117C47.2936 7.81217 47.3973 7.68913 47.5317 7.58203C47.6685 7.47266 47.8314 7.38721 48.0205 7.32568C48.2119 7.26416 48.4261 7.2334 48.6631 7.2334C48.9434 7.2334 49.1929 7.28125 49.4116 7.37695C49.6326 7.47038 49.8058 7.61165 49.9312 7.80078C50.0588 7.98991 50.1226 8.22803 50.1226 8.51514V10.1284C50.1226 10.313 50.134 10.4714 50.1567 10.6035C50.1818 10.7334 50.2183 10.8462 50.2661 10.9419V11H49.3467C49.3034 10.9066 49.2703 10.7881 49.2476 10.6445C49.2248 10.4987 49.2134 10.3551 49.2134 10.2139ZM49.3398 8.74756L49.3467 9.28418H48.7759C48.6346 9.28418 48.5104 9.29899 48.4033 9.32861C48.2962 9.35596 48.2085 9.39697 48.1401 9.45166C48.0718 9.50407 48.0205 9.56787 47.9863 9.64307C47.9521 9.71598 47.9351 9.79915 47.9351 9.89258C47.9351 9.98372 47.9556 10.0658 47.9966 10.1387C48.0399 10.2116 48.1014 10.2697 48.1812 10.313C48.2632 10.354 48.3589 10.3745 48.4683 10.3745C48.6278 10.3745 48.7668 10.3426 48.8853 10.2788C49.0037 10.2127 49.096 10.133 49.1621 10.0396C49.2282 9.94613 49.2635 9.85726 49.2681 9.77295L49.5278 10.1626C49.4959 10.256 49.4481 10.3551 49.3843 10.46C49.3205 10.5648 49.2384 10.6628 49.1382 10.7539C49.0379 10.8451 48.9172 10.9202 48.7759 10.9795C48.6346 11.0387 48.4705 11.0684 48.2837 11.0684C48.0444 11.0684 47.8302 11.0205 47.6411 10.9248C47.452 10.8291 47.3027 10.6981 47.1934 10.5317C47.084 10.3654 47.0293 10.1763 47.0293 9.96436C47.0293 9.76839 47.0658 9.59521 47.1387 9.44482C47.2116 9.29443 47.3198 9.16797 47.4634 9.06543C47.6069 8.96061 47.7847 8.882 47.9966 8.82959C48.2108 8.7749 48.4557 8.74756 48.7314 8.74756H49.3398ZM51.8384 8.0127V12.4219H50.9326V7.30176H51.77L51.8384 8.0127ZM54.2139 9.11328V9.18506C54.2139 9.45394 54.182 9.70345 54.1182 9.93359C54.0566 10.1615 53.9655 10.3608 53.8447 10.5317C53.724 10.7004 53.5736 10.8325 53.3936 10.9282C53.2158 11.0216 53.0107 11.0684 52.7783 11.0684C52.5505 11.0684 52.3522 11.0251 52.1836 10.9385C52.015 10.8496 51.8726 10.7243 51.7563 10.5625C51.6401 10.4007 51.5467 10.2127 51.4761 9.99854C51.4077 9.78206 51.3564 9.54622 51.3223 9.29102V9.06201C51.3564 8.79085 51.4077 8.54476 51.4761 8.32373C51.5467 8.10042 51.6401 7.90788 51.7563 7.74609C51.8726 7.58203 52.0138 7.45557 52.1802 7.3667C52.3488 7.27783 52.5459 7.2334 52.7715 7.2334C53.0062 7.2334 53.2124 7.27783 53.3901 7.3667C53.5701 7.45557 53.7217 7.58317 53.8447 7.74951C53.9678 7.91585 54.0601 8.1141 54.1216 8.34424C54.1831 8.57438 54.2139 8.83073 54.2139 9.11328ZM53.3081 9.18506V9.11328C53.3081 8.94922 53.2933 8.79769 53.2637 8.65869C53.234 8.51742 53.1885 8.39437 53.127 8.28955C53.0654 8.18245 52.9857 8.09928 52.8877 8.04004C52.7897 7.98079 52.6712 7.95117 52.5322 7.95117C52.3932 7.95117 52.2736 7.97396 52.1733 8.01953C52.0731 8.0651 51.991 8.13005 51.9272 8.21436C51.8634 8.29867 51.8133 8.39893 51.7769 8.51514C51.7427 8.62907 51.7199 8.75553 51.7085 8.89453V9.46191C51.729 9.63053 51.7689 9.78206 51.8281 9.9165C51.8874 10.0509 51.974 10.158 52.0879 10.2378C52.2041 10.3175 52.3545 10.3574 52.5391 10.3574C52.6781 10.3574 52.7965 10.3267 52.8945 10.2651C52.9925 10.2036 53.0723 10.1193 53.1338 10.0122C53.1953 9.90283 53.2397 9.77751 53.2671 9.63623C53.2944 9.49495 53.3081 9.34456 53.3081 9.18506ZM55.7759 8.0127V12.4219H54.8701V7.30176H55.7075L55.7759 8.0127ZM58.1514 9.11328V9.18506C58.1514 9.45394 58.1195 9.70345 58.0557 9.93359C57.9941 10.1615 57.903 10.3608 57.7822 10.5317C57.6615 10.7004 57.5111 10.8325 57.3311 10.9282C57.1533 11.0216 56.9482 11.0684 56.7158 11.0684C56.488 11.0684 56.2897 11.0251 56.1211 10.9385C55.9525 10.8496 55.8101 10.7243 55.6938 10.5625C55.5776 10.4007 55.4842 10.2127 55.4136 9.99854C55.3452 9.78206 55.2939 9.54622 55.2598 9.29102V9.06201C55.2939 8.79085 55.3452 8.54476 55.4136 8.32373C55.4842 8.10042 55.5776 7.90788 55.6938 7.74609C55.8101 7.58203 55.9513 7.45557 56.1177 7.3667C56.2863 7.27783 56.4834 7.2334 56.709 7.2334C56.9437 7.2334 57.1499 7.27783 57.3276 7.3667C57.5076 7.45557 57.6592 7.58317 57.7822 7.74951C57.9053 7.91585 57.9976 8.1141 58.0591 8.34424C58.1206 8.57438 58.1514 8.83073 58.1514 9.11328ZM57.2456 9.18506V9.11328C57.2456 8.94922 57.2308 8.79769 57.2012 8.65869C57.1715 8.51742 57.126 8.39437 57.0645 8.28955C57.0029 8.18245 56.9232 8.09928 56.8252 8.04004C56.7272 7.98079 56.6087 7.95117 56.4697 7.95117C56.3307 7.95117 56.2111 7.97396 56.1108 8.01953C56.0106 8.0651 55.9285 8.13005 55.8647 8.21436C55.8009 8.29867 55.7508 8.39893 55.7144 8.51514C55.6802 8.62907 55.6574 8.75553 55.646 8.89453V9.46191C55.6665 9.63053 55.7064 9.78206 55.7656 9.9165C55.8249 10.0509 55.9115 10.158 56.0254 10.2378C56.1416 10.3175 56.292 10.3574 56.4766 10.3574C56.6156 10.3574 56.734 10.3267 56.832 10.2651C56.93 10.2036 57.0098 10.1193 57.0713 10.0122C57.1328 9.90283 57.1772 9.77751 57.2046 9.63623C57.2319 9.49495 57.2456 9.34456 57.2456 9.18506Z" fill="white"/>
<path d="M28.9627 15.7075C29.0296 15.7075 29.0897 15.6944 29.143 15.6683C29.1974 15.6411 29.2411 15.6037 29.2739 15.5561C29.308 15.5085 29.3267 15.4535 29.3301 15.3911H29.7162C29.7139 15.5102 29.6787 15.6184 29.6107 15.716C29.5427 15.8135 29.4525 15.8911 29.3403 15.949C29.228 16.0057 29.1038 16.034 28.9678 16.034C28.8272 16.034 28.7047 16.0102 28.6004 15.9626C28.4961 15.9138 28.4093 15.8469 28.3402 15.7619C28.271 15.6768 28.2188 15.5788 28.1837 15.4676C28.1497 15.3565 28.1327 15.2375 28.1327 15.1105V15.0509C28.1327 14.9239 28.1497 14.8049 28.1837 14.6937C28.2188 14.5815 28.271 14.4828 28.3402 14.3978C28.4093 14.3128 28.4961 14.2464 28.6004 14.1988C28.7047 14.15 28.8266 14.1257 28.9661 14.1257C29.1135 14.1257 29.2428 14.1551 29.3539 14.2141C29.465 14.2719 29.5523 14.353 29.6158 14.4573C29.6804 14.5605 29.7139 14.6807 29.7162 14.8179H29.3301C29.3267 14.7499 29.3097 14.6886 29.279 14.6342C29.2496 14.5787 29.2076 14.5344 29.1532 14.5016C29.0999 14.4687 29.0358 14.4522 28.961 14.4522C28.8782 14.4522 28.8096 14.4692 28.7552 14.5033C28.7007 14.5361 28.6582 14.5815 28.6276 14.6393C28.597 14.696 28.5749 14.7601 28.5613 14.8315C28.5488 14.9018 28.5426 14.975 28.5426 15.0509V15.1105C28.5426 15.1864 28.5488 15.2601 28.5613 15.3316C28.5738 15.403 28.5953 15.4671 28.6259 15.5238C28.6577 15.5793 28.7007 15.6241 28.7552 15.6581C28.8096 15.691 28.8788 15.7075 28.9627 15.7075ZM30.4696 13.3875V16H30.058V13.3875H30.4696ZM31.3575 14.1597V16H30.9459V14.1597H31.3575ZM30.9187 13.6766C30.9187 13.6143 30.9391 13.5627 30.9799 13.5219C31.0218 13.4799 31.0797 13.4589 31.1534 13.4589C31.2259 13.4589 31.2832 13.4799 31.3252 13.5219C31.3671 13.5627 31.3881 13.6143 31.3881 13.6766C31.3881 13.7379 31.3671 13.7889 31.3252 13.8297C31.2832 13.8705 31.2259 13.891 31.1534 13.891C31.0797 13.891 31.0218 13.8705 30.9799 13.8297C30.9391 13.7889 30.9187 13.7379 30.9187 13.6766ZM32.5583 15.7075C32.6252 15.7075 32.6853 15.6944 32.7386 15.6683C32.793 15.6411 32.8366 15.6037 32.8695 15.5561C32.9035 15.5085 32.9222 15.4535 32.9257 15.3911H33.3117C33.3095 15.5102 33.2743 15.6184 33.2063 15.716C33.1383 15.8135 33.0481 15.8911 32.9359 15.949C32.8236 16.0057 32.6994 16.034 32.5634 16.034C32.4228 16.034 32.3003 16.0102 32.196 15.9626C32.0917 15.9138 32.0049 15.8469 31.9358 15.7619C31.8666 15.6768 31.8144 15.5788 31.7793 15.4676C31.7453 15.3565 31.7283 15.2375 31.7283 15.1105V15.0509C31.7283 14.9239 31.7453 14.8049 31.7793 14.6937C31.8144 14.5815 31.8666 14.4828 31.9358 14.3978C32.0049 14.3128 32.0917 14.2464 32.196 14.1988C32.3003 14.15 32.4222 14.1257 32.5617 14.1257C32.7091 14.1257 32.8383 14.1551 32.9495 14.2141C33.0606 14.2719 33.1479 14.353 33.2114 14.4573C33.276 14.5605 33.3095 14.6807 33.3117 14.8179H32.9257C32.9222 14.7499 32.9052 14.6886 32.8746 14.6342C32.8451 14.5787 32.8032 14.5344 32.7488 14.5016C32.6955 14.4687 32.6314 14.4522 32.5566 14.4522C32.4738 14.4522 32.4052 14.4692 32.3508 14.5033C32.2963 14.5361 32.2538 14.5815 32.2232 14.6393C32.1926 14.696 32.1705 14.7601 32.1569 14.8315C32.1444 14.9018 32.1382 14.975 32.1382 15.0509V15.1105C32.1382 15.1864 32.1444 15.2601 32.1569 15.3316C32.1693 15.403 32.1909 15.4671 32.2215 15.5238C32.2533 15.5793 32.2963 15.6241 32.3508 15.6581C32.4052 15.691 32.4744 15.7075 32.5583 15.7075ZM34.0397 13.3875V16H33.6281V13.3875H34.0397ZM35.1827 14.1597L34.3816 15.0475L33.9428 15.4965L33.8356 15.1496L34.1673 14.7397L34.6877 14.1597H35.1827ZM34.7762 16L34.1792 15.136L34.4377 14.8485L35.2507 16H34.7762ZM37.154 14.1597V14.459H36.1164V14.1597H37.154ZM36.4158 13.709H36.8257V15.4914C36.8257 15.5481 36.8336 15.5918 36.8495 15.6224C36.8665 15.6519 36.8898 15.6717 36.9192 15.6819C36.9487 15.6921 36.9833 15.6972 37.023 15.6972C37.0513 15.6972 37.0786 15.6955 37.1046 15.6921C37.1307 15.6887 37.1517 15.6853 37.1676 15.6819L37.1693 15.9949C37.1352 16.0051 37.0956 16.0142 37.0502 16.0221C37.006 16.03 36.955 16.034 36.8971 16.034C36.803 16.034 36.7197 16.0176 36.6471 15.9847C36.5745 15.9507 36.5178 15.8957 36.477 15.8197C36.4362 15.7437 36.4158 15.6428 36.4158 15.517V13.709ZM37.3513 15.1003V15.0611C37.3513 14.9285 37.3705 14.8054 37.4091 14.692C37.4476 14.5775 37.5032 14.4783 37.5758 14.3944C37.6495 14.3094 37.739 14.2436 37.8445 14.1971C37.9511 14.1495 38.0713 14.1257 38.2051 14.1257C38.34 14.1257 38.4602 14.1495 38.5657 14.1971C38.6722 14.2436 38.7624 14.3094 38.8361 14.3944C38.9098 14.4783 38.9659 14.5775 39.0045 14.692C39.043 14.8054 39.0623 14.9285 39.0623 15.0611V15.1003C39.0623 15.2329 39.043 15.3559 39.0045 15.4693C38.9659 15.5827 38.9098 15.6819 38.8361 15.767C38.7624 15.8509 38.6728 15.9167 38.5674 15.9643C38.4619 16.0108 38.3423 16.034 38.2085 16.034C38.0735 16.034 37.9528 16.0108 37.8462 15.9643C37.7407 15.9167 37.6512 15.8509 37.5775 15.767C37.5038 15.6819 37.4476 15.5827 37.4091 15.4693C37.3705 15.3559 37.3513 15.2329 37.3513 15.1003ZM37.7612 15.0611V15.1003C37.7612 15.183 37.7697 15.2613 37.7867 15.335C37.8037 15.4087 37.8303 15.4733 37.8666 15.5289C37.9029 15.5844 37.9494 15.6281 38.0061 15.6598C38.0628 15.6916 38.1302 15.7075 38.2085 15.7075C38.2845 15.7075 38.3502 15.6916 38.4058 15.6598C38.4625 15.6281 38.509 15.5844 38.5452 15.5289C38.5815 15.4733 38.6082 15.4087 38.6252 15.335C38.6433 15.2613 38.6524 15.183 38.6524 15.1003V15.0611C38.6524 14.9795 38.6433 14.9024 38.6252 14.8298C38.6082 14.7561 38.581 14.6909 38.5435 14.6342C38.5073 14.5775 38.4608 14.5333 38.4041 14.5016C38.3485 14.4687 38.2822 14.4522 38.2051 14.4522C38.128 14.4522 38.0611 14.4687 38.0044 14.5016C37.9488 14.5333 37.9029 14.5775 37.8666 14.6342C37.8303 14.6909 37.8037 14.7561 37.7867 14.8298C37.7697 14.9024 37.7612 14.9795 37.7612 15.0611ZM41.0251 15.7075C41.092 15.7075 41.1521 15.6944 41.2054 15.6683C41.2598 15.6411 41.3035 15.6037 41.3363 15.5561C41.3704 15.5085 41.3891 15.4535 41.3925 15.3911H41.7786C41.7763 15.5102 41.7411 15.6184 41.6731 15.716C41.6051 15.8135 41.5149 15.8911 41.4027 15.949C41.2904 16.0057 41.1663 16.034 41.0302 16.034C40.8896 16.034 40.7671 16.0102 40.6628 15.9626C40.5585 15.9138 40.4717 15.8469 40.4026 15.7619C40.3334 15.6768 40.2812 15.5788 40.2461 15.4676C40.2121 15.3565 40.1951 15.2375 40.1951 15.1105V15.0509C40.1951 14.9239 40.2121 14.8049 40.2461 14.6937C40.2812 14.5815 40.3334 14.4828 40.4026 14.3978C40.4717 14.3128 40.5585 14.2464 40.6628 14.1988C40.7671 14.15 40.889 14.1257 41.0285 14.1257C41.1759 14.1257 41.3052 14.1551 41.4163 14.2141C41.5274 14.2719 41.6147 14.353 41.6782 14.4573C41.7428 14.5605 41.7763 14.6807 41.7786 14.8179H41.3925C41.3891 14.7499 41.3721 14.6886 41.3414 14.6342C41.312 14.5787 41.27 14.5344 41.2156 14.5016C41.1623 14.4687 41.0982 14.4522 41.0234 14.4522C40.9406 14.4522 40.872 14.4692 40.8176 14.5033C40.7632 14.5361 40.7206 14.5815 40.69 14.6393C40.6594 14.696 40.6373 14.7601 40.6237 14.8315C40.6112 14.9018 40.605 14.975 40.605 15.0509V15.1105C40.605 15.1864 40.6112 15.2601 40.6237 15.3316C40.6362 15.403 40.6577 15.4671 40.6883 15.5238C40.7201 15.5793 40.7632 15.6241 40.8176 15.6581C40.872 15.691 40.9412 15.7075 41.0251 15.7075ZM42.498 13.3875V16H42.0898V13.3875H42.498ZM42.4266 15.0118L42.2939 15.0101C42.295 14.8831 42.3126 14.7658 42.3466 14.658C42.3818 14.5503 42.4305 14.4568 42.4929 14.3774C42.5564 14.2969 42.6324 14.2351 42.7208 14.192C42.8093 14.1478 42.9074 14.1257 43.0151 14.1257C43.1058 14.1257 43.1874 14.1381 43.26 14.1631C43.3337 14.188 43.3972 14.2283 43.4505 14.2838C43.5038 14.3383 43.544 14.4097 43.5712 14.4982C43.5996 14.5855 43.6138 14.692 43.6138 14.8179V16H43.2022V14.8145C43.2022 14.7261 43.1891 14.6558 43.163 14.6036C43.1381 14.5514 43.1012 14.514 43.0525 14.4913C43.0037 14.4675 42.9442 14.4556 42.8739 14.4556C42.8002 14.4556 42.735 14.4704 42.6783 14.4999C42.6227 14.5293 42.5763 14.5696 42.5388 14.6206C42.5014 14.6716 42.4731 14.7306 42.4538 14.7975C42.4357 14.8644 42.4266 14.9358 42.4266 15.0118ZM45.0663 15.6309V14.7533C45.0663 14.6875 45.0544 14.6308 45.0306 14.5832C45.0068 14.5356 44.9705 14.4987 44.9217 14.4726C44.8741 14.4466 44.814 14.4335 44.7414 14.4335C44.6745 14.4335 44.6167 14.4449 44.5679 14.4675C44.5192 14.4902 44.4812 14.5208 44.454 14.5594C44.4268 14.5979 44.4132 14.6416 44.4132 14.6903H44.005C44.005 14.6178 44.0225 14.5475 44.0577 14.4794C44.0928 14.4114 44.1439 14.3507 44.2108 14.2975C44.2777 14.2442 44.3576 14.2022 44.4506 14.1716C44.5436 14.141 44.6479 14.1257 44.7635 14.1257C44.9019 14.1257 45.0243 14.1489 45.1309 14.1954C45.2386 14.2419 45.3231 14.3122 45.3844 14.4063C45.4467 14.4993 45.4779 14.6161 45.4779 14.7567V15.5748C45.4779 15.6587 45.4836 15.7341 45.4949 15.801C45.5074 15.8668 45.525 15.924 45.5476 15.9728V16H45.1275C45.1082 15.9558 45.0929 15.8997 45.0816 15.8316C45.0714 15.7624 45.0663 15.6955 45.0663 15.6309ZM45.1258 14.8808L45.1292 15.1343H44.835C44.759 15.1343 44.6921 15.1416 44.6343 15.1564C44.5764 15.17 44.5283 15.1904 44.4897 15.2176C44.4512 15.2448 44.4222 15.2777 44.403 15.3163C44.3837 15.3548 44.374 15.3985 44.374 15.4472C44.374 15.496 44.3854 15.5408 44.4081 15.5816C44.4307 15.6213 44.4636 15.6525 44.5067 15.6751C44.5509 15.6978 44.6042 15.7092 44.6666 15.7092C44.7505 15.7092 44.8236 15.6921 44.886 15.6581C44.9495 15.623 44.9994 15.5805 45.0357 15.5306C45.072 15.4795 45.0912 15.4314 45.0935 15.386L45.2262 15.568C45.2126 15.6145 45.1893 15.6644 45.1564 15.7177C45.1236 15.771 45.0805 15.822 45.0272 15.8707C44.975 15.9184 44.9121 15.9575 44.8384 15.9881C44.7658 16.0187 44.6819 16.034 44.5867 16.034C44.4665 16.034 44.3593 16.0102 44.2652 15.9626C44.1711 15.9138 44.0974 15.8486 44.0441 15.767C43.9908 15.6842 43.9641 15.5907 43.9641 15.4863C43.9641 15.3888 43.9823 15.3027 44.0186 15.2278C44.056 15.1518 44.1104 15.0883 44.1819 15.0373C44.2544 14.9863 44.3429 14.9477 44.4472 14.9217C44.5515 14.8944 44.6706 14.8808 44.8044 14.8808H45.1258ZM46.7501 14.1597V14.459H45.7126V14.1597H46.7501ZM46.012 13.709H46.4219V15.4914C46.4219 15.5481 46.4298 15.5918 46.4457 15.6224C46.4627 15.6519 46.4859 15.6717 46.5154 15.6819C46.5449 15.6921 46.5795 15.6972 46.6192 15.6972C46.6475 15.6972 46.6747 15.6955 46.7008 15.6921C46.7269 15.6887 46.7479 15.6853 46.7637 15.6819L46.7654 15.9949C46.7314 16.0051 46.6917 16.0142 46.6464 16.0221C46.6022 16.03 46.5511 16.034 46.4933 16.034C46.3992 16.034 46.3158 16.0176 46.2433 15.9847C46.1707 15.9507 46.114 15.8957 46.0732 15.8197C46.0324 15.7437 46.012 15.6428 46.012 15.517V13.709Z" fill="#16C80E"/>
<defs>
<linearGradient id="paint0_linear_5955_174" x1="1200" y1="2392.07" x2="1200" y2="0" gradientUnits="userSpaceOnUse">
<stop stop-color="#F9F9F9"/>
<stop offset="1" stop-color="white"/>
</linearGradient>
<clipPath id="clip0_5955_174">
<rect width="24" height="24" fill="white"/>
</clipPath>
</defs>
</svg>
