<svg id="Layer_1" data-name="Layer 1" xmlns="http://www.w3.org/2000/svg" viewBox="0 0 320.15 319.07"><path d="M232,287.4c-23.75,0-47.5,0-71.25,0-2.56,0-3.86.66-5,3.14C147,308.87,132.5,319.1,112,319.07s-35-10.31-43.66-28.66c-1.07-2.27-2.19-3.09-4.7-3.07q-23.25.2-46.51,0C5.54,287.3-2.23,277.76.57,267.26c1.9-7.09,8.12-11.82,15.86-11.85,15.63-.06,31.26-.11,46.88.06,2.86,0,4-1,5.18-3.44,8.68-18.23,23.24-28.4,43.45-28.45,20.37,0,35.06,10.16,43.73,28.58,1.22,2.6,2.54,3.3,5.27,3.29q71.07-.12,142.14,0c12.29,0,20.23,11,15.86,21.92-2.6,6.48-8.36,10.06-16.44,10.07Q267.25,287.44,232,287.4ZM128,271.45a15.91,15.91,0,1,0-16,15.92A15.89,15.89,0,0,0,128,271.45Z"/><path d="M232.08,63.69c-23.75,0-47.51,0-71.26,0-2.49,0-3.86.49-5,3-8.59,18.46-23.22,28.76-43.59,28.81C91.65,95.53,77,85.14,68.28,66.58c-1.11-2.37-2.31-3-4.72-2.94q-23.82.13-47.63,0A15.86,15.86,0,0,1,.32,50.58C-.95,42.65,3.23,35.24,10.67,32.77A23.94,23.94,0,0,1,18,31.72q22.89-.13,45.76,0c2.3,0,3.44-.65,4.46-2.83C77,10.37,91.48,0,112.13,0s35,10.3,43.62,28.69c1.2,2.57,2.63,3,5.11,3q70.3-.08,140.63,0a26.84,26.84,0,0,1,7.75,1c7.45,2.32,11.74,9.7,10.61,17.67a15.82,15.82,0,0,1-15.77,13.31c-17.25.1-34.5,0-51.75,0ZM128,47.58a15.91,15.91,0,1,0-15.79,16.09A15.95,15.95,0,0,0,128,47.58Z"/><path d="M87.69,175.45c-23.62,0-47.24.05-70.86,0C6.25,175.39-.69,167.86.21,157.7a15.7,15.7,0,0,1,13.56-13.9,52.59,52.59,0,0,1,5.62-.17q69.91,0,139.85.07c2.8,0,4-.87,5.22-3.39,8.64-18.24,23.13-28.42,43.38-28.53,20.42-.1,35.07,10.06,43.79,28.43,1.3,2.75,2.69,3.5,5.55,3.48,15.88-.12,31.75-.16,47.62,0a15.44,15.44,0,0,1,15.09,13.53c1,8.2-3.59,15.39-11.34,17.53a25.15,25.15,0,0,1-6.67.64c-15.12.06-30.24.1-45.36,0-2.53,0-3.61.8-4.67,3.07-8.71,18.54-23.35,28.91-43.94,28.83-20.4-.08-35-10.39-43.57-28.81-1.18-2.54-2.55-3.08-5-3.07C135.43,175.48,111.56,175.45,87.69,175.45Zm120.39,0a15.89,15.89,0,1,0-15.91-15.88A15.73,15.73,0,0,0,208.08,175.42Z"/></svg>