<svg width="321" height="320" viewBox="0 0 321 320" fill="none" xmlns="http://www.w3.org/2000/svg">
<g clip-path="url(#clip0_2029_10)">
<path d="M232 287.4C208.25 287.4 184.5 287.4 160.75 287.4C158.19 287.4 156.89 288.06 155.75 290.54C147 308.87 132.5 319.1 112 319.07C91.5001 319.04 77.0001 308.76 68.3401 290.41C67.2701 288.14 66.1501 287.32 63.6401 287.34C48.1401 287.473 32.6368 287.473 17.1301 287.34C5.54013 287.3 -2.22987 277.76 0.570134 267.26C2.47013 260.17 8.69013 255.44 16.4301 255.41C32.0601 255.35 47.6901 255.3 63.3101 255.47C66.1701 255.47 67.3101 254.47 68.4901 252.03C77.1701 233.8 91.7301 223.63 111.94 223.58C132.31 223.58 147 233.74 155.67 252.16C156.89 254.76 158.21 255.46 160.94 255.45C208.32 255.37 255.7 255.37 303.08 255.45C315.37 255.45 323.31 266.45 318.94 277.37C316.34 283.85 310.58 287.43 302.5 287.44C279 287.44 255.5 287.427 232 287.4ZM128 271.45C127.998 268.308 127.066 265.236 125.32 262.623C123.575 260.01 121.094 257.972 118.192 256.767C115.29 255.562 112.096 255.243 109.013 255.851C105.93 256.458 103.096 257.966 100.868 260.182C98.6407 262.399 97.1194 265.225 96.4962 268.305C95.8729 271.385 96.1758 274.581 97.3665 277.489C98.5572 280.397 100.582 282.887 103.187 284.646C105.791 286.404 108.858 287.352 112 287.37C114.099 287.385 116.179 286.983 118.122 286.189C120.064 285.395 121.83 284.225 123.318 282.745C124.805 281.264 125.985 279.504 126.789 277.566C127.592 275.627 128.004 273.549 128 271.45Z" fill="#FF0000"/>
<path d="M232.08 63.69C208.33 63.69 184.57 63.69 160.82 63.69C158.33 63.69 156.96 64.18 155.82 66.69C147.23 85.15 132.6 95.45 112.23 95.5C91.6503 95.53 77.0003 85.14 68.2803 66.58C67.1703 64.21 65.9703 63.58 63.5603 63.64C47.6803 63.7267 31.8036 63.7267 15.9303 63.64C12.2097 63.6398 8.60765 62.3316 5.75409 59.9442C2.90053 57.5568 0.977122 54.2421 0.320277 50.58C-0.949723 42.65 3.23028 35.24 10.6703 32.77C13.0444 32.042 15.5173 31.6877 18.0003 31.72C33.2603 31.6333 48.5136 31.6333 63.7603 31.72C66.0603 31.72 67.2003 31.07 68.2203 28.89C77.0003 10.37 91.4803 0 112.13 0C132.78 0 147.13 10.3 155.75 28.69C156.95 31.26 158.38 31.69 160.86 31.69C207.727 31.6367 254.604 31.6367 301.49 31.69C304.109 31.6435 306.72 31.9804 309.24 32.69C316.69 35.01 320.98 42.39 319.85 50.36C319.25 54.0987 317.328 57.4979 314.434 59.9403C311.541 62.3826 307.867 63.706 304.08 63.67C286.83 63.77 269.58 63.67 252.33 63.67L232.08 63.69ZM128 47.58C127.965 44.4361 126.998 41.3733 125.223 38.7782C123.448 36.1831 120.944 34.1721 118.027 32.9991C115.11 31.8262 111.911 31.5438 108.833 32.1876C105.756 32.8315 102.938 34.3727 100.736 36.6167C98.5337 38.8608 97.0457 41.707 96.4599 44.796C95.8741 47.885 96.2166 51.0783 97.4443 53.9728C98.672 56.8673 100.73 59.3332 103.358 61.0591C105.986 62.785 109.066 63.6935 112.21 63.67C116.437 63.6278 120.474 61.9094 123.435 58.8925C126.396 55.8756 128.038 51.8068 128 47.58Z" fill="#FF0000"/>
<path d="M87.6901 175.45C64.0701 175.45 40.4501 175.5 16.8301 175.45C6.25014 175.39 -0.689864 167.86 0.210136 157.7C0.583733 154.198 2.12401 150.923 4.58339 148.402C7.04276 145.881 10.2784 144.26 13.7701 143.8C15.6391 143.643 17.5151 143.586 19.3901 143.63C65.9968 143.63 112.613 143.653 159.24 143.7C162.04 143.7 163.24 142.83 164.46 140.31C173.1 122.07 187.59 111.89 207.84 111.78C228.26 111.68 242.91 121.84 251.63 140.21C252.93 142.96 254.32 143.71 257.18 143.69C273.06 143.57 288.93 143.53 304.8 143.69C308.524 143.746 312.103 145.146 314.876 147.633C317.649 150.119 319.43 153.524 319.89 157.22C320.89 165.42 316.3 172.61 308.55 174.75C306.365 175.26 304.122 175.475 301.88 175.39C286.76 175.45 271.64 175.49 256.52 175.39C253.99 175.39 252.91 176.19 251.85 178.46C243.14 197 228.5 207.37 207.91 207.29C187.51 207.21 172.91 196.9 164.34 178.48C163.16 175.94 161.79 175.4 159.34 175.41C135.43 175.48 111.56 175.45 87.6901 175.45ZM208.08 175.45C211.222 175.446 214.293 174.511 216.904 172.762C219.514 171.013 221.548 168.529 222.747 165.625C223.947 162.72 224.258 159.525 223.642 156.444C223.025 153.363 221.509 150.533 219.285 148.314C217.061 146.094 214.229 144.583 211.147 143.973C208.064 143.362 204.87 143.68 201.968 144.884C199.066 146.089 196.586 148.127 194.842 150.741C193.098 153.355 192.168 156.428 192.17 159.57C192.154 161.661 192.555 163.734 193.35 165.668C194.144 167.603 195.317 169.359 196.798 170.835C198.279 172.311 200.04 173.476 201.977 174.264C203.914 175.051 205.989 175.444 208.08 175.42V175.45Z" fill="#FF0000"/>
</g>
<defs>
<clipPath id="clip0_2029_10">
<rect width="320.15" height="319.07" fill="white"/>
</clipPath>
</defs>
</svg>
