<svg width="119" height="129" viewBox="0 0 119 129" fill="none" xmlns="http://www.w3.org/2000/svg">
<path d="M52.6905 56.7572C68.1616 56.7572 80.7034 44.2154 80.7034 28.7443C80.7034 13.2732 68.1616 0.731445 52.6905 0.731445C37.2194 0.731445 24.6776 13.2732 24.6776 28.7443C24.6776 44.2154 37.2194 56.7572 52.6905 56.7572Z" fill="#3658B0"/>
<path d="M28.0508 95.7523C28.1363 93.4764 28.8947 91.2769 30.23 89.4318C31.5653 87.5868 33.4177 86.179 35.5529 85.3866C37.6882 84.5941 40.0105 84.4525 42.2262 84.9796C44.4419 85.5067 46.4516 86.679 48.0013 88.3481L63.8793 105.419L92.0156 74.0331C80.393 66.2878 66.6974 62.2436 52.7318 62.4331C43.044 62.1881 33.4201 64.0683 24.5369 67.9414C15.6536 71.8145 7.72657 77.5865 1.31313 84.8516C0.770592 85.5749 0.481456 86.4567 0.490437 87.3608V109.533C0.489474 111.672 1.32228 113.728 2.81216 115.264C4.30204 116.8 6.33174 117.695 8.47061 117.76H43.7232L31.0948 104.185C30.0514 103.053 29.2447 101.724 28.722 100.276C28.1992 98.8277 27.9711 97.2898 28.0508 95.7523Z" fill="#3658B0"/>
<path d="M96.9928 117.76C99.1316 117.695 101.161 116.8 102.651 115.265C104.141 113.729 104.974 111.673 104.973 109.533V94.066L83.8707 117.76H96.9928Z" fill="#3658B0"/>
<path d="M117.603 62.7217C117.2 62.3569 116.728 62.0758 116.214 61.8947C115.701 61.7136 115.157 61.6361 114.614 61.6667C114.071 61.6973 113.539 61.8354 113.05 62.073C112.56 62.3106 112.122 62.6429 111.762 63.0508L63.9635 116.526L42.5734 93.5317C42.2223 93.1212 41.7937 92.7838 41.3122 92.5388C40.8307 92.2939 40.3057 92.1462 39.7671 92.1042C39.2285 92.0622 38.6869 92.1266 38.1732 92.2939C37.6596 92.4613 37.1839 92.7281 36.7733 93.0792C36.3878 93.4617 36.0818 93.9166 35.8729 94.4179C35.6641 94.9191 35.5566 95.4568 35.5566 95.9998C35.5566 96.5429 35.6641 97.0805 35.8729 97.5818C36.0818 98.083 36.3878 98.538 36.7733 98.9204L64.2515 128.538L117.891 68.3983C118.583 67.5969 118.939 66.5596 118.886 65.5023C118.832 64.445 118.373 63.449 117.603 62.7217Z" fill="#3658B0"/>
</svg>
