<svg width="127" height="167" viewBox="0 0 127 167" fill="none" xmlns="http://www.w3.org/2000/svg">
<path d="M104.612 6H22.3893C13.8749 6 6.97266 12.9023 6.97266 21.4167V144.75C6.97266 153.264 13.8749 160.167 22.3893 160.167H104.612C113.126 160.167 120.028 153.264 120.028 144.75V21.4167C120.028 12.9023 113.126 6 104.612 6Z" stroke="#3658B0" stroke-width="12"/>
<path d="M42.9437 83.0833L84.0548 41.9722" stroke="#3658B0" stroke-width="10" stroke-linecap="round"/>
<path d="M48.0826 52.2499C50.9207 52.2499 53.2214 49.9492 53.2214 47.1111C53.2214 44.2729 50.9207 41.9722 48.0826 41.9722C45.2444 41.9722 42.9437 44.2729 42.9437 47.1111C42.9437 49.9492 45.2444 52.2499 48.0826 52.2499Z" stroke="#3658B0" stroke-width="6.25"/>
<path d="M78.9168 83.0832C81.7549 83.0832 84.0557 80.7824 84.0557 77.9443C84.0557 75.1062 81.7549 72.8054 78.9168 72.8054C76.0787 72.8054 73.7779 75.1062 73.7779 77.9443C73.7779 80.7824 76.0787 83.0832 78.9168 83.0832Z" stroke="#3658B0" stroke-width="6.25"/>
<path d="M32.6661 113.916H94.3327M32.6661 134.471H94.3327" stroke="#3658B0" stroke-width="9" stroke-linecap="round"/>
</svg>
