<svg width="167" height="167" viewBox="0 0 167 167" fill="none" xmlns="http://www.w3.org/2000/svg">
<path d="M83.47 137.282V161M113.117 125.423V149.141M53.8226 125.423V149.141M96.0879 41.094C95.4079 39.1653 94.146 37.4952 92.4764 36.3142C90.8068 35.1332 88.8118 34.4994 86.7668 34.5004H79.1177C76.9484 34.5081 74.858 35.3147 73.2458 36.7662C71.6336 38.2176 70.6126 40.2121 70.3778 42.3687C70.1431 44.5253 70.7111 46.6928 71.9733 48.4571C73.2355 50.2214 75.1034 51.4589 77.2203 51.9331L88.8777 54.4946C91.2514 55.0239 93.3469 56.4093 94.7637 58.386C96.1805 60.3626 96.8194 62.792 96.5583 65.21C96.2971 67.6279 95.1542 69.8649 93.348 71.4935C91.5417 73.122 89.1988 74.028 86.7668 74.0382H80.1732C78.1285 74.0375 76.1343 73.403 74.4651 72.2223C72.7958 71.0415 71.5336 69.3724 70.852 67.4446M83.47 34.5004V24.6219M83.47 83.9167V74.0382M33.0694 57.2341C32.2831 57.2341 31.529 56.9217 30.973 56.3657C30.417 55.8097 30.1046 55.0556 30.1046 54.2693C30.1046 53.483 30.417 52.7289 30.973 52.1729C31.529 51.6169 32.2831 51.3046 33.0694 51.3046C33.8557 51.3046 34.6097 51.6169 35.1657 52.1729C35.7217 52.7289 36.0341 53.483 36.0341 54.2693C36.0341 55.0556 35.7217 55.8097 35.1657 56.3657C34.6097 56.9217 33.8557 57.2341 33.0694 57.2341ZM133.871 57.2341C133.084 57.2341 132.33 56.9217 131.774 56.3657C131.218 55.8097 130.906 55.0556 130.906 54.2693C130.906 53.483 131.218 52.7289 131.774 52.1729C132.33 51.6169 133.084 51.3046 133.871 51.3046C134.657 51.3046 135.411 51.6169 135.967 52.1729C136.523 52.7289 136.835 53.483 136.835 54.2693C136.835 55.0556 136.523 55.8097 135.967 56.3657C135.411 56.9217 134.657 57.2341 133.871 57.2341Z" stroke="#3658B0" stroke-width="12" stroke-linecap="round" stroke-linejoin="round"/>
<path d="M148.695 6.83337H18.2467C15.1015 6.83337 12.0851 8.0828 9.86111 10.3068C7.63712 12.5308 6.3877 15.5472 6.3877 18.6923V89.8462C6.3877 92.9914 7.63712 96.0077 9.86111 98.2317C12.0851 100.456 15.1015 101.705 18.2467 101.705H148.695C151.841 101.705 154.857 100.456 157.081 98.2317C159.305 96.0077 160.554 92.9914 160.554 89.8462V18.6923C160.554 15.5472 159.305 12.5308 157.081 10.3068C154.857 8.0828 151.841 6.83337 148.695 6.83337Z" stroke="#3658B0" stroke-width="12" stroke-linecap="round" stroke-linejoin="round"/>
</svg>
