<svg width="166" height="163" viewBox="0 0 166 163" fill="none" xmlns="http://www.w3.org/2000/svg">
<path d="M58.1 163C55.8987 163 53.7876 162.141 52.231 160.613C50.6745 159.085 49.8 157.012 49.8 154.85V130.4H16.6C12.1974 130.4 7.97513 128.683 4.86203 125.626C1.74892 122.569 0 118.423 0 114.1V16.3C0 7.2535 7.47 0 16.6 0H149.4C153.803 0 158.025 1.71732 161.138 4.77416C164.251 7.831 166 11.977 166 16.3V114.1C166 118.423 164.251 122.569 161.138 125.626C158.025 128.683 153.803 130.4 149.4 130.4H98.77L68.06 160.636C66.4 162.185 64.325 163 62.25 163H58.1ZM66.4 114.1V139.202L91.964 114.1H149.4V16.3H16.6V114.1H66.4ZM116.2 97.8H49.8V89.65C49.8 78.8105 71.961 73.35 83 73.35C94.039 73.35 116.2 78.8105 116.2 89.65V97.8ZM83 32.6C87.4026 32.6 91.6249 34.3173 94.738 37.3742C97.8511 40.431 99.6 44.577 99.6 48.9C99.6 53.223 97.8511 57.369 94.738 60.4258C91.6249 63.4827 87.4026 65.2 83 65.2C78.5974 65.2 74.3751 63.4827 71.262 60.4258C68.1489 57.369 66.4 53.223 66.4 48.9C66.4 44.577 68.1489 40.431 71.262 37.3742C74.3751 34.3173 78.5974 32.6 83 32.6Z" fill="#3658B0"/>
</svg>
