<svg width="163" height="133" viewBox="0 0 163 133" fill="none" xmlns="http://www.w3.org/2000/svg">
<path d="M104.32 33.25L114.1 43.225L58.68 99.75L48.9 89.775L104.32 33.25ZM16.3 0H146.7C155.746 0 163 7.39812 163 16.625V49.875C154.035 49.875 146.7 57.3563 146.7 66.5C146.7 75.7269 154.035 83.125 163 83.125V116.375C163 125.602 155.746 133 146.7 133H16.3C7.335 133 0 125.602 0 116.375V83.125C9.0465 83.125 16.3 75.7269 16.3 66.5C16.3 57.3563 9.0465 49.875 0 49.875V16.625C0 7.39812 7.335 0 16.3 0ZM16.3 16.625V37.7388C26.406 43.7238 32.6 54.6131 32.6 66.5C32.6 78.3869 26.406 89.3594 16.3 95.2613V116.375H146.7V95.2613C136.594 89.3594 130.4 78.3869 130.4 66.5C130.4 54.6131 136.594 43.7238 146.7 37.7388V16.625H16.3ZM61.125 33.25C67.8895 33.25 73.35 38.8194 73.35 45.7188C73.35 52.6181 67.8895 58.1875 61.125 58.1875C54.3605 58.1875 48.9 52.6181 48.9 45.7188C48.9 38.8194 54.3605 33.25 61.125 33.25ZM101.875 74.8125C108.639 74.8125 114.1 80.3819 114.1 87.2812C114.1 94.1806 108.639 99.75 101.875 99.75C95.1105 99.75 89.65 94.1806 89.65 87.2812C89.65 80.3819 95.1105 74.8125 101.875 74.8125Z" fill="#3658B0"/>
</svg>
