<svg width="27" height="27" viewBox="0 0 27 27" fill="none" xmlns="http://www.w3.org/2000/svg">
<path d="M24.9229 13.5C24.9229 7.19121 19.8088 2.07715 13.5 2.07715C7.19121 2.07715 2.07715 7.19121 2.07715 13.5C2.07715 19.8088 7.19121 24.9229 13.5 24.9229V27C6.04416 27 0 20.9558 0 13.5C0 6.04416 6.04416 0 13.5 0C20.9558 0 27 6.04416 27 13.5C27 20.9558 20.9558 27 13.5 27V24.9229C19.8088 24.9229 24.9229 19.8088 24.9229 13.5Z" fill="#888888"/>
<path d="M13.8903 13.6289H10.8966L10.8804 12.3714H13.5983C14.0472 12.3714 14.4393 12.2956 14.7746 12.1442C15.11 11.9928 15.3696 11.7764 15.5535 11.4952C15.7428 11.2085 15.8374 10.8678 15.8374 10.4729C15.8374 10.0402 15.7536 9.68866 15.5859 9.41823C15.4237 9.14239 15.1722 8.94227 14.8314 8.81787C14.4961 8.68806 14.0688 8.62316 13.5496 8.62316H11.2455V19.1538H9.67969V7.34131H13.5496C14.1553 7.34131 14.6962 7.40351 15.1722 7.52791C15.6481 7.6469 16.0511 7.8362 16.381 8.09582C16.7163 8.35002 16.9706 8.67454 17.1436 9.06937C17.3167 9.46421 17.4032 9.93746 17.4032 10.4891C17.4032 10.9759 17.2788 11.4167 17.03 11.8116C16.7813 12.201 16.4351 12.5201 15.9916 12.7689C15.5535 13.0177 15.0397 13.1772 14.4501 13.2476L13.8903 13.6289ZM13.8173 19.1538H10.28L11.1644 17.8801H13.8173C14.3149 17.8801 14.7368 17.7935 15.0829 17.6205C15.4345 17.4474 15.7022 17.204 15.8861 16.8903C16.07 16.5712 16.162 16.1953 16.162 15.7626C16.162 15.3245 16.0835 14.9459 15.9267 14.6268C15.7698 14.3077 15.5237 14.0616 15.1884 13.8885C14.8531 13.7154 14.4204 13.6289 13.8903 13.6289H11.6593L11.6755 12.3714H14.726L15.0586 12.8257C15.6265 12.8744 16.1079 13.0366 16.5027 13.3125C16.8975 13.5829 17.1977 13.929 17.4032 14.3509C17.6142 14.7728 17.7197 15.2379 17.7197 15.7464C17.7197 16.4819 17.5574 17.1039 17.2329 17.6123C16.9138 18.1153 16.4621 18.4994 15.878 18.7644C15.2939 19.024 14.607 19.1538 13.8173 19.1538Z" fill="#888888"/>
</svg>
