<svg width="27" height="27" viewBox="0 0 27 27" fill="none" xmlns="http://www.w3.org/2000/svg">
<path d="M24.9229 13.5C24.9229 7.19121 19.8088 2.07715 13.5 2.07715C7.19121 2.07715 2.07715 7.19121 2.07715 13.5C2.07715 19.8088 7.19121 24.9229 13.5 24.9229V27C6.04416 27 0 20.9558 0 13.5C0 6.04416 6.04416 0 13.5 0C20.9558 0 27 6.04416 27 13.5C27 20.9558 20.9558 27 13.5 27V24.9229C19.8088 24.9229 24.9229 19.8088 24.9229 13.5Z" fill="#888888"/>
<path d="M12.8762 19.1538H10.4099L10.4261 17.8801H12.8762C13.72 17.8801 14.4231 17.7043 14.9856 17.3527C15.5481 16.9958 15.97 16.4982 16.2512 15.8599C16.5379 15.2163 16.6812 14.4645 16.6812 13.6045V12.8825C16.6812 12.2064 16.6001 11.606 16.4378 11.0814C16.2755 10.5513 16.0376 10.1051 15.7239 9.74275C15.4102 9.37496 15.0261 9.09642 14.5718 8.90711C14.1229 8.71781 13.6064 8.62316 13.0222 8.62316H10.3612V7.34131H13.0222C13.7957 7.34131 14.5015 7.47112 15.1397 7.73073C15.7779 7.98494 16.3269 8.35543 16.7867 8.84221C17.2518 9.32358 17.6088 9.90771 17.8576 10.5946C18.1064 11.2761 18.2308 12.0441 18.2308 12.8987V13.6045C18.2308 14.4591 18.1064 15.2298 17.8576 15.9167C17.6088 16.5982 17.2491 17.1797 16.7785 17.661C16.3134 18.1424 15.7509 18.5129 15.091 18.7725C14.4366 19.0267 13.6983 19.1538 12.8762 19.1538ZM11.2455 7.34131V19.1538H9.67969V7.34131H11.2455Z" fill="#888888"/>
</svg>
