<svg width="18" height="16" viewBox="0 0 18 16" fill="none" xmlns="http://www.w3.org/2000/svg">
<path d="M18 16H0V14.2222H0.9V0.888889C0.9 0.653141 0.994821 0.427048 1.1636 0.260349C1.33239 0.0936505 1.56131 0 1.8 0H14.4C14.6387 0 14.8676 0.0936505 15.0364 0.260349C15.2052 0.427048 15.3 0.653141 15.3 0.888889V5.33333H17.1V14.2222H18V16ZM13.5 14.2222H15.3V7.11111H9.9V14.2222H11.7V8.88889H13.5V14.2222ZM13.5 5.33333V1.77778H2.7V14.2222H8.1V5.33333H13.5ZM4.5 7.11111H6.3V8.88889H4.5V7.11111ZM4.5 10.6667H6.3V12.4444H4.5V10.6667ZM4.5 3.55556H6.3V5.33333H4.5V3.55556Z" fill="#E23124"/>
</svg>
