<svg width="17" height="18" viewBox="0 0 17 18" fill="none" xmlns="http://www.w3.org/2000/svg">
<path d="M16.3633 2.28161C16.3633 1.1129 15.0589 0.417515 14.0876 1.06849L4.15367 7.73832C3.9553 7.87146 3.79262 8.05121 3.67986 8.26181C3.56711 8.47242 3.50772 8.70746 3.50692 8.94635C3.50611 9.18523 3.5639 9.42067 3.67523 9.63204C3.78656 9.8434 3.94803 10.0242 4.14549 10.1587L14.0806 16.9291C14.3001 17.0784 14.5562 17.1651 14.8214 17.1798C15.0865 17.1945 15.3506 17.1366 15.5854 17.0125C15.8201 16.8883 16.0165 16.7026 16.1536 16.4752C16.2907 16.2478 16.3632 15.9873 16.3633 15.7218V2.28161ZM-0.000354767 1.40274C-0.000354767 1.24776 0.0612164 1.09912 0.170816 0.989536C0.280415 0.879948 0.429064 0.818382 0.584061 0.818382C0.739058 0.818382 0.887705 0.879948 0.997304 0.989536C1.1069 1.09912 1.16848 1.24776 1.16848 1.40274V16.596C1.16848 16.751 1.1069 16.8996 0.997304 17.0092C0.887705 17.1188 0.739058 17.1803 0.584061 17.1803C0.429064 17.1803 0.280415 17.1188 0.170816 17.0092C0.0612164 16.8996 -0.000354767 16.751 -0.000354767 16.596V1.40274Z" fill="white"/>
</svg>
