<svg width="27" height="27" viewBox="0 0 27 27" fill="none" xmlns="http://www.w3.org/2000/svg">
<path d="M24.9229 13.5C24.9229 7.19121 19.8088 2.07715 13.5 2.07715C7.19121 2.07715 2.07715 7.19121 2.07715 13.5C2.07715 19.8088 7.19121 24.9229 13.5 24.9229V27C6.04416 27 0 20.9558 0 13.5C0 6.04416 6.04416 0 13.5 0C20.9558 0 27 6.04416 27 13.5C27 20.9558 20.9558 27 13.5 27V24.9229C19.8088 24.9229 24.9229 19.8088 24.9229 13.5Z" fill="#00E623"/>
<path d="M16.8434 17.8801V19.1538H10.9372V17.8801H16.8434ZM11.2455 7.34131V19.1538H9.67969V7.34131H11.2455Z" fill="#00E623"/>
</svg>
