<svg width="18" height="18" viewBox="0 0 18 18" fill="none" xmlns="http://www.w3.org/2000/svg">
<path d="M1.91099 1.5625L15.0695 14.721C15.3191 14.9707 15.4594 15.3093 15.4594 15.6624C15.4594 16.0155 15.3191 16.3542 15.0695 16.6039C14.8197 16.8534 14.4811 16.9937 14.128 16.9937C13.7749 16.9937 13.4363 16.8534 13.1866 16.6039L9.97221 13.3342C9.76186 13.1206 9.64386 12.8329 9.64364 12.5331V12.3356C9.64366 12.1842 9.61362 12.0343 9.55526 11.8947C9.49689 11.755 9.41136 11.6283 9.30363 11.522L8.88862 11.1388C8.74774 11.0088 8.57642 10.9163 8.39043 10.8699C8.20445 10.8234 8.00977 10.8245 7.82431 10.873C7.53187 10.9494 7.22455 10.9479 6.93285 10.8688C6.64115 10.7896 6.37521 10.6356 6.16143 10.422L3.1103 7.37047C1.30026 5.56043 0.634179 2.82717 1.91099 1.5625Z" stroke="#E23124" stroke-linejoin="round"/>
<path d="M14.1428 1L11.3838 3.75898C11.1715 3.97124 11.0031 4.22324 10.8882 4.5006C10.7733 4.77795 10.7142 5.07523 10.7142 5.37544V5.90616C10.7142 5.98125 10.6994 6.05561 10.6706 6.12498C10.6419 6.19435 10.5998 6.25738 10.5467 6.31046L10.1427 6.71439M11.2856 7.85727L11.6895 7.45334C11.7426 7.40022 11.8056 7.35809 11.875 7.32935C11.9444 7.30061 12.0187 7.28582 12.0938 7.28583H12.6246C12.9248 7.28584 13.222 7.2267 13.4994 7.1118C13.7768 6.9969 14.0288 6.82848 14.241 6.61618L17 3.8572M15.5714 2.4286L12.7142 5.2858M6.99981 13.0002L3.43831 16.5817C3.17041 16.8495 2.80711 17 2.42829 17C2.04948 17 1.68618 16.8495 1.41827 16.5817C1.15045 16.3138 1 15.9505 1 15.5717C1 15.1929 1.15045 14.8296 1.41827 14.5617L4.42833 11.5716" stroke="#E23124" stroke-linecap="round" stroke-linejoin="round"/>
</svg>
