<svg width="17" height="18" viewBox="0 0 17 18" fill="none" xmlns="http://www.w3.org/2000/svg">
<path d="M0 2.28161C0 1.1129 1.30442 0.417515 2.27571 1.06849L12.2096 7.73832C12.408 7.87146 12.5707 8.05121 12.6834 8.26181C12.7962 8.47242 12.8556 8.70746 12.8564 8.94635C12.8572 9.18523 12.7994 9.42067 12.6881 9.63204C12.5767 9.8434 12.4153 10.0242 12.2178 10.1587L2.28273 16.9291C2.06316 17.0784 1.80705 17.1651 1.54191 17.1798C1.27678 17.1945 1.01265 17.1366 0.777923 17.0125C0.543194 16.8883 0.34674 16.7026 0.209676 16.4752C0.0726129 16.2478 0.000123539 15.9873 0 15.7218V2.28161ZM16.3636 1.40274C16.3636 1.24776 16.3021 1.09912 16.1925 0.989536C16.0829 0.879948 15.9342 0.818382 15.7792 0.818382C15.6242 0.818382 15.4756 0.879948 15.366 0.989536C15.2564 1.09912 15.1948 1.24776 15.1948 1.40274V16.596C15.1948 16.751 15.2564 16.8996 15.366 17.0092C15.4756 17.1188 15.6242 17.1803 15.7792 17.1803C15.9342 17.1803 16.0829 17.1188 16.1925 17.0092C16.3021 16.8996 16.3636 16.751 16.3636 16.596V1.40274Z" fill="white"/>
</svg>
