<svg width="13" height="13" viewBox="0 0 13 13" fill="none" xmlns="http://www.w3.org/2000/svg">
<circle cx="6.5" cy="6.5" r="6" stroke="#F78008"/>
<path d="M7.69141 7.5625C7.69141 7.42969 7.67057 7.3125 7.62891 7.21094C7.58984 7.10677 7.51953 7.01302 7.41797 6.92969C7.31901 6.84635 7.18099 6.76693 7.00391 6.69141C6.82943 6.61589 6.60807 6.53906 6.33984 6.46094C6.05859 6.3776 5.80469 6.28516 5.57812 6.18359C5.35156 6.07943 5.15755 5.96094 4.99609 5.82812C4.83464 5.69531 4.71094 5.54297 4.625 5.37109C4.53906 5.19922 4.49609 5.0026 4.49609 4.78125C4.49609 4.5599 4.54167 4.35547 4.63281 4.16797C4.72396 3.98047 4.85417 3.81771 5.02344 3.67969C5.19531 3.53906 5.39974 3.42969 5.63672 3.35156C5.8737 3.27344 6.13802 3.23438 6.42969 3.23438C6.85677 3.23438 7.21875 3.31641 7.51562 3.48047C7.8151 3.64193 8.04297 3.85417 8.19922 4.11719C8.35547 4.3776 8.43359 4.65625 8.43359 4.95312H7.68359C7.68359 4.73958 7.63802 4.55078 7.54688 4.38672C7.45573 4.22005 7.31771 4.08984 7.13281 3.99609C6.94792 3.89974 6.71354 3.85156 6.42969 3.85156C6.16146 3.85156 5.9401 3.89193 5.76562 3.97266C5.59115 4.05339 5.46094 4.16276 5.375 4.30078C5.29167 4.4388 5.25 4.59635 5.25 4.77344C5.25 4.89323 5.27474 5.0026 5.32422 5.10156C5.3763 5.19792 5.45573 5.28776 5.5625 5.37109C5.67188 5.45443 5.8099 5.53125 5.97656 5.60156C6.14583 5.67188 6.34766 5.73958 6.58203 5.80469C6.90495 5.89583 7.18359 5.9974 7.41797 6.10938C7.65234 6.22135 7.84505 6.34766 7.99609 6.48828C8.14974 6.6263 8.26302 6.78385 8.33594 6.96094C8.41146 7.13542 8.44922 7.33333 8.44922 7.55469C8.44922 7.78646 8.40234 7.99609 8.30859 8.18359C8.21484 8.37109 8.08073 8.53125 7.90625 8.66406C7.73177 8.79688 7.52214 8.89974 7.27734 8.97266C7.03516 9.04297 6.76432 9.07812 6.46484 9.07812C6.20182 9.07812 5.94271 9.04167 5.6875 8.96875C5.4349 8.89583 5.20443 8.78646 4.99609 8.64062C4.79036 8.49479 4.625 8.3151 4.5 8.10156C4.3776 7.88542 4.31641 7.63542 4.31641 7.35156H5.06641C5.06641 7.54688 5.10417 7.71484 5.17969 7.85547C5.25521 7.99349 5.35807 8.10807 5.48828 8.19922C5.62109 8.29036 5.77083 8.35807 5.9375 8.40234C6.10677 8.44401 6.28255 8.46484 6.46484 8.46484C6.72786 8.46484 6.95052 8.42839 7.13281 8.35547C7.3151 8.28255 7.45312 8.17839 7.54688 8.04297C7.64323 7.90755 7.69141 7.7474 7.69141 7.5625Z" fill="#F78008"/>
</svg>
