<svg width="26" height="26" viewBox="0 0 26 26" fill="none" xmlns="http://www.w3.org/2000/svg">
<path d="M26 5.77778V23.1111C26 23.9056 25.7174 24.5859 25.1521 25.1521C24.5869 25.7183 23.9065 26.001 23.1111 26H2.88889C2.09444 26 1.41459 25.7174 0.849333 25.1521C0.284074 24.5868 0.000962963 23.9065 0 23.1111V2.88889C0 2.09444 0.283111 1.41459 0.849333 0.849333C1.41556 0.284074 2.09541 0.000962963 2.88889 0H20.2222L26 5.77778ZM13 21.6667C14.2037 21.6667 15.2269 21.2454 16.0694 20.4028C16.912 19.5602 17.3333 18.537 17.3333 17.3333C17.3333 16.1296 16.912 15.1065 16.0694 14.2639C15.2269 13.4213 14.2037 13 13 13C11.7963 13 10.7731 13.4213 9.93056 14.2639C9.08796 15.1065 8.66667 16.1296 8.66667 17.3333C8.66667 18.537 9.08796 19.5602 9.93056 20.4028C10.7731 21.2454 11.7963 21.6667 13 21.6667ZM4.33333 10.1111H17.3333V4.33333H4.33333V10.1111Z" fill="white"/>
</svg>
