<svg width="17" height="16" viewBox="0 0 17 16" fill="none" xmlns="http://www.w3.org/2000/svg">
<path d="M16.5496 14.5256L13.6159 11.6134C14.7547 10.1925 15.3062 8.3889 15.157 6.57352C15.0077 4.75814 14.1692 3.06897 12.8137 1.85334C11.4582 0.637702 9.68886 -0.0120004 7.86942 0.0378239C6.04998 0.0876482 4.31876 0.833212 3.03174 2.12121C1.74472 3.40921 0.999718 5.14175 0.949931 6.96257C0.900145 8.7834 1.54935 10.5541 2.76407 11.9106C3.97878 13.2671 5.66667 14.1063 7.48067 14.2556C9.29466 14.405 11.0969 13.8531 12.5168 12.7134L15.4268 15.6256C15.5003 15.6998 15.5877 15.7587 15.6841 15.7989C15.7804 15.839 15.8838 15.8597 15.9882 15.8597C16.0926 15.8597 16.1959 15.839 16.2923 15.7989C16.3887 15.7587 16.4761 15.6998 16.5496 15.6256C16.6922 15.4781 16.7718 15.2809 16.7718 15.0756C16.7718 14.8704 16.6922 14.6732 16.5496 14.5256ZM8.08061 12.7134C6.98583 12.7134 5.91564 12.3885 5.00536 11.7799C4.09509 11.1712 3.38561 10.306 2.96666 9.2938C2.5477 8.28159 2.43809 7.16778 2.65167 6.09322C2.86525 5.01866 3.39244 4.03161 4.16656 3.2569C4.94069 2.48218 5.92699 1.9546 7.00073 1.74085C8.07447 1.52711 9.18744 1.63681 10.1989 2.05608C11.2103 2.47536 12.0748 3.18537 12.6831 4.09634C13.2913 5.0073 13.6159 6.07831 13.6159 7.17392C13.6159 8.64309 13.0327 10.0521 11.9947 11.091C10.9566 12.1298 9.54867 12.7134 8.08061 12.7134Z" fill="white"/>
</svg>
