<svg width="11" height="11" viewBox="0 0 11 11" fill="none" xmlns="http://www.w3.org/2000/svg">
<circle cx="5.5" cy="5.5" r="5.5" fill="#FF4040"/>
<path d="M8.81341 3.06136C8.87174 3.00489 8.91829 2.93733 8.95032 2.86262C8.98235 2.78791 8.99923 2.70756 8.99997 2.62623C9.00072 2.54491 8.98531 2.46426 8.95464 2.38897C8.92398 2.31369 8.87868 2.24529 8.82138 2.18776C8.76408 2.13022 8.69594 2.08471 8.62092 2.05388C8.5459 2.02305 8.46551 2.00752 8.38444 2.00819C8.30338 2.00885 8.22325 2.02571 8.14875 2.05777C8.07425 2.08984 8.00685 2.13646 7.95051 2.19493L5.50346 4.64885L3.05722 2.19493C3.00133 2.13476 2.93392 2.0865 2.85903 2.05302C2.78414 2.01955 2.70329 2.00155 2.62131 2.0001C2.53933 1.99864 2.45791 2.01377 2.38188 2.04458C2.30586 2.07538 2.2368 2.12123 2.17882 2.17939C2.12085 2.23754 2.07514 2.30682 2.04444 2.38308C2.01373 2.45934 1.99865 2.54103 2.0001 2.62326C2.00154 2.7055 2.01948 2.7866 2.05285 2.86173C2.08622 2.93685 2.13434 3.00447 2.19432 3.06054L4.63893 5.51528L2.19269 7.9692C2.08485 8.0853 2.02614 8.23886 2.02893 8.39753C2.03172 8.5562 2.09579 8.70758 2.20765 8.8198C2.31952 8.93201 2.47043 8.99629 2.6286 8.99909C2.78677 9.00189 2.93985 8.94299 3.05559 8.83481L5.50346 6.38089L7.94969 8.83562C8.06543 8.94381 8.21851 9.0027 8.37668 8.99991C8.53486 8.99711 8.68577 8.93283 8.79763 8.82062C8.90949 8.7084 8.97357 8.55701 8.97636 8.39834C8.97915 8.23968 8.92044 8.08611 8.81259 7.97001L6.36798 5.51528L8.81341 3.06136Z" fill="white"/>
</svg>
